<svg width="24" height="24" viewBox="0 0 24 24" fill="none" xmlns="http://www.w3.org/2000/svg">
<path d="M3.63654 11.2931C3.44907 11.4807 3.34375 11.735 3.34375 12.0001C3.34375 12.2653 3.44907 12.5196 3.63654 12.7071L9.29354 18.3641C9.38578 18.4597 9.49613 18.5358 9.61813 18.5882C9.74014 18.6407 9.87136 18.6682 10.0041 18.6694C10.1369 18.6705 10.2686 18.6452 10.3915 18.595C10.5144 18.5447 10.626 18.4704 10.7199 18.3765C10.8138 18.2826 10.8881 18.171 10.9384 18.0481C10.9886 17.9252 11.0139 17.7935 11.0128 17.6607C11.0116 17.528 10.984 17.3967 10.9316 17.2747C10.8792 17.1527 10.803 17.0424 10.7075 16.9501L6.75754 13.0001L20.0005 13.0001C20.2658 13.0001 20.5201 12.8948 20.7076 12.7073C20.8952 12.5197 21.0005 12.2654 21.0005 12.0001C21.0005 11.7349 20.8952 11.4806 20.7076 11.293C20.5201 11.1055 20.2658 11.0001 20.0005 11.0001L6.75754 11.0001L10.7075 7.05014C10.8897 6.86154 10.9905 6.60894 10.9882 6.34674C10.9859 6.08455 10.8808 5.83373 10.6954 5.64833C10.5099 5.46292 10.2591 5.35775 9.99694 5.35547C9.73474 5.35319 9.48214 5.45399 9.29354 5.63614L3.63654 11.2931Z" fill="black"/>
</svg>
