<svg width="28" height="28" viewBox="0 0 28 28" fill="none" xmlns="http://www.w3.org/2000/svg">
<mask id="mask0_1506_1651" style="mask-type:luminance" maskUnits="userSpaceOnUse" x="0" y="0" width="28" height="28">
<path d="M28 0H0V28H28V0Z" fill="white"/>
</mask>
<g mask="url(#mask0_1506_1651)">
<path d="M17.8608 6.07673L15.653 3.86519C15.0949 3.31177 14.3408 3.00125 13.5548 3.00125C12.7689 3.00125 12.0148 3.31177 11.4567 3.86519L7.03828 8.27893C6.86112 8.4552 6.72467 8.66809 6.63852 8.90268C6.55237 9.13728 6.51861 9.38789 6.5396 9.63691C6.56059 9.88594 6.63582 10.1274 6.76003 10.3442C6.88423 10.5611 7.05438 10.7481 7.25855 10.8923C7.54049 11.0917 7.87782 11.1978 8.22315 11.1956C8.46262 11.1949 8.6996 11.1469 8.92042 11.0542C9.14123 10.9615 9.34153 10.8261 9.50975 10.6557L13.4415 6.73566C13.4718 6.70579 13.5127 6.68906 13.5552 6.68906C13.5979 6.68906 13.6388 6.70579 13.6692 6.73566L15.8747 8.93833C16.1482 9.21516 16.474 9.43494 16.833 9.5849C17.1922 9.73486 17.5775 9.81203 17.9667 9.81193H17.9713C18.3616 9.81254 18.748 9.73585 19.1084 9.58632C19.469 9.43678 19.7961 9.21733 20.0713 8.94066L24.1599 4.85593L24.3404 5.03606C24.4952 5.19301 24.6916 5.30236 24.9067 5.3512C25.1216 5.40004 25.346 5.38633 25.5535 5.31168C25.7608 5.23703 25.9426 5.10457 26.0771 4.92995C26.2116 4.75533 26.2933 4.54585 26.3125 4.32626L26.5926 1.26119V1.25933C26.6075 1.0904 26.5851 0.920253 26.5271 0.760924C26.469 0.601594 26.3766 0.456977 26.2564 0.337306C26.1362 0.217634 25.9913 0.125832 25.8317 0.0683968C25.6721 0.0109607 25.5018 -0.010706 25.3331 0.00492954L22.26 0.27933C22.0416 0.300099 21.8336 0.382533 21.6604 0.517018C21.487 0.651503 21.3555 0.832495 21.2811 1.03888C21.2068 1.24526 21.1926 1.46855 21.2404 1.68266C21.2881 1.89678 21.3957 2.09291 21.5507 2.24819L21.7327 2.43019L18.0884 6.07626C18.0581 6.10598 18.0172 6.12264 17.9748 6.12273C17.9322 6.12282 17.8913 6.10631 17.8608 6.07673ZM22.723 2.76013C22.7664 2.71679 22.8007 2.66532 22.8243 2.60866C22.8478 2.55201 22.8599 2.49129 22.8599 2.42997C22.8599 2.36864 22.8478 2.30791 22.8243 2.25126C22.8007 2.19461 22.7664 2.14314 22.723 2.09979L22.2096 1.58646C22.1789 1.55771 22.1576 1.5204 22.1483 1.47939C22.1392 1.43836 22.1424 1.39552 22.1579 1.35639C22.1712 1.31617 22.1959 1.28069 22.2291 1.25427C22.2622 1.22784 22.3023 1.21161 22.3444 1.20753L25.4216 0.932663C25.454 0.92895 25.4867 0.932651 25.5173 0.943488C25.548 0.954324 25.5758 0.972009 25.5986 0.995197C25.6228 1.01838 25.6416 1.04674 25.6534 1.07817C25.6651 1.1096 25.6697 1.1433 25.6667 1.17673L25.3867 4.23946C25.384 4.28313 25.3683 4.32501 25.3418 4.35975C25.3151 4.39449 25.2788 4.42052 25.2374 4.43453C25.1974 4.4503 25.1535 4.45334 25.1117 4.44322C25.07 4.43312 25.0323 4.41036 25.004 4.37806L24.4907 3.86473C24.4032 3.77738 24.2846 3.72833 24.161 3.72833C24.0373 3.72833 23.9188 3.77738 23.8312 3.86473L19.4133 8.28033C19.2246 8.47027 19 8.62095 18.7527 8.72363C18.5053 8.82631 18.2401 8.87898 17.9723 8.8786H17.9691C17.7024 8.87885 17.4383 8.82609 17.1921 8.72338C16.946 8.62068 16.7228 8.47007 16.5355 8.28033L14.3291 6.07626C14.1236 5.87157 13.8454 5.75662 13.5555 5.75662C13.2655 5.75662 12.9874 5.87157 12.782 6.07626L8.84802 9.99906C8.71714 10.1412 8.54036 10.2326 8.34874 10.2573C8.15713 10.2819 7.96295 10.2383 7.80035 10.1339C7.70627 10.0689 7.62779 9.98383 7.57057 9.88481C7.51336 9.78579 7.47883 9.67531 7.46948 9.56133C7.45998 9.4475 7.47547 9.33295 7.5149 9.22575C7.55432 9.11853 7.61671 9.02123 7.69768 8.94066L12.1166 4.52599C12.4992 4.14647 13.0163 3.9335 13.5552 3.9335C14.0942 3.9335 14.6114 4.14647 14.994 4.52599L17.2008 6.7366C17.4064 6.94107 17.6845 7.05585 17.9744 7.05585C18.2643 7.05585 18.5424 6.94107 18.7479 6.7366L22.723 2.76013ZM26.6 8.866H22.8667C22.4954 8.866 22.1393 9.0135 21.8767 9.27605C21.6142 9.5386 21.4667 9.8947 21.4667 10.266V11.6659H17.7334C17.362 11.6659 17.006 11.8135 16.7434 12.0761C16.4808 12.3386 16.3334 12.6947 16.3334 13.0659V14.4659H13.0667C12.6954 14.4659 12.3393 14.6135 12.0767 14.8761C11.8142 15.1386 11.6667 15.4947 11.6667 15.8659V17.2659H10.6867C10.4963 16.2719 9.67915 14.9327 7.46668 14.9327C5.25422 14.9327 4.43895 16.2719 4.24668 17.2659H1.40002C1.02872 17.2659 0.672619 17.4135 0.410069 17.6761C0.147517 17.9386 1.83576e-05 18.2947 1.83576e-05 18.6659V20.9331C-0.000996765 21.1306 0.0400991 21.3261 0.120568 21.5065C0.201037 21.6869 0.31903 21.8481 0.466685 21.9794V26.5994C0.466685 26.9706 0.614184 27.3267 0.876736 27.5893C1.13929 27.8519 1.49538 27.9994 1.86668 27.9994H13.0667C13.438 27.9994 13.794 27.8519 14.0567 27.5893C14.3192 27.3267 14.4667 26.9706 14.4667 26.5994V24.7327H26.6C26.9713 24.7327 27.3274 24.5851 27.59 24.3226C27.8525 24.0601 28 23.7039 28 23.3327V10.266C28 9.8947 27.8525 9.5386 27.59 9.27605C27.3274 9.0135 26.9713 8.866 26.6 8.866ZM7.46668 15.8659C9.05755 15.8659 9.56248 16.7059 9.72348 17.2659H5.20988C5.37135 16.7059 5.87675 15.8659 7.46668 15.8659ZM0.933352 18.6659C0.933352 18.5422 0.982518 18.4236 1.07004 18.336C1.15755 18.2485 1.27625 18.1994 1.40002 18.1994H13.5334C13.6572 18.1994 13.7758 18.2485 13.8634 18.336C13.9508 18.4236 14 18.5422 14 18.6659V20.9331C14.0015 21.0173 13.9794 21.1002 13.9365 21.1726C13.8936 21.245 13.8314 21.3041 13.7568 21.3433C12.1965 22.0597 10.4958 22.4185 8.77895 22.3938C8.68292 22.1225 8.50517 21.8876 8.27017 21.7215C8.03516 21.5554 7.75447 21.4662 7.46668 21.4662C7.17891 21.4662 6.8982 21.5554 6.6632 21.7215C6.42821 21.8876 6.25045 22.1225 6.15442 22.3938C4.4376 22.4185 2.73689 22.0597 1.17648 21.3433C1.10198 21.3041 1.0398 21.245 0.996878 21.1726C0.953954 21.1002 0.931963 21.0173 0.933352 20.9331V18.6659ZM7.93335 22.8659V23.3327C7.93335 23.4564 7.88418 23.5751 7.79667 23.6626C7.70915 23.7502 7.59045 23.7994 7.46668 23.7994C7.34292 23.7994 7.22422 23.7502 7.13671 23.6626C7.04919 23.5751 7.00002 23.4564 7.00002 23.3327V22.8659C7.00002 22.7422 7.04919 22.6236 7.13671 22.536C7.22422 22.4485 7.34292 22.3994 7.46668 22.3994C7.59045 22.3994 7.70915 22.4485 7.79667 22.536C7.88418 22.6236 7.93335 22.7422 7.93335 22.8659ZM13.0667 27.0659H1.86668C1.74292 27.0659 1.62422 27.0168 1.53671 26.9293C1.44919 26.8418 1.40002 26.7231 1.40002 26.5994V22.4661C2.89232 23.027 4.47247 23.3181 6.06668 23.3257V23.3327C6.06668 23.7039 6.21419 24.0601 6.47674 24.3226C6.73929 24.5851 7.09538 24.7327 7.46668 24.7327C7.83798 24.7327 8.19409 24.5851 8.45664 24.3226C8.71919 24.0601 8.86668 23.7039 8.86668 23.3327V23.3257C10.4609 23.3181 12.041 23.027 13.5334 22.4661V26.5994C13.5334 26.7231 13.4842 26.8418 13.3967 26.9293C13.3092 27.0168 13.1905 27.0659 13.0667 27.0659ZM27.0667 23.3327C27.0667 23.4564 27.0175 23.5751 26.93 23.6626C26.8425 23.7502 26.7238 23.7994 26.6 23.7994H14.4667V21.9794C14.6141 21.8483 14.7319 21.6874 14.8124 21.5074C14.8929 21.3273 14.9341 21.1322 14.9334 20.935V18.6659C14.9334 18.2947 14.7859 17.9386 14.5233 17.6761C14.2607 17.4135 13.9047 17.2659 13.5334 17.2659H12.6V15.8659C12.6 15.7422 12.6492 15.6236 12.7368 15.536C12.8242 15.4485 12.9429 15.3994 13.0667 15.3994H16.8C16.9238 15.3994 17.0425 15.3502 17.13 15.2626C17.2175 15.1751 17.2667 15.0564 17.2667 14.9327V13.0659C17.2667 12.9422 17.3159 12.8236 17.4033 12.736C17.4909 12.6485 17.6095 12.5994 17.7334 12.5994H21.9333C22.0572 12.5994 22.1758 12.5502 22.2634 12.4626C22.3508 12.3751 22.4 12.2564 22.4 12.1327V10.266C22.4 10.1422 22.4492 10.0235 22.5368 9.93602C22.6242 9.8485 22.7429 9.79933 22.8667 9.79933H26.6C26.7238 9.79933 26.8425 9.8485 26.93 9.93602C27.0175 10.0235 27.0667 10.1422 27.0667 10.266V23.3327Z" fill="#4E546D"/>
</g>
</svg>
