<svg width="28" height="28" viewBox="0 0 28 28" fill="none" xmlns="http://www.w3.org/2000/svg">
<g clip-path="url(#clip0_1248_6465)">
<path d="M24.6967 15.1523V14.234C24.9487 14.234 25.1532 14.0284 25.1532 13.7748V11.0199C25.1532 10.7663 24.9487 10.5607 24.6967 10.5607H22.2315L22.1429 10.2158C21.9412 9.42686 21.6275 8.67128 21.2115 7.97231L21.0289 7.66513L22.7793 5.90163C22.9554 5.72408 22.9554 5.43637 22.7793 5.25881L20.8405 3.30596C20.7544 3.22332 20.6398 3.17722 20.5208 3.17722C20.4018 3.17722 20.2873 3.22332 20.2012 3.30596L18.4477 5.06959L18.1424 4.88593C17.4465 4.46746 16.6943 4.15184 15.9089 3.94878L15.5662 3.85911V1.37748C15.5662 1.12389 15.3618 0.918321 15.1097 0.918321H12.3706C12.1185 0.918321 11.9141 1.12389 11.9141 1.37748V3.85695L11.5711 3.94608C10.7867 4.149 10.0354 4.46426 9.34024 4.88217L9.03477 5.06602L7.28173 3.30596C7.1955 3.22268 7.08058 3.17617 6.96103 3.17617C6.84147 3.17617 6.72655 3.22268 6.64032 3.30596L4.70102 5.25597C4.65879 5.29832 4.62527 5.34865 4.60242 5.40404C4.57956 5.45944 4.56779 5.51884 4.56779 5.57882C4.56779 5.63881 4.57956 5.69821 4.60242 5.7536C4.62527 5.809 4.65879 5.85933 4.70102 5.90168L6.45451 7.66509L6.2719 7.97235C5.85603 8.67134 5.54242 9.42692 5.3407 10.2158L5.25112 10.5607H2.78363C2.53149 10.5607 2.32711 10.7663 2.32711 11.0199V13.7748C2.32711 14.0284 2.53149 14.234 2.78363 14.234V15.1523C2.02735 15.1523 1.41406 14.5354 1.41406 13.7748V11.0199C1.41406 10.2592 2.02735 9.64237 2.78363 9.64237H4.54995C4.73823 9.0075 4.99289 8.3945 5.30965 7.81363L4.05422 6.55093C3.79742 6.29321 3.65316 5.94346 3.65316 5.57881C3.65316 5.21414 3.79742 4.86439 4.05422 4.60685L5.99444 2.65542C6.53496 2.1351 7.38719 2.1351 7.92771 2.65542L9.18278 3.91755C9.76036 3.59931 10.3698 3.3435 11.001 3.15443V1.37748C11.001 0.616836 11.6143 0 12.3706 0H15.1097C15.866 0 16.4793 0.616836 16.4793 1.37748V3.15443C17.1105 3.3437 17.7199 3.59968 18.2975 3.91811L19.5529 2.65542C20.0936 2.1351 20.9456 2.1351 21.4864 2.65542L23.4262 4.60629C23.5533 4.73385 23.6541 4.88535 23.7229 5.05214C23.7915 5.21892 23.827 5.39771 23.827 5.57825C23.827 5.75883 23.7917 5.93764 23.7229 6.10445C23.6541 6.27127 23.5533 6.4228 23.4262 6.55038L22.1708 7.81307C22.4873 8.39425 22.7419 9.00742 22.9304 9.64237H24.6967C25.4529 9.64237 26.0662 10.2592 26.0662 11.0199V13.7748C26.0662 14.5354 25.4529 15.1523 24.6967 15.1523Z" fill="#4E546D"/>
<path d="M20.1303 12.3963H19.2172C19.2172 9.35327 16.7644 6.88634 13.739 6.88634C10.7135 6.88634 8.2607 9.35327 8.2607 12.3963H7.34766C7.34766 8.84604 10.2091 5.96802 13.739 5.96802C17.2685 5.96802 20.1303 8.84604 20.1303 12.3963Z" fill="#4E546D"/>
<path d="M13.7422 16.0717C12.2295 16.0717 11.0031 14.8381 11.0031 13.3167C11.0031 11.7952 12.2295 10.5618 13.7422 10.5618C15.255 10.5618 16.4813 11.7952 16.4813 13.3167C16.4797 14.8377 15.2544 16.0701 13.7422 16.0717ZM13.7422 11.4801C12.7337 11.4801 11.9161 12.3024 11.9161 13.3167C11.9161 14.3311 12.7337 15.1534 13.7422 15.1534C14.7507 15.1534 15.5683 14.3311 15.5683 13.3167C15.5683 12.3024 14.7507 11.4801 13.7422 11.4801ZM21.5031 17.9084C19.9903 17.9084 18.7639 16.6747 18.7639 15.1534C18.7639 13.6319 19.9903 12.3984 21.5031 12.3984C23.0158 12.3984 24.2422 13.6319 24.2422 15.1534C24.2406 16.6743 23.0153 17.9068 21.5031 17.9084ZM21.5031 13.3167C20.4946 13.3167 19.677 14.1391 19.677 15.1534C19.677 16.1676 20.4946 16.99 21.5031 16.99C22.5115 16.99 23.3291 16.1676 23.3291 15.1534C23.3291 14.1391 22.5115 13.3167 21.5031 13.3167ZM5.98132 17.9084C4.46854 17.9084 3.24219 16.6747 3.24219 15.1534C3.24219 13.6319 4.46854 12.3984 5.98132 12.3984C7.49423 12.3984 8.72045 13.6319 8.72045 15.1534C8.71885 16.6743 7.49355 17.9068 5.98132 17.9084ZM5.98132 13.3167C4.97286 13.3167 4.15523 14.1391 4.15523 15.1534C4.15523 16.1676 4.97286 16.99 5.98132 16.99C6.98977 16.99 7.8074 16.1676 7.8074 15.1534C7.8074 14.1391 6.98977 13.3167 5.98132 13.3167Z" fill="#4E546D"/>
<path d="M25.642 19.0854C24.9618 18.615 24.155 18.3643 23.3295 18.3665H19.6773C19.4553 18.3686 19.2337 18.3888 19.0148 18.427C18.7226 17.9674 18.3427 17.5708 17.8969 17.2602C17.83 17.2094 17.7597 17.1635 17.6864 17.1227C17.0477 16.7337 16.3152 16.5287 15.5686 16.5298H11.9164C11.2296 16.5274 10.5534 16.7001 9.95094 17.032C9.34849 17.3637 8.8395 17.8436 8.47153 18.427C8.25226 18.3888 8.03027 18.3686 7.80775 18.3665H4.15557C3.33052 18.3643 2.52433 18.6147 1.84425 19.0845C1.29075 19.4632 0.837661 19.9723 0.524407 20.5674C0.211153 21.1626 0.0472213 21.8256 0.046875 22.4989V24.3356C0.0484728 25.5893 0.773749 26.7279 1.90597 27.2531C2.3239 27.451 2.78058 27.5524 3.24253 27.5498H7.80775V26.6314H3.69905V21.5806H2.78601V26.5853C2.61416 26.5506 2.4472 26.4948 2.28885 26.4192C1.89282 26.2356 1.55727 25.9418 1.3218 25.5726C1.08633 25.2035 0.960766 24.7742 0.959919 24.3356V22.4989C0.96047 21.975 1.08827 21.459 1.3322 20.9959C1.57614 20.533 1.92883 20.1368 2.35962 19.8421C2.88815 19.4774 3.51456 19.2829 4.15557 19.2849H7.80775C7.88818 19.2849 7.9657 19.2934 8.04423 19.2989C7.88974 19.7367 7.80979 20.1977 7.80775 20.6624V25.2539C7.80934 26.5213 8.83044 27.5481 10.0904 27.5498H11.4599V20.2032H10.5469V26.6314H10.0904C9.33407 26.6314 8.72079 26.0145 8.72079 25.2539V20.6624C8.72079 18.887 10.1517 17.4482 11.9164 17.4482H15.5686C16.156 17.4486 16.7318 17.6121 17.2327 17.9207C17.2789 17.9461 17.3235 17.9747 17.3659 18.0064C17.7935 18.3009 18.1446 18.6946 18.3894 19.1543C18.6355 19.6185 18.7641 20.1363 18.7643 20.6624V25.2539C18.7643 26.0145 18.1509 26.6314 17.3947 26.6314H16.9382V20.2032H16.0251V27.5498H17.3947C18.6548 27.5481 19.6757 26.5213 19.6773 25.2539V20.6624C19.6752 20.1977 19.5954 19.7368 19.4411 19.2989C19.5199 19.2934 19.5975 19.2849 19.6773 19.2849H23.3295C23.9711 19.2831 24.5979 19.4777 25.1267 19.8429C25.5571 20.1378 25.9094 20.5338 26.1531 20.9967C26.3968 21.4595 26.5245 21.9752 26.5251 22.4989V24.3356C26.5243 24.7757 26.3979 25.2063 26.161 25.5762C25.9241 25.9462 25.5866 26.2401 25.1886 26.4228C25.0326 26.497 24.8683 26.5516 24.6991 26.5853V21.5806H23.786V26.6314H19.6773V27.5498H24.2425C24.7016 27.5527 25.1557 27.4525 25.5714 27.2566C26.7074 26.7331 27.4364 25.5923 27.4382 24.3356V22.4989C27.4378 21.8258 27.2741 21.1631 26.961 20.5681C26.648 19.9732 26.1952 19.4642 25.642 19.0854Z" fill="#4E546D"/>
<path d="M11.9141 26.6304H15.5662V27.5487H11.9141V26.6304Z" fill="#4E546D"/>
</g>
<defs>
<clipPath id="clip0_1248_6465">
<rect width="28" height="28" fill="white"/>
</clipPath>
</defs>
</svg>
