<svg width="28" height="28" viewBox="0 0 28 28" fill="none" xmlns="http://www.w3.org/2000/svg">
<path d="M5.99156 19.7557H4.50756C3.93615 19.7557 3.38809 19.5289 2.98383 19.1251C2.57957 18.7212 2.35216 18.1734 2.35156 17.602V13.7839C2.35215 13.2129 2.57926 12.6655 2.98304 12.2616C3.38682 11.8579 3.93429 11.6308 4.50532 11.6301H5.98932C6.10814 11.6301 6.22209 11.6774 6.30611 11.7614C6.39012 11.8454 6.43732 11.9593 6.43732 12.0781V19.3077C6.43732 19.4262 6.39043 19.5398 6.3069 19.6238C6.22337 19.7078 6.10999 19.7552 5.99156 19.7557ZM4.50756 12.5261C4.17377 12.5261 3.85363 12.6587 3.6174 12.8944C3.38117 13.1303 3.24816 13.4501 3.24756 13.7839V17.602C3.24815 17.9354 3.38086 18.255 3.6166 18.4907C3.85235 18.7264 4.17193 18.8592 4.50532 18.8597H5.54132V12.5261H4.50756Z" fill="#4E546D"/>
<path d="M7.90309 19.7557H5.99097C5.87216 19.7557 5.7582 19.7086 5.67419 19.6246C5.59017 19.5405 5.54297 19.4266 5.54297 19.3077V12.0781C5.54297 11.9593 5.59017 11.8454 5.67419 11.7614C5.7582 11.6774 5.87216 11.6301 5.99097 11.6301H7.90449C8.02331 11.6301 8.13726 11.6774 8.22127 11.7614C8.30529 11.8454 8.35249 11.9593 8.35249 12.0781V19.3077C8.35249 19.3667 8.34086 19.4251 8.31825 19.4796C8.29565 19.534 8.26252 19.5834 8.22078 19.6251C8.17903 19.6667 8.12948 19.6996 8.07496 19.722C8.02045 19.7445 7.96204 19.7559 7.90309 19.7557ZM6.43757 18.8597H7.45509V12.5261H6.43897L6.43757 18.8597ZM23.4932 19.7557H22.0092C21.8904 19.7557 21.7764 19.7086 21.6924 19.6246C21.6084 19.5405 21.5612 19.4266 21.5612 19.3077V12.0781C21.5612 11.9593 21.6084 11.8454 21.6924 11.7614C21.7764 11.6774 21.8904 11.6301 22.0092 11.6301H23.4932C24.0643 11.6308 24.6117 11.8579 25.0155 12.2616C25.4193 12.6655 25.6464 13.2129 25.6469 13.7839V17.602C25.6464 18.1731 25.4193 18.7205 25.0155 19.1243C24.6117 19.5281 24.0643 19.7552 23.4932 19.7557ZM22.4572 18.8597H23.4932C23.8267 18.8592 24.1462 18.7264 24.3819 18.4907C24.6177 18.255 24.7504 17.9354 24.7509 17.602V13.7839C24.7504 13.4505 24.6177 13.1309 24.3819 12.8953C24.1462 12.6595 23.8267 12.5268 23.4932 12.5261H22.4572V18.8597Z" fill="#4E546D"/>
<path d="M22.01 19.7557H20.0964C19.9776 19.7557 19.8637 19.7086 19.7797 19.6246C19.6956 19.5405 19.6484 19.4266 19.6484 19.3077V12.0781C19.6484 11.9593 19.6956 11.8454 19.7797 11.7614C19.8637 11.6774 19.9776 11.6301 20.0964 11.6301H22.01C22.1288 11.6301 22.2427 11.6774 22.3267 11.7614C22.4107 11.8454 22.458 11.9593 22.458 12.0781V19.3077C22.458 19.4266 22.4107 19.5405 22.3267 19.6246C22.2427 19.7086 22.1288 19.7557 22.01 19.7557ZM20.5444 18.8597H21.562V12.5261H20.5444V18.8597Z" fill="#4E546D"/>
<path d="M23.1737 12.5257H21.0146C20.8958 12.5257 20.7818 12.4785 20.6978 12.3945C20.6138 12.3105 20.5666 12.1965 20.5666 12.0777C20.5666 8.53989 17.6885 5.66149 14.1507 5.66149C10.6129 5.66149 7.73477 8.53989 7.73477 12.0777C7.73477 12.1965 7.68757 12.3105 7.60355 12.3945C7.51954 12.4785 7.40559 12.5257 7.28677 12.5257H5.12769C5.00887 12.5257 4.89492 12.4785 4.81091 12.3945C4.72689 12.3105 4.67969 12.1965 4.67969 12.0777C4.67969 9.56584 5.67752 7.15684 7.45368 5.38068C9.22984 3.60453 11.6388 2.60669 14.1507 2.60669C16.6626 2.60669 19.0716 3.60453 20.8477 5.38068C22.6239 7.15684 23.6217 9.56584 23.6217 12.0777C23.6217 12.1965 23.5745 12.3105 23.4905 12.3945C23.4065 12.4785 23.2925 12.5257 23.1737 12.5257ZM21.4492 11.6297H22.7142C22.5992 9.4361 21.6468 7.37031 20.0535 5.85829C18.4601 4.34628 16.3473 3.50335 14.1507 3.50335C11.9541 3.50335 9.84129 4.34628 8.24791 5.85829C6.65456 7.37031 5.70217 9.4361 5.58717 11.6297H6.85221C7.08433 7.80545 10.2682 4.76549 14.1507 4.76549C18.0332 4.76549 21.217 7.80545 21.4492 11.6297ZM15.7338 24.0592C15.6194 24.0589 15.5094 24.0149 15.4265 23.9362C15.3435 23.8574 15.2937 23.7499 15.2875 23.6357C15.2812 23.5215 15.3188 23.4092 15.3928 23.3219C15.4667 23.2345 15.5711 23.1787 15.6848 23.166C20.7707 22.6004 21.5628 19.246 21.5701 19.2116C21.5993 19.0994 21.6708 19.003 21.7696 18.9424C21.8684 18.8819 21.9868 18.8619 22.1 18.8869C22.2131 18.9118 22.3122 18.9795 22.3764 19.0759C22.4407 19.1724 22.4651 19.2899 22.4446 19.4039C22.4353 19.4465 22.2063 20.4545 21.2546 21.5294C20.7035 22.1518 20.0198 22.6743 19.2229 23.082C18.2406 23.5838 17.0834 23.9119 15.7828 24.0564C15.7666 24.0583 15.7502 24.0592 15.7338 24.0592Z" fill="#4E546D"/>
<path d="M14.4871 25.3949H13.8151C13.3648 25.3949 12.9329 25.216 12.6145 24.8976C12.296 24.5791 12.1172 24.1473 12.1172 23.6969C12.1172 23.2467 12.296 22.8148 12.6145 22.4964C12.9329 22.1779 13.3648 21.999 13.8151 21.999H14.4871C14.9374 21.999 15.3693 22.1779 15.6877 22.4964C16.0061 22.8148 16.185 23.2467 16.185 23.6969C16.185 24.1473 16.0061 24.5791 15.6877 24.8976C15.3693 25.216 14.9374 25.3949 14.4871 25.3949ZM13.8151 22.895C13.6024 22.895 13.3985 22.9796 13.248 23.1299C13.0977 23.2803 13.0132 23.4843 13.0132 23.6969C13.0132 23.9097 13.0977 24.1137 13.248 24.264C13.3985 24.4144 13.6024 24.4989 13.8151 24.4989H14.4871C14.6997 24.4989 14.9037 24.4144 15.0541 24.264C15.2046 24.1137 15.289 23.9097 15.289 23.6969C15.289 23.4843 15.2046 23.2803 15.0541 23.1299C14.9037 22.9796 14.6997 22.895 14.4871 22.895H13.8151Z" fill="#4E546D"/>
</svg>
