<svg width="27" height="28" viewBox="0 0 27 28" fill="none" xmlns="http://www.w3.org/2000/svg">
<mask id="mask0_1506_1413" style="mask-type:luminance" maskUnits="userSpaceOnUse" x="0" y="0" width="27" height="28">
<path d="M26.9954 0.328125H0V27.3236H26.9954V0.328125Z" fill="white"/>
</mask>
<g mask="url(#mask0_1506_1413)">
<path d="M15.3011 19.3456C15.0252 19.3715 14.7481 19.3091 14.5098 19.1677C14.4237 19.0795 14.3587 18.973 14.3194 18.8561C14.28 18.7393 14.2676 18.6152 14.2827 18.4929C14.2892 18.2866 14.3138 18.0813 14.3563 17.8793C14.3975 17.6477 14.4507 17.4183 14.5159 17.1922L15.2398 14.7012C15.3145 14.4553 15.3638 14.2024 15.387 13.9466C15.387 13.6704 15.4238 13.4803 15.4238 13.3698C15.4315 13.127 15.3841 12.8854 15.2852 12.6634C15.1865 12.4414 15.0388 12.2445 14.8533 12.0875C14.3909 11.7326 13.8151 11.5581 13.2336 11.5967C12.8168 11.603 12.4031 11.6712 12.0064 11.7992C11.5729 11.9342 11.1168 12.0957 10.6383 12.2839L10.4297 13.0937C10.5708 13.0446 10.7426 12.9895 10.9389 12.928C11.1262 12.8727 11.3203 12.8436 11.5156 12.8422C11.7896 12.8125 12.0654 12.8798 12.2948 13.0324C12.372 13.1244 12.4296 13.2311 12.4645 13.3461C12.4992 13.461 12.5104 13.5818 12.4973 13.7012C12.4966 13.9075 12.4739 14.1132 12.4297 14.3147C12.3868 14.5294 12.3316 14.7564 12.2642 14.9957L11.534 17.4989C11.4752 17.7316 11.4281 17.967 11.3929 18.2045C11.3643 18.4076 11.3499 18.6127 11.35 18.818C11.3485 19.0624 11.403 19.304 11.5094 19.5242C11.6157 19.7442 11.7711 19.9372 11.9635 20.088C12.4329 20.4484 13.0168 20.6271 13.6078 20.5911C14.0237 20.5996 14.4384 20.5394 14.8348 20.4131C15.1825 20.2944 15.6467 20.1248 16.2276 19.9038L16.4239 19.1308C16.2666 19.1961 16.1045 19.2494 15.9392 19.2903C15.73 19.3381 15.5153 19.3567 15.3011 19.3456ZM16.0681 7.53517C15.7341 7.2285 15.2941 7.06353 14.8409 7.07503C14.388 7.06482 13.9485 7.22962 13.6139 7.53517C13.0006 8.064 12.9321 8.98992 13.461 9.60327C13.5081 9.65794 13.5593 9.70905 13.6139 9.75618C14.3126 10.3811 15.3694 10.3811 16.068 9.75618C16.6813 9.22212 16.7456 8.29205 16.2115 7.67873C16.1671 7.62762 16.1191 7.57965 16.0681 7.53517Z" fill="#4E546D"/>
<path d="M13.4978 0.328125C6.04314 0.328125 0 6.37126 0 13.8259C0 21.2805 6.04314 27.3235 13.4978 27.3235C20.9524 27.3235 26.9954 21.2805 26.9954 13.8259C26.9954 6.37126 20.9524 0.328125 13.4978 0.328125ZM13.4978 26.0965C6.72082 26.0965 1.22708 20.6028 1.22708 13.8259C1.22708 7.04895 6.72082 1.55521 13.4978 1.55521C20.2747 1.55521 25.7684 7.04895 25.7684 13.8259C25.7684 20.6028 20.2747 26.0965 13.4978 26.0965Z" fill="#4E546D"/>
</g>
</svg>
