<svg width="24" height="24" viewBox="0 0 24 24" fill="none" xmlns="http://www.w3.org/2000/svg">
<g clip-path="url(#clip0_1125_12375)">
<mask id="mask0_1125_12375" style="mask-type:luminance" maskUnits="userSpaceOnUse" x="0" y="0" width="24" height="24">
<path d="M24 3.05176e-05H0V24H24V3.05176e-05Z" fill="white"/>
</mask>
<g mask="url(#mask0_1125_12375)">
<path d="M14 9.09003L22.81 10.84C23.52 10.99 24 11.59 24 12.3V22.5C24 23.33 23.33 24 22.5 24H13.5C13.78 24 14 23.78 14 23.5V23H22.5C22.77 23 23 22.78 23 22.5V12.3C23 12.07 22.84 11.86 22.61 11.81L14 10.11V9.09003Z" fill="#4E546D"/>
<path d="M19.5 14.0001C19.78 14.0001 20 14.2201 20 14.5001C20 14.7801 19.78 15.0001 19.5 15.0001H17.5C17.22 15.0001 17 14.7801 17 14.5001C17 14.2201 17.22 14.0001 17.5 14.0001H19.5ZM19.5 17.0001C19.78 17.0001 20 17.2201 20 17.5001C20 17.7801 19.78 18.0001 19.5 18.0001H17.5C17.22 18.0001 17 17.7801 17 17.5001C17 17.2201 17.22 17.0001 17.5 17.0001H19.5ZM19.5 20.0001C19.78 20.0001 20 20.2201 20 20.5001C20 20.7801 19.78 21.0001 19.5 21.0001H17.5C17.22 21.0001 17 20.7801 17 20.5001C17 20.2201 17.22 20.0001 17.5 20.0001H19.5ZM14 23.5001C14 23.7801 13.78 24.0001 13.5 24.0001C13.22 24.0001 13 23.7801 13 23.5001V9.50009C13 9.35009 13.07 9.21009 13.18 9.11009C13.3 9.02009 13.45 8.98009 13.6 9.01009L14 9.09009V23.0001V23.5001Z" fill="#4E546D"/>
<path d="M13 23V23.5C13 23.78 13.22 24 13.5 24H9.5C9.78 24 10 23.78 10 23.5V23H13ZM10.5 5.00003C10.78 5.00003 11 5.22003 11 5.50003C11 5.78003 10.78 6.00003 10.5 6.00003H8.5C8.22 6.00003 8 5.78003 8 5.50003C8 5.22003 8.22 5.00003 8.5 5.00003H10.5ZM11 8.50003C11 8.78003 10.78 9.00003 10.5 9.00003H8.5C8.22 9.00003 8 8.78003 8 8.50003C8 8.22003 8.22 8.00003 8.5 8.00003H10.5C10.78 8.00003 11 8.22003 11 8.50003ZM10.5 11C10.78 11 11 11.22 11 11.5C11 11.78 10.78 12 10.5 12H8.5C8.22 12 8 11.78 8 11.5C8 11.22 8.22 11 8.5 11H10.5ZM10.5 14C10.78 14 11 14.22 11 14.5C11 14.78 10.78 15 10.5 15H8.5C8.22 15 8 14.78 8 14.5C8 14.22 8.22 14 8.5 14H10.5ZM6 14.5C6 14.78 5.78 15 5.5 15H3.5C3.22 15 3 14.78 3 14.5C3 14.22 3.22 14 3.5 14H5.5C5.78 14 6 14.22 6 14.5ZM5.5 5.00003C5.78 5.00003 6 5.22003 6 5.50003C6 5.78003 5.78 6.00003 5.5 6.00003H3.5C3.22 6.00003 3 5.78003 3 5.50003C3 5.22003 3.22 5.00003 3.5 5.00003H5.5ZM5.5 8.00003C5.78 8.00003 6 8.22003 6 8.50003C6 8.78003 5.78 9.00003 5.5 9.00003H3.5C3.22 9.00003 3 8.78003 3 8.50003C3 8.22003 3.22 8.00003 3.5 8.00003H5.5ZM5.5 11C5.78 11 6 11.22 6 11.5C6 11.78 5.78 12 5.5 12H3.5C3.22 12 3 11.78 3 11.5C3 11.22 3.22 11 3.5 11H5.5ZM9 18.5C9 18.22 8.77 18 8.5 18H5.5C5.22 18 5 18.22 5 18.5V23H4V18.5C4 17.67 4.67 17 5.5 17H8.5C9.33 17 10 17.67 10 18.5V23H9V18.5Z" fill="#4E546D"/>
<path d="M5 23H10V23.5C10 23.78 9.78 24 9.5 24H4.5C4.22 24 4 23.78 4 23.5V23H5Z" fill="#4E546D"/>
<path d="M1.75 0.200072L12.74 1.87007C13.47 1.99007 14 2.61007 14 3.35007V9.09004L13.6 9.01004C13.45 8.98004 13.3 9.02004 13.18 9.11004C13.07 9.21004 13 9.35004 13 9.50004V3.35007C13 3.10007 12.82 2.89007 12.58 2.85007L1.59 1.19007C1.56 1.18007 1.53 1.18007 1.5 1.18007C1.38 1.18007 1.27 1.22007 1.18 1.30007C1.06 1.40007 1 1.53007 1 1.68007V22.5C1 22.78 1.23 23 1.5 23H4V23.5C4 23.78 4.22 24 4.5 24H1.5C0.67 24 0 23.33 0 22.5V1.68007C0 1.24007 0.19 0.820069 0.53 0.540072C0.87 0.250072 1.31 0.130072 1.75 0.200072Z" fill="#4E546D"/>
</g>
</g>
<defs>
<clipPath id="clip0_1125_12375">
<rect width="24" height="24" fill="white"/>
</clipPath>
</defs>
</svg>
