<svg width="24" height="24" viewBox="0 0 24 24" fill="none" xmlns="http://www.w3.org/2000/svg">
<g clip-path="url(#clip0_1125_12415)">
<path d="M4.08047 17.692H2.61278C2.04764 17.692 1.50561 17.4677 1.10579 17.0683C0.705968 16.6689 0.481056 16.1271 0.480469 15.5619V11.7858C0.481055 11.2211 0.705663 10.6797 1.105 10.2803C1.50435 9.88096 2.0458 9.65638 2.61056 9.65573H4.07825C4.19576 9.65573 4.30846 9.70244 4.39155 9.78552C4.47465 9.86869 4.52133 9.9813 4.52133 10.0988V17.249C4.52133 17.3661 4.47496 17.4785 4.39234 17.5615C4.30972 17.6446 4.1976 17.6915 4.08047 17.692ZM2.61278 10.5419C2.28266 10.5419 1.96603 10.673 1.73239 10.9061C1.49876 11.1394 1.36721 11.4557 1.36662 11.7858V15.5619C1.3672 15.8918 1.49846 16.2078 1.73161 16.4409C1.96477 16.6741 2.28083 16.8053 2.61056 16.8059H3.63518V10.5419H2.61278Z" fill="#4E546D"/>
<path d="M5.9709 17.692H4.0798C3.96229 17.692 3.84959 17.6454 3.76649 17.5623C3.6834 17.4792 3.63672 17.3666 3.63672 17.249V10.0988C3.63672 9.9813 3.6834 9.86869 3.76649 9.78552C3.84959 9.70244 3.96229 9.65573 4.0798 9.65573H5.97229C6.0898 9.65573 6.2025 9.70244 6.28559 9.78552C6.36868 9.86869 6.41536 9.9813 6.41536 10.0988V17.249C6.41536 17.3073 6.40386 17.3651 6.38151 17.4189C6.35915 17.4727 6.32639 17.5216 6.2851 17.5628C6.24381 17.604 6.1948 17.6366 6.14089 17.6587C6.08697 17.681 6.0292 17.6922 5.9709 17.692ZM4.52149 16.8059H5.52783V10.5419H4.52287L4.52149 16.8059ZM21.3897 17.692H19.922C19.8045 17.692 19.6918 17.6454 19.6087 17.5623C19.5256 17.4792 19.4789 17.3666 19.4789 17.249V10.0988C19.4789 9.9813 19.5256 9.86869 19.6087 9.78552C19.6918 9.70244 19.8045 9.65573 19.922 9.65573H21.3897C21.9545 9.65638 22.4959 9.88096 22.8953 10.2803C23.2946 10.6797 23.5192 11.2211 23.5198 11.7858V15.5619C23.5192 16.1268 23.2946 16.6682 22.8953 17.0676C22.4959 17.4669 21.9545 17.6915 21.3897 17.692ZM20.3651 16.8059H21.3897C21.7195 16.8053 22.0355 16.6741 22.2686 16.4409C22.5018 16.2078 22.6331 15.8918 22.6336 15.5619V11.7858C22.6331 11.4561 22.5018 11.14 22.2686 10.907C22.0355 10.6738 21.7195 10.5425 21.3897 10.5419H20.3651V16.8059Z" fill="#4E546D"/>
<path d="M19.9215 17.692H18.029C17.9115 17.692 17.7988 17.6454 17.7157 17.5623C17.6326 17.4792 17.5859 17.3666 17.5859 17.249V10.0988C17.5859 9.9813 17.6326 9.86869 17.7157 9.78552C17.7988 9.70244 17.9115 9.65573 18.029 9.65573H19.9215C20.039 9.65573 20.1517 9.70244 20.2348 9.78552C20.3179 9.86869 20.3646 9.9813 20.3646 10.0988V17.249C20.3646 17.3666 20.3179 17.4792 20.2348 17.5623C20.1517 17.6454 20.039 17.692 19.9215 17.692ZM18.4721 16.8059H19.4784V10.5419H18.4721V16.8059Z" fill="#4E546D"/>
<path d="M21.0721 10.542H18.9367C18.8192 10.542 18.7065 10.4953 18.6233 10.4122C18.5402 10.3291 18.4936 10.2164 18.4936 10.0989C18.4936 6.59997 15.6471 3.7532 12.1482 3.7532C8.64925 3.7532 5.80276 6.59997 5.80276 10.0989C5.80276 10.2164 5.75608 10.3291 5.67298 10.4122C5.58989 10.4953 5.47719 10.542 5.35968 10.542H3.22433C3.10681 10.542 2.99411 10.4953 2.91103 10.4122C2.82793 10.3291 2.78125 10.2164 2.78125 10.0989C2.78125 7.61462 3.76812 5.23211 5.52475 3.47547C7.2814 1.71884 9.66393 0.731964 12.1482 0.731964C14.6324 0.731964 17.0149 1.71884 18.7716 3.47547C20.5282 5.23211 21.5151 7.61462 21.5151 10.0989C21.5151 10.2164 21.4684 10.3291 21.3853 10.4122C21.3022 10.4953 21.1896 10.542 21.0721 10.542ZM19.3665 9.65584H20.6176C20.5038 7.48634 19.5619 5.44324 17.9861 3.94784C16.4102 2.45244 14.3206 1.61877 12.1482 1.61877C9.97575 1.61877 7.88611 2.45244 6.31026 3.94784C4.73441 5.44324 3.79249 7.48634 3.67876 9.65584H4.9299C5.15947 5.8736 8.30836 2.86704 12.1482 2.86704C15.988 2.86704 19.1369 5.8736 19.3665 9.65584ZM13.7139 21.9487C13.6008 21.9485 13.492 21.9049 13.41 21.8271C13.3278 21.7492 13.2787 21.6428 13.2724 21.5299C13.2662 21.4169 13.3035 21.3059 13.3765 21.2195C13.4497 21.1331 13.553 21.0779 13.6655 21.0653C18.6955 20.506 19.4789 17.1884 19.4861 17.1544C19.5149 17.0434 19.5856 16.9481 19.6834 16.8881C19.781 16.8283 19.8982 16.8086 20.0101 16.8332C20.1219 16.8579 20.22 16.9249 20.2836 17.0202C20.3471 17.1156 20.3713 17.2318 20.3509 17.3446C20.3418 17.3867 20.1153 18.3836 19.174 19.4467C18.629 20.0623 17.9528 20.5791 17.1647 20.9823C16.1932 21.4785 15.0487 21.8031 13.7624 21.946C13.7462 21.9478 13.7301 21.9487 13.7139 21.9487Z" fill="#4E546D"/>
<path d="M12.4806 23.2682H11.816C11.3706 23.2682 10.9435 23.0913 10.6285 22.7764C10.3136 22.4614 10.1367 22.0343 10.1367 21.5889C10.1367 21.1436 10.3136 20.7164 10.6285 20.4016C10.9435 20.0866 11.3706 19.9097 11.816 19.9097H12.4806C12.926 19.9097 13.3531 20.0866 13.668 20.4016C13.9829 20.7164 14.1599 21.1436 14.1599 21.5889C14.1599 22.0343 13.9829 22.4614 13.668 22.7764C13.3531 23.0913 12.926 23.2682 12.4806 23.2682ZM11.816 20.7958C11.6056 20.7958 11.4039 20.8795 11.2551 21.0282C11.1064 21.1769 11.0229 21.3787 11.0229 21.5889C11.0229 21.7993 11.1064 22.0011 11.2551 22.1498C11.4039 22.2985 11.6056 22.382 11.816 22.382H12.4806C12.6909 22.382 12.8927 22.2985 13.0414 22.1498C13.1902 22.0011 13.2737 21.7993 13.2737 21.5889C13.2737 21.3787 13.1902 21.1769 13.0414 21.0282C12.8927 20.8795 12.6909 20.7958 12.4806 20.7958H11.816Z" fill="#4E546D"/>
</g>
<defs>
<clipPath id="clip0_1125_12415">
<rect width="24" height="24" fill="white"/>
</clipPath>
</defs>
</svg>
