<svg width="24" height="25" viewBox="0 0 24 25" fill="none" xmlns="http://www.w3.org/2000/svg">
<path d="M8 4.19922V16.1992C8 16.7297 8.21071 17.2384 8.58579 17.6134C8.96086 17.9885 9.46957 18.1992 10 18.1992H18C18.5304 18.1992 19.0391 17.9885 19.4142 17.6134C19.7893 17.2384 20 16.7297 20 16.1992V7.44122C20 7.17478 19.9467 6.91103 19.8433 6.66546C19.7399 6.4199 19.5885 6.19746 19.398 6.01122L16.083 2.76922C15.7094 2.40388 15.2076 2.19928 14.685 2.19922H10C9.46957 2.19922 8.96086 2.40993 8.58579 2.78501C8.21071 3.16008 8 3.66879 8 4.19922V4.19922Z" stroke="#848A96" stroke-width="2" stroke-linecap="round" stroke-linejoin="round"/>
<path d="M16 18.1992V20.1992C16 20.7297 15.7893 21.2384 15.4142 21.6134C15.0391 21.9885 14.5304 22.1992 14 22.1992H6C5.46957 22.1992 4.96086 21.9885 4.58579 21.6134C4.21071 21.2384 4 20.7297 4 20.1992V9.19922C4 8.66879 4.21071 8.16008 4.58579 7.78501C4.96086 7.40993 5.46957 7.19922 6 7.19922H8" stroke="#848A96" stroke-width="2" stroke-linecap="round" stroke-linejoin="round"/>
</svg>
