<svg width="40" height="41" viewBox="0 0 40 41" fill="none" xmlns="http://www.w3.org/2000/svg">
<path d="M20.0001 18.5842C23.0646 18.5842 25.5578 16.091 25.5578 13.0265C25.5578 9.96198 23.0646 7.46875 20.0001 7.46875C16.9356 7.46875 14.4424 9.96198 14.4424 13.0265C14.4424 16.091 16.9356 18.5842 20.0001 18.5842ZM20.0001 9.81709C21.7697 9.81709 23.2095 11.2569 23.2095 13.0265C23.2095 14.7961 21.7697 16.2359 20.0001 16.2359C18.2305 16.2359 16.7907 14.7961 16.7907 13.0265C16.7907 11.2569 18.2305 9.81709 20.0001 9.81709Z" fill="#242733"/>
<path d="M37.456 7.87479L39.9609 5.3699V0.5H37.6126V4.39722L35.1077 6.90211V11.8503H32.4462V9.3454H29.909C29.8178 9.09969 29.7174 8.85734 29.608 8.61906L31.4023 6.82485L26.1997 1.62227L24.4054 3.41648C24.1672 3.30712 23.9248 3.20661 23.6791 3.11542V0.578278H16.321V3.1155C16.0753 3.20669 15.8329 3.30712 15.5946 3.41656L13.8004 1.62227L8.59778 6.82485L10.392 8.61906C10.2826 8.85734 10.1822 9.09969 10.091 9.3454H7.55386V11.8503H4.89241V6.90211L2.38752 4.39722V0.5H0.0391846V5.3699L2.54408 7.87479V28.1321H0.0391846V40.5H9.9022V35.4902H13.8161V40.5H26.184V35.4902H30.0979V40.5H39.9609V28.1321H37.456C37.456 27.6167 37.456 8.38939 37.456 7.87479ZM9.9022 11.6937H11.8394C12.3099 9.98493 12.2862 9.95933 13.2893 8.19526L11.9189 6.82485L13.8004 4.94329L15.1708 6.3137C16.7053 5.44121 16.7099 5.40325 18.6693 4.86399V2.92661H21.3308V4.86399C23.0353 5.33311 23.0664 5.31135 24.8292 6.31378L26.1997 4.94329L28.0812 6.82485L26.7108 8.19526C27.5837 9.73045 27.6212 9.73444 28.1607 11.6937H30.0979V14.3552H28.1607C27.6902 16.064 27.7139 16.0896 26.7108 17.8537L28.0812 19.2241L26.1997 21.1056L24.8292 19.7352C23.2941 20.6081 23.2901 20.6456 21.3308 21.1851V23.1223H18.6693V21.1851C16.9605 20.7146 16.9349 20.7383 15.1708 19.7352L13.8004 21.1056L11.9189 19.2241L13.2893 17.8537C12.4163 16.3185 12.3789 16.3145 11.8394 14.3552H9.9022V11.6937ZM7.55386 38.1517H2.38752V30.4804H7.55386V38.1517ZM9.9022 33.1419V28.1321H4.89241V14.1986H7.55386V16.7035H10.0911C10.1823 16.9492 10.2827 17.1916 10.3921 17.4299L8.59778 19.2241L13.8004 24.4267L15.5946 22.6324C15.8328 22.7418 16.0752 22.8422 16.3209 22.9334V25.4706H18.8258V28.1321H13.816V33.1419H9.9022ZM23.8357 38.1517H16.1644V30.4804H23.8357V38.1517ZM37.6126 38.1517H32.4462V30.4804H37.6126V38.1517ZM30.0979 28.1321V33.1419H26.184V28.1321H21.1742V25.4706H23.6791V22.9334C23.9248 22.8422 24.1672 22.7418 24.4054 22.6324L26.1997 24.4267L31.4022 19.2241L29.608 17.4299C29.7174 17.1916 29.8178 16.9492 29.909 16.7035H32.4462V14.1986H35.1077V28.1321H30.0979Z" fill="#242733"/>
<path d="M18.8259 33.1406H21.1743V35.489H18.8259V33.1406Z" fill="#242733"/>
</svg>
