<svg width="24" height="24" viewBox="0 0 24 24" fill="none" xmlns="http://www.w3.org/2000/svg">
<g clip-path="url(#clip0_1091_6536)">
<path d="M22.5938 15.5904V2.10938C22.5938 0.946266 21.6475 0 20.4844 0H4.96875C3.80564 0 2.85938 0.946266 2.85938 2.10938V2.85938H2.10938C0.946266 2.85938 0 3.80564 0 4.96875C0 6.13186 0.946266 7.07812 2.10938 7.07812H2.85938V9.89062H2.10938C0.946266 9.89062 0 10.8369 0 12C0 13.1631 0.946266 14.1094 2.10938 14.1094H2.85938V16.9219H2.10938C0.946266 16.9219 0 17.8681 0 19.0312C0 20.1944 0.946266 21.1406 2.10938 21.1406H2.85938V21.8438C2.85938 22.4041 3.07486 22.9381 3.46613 23.3475C3.86841 23.7683 4.40208 24 4.96875 24H19.0781C21.792 24 24 21.771 24 19.0312C24 17.6933 23.4631 16.4785 22.5938 15.5904ZM2.10938 5.67188C1.72167 5.67188 1.40625 5.35645 1.40625 4.96875C1.40625 4.58105 1.72167 4.26562 2.10938 4.26562H3.5625C3.9502 4.26562 4.26562 4.58105 4.26562 4.96875C4.26562 5.35645 3.9502 5.67188 3.5625 5.67188H2.10938ZM2.10938 12.7031C1.72167 12.7031 1.40625 12.3877 1.40625 12C1.40625 11.6123 1.72167 11.2969 2.10938 11.2969H3.5625C3.9502 11.2969 4.26562 11.6123 4.26562 12C4.26562 12.3877 3.9502 12.7031 3.5625 12.7031H2.10938ZM3.5625 19.7344H2.10938C1.72167 19.7344 1.40625 19.419 1.40625 19.0312C1.40625 18.6435 1.72167 18.3281 2.10938 18.3281H3.5625C3.9502 18.3281 4.26562 18.6435 4.26562 19.0312C4.26562 19.419 3.9502 19.7344 3.5625 19.7344ZM4.96875 22.5938C4.59422 22.5938 4.26562 22.2433 4.26562 21.8438V21.0197C5.08402 20.7294 5.67188 19.9479 5.67188 19.0312C5.67188 18.1146 5.08402 17.3331 4.26562 17.0428V13.9884C5.08402 13.6982 5.67188 12.9166 5.67188 12C5.67188 11.0834 5.08402 10.3018 4.26562 10.0116V6.95719C5.08402 6.66694 5.67188 5.88539 5.67188 4.96875C5.67188 4.05211 5.08402 3.27056 4.26562 2.98031V2.10938C4.26562 1.72167 4.58105 1.40625 4.96875 1.40625H20.4844C20.8721 1.40625 21.1875 1.72167 21.1875 2.10938V14.5849C20.5478 14.2802 19.8326 14.1094 19.0781 14.1094C16.3642 14.1094 14.1562 16.3173 14.1562 19.0312C14.1562 20.4272 14.7297 21.6903 15.6509 22.5938H4.96875ZM19.0781 22.5938C17.1396 22.5938 15.5625 20.9956 15.5625 19.0312C15.5625 17.0927 17.1396 15.5156 19.0781 15.5156C21.0166 15.5156 22.5938 17.0927 22.5938 19.0312C22.5938 20.9956 21.0166 22.5938 19.0781 22.5938Z" fill="#4E546D"/>
<path d="M19.0781 5.67188H14.8594C14.4711 5.67188 14.1562 5.98669 14.1562 6.375C14.1562 6.76331 14.4711 7.07812 14.8594 7.07812H19.0781C19.4664 7.07812 19.7812 6.76331 19.7812 6.375C19.7812 5.98669 19.4664 5.67188 19.0781 5.67188Z" fill="#4E546D"/>
<path d="M19.0781 11.2969H14.8594C14.4711 11.2969 14.1562 11.6117 14.1562 12C14.1562 12.3883 14.4711 12.7031 14.8594 12.7031H19.0781C19.4664 12.7031 19.7812 12.3883 19.7812 12C19.7812 11.6117 19.4664 11.2969 19.0781 11.2969Z" fill="#4E546D"/>
<path d="M20.4844 18.3281H19.7812V17.625C19.7812 17.2367 19.4664 16.9219 19.0781 16.9219C18.6898 16.9219 18.375 17.2367 18.375 17.625V19.0312C18.375 19.4196 18.6898 19.7344 19.0781 19.7344H20.4844C20.8727 19.7344 21.1875 19.4196 21.1875 19.0312C21.1875 18.6429 20.8727 18.3281 20.4844 18.3281Z" fill="#4E546D"/>
<path d="M12.4995 4.47156C12.225 4.19697 11.7798 4.19697 11.5052 4.47161L9.18988 6.78691L8.08312 5.68014C7.80857 5.40555 7.36335 5.40555 7.08876 5.68014C6.81416 5.95474 6.81416 6.39991 7.08876 6.6745L8.69273 8.27847C8.82998 8.41577 9.00993 8.48439 9.18988 8.48439C9.36984 8.48439 9.54979 8.41577 9.68704 8.27842L12.4995 5.46592C12.7741 5.19133 12.7741 4.74616 12.4995 4.47156Z" fill="#4E546D"/>
<path d="M12.4995 10.0966C12.225 9.82197 11.7798 9.82197 11.5052 10.0966L9.18988 12.4119L8.08312 11.3051C7.80857 11.0305 7.36335 11.0305 7.08876 11.3051C6.81416 11.5797 6.81416 12.0249 7.08876 12.2995L8.69273 13.9035C8.82998 14.0408 9.00993 14.1094 9.18988 14.1094C9.36984 14.1094 9.54979 14.0408 9.68704 13.9034L12.4995 11.0909C12.7741 10.8163 12.7741 10.3712 12.4995 10.0966Z" fill="#4E546D"/>
<path d="M12.4995 15.7216C12.225 15.447 11.7798 15.447 11.5052 15.7216L9.18988 18.0369L8.08312 16.9301C7.80857 16.6555 7.36335 16.6555 7.08876 16.9301C6.81416 17.2047 6.81416 17.6499 7.08876 17.9245L8.69273 19.5285C8.82998 19.6658 9.00993 19.7344 9.18988 19.7344C9.36984 19.7344 9.54979 19.6658 9.68704 19.5284L12.4995 16.7159C12.7741 16.4413 12.7741 15.9962 12.4995 15.7216Z" fill="#4E546D"/>
</g>
<defs>
<clipPath id="clip0_1091_6536">
<rect width="24" height="24" fill="white"/>
</clipPath>
</defs>
</svg>
