<svg width="40" height="35" viewBox="0 0 40 35" fill="none" xmlns="http://www.w3.org/2000/svg">
<path d="M40 17.2291V0.968906H34.3818V5.88062H25.481V0.554688H23.1373V6.02414C21.3909 6.25383 19.6792 6.75781 18.0916 7.51781H7.96641L4.36477 5.93906V3.01055H2.02102V5.88055H0V21.3221H2.02102V25.062H4.36477V21.3221H6.43687V20.1502C6.43687 17.6367 8.4818 15.5918 10.9953 15.5918H14.2698C15.4873 15.5918 16.6321 16.0659 17.4931 16.927C18.3541 17.7879 18.8283 18.9327 18.8283 20.1502V27.9242H0V34.4347H40V27.9242H33.4512V12.3173H34.3818V17.2291H40ZM36.7255 3.31266H37.6562V14.8853H36.7255V3.31266ZM14.2697 13.2481H10.9952C7.58867 13.2481 4.75063 15.7286 4.19258 18.9784H2.34375V8.2243H3.74031L7.47523 9.86156H18.6395L18.8869 9.73789C20.8671 8.74773 23.0841 8.22437 25.2981 8.22437H31.1073V27.9243H21.172V20.1503C21.172 16.3445 18.0756 13.2481 14.2697 13.2481ZM37.6562 30.268V32.0909H2.34375V30.268H37.6562ZM33.4512 9.97359V8.2243H34.3818V9.97359H33.4512Z" fill="#242733"/>
</svg>
