<svg width="28" height="28" viewBox="0 0 28 28" fill="none" xmlns="http://www.w3.org/2000/svg">
<g clip-path="url(#clip0_1248_6277)">
<mask id="mask0_1248_6277" style="mask-type:luminance" maskUnits="userSpaceOnUse" x="0" y="0" width="28" height="28">
<path d="M28 0H0V28H28V0Z" fill="white"/>
</mask>
<g mask="url(#mask0_1248_6277)">
<path d="M21.7953 26.3877H6.21094C6.12392 26.3877 6.04047 26.3531 5.97892 26.2917C5.91739 26.2301 5.88281 26.1466 5.88281 26.0596C5.88281 25.9726 5.91739 25.8892 5.97892 25.8276C6.04047 25.7661 6.12392 25.7315 6.21094 25.7315H21.7953C21.8824 25.7315 21.9658 25.7661 22.0273 25.8276C22.0889 25.8892 22.1235 25.9726 22.1235 26.0596C22.1235 26.1466 22.0889 26.2301 22.0273 26.2917C21.9658 26.3531 21.8824 26.3877 21.7953 26.3877ZM13.9984 4.15422C13.7057 4.15443 13.4181 4.07747 13.1646 3.9311C12.2813 3.41965 11.0687 2.5941 10.3086 1.56422C10.2826 1.52958 10.2637 1.49013 10.253 1.44814C10.2423 1.40616 10.24 1.36247 10.2463 1.3196C10.2526 1.27674 10.2673 1.23554 10.2896 1.19839C10.3119 1.16124 10.3413 1.12887 10.3762 1.10315C10.411 1.07743 10.4506 1.05886 10.4927 1.04853C10.5348 1.0382 10.5785 1.0363 10.6213 1.04294C10.6641 1.04959 10.7052 1.06465 10.7421 1.08725C10.7791 1.10985 10.8112 1.13954 10.8366 1.17462C11.3774 1.90722 12.3209 2.68399 13.4934 3.36212C13.647 3.4507 13.8212 3.49732 13.9986 3.49732C14.176 3.49732 14.3501 3.4507 14.5037 3.36212C15.6761 2.68399 16.6195 1.90635 17.1602 1.17462C17.1857 1.13954 17.2177 1.10985 17.2547 1.08725C17.2917 1.06465 17.3328 1.04959 17.3757 1.04294C17.4184 1.0363 17.4622 1.0382 17.5042 1.04853C17.5463 1.05886 17.5859 1.07743 17.6208 1.10315C17.6557 1.12887 17.6851 1.16124 17.7073 1.19839C17.7296 1.23554 17.7443 1.27674 17.7506 1.3196C17.7569 1.36247 17.7546 1.40616 17.7439 1.44814C17.7332 1.49013 17.7143 1.52958 17.6883 1.56422C16.9282 2.5941 15.7157 3.41965 14.8323 3.9311C14.5787 4.07747 14.2912 4.15443 13.9984 4.15422ZM14.5195 8.59069H13.4774C13.2523 8.59039 13.0364 8.50084 12.8772 8.34164C12.718 8.18245 12.6285 7.96662 12.6282 7.74149V5.02287C12.6282 4.93585 12.6628 4.8524 12.7243 4.79085C12.7858 4.72932 12.8693 4.69474 12.9563 4.69474C13.0433 4.69474 13.1268 4.72932 13.1883 4.79085C13.2499 4.8524 13.2844 4.93585 13.2844 5.02287V7.74149C13.2845 7.79265 13.3048 7.84169 13.341 7.87787C13.3772 7.91403 13.4262 7.93438 13.4774 7.93444H14.5195C14.6065 7.93444 14.69 7.969 14.7515 8.03053C14.8131 8.09208 14.8477 8.17553 14.8477 8.26256C14.8477 8.34958 14.8131 8.43305 14.7515 8.49458C14.69 8.55611 14.6065 8.59069 14.5195 8.59069ZM15.0406 7.63212C14.9535 7.63212 14.8701 7.59756 14.8085 7.53601C14.747 7.47448 14.7124 7.39102 14.7124 7.30399V5.02287C14.7124 4.93585 14.747 4.8524 14.8085 4.79085C14.8701 4.72932 14.9535 4.69474 15.0406 4.69474C15.1275 4.69474 15.211 4.72932 15.2726 4.79085C15.3342 4.8524 15.3686 4.93585 15.3686 5.02287V7.30399C15.3686 7.39102 15.3342 7.47448 15.2726 7.53601C15.211 7.59756 15.1275 7.63212 15.0406 7.63212Z" fill="#4E546D"/>
<path d="M13.9967 6.28641C14.2063 6.28641 14.3763 6.11649 14.3763 5.90688C14.3763 5.69728 14.2063 5.52734 13.9967 5.52734C13.7871 5.52734 13.6172 5.69728 13.6172 5.90688C13.6172 6.11649 13.7871 6.28641 13.9967 6.28641Z" fill="#4E546D"/>
<path d="M27.8048 11.4062L24.6984 5.49142C24.1141 4.35942 23.1387 3.47794 21.9536 3.01058C21.4363 2.81085 20.0306 2.32085 19.5498 2.15374C19.5205 2.07191 19.4804 1.99442 19.4304 1.92339L18.6177 0.772544C18.202 0.184325 17.7241 0.1642 17.4775 0.204232C16.3253 0.384944 15.16 0.469309 13.9938 0.45645C12.8297 0.469484 11.6667 0.385117 10.5167 0.204232C10.2693 0.1642 9.79178 0.184325 9.37637 0.772982L8.56371 1.92339C8.51376 1.99447 8.47358 2.07195 8.44428 2.15374C7.96171 2.32129 6.55755 2.80999 6.04044 3.01058C4.85522 3.4779 3.87983 4.35939 3.29534 5.49142L0.189309 11.4062C0.139386 11.5013 0.110026 11.6058 0.103139 11.713C0.096251 11.8202 0.111989 11.9276 0.14933 12.0283C0.186671 12.129 0.24478 12.2207 0.319881 12.2975C0.394983 12.3743 0.485396 12.4344 0.585247 12.4739L5.49225 14.4621L4.72903 26.9721C4.7227 27.0762 4.73776 27.1807 4.77331 27.2789C4.80884 27.3771 4.8641 27.467 4.93567 27.5431C5.00724 27.6191 5.09362 27.6798 5.18949 27.7212C5.28535 27.7626 5.38868 27.7841 5.49312 27.7841H22.501C22.6054 27.7841 22.7088 27.7626 22.8047 27.7212C22.9006 27.6798 22.9869 27.6191 23.0585 27.543C23.13 27.467 23.1853 27.3769 23.2209 27.2788C23.2563 27.1805 23.2714 27.0761 23.265 26.9718L22.5023 14.4678L27.4046 12.4772C27.5052 12.4381 27.5962 12.3782 27.6719 12.3015C27.7476 12.2248 27.8063 12.1329 27.844 12.032C27.8818 11.931 27.8979 11.8232 27.891 11.7157C27.8843 11.6081 27.8549 11.5032 27.8048 11.4077V11.4062ZM9.09965 2.30204L9.91253 1.1512C10.0993 0.886732 10.2579 0.846262 10.35 0.846262C10.3708 0.846378 10.3915 0.848281 10.4119 0.85195C11.5963 1.04054 12.7946 1.12778 13.9938 1.1127C15.1954 1.12816 16.396 1.04093 17.5828 0.85195C17.6466 0.841669 17.841 0.810169 18.0815 1.1512L18.8945 2.30204C18.9268 2.34923 18.9467 2.40392 18.952 2.46091C18.9575 2.5179 18.9482 2.57533 18.9253 2.62776C18.4784 3.67797 17.8109 4.61978 16.9679 5.38926C16.8253 5.51703 16.6395 5.58606 16.448 5.58249C16.2564 5.57892 16.0735 5.50301 15.9356 5.37001L15.2196 4.74526C14.8804 4.45091 14.4462 4.28886 13.997 4.28886C13.5478 4.28886 13.1137 4.45091 12.7744 4.74526L12.0501 5.37701C11.9122 5.50746 11.7302 5.58116 11.5403 5.58343C11.3505 5.5857 11.1668 5.51637 11.0258 5.38926C10.183 4.6197 9.51561 3.6779 9.0688 2.62776C9.04579 2.57533 9.03653 2.5179 9.04194 2.4609C9.04734 2.4039 9.06721 2.34922 9.09965 2.30204ZM27.2292 11.8006C27.2235 11.8158 27.2145 11.8295 27.2029 11.8409C27.1913 11.8522 27.1774 11.8609 27.162 11.8662L22.459 13.7766L22.4229 13.1859L26.5814 11.5016C26.6604 11.4677 26.723 11.4043 26.7556 11.3249C26.7882 11.2455 26.7885 11.1564 26.7563 11.0768C26.7241 10.9972 26.6619 10.9335 26.5831 10.8992C26.5044 10.8649 26.4154 10.8628 26.3352 10.8934L22.3809 12.4949L22.0908 7.71195C22.0881 7.66885 22.0771 7.62671 22.0582 7.58791C22.0393 7.5491 22.0128 7.51441 21.9805 7.48579C21.9481 7.45719 21.9106 7.43522 21.8697 7.42115C21.8289 7.4071 21.7857 7.40122 21.7426 7.40383C21.6995 7.40647 21.6574 7.41755 21.6186 7.43648C21.5798 7.4554 21.5451 7.48177 21.5165 7.5141C21.4878 7.54642 21.466 7.58407 21.4518 7.62489C21.4378 7.6657 21.432 7.70889 21.4345 7.75199L22.6095 27.0114C22.6103 27.0262 22.6082 27.0412 22.6031 27.0552C22.598 27.0694 22.59 27.0821 22.5798 27.093C22.5696 27.1039 22.5573 27.1125 22.5436 27.1184C22.5298 27.1244 22.515 27.1273 22.5 27.1273H5.49312C5.47818 27.1273 5.46341 27.1244 5.44969 27.1184C5.43597 27.1125 5.42361 27.1039 5.41336 27.093C5.40311 27.0821 5.3952 27.0694 5.39011 27.0552C5.38501 27.0412 5.38286 27.0262 5.38375 27.0114L6.55953 7.75199C6.56483 7.66496 6.53535 7.57939 6.47757 7.5141C6.4198 7.44882 6.33844 7.40915 6.25142 7.40383C6.16439 7.39853 6.07882 7.42801 6.01354 7.48579C5.94825 7.54358 5.90858 7.62492 5.90328 7.71195L5.61212 12.4947L1.65778 10.8932C1.61765 10.876 1.57451 10.867 1.53087 10.8667C1.48722 10.8664 1.44394 10.8747 1.40357 10.8913C1.3632 10.908 1.32655 10.9325 1.29577 10.9634C1.26499 10.9944 1.2407 11.0312 1.22431 11.0716C1.20792 11.1121 1.19977 11.1554 1.20034 11.199C1.2009 11.2427 1.21017 11.2858 1.2276 11.3258C1.24503 11.3658 1.27027 11.402 1.30184 11.4321C1.33341 11.4623 1.37068 11.4858 1.41146 11.5014L5.57012 13.1857L5.53425 13.7709L0.828277 11.864C0.813888 11.8585 0.800843 11.8499 0.790001 11.8389C0.779158 11.8279 0.770765 11.8148 0.765372 11.8003C0.75998 11.7858 0.757709 11.7704 0.758711 11.755C0.759712 11.7396 0.763964 11.7246 0.771184 11.7109L3.87744 5.79592C4.38811 4.80469 5.24108 4.03242 6.278 3.62242C6.71855 3.45245 7.85846 3.05367 8.45259 2.84564C8.45784 2.85964 8.46155 2.87385 8.46746 2.88742C8.95212 4.02451 9.67579 5.04399 10.5893 5.87664C10.8503 6.11372 11.1908 6.24402 11.5434 6.24167C11.8959 6.23931 12.2347 6.10449 12.4925 5.86395L13.2084 5.23899C13.4281 5.04871 13.709 4.94399 13.9996 4.94399C14.2903 4.94399 14.5711 5.04871 14.7909 5.23899L15.499 5.85695C15.7565 6.09992 16.0961 6.23689 16.4502 6.24055C16.8043 6.24419 17.1466 6.11425 17.4091 5.87664C18.3227 5.04399 19.0464 4.02451 19.531 2.88742C19.5369 2.87385 19.5406 2.85964 19.5459 2.84585C20.14 3.05279 21.2799 3.45245 21.7205 3.62242C22.7573 4.03242 23.6104 4.80469 24.1209 5.79592L27.2273 11.7109C27.2338 11.7249 27.2375 11.7401 27.2379 11.7556C27.2382 11.771 27.2352 11.7864 27.2292 11.8006Z" fill="#4E546D"/>
</g>
</g>
<defs>
<clipPath id="clip0_1248_6277">
<rect width="28" height="28" fill="white"/>
</clipPath>
</defs>
</svg>
