<svg width="15" height="21" viewBox="0 0 15 21" fill="none" xmlns="http://www.w3.org/2000/svg">
<g clip-path="url(#clip0_455_15727)">
<path d="M10.6688 12.408L7.0918 19.4104C8.84995 17.5613 12.1927 14.0752 12.6392 13.5296C12.912 13.1961 14.0336 11.6634 12.9726 10.9833C12.0269 10.377 11.0326 11.7714 10.6688 12.408Z" fill="url(#paint0_linear_455_15727)" stroke="#242733" stroke-width="0.601504" stroke-linejoin="round"/>
<path d="M11.7409 13.0263C11.948 13.136 12.2303 13.0091 12.3714 12.7429C12.5125 12.4766 12.459 12.1718 12.2519 12.062C12.0448 11.9523 11.7626 12.0791 11.6214 12.3454C11.4803 12.6117 11.5338 12.9165 11.7409 13.0263Z" fill="#242733"/>
<path d="M5.78883 18.4979C5.95493 18.4979 6.08958 18.3632 6.08958 18.1971C6.08958 18.031 5.95493 17.8964 5.78883 17.8964V18.4979ZM1.27211 18.1971L1.21832 18.4931L1.245 18.4979H1.27211V18.1971ZM2.51498 7.8299L2.7638 7.66095L2.7608 7.65654L2.75765 7.65224L2.51498 7.8299ZM4.90974 2.13097L4.60917 2.1206L4.60914 2.12158L4.90974 2.13097ZM7.15295 2.13097L6.85292 2.1519L6.85358 2.16134L6.85484 2.17072L7.15295 2.13097ZM10.7299 3.55571L10.7988 3.26295L10.7805 3.25863L10.7617 3.25664L10.7299 3.55571ZM10.0713 12.8686C10.1754 12.998 10.3647 13.0185 10.4941 12.9143C10.6235 12.8102 10.644 12.6209 10.5398 12.4915L10.0713 12.8686ZM13.5188 13.347L13.6648 13.084C13.645 13.0731 13.6241 13.0643 13.6023 13.058L13.5188 13.347ZM13.5188 17.7727L13.6365 17.496C13.6149 17.4867 13.5923 17.4801 13.5691 17.4762L13.5188 17.7727ZM13.5944 20.0431C13.5089 20.1855 13.555 20.3702 13.6975 20.4557C13.8399 20.5412 14.0247 20.4949 14.1102 20.3525L13.5944 20.0431ZM12.2335 12.2822C12.1095 12.1717 11.9194 12.1827 11.8089 12.3067C11.6983 12.4307 11.7093 12.6208 11.8333 12.7313L12.2335 12.2822ZM10.5374 9.39651C10.4985 9.23501 10.3361 9.13561 10.1747 9.17441C10.0132 9.2132 9.91368 9.37561 9.95248 9.53711L10.5374 9.39651ZM10.7868 11.6097C10.8821 11.7458 11.0696 11.7788 11.2056 11.6835C11.3417 11.5882 11.3747 11.4006 11.2794 11.2646L10.7868 11.6097ZM5.78883 17.8964H1.27211V18.4979H5.78883V17.8964ZM1.32592 17.9012C1.17644 17.874 0.942541 17.7635 0.782812 17.5137C0.62778 17.2712 0.51778 16.8576 0.685076 16.1773L0.100973 16.0337C-0.0954934 16.8326 0.0117537 17.4244 0.276056 17.8377C0.535663 18.2437 0.923188 18.4394 1.21832 18.4931L1.32592 17.9012ZM0.685076 16.1773C0.788466 15.7568 1.06302 15.195 1.41741 14.5169C1.76444 13.8529 2.17844 13.094 2.52445 12.3174C2.87044 11.5409 3.1592 10.724 3.24955 9.9329C3.34041 9.13734 3.2321 8.35065 2.7638 7.66095L2.26617 7.99885C2.63149 8.53689 2.73157 9.16734 2.65192 9.86471C2.57176 10.5665 2.31108 11.3184 1.97502 12.0727C1.63897 12.8269 1.23829 13.5609 0.884316 14.2383C0.537701 14.9015 0.224934 15.5296 0.100973 16.0337L0.685076 16.1773ZM2.75765 7.65224C2.12232 6.78448 1.34178 5.80611 0.907609 5.004C0.685866 4.59433 0.592279 4.29514 0.606674 4.11052C0.612725 4.0329 0.63665 3.99048 0.669622 3.95991C0.708255 3.9241 0.788932 3.87789 0.953256 3.85309L0.863481 3.25832C0.626147 3.29414 0.416953 3.37393 0.260679 3.51881C0.0987435 3.66894 0.0227278 3.86192 0.00699023 4.06376C-0.0221924 4.43804 0.15325 4.87395 0.378628 5.29032C0.838707 6.1403 1.66478 7.17777 2.27232 8.00757L2.75765 7.65224ZM0.953256 3.85309C1.73893 3.7345 2.75959 3.61713 3.57507 3.40744C3.98302 3.30253 4.36814 3.16803 4.65939 2.98229C4.95134 2.7961 5.19836 2.52405 5.21035 2.14036L4.60914 2.12158C4.60598 2.2229 4.54608 2.34114 4.33596 2.47514C4.12514 2.60958 3.81305 2.72517 3.42527 2.82488C2.6493 3.02441 1.68441 3.13441 0.863481 3.25832L0.953256 3.85309ZM5.21032 2.14133C5.22557 1.69895 5.25605 1.44445 5.30496 1.29772C5.32763 1.22969 5.34786 1.20579 5.35489 1.19889C5.35839 1.19545 5.36511 1.18863 5.39312 1.18303L5.27515 0.593205C5.1516 0.617916 5.03327 0.671723 4.93352 0.769644C4.83729 0.864102 4.77605 0.9823 4.73432 1.10751C4.65439 1.34729 4.62423 1.68389 4.60917 2.1206L5.21032 2.14133ZM5.39312 1.18303C5.47671 1.16631 5.71927 1.15942 6.01243 1.16308C6.2912 1.16657 6.57305 1.17853 6.70713 1.18811L6.74999 0.588134C6.60114 0.577502 6.30704 0.565214 6.01995 0.561624C5.74726 0.558214 5.43408 0.561421 5.27515 0.593205L5.39312 1.18303ZM6.70713 1.18811C6.74922 1.19112 6.7402 1.19747 6.72202 1.18365C6.70477 1.17054 6.71534 1.16669 6.7354 1.22458C6.78132 1.35707 6.81574 1.61906 6.85292 2.1519L7.45297 2.11004C7.41739 1.60011 7.38109 1.25079 7.30374 1.0276C7.26216 0.907641 7.19795 0.789858 7.08598 0.704757C6.97307 0.618944 6.84936 0.595232 6.74999 0.588134L6.70713 1.18811ZM6.85484 2.17072C6.90381 2.53802 7.18647 2.88595 7.76263 3.16994C8.33917 3.45407 9.25857 3.70163 10.6981 3.85477L10.7617 3.25664C9.3518 3.10665 8.51308 2.8692 8.02857 2.63041C7.54383 2.39148 7.46271 2.17859 7.45106 2.09122L6.85484 2.17072ZM10.6611 3.84847C10.7371 3.86635 10.8395 3.87976 10.8909 3.88846C10.9583 3.89986 11.0003 3.91103 11.0293 3.92439C11.0529 3.93524 11.0605 3.94408 11.066 3.95305C11.0732 3.96483 11.0914 4.00239 11.0931 4.09355C11.0965 4.28725 11.0244 4.63779 10.7723 5.25111C10.5235 5.85618 10.1118 6.6885 9.46744 7.83401L9.99173 8.12892C10.6417 6.97337 11.0666 6.1171 11.3286 5.47983C11.5872 4.85083 11.7002 4.40529 11.6944 4.08297C11.6915 3.91611 11.6567 3.76568 11.5789 3.6387C11.4993 3.5089 11.3899 3.42823 11.2808 3.37802C11.1772 3.33032 11.0711 3.30889 10.9913 3.29538C10.8955 3.27917 10.8517 3.27537 10.7988 3.26295L10.6611 3.84847ZM9.46744 7.83401C8.80143 9.01809 8.66925 9.96035 8.87068 10.7883C9.06744 11.5974 9.57511 12.2521 10.0713 12.8686L10.5398 12.4915C10.0356 11.8651 9.61594 11.3073 9.45511 10.6461C9.29887 10.004 9.37895 9.21832 9.99173 8.12892L9.46744 7.83401ZM13.3727 13.6098C13.5826 13.7265 13.7841 13.9453 13.8143 14.2655C13.8447 14.5898 13.7077 15.1002 13.0547 15.8111L13.4978 16.2179C14.209 15.4435 14.466 14.7717 14.4131 14.2092C14.3598 13.6428 14.0005 13.2706 13.6648 13.084L13.3727 13.6098ZM13.0547 15.8111C12.4868 16.4296 12.3042 16.9793 12.5148 17.432C12.7085 17.8484 13.169 18.0184 13.4684 18.0692L13.5691 17.4762C13.3329 17.4361 13.1266 17.3212 13.0602 17.1782C13.0105 17.0716 12.9745 16.7878 13.4978 16.2179L13.0547 15.8111ZM13.4011 18.0494C13.5736 18.1229 13.8044 18.307 13.9057 18.6106C14.0036 18.9043 13.9992 19.3682 13.5944 20.0431L14.1102 20.3525C14.5782 19.5723 14.6446 18.9248 14.4763 18.4202C14.3113 17.9256 13.9388 17.6246 13.6365 17.496L13.4011 18.0494ZM11.8333 12.7313C12.2777 13.1273 12.8097 13.4549 13.4353 13.6358L13.6023 13.058C13.0774 12.9063 12.623 12.6293 12.2335 12.2822L11.8333 12.7313ZM9.95248 9.53711C10.0771 10.0555 10.211 10.788 10.7868 11.6097L11.2794 11.2646C10.7795 10.5511 10.666 9.93177 10.5374 9.39651L9.95248 9.53711Z" fill="#242733"/>
</g>
<defs>
<linearGradient id="paint0_linear_455_15727" x1="6.31392" y1="15.5247" x2="11.663" y2="18.514" gradientUnits="userSpaceOnUse">
<stop stop-color="#00D1CF"/>
<stop offset="1" stop-color="#0099C4"/>
</linearGradient>
<clipPath id="clip0_455_15727">
<rect width="14.5865" height="20" fill="white" transform="translate(0 0.5)"/>
</clipPath>
</defs>
</svg>
