<svg width="20" height="19" viewBox="0 0 20 19" fill="none" xmlns="http://www.w3.org/2000/svg">
<g clip-path="url(#clip0_455_15702)">
<path d="M3.915 18.0304L2.97266 14.8359L9.9171 16.197L3.915 18.0304Z" fill="url(#paint0_linear_455_15702)"/>
<path d="M14.1374 1.47548L16.1249 0.919922L17.054 4.17974M12.4151 1.99246L9.7207 2.79713M18.4907 9.05881L19.7509 13.4619L17.5166 14.2255M2.42903 4.89214L0.220703 5.51798L1.47586 9.9477M2.85959 14.7891L3.84669 18.0599L10.7207 16.2713M3.06076 1.54147L19.3297 4.60879L16.9108 17.4383L0.641903 14.371L3.06076 1.54147Z" stroke="#242733" stroke-width="0.444444" stroke-linecap="round" stroke-linejoin="round"/>
<path d="M14.9434 8.91623L14.3295 10.5843M14.3295 10.5843L13.6656 12.3885M14.3295 10.5843L12.4989 10.0551M14.3295 10.5843L16.0545 11.0829M6.8878 7.02734L6.27397 8.6954M6.27397 8.6954L5.61003 10.4996M6.27397 8.6954L4.44336 8.16623M6.27397 8.6954L7.99891 9.19401" stroke="#242733" stroke-width="0.444444" stroke-linecap="round" stroke-linejoin="round"/>
<path d="M11.1822 4.73221C11.082 4.66135 10.9433 4.68513 10.8724 4.78534L9.71763 6.41831C9.6468 6.51848 9.67058 6.65715 9.7708 6.72803C9.87097 6.79887 10.0097 6.77509 10.0805 6.67492L11.107 5.22339L12.5585 6.24987C12.6587 6.3207 12.7974 6.29692 12.8682 6.19672C12.9391 6.09651 12.9153 5.95783 12.8151 5.88697L11.1822 4.73221ZM6.04763 13.2774C5.92636 13.2961 5.84324 13.4097 5.86202 13.531C5.8808 13.6523 5.99436 13.7354 6.11563 13.7166L6.04763 13.2774ZM10.8349 4.95122C11.0477 6.19238 11.0583 8.10092 10.407 9.78487C9.7608 11.4556 8.46697 12.9027 6.04763 13.2774L6.11563 13.7166C8.71852 13.3135 10.1284 11.7374 10.8215 9.9452C11.5096 8.16615 11.4952 6.17195 11.2729 4.87607L10.8349 4.95122Z" fill="url(#paint1_linear_455_15702)"/>
</g>
<defs>
<linearGradient id="paint0_linear_455_15702" x1="1.78697" y1="16.6751" x2="3.65198" y2="20.2449" gradientUnits="userSpaceOnUse">
<stop stop-color="#00D1CF"/>
<stop offset="1" stop-color="#0099C4"/>
</linearGradient>
<linearGradient id="paint1_linear_455_15702" x1="9.52608" y1="4.13587" x2="10.3872" y2="13.0803" gradientUnits="userSpaceOnUse">
<stop stop-color="#00D1CF"/>
<stop offset="1" stop-color="#0099C4"/>
</linearGradient>
<clipPath id="clip0_455_15702">
<rect width="20" height="17.6111" fill="white" transform="translate(0 0.695312)"/>
</clipPath>
</defs>
</svg>
