<svg width="20" height="19" viewBox="0 0 20 19" fill="none" xmlns="http://www.w3.org/2000/svg">
<g clip-path="url(#clip0_455_15714)">
<path d="M14.9338 6.91211L15.8404 7.95216L13.2271 10.6187C13.2271 10.6187 12.8804 9.952 12.4004 9.41872C13.8671 8.32544 14.9338 6.91211 14.9338 6.91211Z" fill="url(#paint0_linear_455_15714)" stroke="#242733" stroke-width="0.32" stroke-linejoin="round"/>
<path d="M1.31287 6.99219L0.40625 8.03224L3.01961 10.6988C3.01961 10.6988 3.36627 10.0321 3.84627 9.4988C2.37953 8.40552 1.31287 6.99219 1.31287 6.99219Z" fill="url(#paint1_linear_455_15714)" stroke="#242733" stroke-width="0.32" stroke-linejoin="round"/>
<path d="M4.26501 3.68555L0.359375 7.99397L3.04795 10.68C3.04795 10.68 3.35984 9.87221 4.34651 9.04555M12.008 3.68555L15.9136 7.99397L13.225 10.68C13.225 10.68 12.8457 10.0298 12.008 9.12555M6.66651 3.68555H9.54651V4.91221C9.54651 5.50132 9.06896 5.97888 8.47984 5.97888H7.73318C7.14406 5.97888 6.66651 5.50132 6.66651 4.91221V3.68555Z" stroke="#242733" stroke-width="0.426667" stroke-linecap="round" stroke-linejoin="round"/>
<path d="M4.3188 3.68589V3.47255L4.10547 3.68589H4.3188ZM11.9455 3.68589H12.1588L11.9455 3.47255V3.68589ZM11.9455 16.0592V16.2726C12.0633 16.2726 12.1588 16.177 12.1588 16.0592H11.9455ZM4.3188 16.0592H4.10547C4.10547 16.177 4.20098 16.2726 4.3188 16.2726V16.0592ZM14.0788 0.912552V0.699219C13.961 0.699219 13.8655 0.794731 13.8655 0.912552H14.0788ZM19.7855 0.912552H19.9988C19.9988 0.794731 19.9033 0.699219 19.7855 0.699219V0.912552ZM19.7855 18.0859V18.2992C19.9033 18.2992 19.9988 18.2037 19.9988 18.0859H19.7855ZM14.0788 18.0859H13.8655C13.8655 18.2037 13.961 18.2992 14.0788 18.2992V18.0859ZM13.1188 12.7526L12.9855 12.586C12.9406 12.6219 12.912 12.6746 12.9065 12.7319C12.9009 12.7892 12.9187 12.8464 12.9559 12.8904L13.1188 12.7526ZM13.8655 3.84589C13.8655 3.9637 13.961 4.05922 14.0788 4.05922C14.1966 4.05922 14.2921 3.9637 14.2921 3.84589H13.8655ZM14.2921 10.8859C14.2921 10.7681 14.1966 10.6726 14.0788 10.6726C13.961 10.6726 13.8655 10.7681 13.8655 10.8859H14.2921ZM16.7188 3.04589L16.9036 2.93922C16.8655 2.87321 16.795 2.83255 16.7188 2.83255C16.6426 2.83255 16.5721 2.87321 16.5341 2.93922L16.7188 3.04589ZM17.8042 4.92589V5.13922C17.8805 5.13922 17.9509 5.09856 17.989 5.03255C18.0271 4.96655 18.0271 4.88522 17.989 4.81922L17.8042 4.92589ZM15.6334 4.92589L15.4486 4.81922C15.4105 4.88522 15.4105 4.96655 15.4486 5.03255C15.4868 5.09856 15.5571 5.13922 15.6334 5.13922V4.92589ZM4.3188 3.89922H11.9455V3.47255H4.3188V3.89922ZM11.7321 3.68589V16.0592H12.1588V3.68589H11.7321ZM11.9455 15.8459H4.3188V16.2726H11.9455V15.8459ZM4.53214 16.0592V3.68589H4.10547V16.0592H4.53214ZM14.0788 1.12589H19.7855V0.699219H14.0788V1.12589ZM19.5721 0.912552V18.0859H19.9988V0.912552H19.5721ZM19.7855 17.8726H14.0788V18.2992H19.7855V17.8726ZM13.2521 12.9191C13.345 12.8448 13.4486 12.7733 13.5584 12.6979C13.6655 12.6243 13.7797 12.5461 13.8818 12.4647C14.0746 12.3108 14.2921 12.0944 14.2921 11.7926H13.8655C13.8655 11.8782 13.803 11.9818 13.6158 12.1311C13.5279 12.2012 13.4271 12.2704 13.3167 12.3462C13.209 12.4202 13.0926 12.5003 12.9855 12.586L13.2521 12.9191ZM14.2921 18.0859V14.0592H13.8655V18.0859H14.2921ZM14.2921 14.0592C14.2921 13.9097 14.2264 13.7634 14.1533 13.6408C14.0772 13.5132 13.9758 13.3832 13.871 13.2606C13.7655 13.1373 13.6514 13.0155 13.5479 12.9056C13.4425 12.7934 13.3505 12.6961 13.2817 12.6147L12.9559 12.8904C13.0338 12.9824 13.1352 13.0895 13.2371 13.1979C13.3412 13.3085 13.4487 13.4234 13.5466 13.5379C13.6451 13.6531 13.7288 13.7619 13.7868 13.8593C13.8479 13.9617 13.8655 14.0265 13.8655 14.0592H14.2921ZM14.2921 3.84589V0.912552H13.8655V3.84589H14.2921ZM14.2921 11.7926V10.8859H13.8655V11.7926H14.2921ZM16.5341 3.15255L17.6195 5.03255L17.989 4.81922L16.9036 2.93922L16.5341 3.15255ZM17.8042 4.71255H15.6334V5.13922H17.8042V4.71255ZM15.8182 5.03255L16.9036 3.15255L16.5341 2.93922L15.4486 4.81922L15.8182 5.03255ZM17.7588 10.1126C17.7588 10.6531 17.3096 11.0992 16.7455 11.0992V11.5259C17.5363 11.5259 18.1855 10.8975 18.1855 10.1126H17.7588ZM16.7455 11.0992C16.1814 11.0992 15.7321 10.6531 15.7321 10.1126H15.3055C15.3055 10.8975 15.9546 11.5259 16.7455 11.5259V11.0992ZM15.7321 10.1126C15.7321 9.57202 16.1814 9.12589 16.7455 9.12589V8.69922C15.9546 8.69922 15.3055 9.32759 15.3055 10.1126H15.7321ZM16.7455 9.12589C17.3096 9.12589 17.7588 9.57202 17.7588 10.1126H18.1855C18.1855 9.32759 17.5363 8.69922 16.7455 8.69922V9.12589Z" fill="#242733"/>
<path d="M18.1874 13.5527H15.4141V16.2727H18.1874V13.5527Z" fill="url(#paint2_linear_455_15714)" stroke="#242733" stroke-width="0.426667" stroke-linejoin="round"/>
</g>
<defs>
<linearGradient id="paint0_linear_455_15714" x1="13.3001" y1="8.19819" x2="14.0192" y2="9.64448" gradientUnits="userSpaceOnUse">
<stop stop-color="#00D1CF"/>
<stop offset="1" stop-color="#0099C4"/>
</linearGradient>
<linearGradient id="paint1_linear_455_15714" x1="2.94657" y1="8.27827" x2="2.22742" y2="9.72456" gradientUnits="userSpaceOnUse">
<stop stop-color="#00D1CF"/>
<stop offset="1" stop-color="#0099C4"/>
</linearGradient>
<linearGradient id="paint2_linear_455_15714" x1="15.339" y1="15.0204" x2="16.9652" y2="16.2806" gradientUnits="userSpaceOnUse">
<stop stop-color="#00D1CF"/>
<stop offset="1" stop-color="#0099C4"/>
</linearGradient>
<clipPath id="clip0_455_15714">
<rect width="20" height="17.6" fill="white" transform="translate(0 0.699219)"/>
</clipPath>
</defs>
</svg>
