<svg width="173" height="80" viewBox="0 0 173 80" fill="none" xmlns="http://www.w3.org/2000/svg">
<g clip-path="url(#clip0_185_581)">
<path d="M172.075 35.1598C171.612 31.1953 170.579 27.389 168.935 23.7578C165.135 15.3546 159.16 8.96182 151.033 4.60208C146.95 2.41092 142.596 1.01603 137.999 0.372235C136.847 0.21411 135.695 0.0842216 134.532 0.039043C134.453 0.039043 134.379 0.0108064 134.3 -0.000488281H38.8154C38.2676 0.0333957 37.7141 0.0729269 37.1664 0.106811C26.9786 0.705427 18.3551 4.76021 11.2451 12.0057C5.67123 17.6813 2.20377 24.4976 0.667701 32.2909C0.340156 33.9512 0.125558 35.6285 0.0295536 37.317C0.0239063 37.4074 0.00131697 37.4921 -0.015625 37.5825V42.3883C0.0634375 43.179 0.136853 43.9809 0.221563 44.7715C0.667701 48.6964 1.67292 52.4801 3.27677 56.0944C7.16777 64.859 13.3855 71.4438 21.9355 75.8036C25.3917 77.5712 29.0512 78.774 32.8913 79.4122C34.3935 79.6607 35.9127 79.7736 37.4374 79.8583C41.2042 80.0673 44.9766 79.9826 48.749 79.9826C76.692 79.9882 104.629 79.9882 132.572 79.9882C138.406 79.9882 143.946 78.7232 149.226 76.2779C153.258 74.4087 156.878 71.9351 160.069 68.8404C166.371 62.73 170.291 55.3546 171.804 46.7085C172.036 45.3871 172.194 44.0543 172.273 42.7159C172.279 42.6255 172.301 42.5408 172.318 42.4505V37.509C172.239 36.7297 172.166 35.9447 172.075 35.1598ZM40.2611 3.52344C60.343 3.46697 76.7315 19.8442 76.7089 39.9713C76.692 59.7595 60.6536 76.4473 40.0296 76.3344C19.9533 76.2215 3.63819 59.9176 3.82456 39.5703C4.01092 19.3134 20.5576 3.47262 40.2611 3.52344ZM161.436 61.77C155.726 69.3487 148.142 74.0077 138.807 75.7923C136.785 76.1763 134.741 76.3626 132.68 76.3626C107.73 76.357 82.7798 76.357 57.8299 76.357H57.4403C57.4403 76.357 57.4177 76.3683 57.4064 76.3739V76.357H57.4403C66.9278 71.6358 73.7893 64.5371 77.6577 54.7334C81.5261 44.924 81.5148 35.0186 77.6238 25.2205C73.7271 15.4224 66.843 8.32367 57.316 3.62509H128.382C129.692 3.62509 131.002 3.61945 132.312 3.62509C138.796 3.65898 144.889 5.20635 150.474 8.50438C159.504 13.8298 165.282 21.6175 167.783 31.8052C168.275 33.81 168.546 35.8544 168.653 37.9213C169.105 46.7368 166.744 54.7277 161.436 61.77Z" fill="white"/>
<path d="M36.352 15.7046C36.1995 15.01 35.7873 14.513 35.0587 14.3944C34.3472 14.2815 33.6413 14.3662 32.9749 14.6824C32.7659 14.7841 32.6699 14.914 32.6699 15.1512C32.6812 15.8514 32.6699 16.5517 32.6699 17.2463V19.3754C32.6417 19.6126 32.7546 19.7424 32.9749 19.8384C33.4888 20.0643 34.0196 20.1773 34.5844 20.166C35.5896 20.149 36.1487 19.7368 36.3633 18.7542C36.5835 17.7433 36.5779 16.7155 36.352 15.7046ZM36.352 15.7046C36.1995 15.01 35.7873 14.513 35.0587 14.3944C34.3472 14.2815 33.6413 14.3662 32.9749 14.6824C32.7659 14.7841 32.6699 14.914 32.6699 15.1512C32.6812 15.8514 32.6699 16.5517 32.6699 17.2463V19.3754C32.6417 19.6126 32.7546 19.7424 32.9749 19.8384C33.4888 20.0643 34.0196 20.1773 34.5844 20.166C35.5896 20.149 36.1487 19.7368 36.3633 18.7542C36.5835 17.7433 36.5779 16.7155 36.352 15.7046ZM36.352 15.7046C36.1995 15.01 35.7873 14.513 35.0587 14.3944C34.3472 14.2815 33.6413 14.3662 32.9749 14.6824C32.7659 14.7841 32.6699 14.914 32.6699 15.1512C32.6812 15.8514 32.6699 16.5517 32.6699 17.2463V19.3754C32.6417 19.6126 32.7546 19.7424 32.9749 19.8384C33.4888 20.0643 34.0196 20.1773 34.5844 20.166C35.5896 20.149 36.1487 19.7368 36.3633 18.7542C36.5835 17.7433 36.5779 16.7155 36.352 15.7046ZM36.352 15.7046C36.1995 15.01 35.7873 14.513 35.0587 14.3944C34.3472 14.2815 33.6413 14.3662 32.9749 14.6824C32.7659 14.7841 32.6699 14.914 32.6699 15.1512C32.6812 15.8514 32.6699 16.5517 32.6699 17.2463V19.3754C32.6417 19.6126 32.7546 19.7424 32.9749 19.8384C33.4888 20.0643 34.0196 20.1773 34.5844 20.166C35.5896 20.149 36.1487 19.7368 36.3633 18.7542C36.5835 17.7433 36.5779 16.7155 36.352 15.7046ZM40.2599 2.35998C19.9296 2.3148 2.8577 18.6582 2.66569 39.5589C2.47368 60.5557 19.3084 77.3734 40.0227 77.492C61.3019 77.6106 77.8485 60.3919 77.8655 39.9712C77.8881 19.2059 60.98 2.30915 40.2599 2.35998ZM52.797 20.6347C52.797 21.3802 52.1984 21.9675 51.4586 21.9618C50.7244 21.9562 50.1202 21.3519 50.1145 20.6234C50.1145 19.8836 50.7357 19.2737 51.4868 19.285C52.2266 19.2907 52.797 19.8836 52.7913 20.6404H52.797V20.6347ZM46.6753 16.4162V13.2367C46.6753 12.8019 46.7035 12.7793 47.1327 12.7736C47.5393 12.7736 47.9459 12.7906 48.3525 12.7736C48.6857 12.7567 48.7817 12.8979 48.7817 13.2085C48.7705 14.4565 48.7817 15.7103 48.7817 16.9583V19.4262C48.7817 19.9119 48.8269 19.9683 49.2956 20.1095C49.4368 20.149 49.5159 20.2225 49.5159 20.3636V21.5778C49.5159 21.8489 49.3069 21.8771 49.1149 21.8715C47.4942 21.8545 46.7261 21.1656 46.6866 19.5843C46.6583 18.5283 46.6866 17.4666 46.6866 16.4049L46.6753 16.4162ZM46.3816 10.1872C46.3816 9.44737 46.9689 8.8544 47.7144 8.8544C48.4542 8.84875 49.0585 9.43608 49.0641 10.1702C49.0754 10.9157 48.4542 11.5369 47.7144 11.5312C46.9802 11.5256 46.3816 10.9213 46.3816 10.1872ZM42.9198 12.559L42.9029 12.5703C43.6822 12.5534 44.4333 12.6381 45.1618 12.8584C45.4385 12.9431 45.5741 13.0842 45.5515 13.3892C45.5289 13.7506 45.5345 14.1121 45.5515 14.4735C45.5628 14.7389 45.4781 14.818 45.2126 14.722C44.4051 14.434 43.5749 14.3097 42.7222 14.3097C42.4172 14.3097 42.1122 14.3549 41.8242 14.4509C41.3386 14.6147 41.1127 14.9535 41.1409 15.4505C41.1635 15.8684 41.3894 16.1169 41.9089 16.2129C42.5302 16.3258 43.157 16.3879 43.7839 16.4952C44.0606 16.5461 44.3316 16.6364 44.5914 16.7381C45.4781 17.0826 45.896 17.7546 45.9581 18.692C46.1049 20.8267 44.7834 21.6399 43.2756 21.8715C42.0163 22.0635 40.7795 21.9393 39.554 21.6117C39.2547 21.5326 39.1192 21.3802 39.1418 21.0583C39.1643 20.7307 39.1418 20.4032 39.1418 20.0756C39.1418 19.7086 39.1869 19.669 39.5371 19.7876C40.4689 20.1039 41.4289 20.1999 42.4116 20.149C42.7391 20.1321 43.061 20.07 43.366 19.9345C43.7782 19.7537 43.925 19.4827 43.8968 18.9744C43.8742 18.5791 43.6992 18.3476 43.2925 18.212C42.7504 18.0313 42.18 18.0539 41.6209 17.9522C41.1748 17.8732 40.7343 17.7715 40.322 17.5795C39.3677 17.139 39.0119 16.3597 39.1135 15.1963C39.2378 13.745 40.13 12.8809 41.6492 12.6325C42.0727 12.5647 42.5019 12.5478 42.9142 12.559H42.9198ZM30.5917 15.0439V8.78099C30.5917 8.33485 30.6087 8.3179 31.0435 8.31226C31.4501 8.31226 31.8567 8.32355 32.2633 8.31226C32.5683 8.30096 32.6812 8.41956 32.6756 8.72451C32.6643 10.0686 32.6756 11.407 32.6756 12.7511C32.6756 13.1746 32.6756 13.1803 33.0483 12.9995C33.9801 12.559 34.9514 12.4517 35.9567 12.6438C37.0861 12.864 37.8259 13.5473 38.2156 14.6147C38.5996 15.6594 38.6561 16.7494 38.5996 17.8506C38.5657 18.4605 38.4867 19.0591 38.306 19.6464C37.8711 21.047 36.8715 21.8432 35.4089 21.9392C34.3472 22.007 33.3363 21.815 32.4271 21.2333C32.2068 21.0922 32.077 21.1091 32.0035 21.3632C31.9188 21.6569 31.7381 21.7585 31.4275 21.7529C30.4562 21.7247 30.603 21.8489 30.5974 20.9227C30.5917 18.9575 30.5974 16.9978 30.5974 15.0326V15.0439H30.5917ZM19.89 34.8039C20.099 32.4207 20.9969 30.3255 22.5838 28.541C24.6677 26.1973 27.288 24.8815 30.4279 24.6951C34.5053 24.4523 37.7751 25.994 40.2373 29.2469C40.4124 29.4784 40.4858 29.4502 40.6439 29.2412C42.5979 26.6039 45.207 25.0679 48.4655 24.7177C54.5702 24.0683 59.8731 28.349 60.7258 34.1149C60.771 34.4029 60.7936 34.6966 60.8275 34.9902C60.8501 35.1992 60.7767 35.3178 60.5508 35.3065C60.4265 35.3065 60.3023 35.3065 60.178 35.3065H40.322H40.3277H20.3701C19.8674 35.3065 19.8505 35.3065 19.89 34.8095V34.8039ZM26.2885 48.7528C24.3627 45.4999 22.4426 42.2414 20.5225 38.9885C20.4774 38.9095 20.4322 38.8304 20.387 38.7513C20.3136 38.6102 20.3305 38.5142 20.5169 38.5085H40.339L59.7545 38.5029C60.3926 38.5029 60.3983 38.5029 60.0651 39.0676C57.2301 43.8791 54.3952 48.6963 51.5546 53.5021C47.9177 59.6634 44.2752 65.819 40.6327 71.9802C40.6101 72.0197 40.5875 72.0593 40.5649 72.0988C40.3729 72.415 40.339 72.415 40.147 72.0988C39.3225 70.7152 38.4923 69.326 37.6735 67.9367C33.8785 61.5439 30.0778 55.1455 26.2885 48.7528ZM32.9749 19.8384C33.4888 20.0643 34.0196 20.1773 34.5844 20.166C35.5896 20.149 36.1487 19.7368 36.3633 18.7542C36.5835 17.7433 36.5779 16.7155 36.352 15.7046C36.1995 15.01 35.7873 14.513 35.0587 14.3944C34.3472 14.2815 33.6413 14.3662 32.9749 14.6824C32.7659 14.7841 32.6699 14.914 32.6699 15.1512C32.6812 15.8514 32.6699 16.5517 32.6699 17.2463V19.3754C32.6417 19.6126 32.7546 19.7424 32.9749 19.8384ZM36.352 15.7046C36.1995 15.01 35.7873 14.513 35.0587 14.3944C34.3472 14.2815 33.6413 14.3662 32.9749 14.6824C32.7659 14.7841 32.6699 14.914 32.6699 15.1512C32.6812 15.8514 32.6699 16.5517 32.6699 17.2463V19.3754C32.6417 19.6126 32.7546 19.7424 32.9749 19.8384C33.4888 20.0643 34.0196 20.1773 34.5844 20.166C35.5896 20.149 36.1487 19.7368 36.3633 18.7542C36.5835 17.7433 36.5779 16.7155 36.352 15.7046ZM36.352 15.7046C36.1995 15.01 35.7873 14.513 35.0587 14.3944C34.3472 14.2815 33.6413 14.3662 32.9749 14.6824C32.7659 14.7841 32.6699 14.914 32.6699 15.1512C32.6812 15.8514 32.6699 16.5517 32.6699 17.2463V19.3754C32.6417 19.6126 32.7546 19.7424 32.9749 19.8384C33.4888 20.0643 34.0196 20.1773 34.5844 20.166C35.5896 20.149 36.1487 19.7368 36.3633 18.7542C36.5835 17.7433 36.5779 16.7155 36.352 15.7046ZM36.352 15.7046C36.1995 15.01 35.7873 14.513 35.0587 14.3944C34.3472 14.2815 33.6413 14.3662 32.9749 14.6824C32.7659 14.7841 32.6699 14.914 32.6699 15.1512C32.6812 15.8514 32.6699 16.5517 32.6699 17.2463V19.3754C32.6417 19.6126 32.7546 19.7424 32.9749 19.8384C33.4888 20.0643 34.0196 20.1773 34.5844 20.166C35.5896 20.149 36.1487 19.7368 36.3633 18.7542C36.5835 17.7433 36.5779 16.7155 36.352 15.7046ZM36.352 15.7046C36.1995 15.01 35.7873 14.513 35.0587 14.3944C34.3472 14.2815 33.6413 14.3662 32.9749 14.6824C32.7659 14.7841 32.6699 14.914 32.6699 15.1512C32.6812 15.8514 32.6699 16.5517 32.6699 17.2463V19.3754C32.6417 19.6126 32.7546 19.7424 32.9749 19.8384C33.4888 20.0643 34.0196 20.1773 34.5844 20.166C35.5896 20.149 36.1487 19.7368 36.3633 18.7542C36.5835 17.7433 36.5779 16.7155 36.352 15.7046Z" fill="white"/>
<path d="M102.398 14.1176C102.081 12.446 101.183 11.4973 99.6247 11.181C99.1673 11.0907 98.7042 11.0681 98.2411 11.0907C96.3775 11.1697 95.2255 12.1015 94.8019 13.9087C94.5082 15.1793 94.5195 16.4613 94.8019 17.7319C95.1182 19.1663 95.9483 20.1264 97.4392 20.4426C97.987 20.5612 98.5404 20.5556 99.0939 20.5273C100.726 20.4426 101.844 19.5447 102.285 17.9748C102.477 17.2745 102.561 16.5629 102.533 15.7892C102.567 15.2527 102.505 14.6824 102.398 14.1176ZM100.873 17.5512C100.59 18.6524 99.9127 19.1833 98.7833 19.2172C98.4953 19.2228 98.1959 19.2228 97.9079 19.172C96.9084 18.9913 96.3323 18.2741 96.1686 17.0712C96.1121 16.6589 96.0839 16.2467 96.0951 15.8118C96.0726 15.2076 96.1234 14.592 96.2985 13.9877C96.5921 12.9882 97.2867 12.446 98.3315 12.4121C98.5913 12.4008 98.8567 12.4008 99.1108 12.4347C100.054 12.5646 100.63 13.135 100.861 14.0386C101.161 15.2019 101.166 16.3822 100.873 17.5512Z" fill="white"/>
<path d="M105.315 27.9822C105.089 26.384 104.338 25.5144 102.965 25.2659C102.768 25.232 102.564 25.2038 102.361 25.2038C100.599 25.1586 99.3905 25.6951 98.9726 27.6716C98.8766 28.1008 98.8371 28.5357 98.8089 28.9762C98.7354 30.1621 98.758 31.3424 99.0517 32.5001C99.3454 33.6578 100.057 34.3863 101.265 34.5896C101.463 34.6178 101.666 34.6461 101.87 34.6517C103.615 34.7082 104.857 34.1548 105.252 32.1838C105.405 31.444 105.456 30.693 105.444 29.8967C105.467 29.2811 105.405 28.6317 105.315 27.9822ZM103.858 31.9805C103.592 33.2512 102.192 33.8385 101.079 33.1439C100.599 32.8446 100.418 32.3533 100.351 31.8281C100.181 30.5235 100.142 29.219 100.373 27.9201C100.599 26.6269 102.022 26.0283 103.152 26.7229C103.722 27.073 103.835 27.6716 103.92 28.2703C104.004 28.8293 103.999 29.3941 103.987 29.9588H103.993C104.01 30.6365 103.999 31.3142 103.858 31.9805Z" fill="white"/>
<path d="M113.447 27.9931C113.222 26.3949 112.47 25.5253 111.098 25.2768C110.9 25.2429 110.697 25.2147 110.494 25.2147C108.732 25.1638 107.523 25.7003 107.105 27.6769C107.009 28.1061 106.97 28.5409 106.942 28.9814C106.868 30.1674 106.891 31.3477 107.185 32.5054C107.478 33.6631 108.19 34.3972 109.398 34.5949C109.619 34.6287 109.844 34.6626 110.07 34.6626C111.748 34.6852 112.996 34.177 113.391 32.1552C113.538 31.4267 113.589 30.6869 113.577 29.9076C113.6 29.292 113.538 28.6426 113.447 27.9931ZM111.979 32.0084C111.708 33.2621 110.268 33.8325 109.184 33.1266C108.766 32.8498 108.579 32.4319 108.506 31.9632C108.297 30.6248 108.28 29.2694 108.506 27.931C108.726 26.6265 110.11 26.0279 111.262 26.7056C111.844 27.05 111.968 27.643 112.053 28.2416C112.132 28.8007 112.137 29.3654 112.12 29.9302H112.115C112.137 30.6248 112.126 31.3194 111.979 32.0084Z" fill="white"/>
<path d="M112.25 15.7783V11.7179C112.25 11.2435 112.267 11.2322 112.753 11.2266H117.293C117.728 11.2266 117.762 11.2548 117.762 11.684C117.762 12.6779 117.818 12.5367 116.915 12.5424C115.977 12.548 115.04 12.5537 114.102 12.5424C113.809 12.5424 113.696 12.644 113.707 12.9377C113.724 13.5024 113.724 14.0672 113.707 14.6319C113.696 14.9481 113.831 15.0442 114.131 15.0442C114.955 15.0329 115.78 15.0442 116.604 15.0385C116.92 15.0385 117.045 15.1458 117.039 15.4734C117.022 16.4616 117.124 16.3374 116.169 16.343C115.492 16.343 114.814 16.36 114.136 16.343C113.803 16.3317 113.701 16.4616 113.713 16.7779C113.73 17.433 113.73 18.0881 113.713 18.7432C113.713 19.0481 113.803 19.1611 114.119 19.1611C115.192 19.1441 116.265 19.1611 117.338 19.1498C117.666 19.1498 117.779 19.2571 117.773 19.5733C117.762 20.5842 117.807 20.4091 116.943 20.4148C115.531 20.4261 114.119 20.4148 112.707 20.4148C112.267 20.4148 112.256 20.3978 112.256 19.9517V15.7783H112.25Z" fill="white"/>
<path d="M90.0625 20.539C89.3791 20.5615 88.6393 20.443 87.9052 20.33C87.6906 20.2961 87.572 20.2114 87.6341 19.9742C87.6737 19.8105 87.6849 19.641 87.7132 19.4716C87.7866 19.0481 87.8035 19.0481 88.244 19.1045C89.1871 19.2288 90.1359 19.3191 91.0733 19.1215C91.8753 18.9521 92.2367 18.4777 92.2085 17.7209C92.1915 17.2748 91.9487 16.9868 91.5816 16.7891C91.1411 16.5519 90.6667 16.4051 90.1924 16.2639C89.6502 16.1058 89.1194 15.9251 88.6337 15.6145C87.7922 15.078 87.4591 14.2874 87.5551 13.3273C87.6454 12.3616 88.2045 11.7122 89.0911 11.3564C89.7462 11.0966 90.4352 11.0571 91.1242 11.0966C91.7341 11.1305 92.3383 11.2152 92.937 11.3169C93.1911 11.3621 93.2645 11.4694 93.225 11.7348C93.0951 12.5593 93.1064 12.5593 92.2932 12.4802C91.5308 12.4068 90.7627 12.3334 90.0004 12.4802C89.2041 12.6384 88.8257 13.2426 89.0742 13.9316C89.1871 14.2365 89.4243 14.4229 89.701 14.5697C90.1924 14.8352 90.7289 14.9707 91.2541 15.1401C91.7171 15.2869 92.1633 15.4733 92.5868 15.7161C94.1455 16.6084 94.0382 19.3022 92.3722 20.1211C91.7849 20.4091 91.1806 20.5333 90.0681 20.5333L90.0625 20.539Z" fill="white"/>
<path d="M86.4345 33.1659C86.5814 33.262 86.7056 33.2224 86.8242 33.2224C87.8633 33.2224 88.9024 33.2337 89.9415 33.2224C90.2352 33.2224 90.3425 33.3241 90.3425 33.6177C90.3255 34.6455 90.4554 34.5326 89.4502 34.5326H84.9098C84.4354 34.5326 84.4467 34.5044 84.4071 34.0356C84.3676 33.5613 84.537 33.245 84.8985 32.9344C85.9319 32.0591 86.9315 31.1499 87.7842 30.0825C88.1174 29.6646 88.4054 29.2241 88.5862 28.7159C89.0267 27.4509 88.3772 26.5134 87.0331 26.5021C86.3272 26.5021 85.6439 26.6489 84.9832 26.8918C84.7177 26.9934 84.5992 26.9257 84.5201 26.6659C84.2377 25.768 84.0231 25.8696 85.0792 25.5251C86.011 25.2202 86.971 25.079 87.948 25.2823C89.6761 25.6324 90.5288 26.9934 90.0997 28.7102C89.8568 29.6985 89.2469 30.4665 88.5749 31.1894C88.0497 31.7541 87.4793 32.2624 86.8976 32.765C86.7451 32.8949 86.5983 33.0248 86.4345 33.1659Z" fill="white"/>
<path d="M87.854 54.8009C88.125 54.0272 88.3961 53.2479 88.6672 52.4742C88.8479 51.9603 89.0286 51.4521 89.198 50.9381C89.2658 50.7236 89.39 50.6219 89.6159 50.6332C89.9096 50.6445 90.2032 50.6332 90.4969 50.6332C90.7002 50.6332 90.8075 50.7123 90.8188 50.9325C90.9317 52.9034 91.0447 54.8743 91.0899 56.8453C91.0899 56.9864 91.1633 57.201 90.9487 57.2462C90.6663 57.3083 90.367 57.3479 90.0903 57.1954C90.0112 57.1502 90.0338 57.0316 90.0282 56.9413C89.983 55.8513 89.9378 54.7557 89.8926 53.6658C89.87 53.1914 89.8475 52.7227 89.7684 52.2314C89.5933 52.7114 89.4239 53.1858 89.2488 53.6658C88.9947 54.3774 88.7293 55.0889 88.4921 55.8061C88.4017 56.0772 88.2549 56.1732 87.9725 56.1619C87.1198 56.1337 87.2892 56.2805 86.9899 55.4617C86.6341 54.4847 86.2953 53.5077 85.9452 52.5307C85.9169 52.4516 85.883 52.3669 85.7927 52.2935C85.7701 52.4912 85.7419 52.6832 85.7306 52.8808C85.6797 54.1854 85.6346 55.4955 85.5837 56.8001C85.5837 56.9582 85.6515 57.1841 85.4369 57.2406C85.1545 57.3196 84.8552 57.3366 84.5785 57.218C84.4656 57.1671 84.4938 57.0203 84.4994 56.9074C84.5785 55.0946 84.6463 53.2818 84.7536 51.469C84.81 50.4694 84.7423 50.6445 85.6289 50.6388C86.3913 50.6275 86.2784 50.5654 86.5268 51.2657C86.9052 52.3387 87.2723 53.4173 87.645 54.496C87.6789 54.5976 87.7241 54.6993 87.7636 54.8066H87.854V54.8009Z" fill="white"/>
<path d="M118.551 15.936C118.54 14.8686 118.658 13.9481 119.054 13.0784C119.568 11.932 120.477 11.339 121.691 11.1583C122.708 11.0058 123.718 11.1301 124.724 11.2995C124.978 11.3447 125.068 11.4802 125.023 11.723C125 11.836 124.983 11.9433 124.972 12.0562C124.921 12.6097 124.921 12.5984 124.357 12.5193C123.538 12.4064 122.719 12.333 121.894 12.4798C121.115 12.621 120.562 13.0502 120.324 13.8069C119.89 15.1679 119.878 16.5459 120.324 17.8956C120.601 18.7257 121.239 19.1493 122.115 19.217C122.979 19.2848 123.803 19.121 124.599 18.8048C124.882 18.6918 124.995 18.7709 125.091 19.042C125.39 19.8947 125.396 19.8891 124.543 20.1827C123.634 20.4933 122.696 20.6345 121.742 20.5103C120.008 20.2787 119.02 19.2905 118.687 17.5003C118.585 16.9468 118.517 16.3877 118.546 15.936H118.551Z" fill="white"/>
<path d="M94.5376 25.3221H97.0789C97.5419 25.3221 97.5532 25.3559 97.5758 25.8247C97.5984 26.2652 97.4968 26.6548 97.2765 27.0445C96.0454 29.2639 95.0967 31.6019 94.515 34.0754C94.4359 34.4086 94.2947 34.5667 93.9446 34.5328C93.7187 34.5103 93.4928 34.5328 93.2669 34.5328C92.8885 34.5215 92.8547 34.4764 92.9563 34.1093C93.3121 32.7935 93.7413 31.4946 94.2665 30.2352C94.7296 29.1283 95.2548 28.0554 95.8252 27.005C96.0115 26.6605 95.9946 26.6266 95.5993 26.6266C94.3907 26.6266 93.1822 26.6153 91.9737 26.6266C91.6461 26.6266 91.505 26.5306 91.5163 26.1804C91.5388 25.2373 91.4146 25.3221 92.3633 25.3164H94.5319V25.3277L94.5376 25.3221Z" fill="white"/>
<path d="M103.648 43.5854V41.5863C103.648 41.4507 103.591 41.2531 103.8 41.2305C104.003 41.2079 104.263 41.1063 104.393 41.3265C104.517 41.5411 104.613 41.4846 104.766 41.3999C105.234 41.1458 105.726 41.0103 106.262 41.1458C106.392 41.1797 106.556 41.2023 106.635 41.2926C106.968 41.6653 107.273 41.5693 107.64 41.3322C107.945 41.1345 108.312 41.0724 108.685 41.1006C109.634 41.1797 110.131 41.6766 110.176 42.6932C110.215 43.6814 110.187 44.681 110.187 45.6693C110.187 45.8952 110.091 46.0081 109.86 45.9912H109.826C109.368 46.0081 109.142 45.7935 109.142 45.3474V42.84C109.142 42.2414 108.917 42.0324 108.312 42.0494C108.211 42.0494 108.109 42.0607 108.007 42.0776C107.465 42.1849 107.414 42.264 107.414 42.8117C107.414 43.7492 107.414 44.6867 107.414 45.6185C107.414 45.8952 107.313 46.0194 107.036 45.9912C106.957 45.9855 106.878 45.9799 106.799 45.9912C106.466 46.0307 106.364 45.8726 106.37 45.562C106.381 44.7149 106.358 43.8678 106.37 43.0207C106.392 42.1002 106.042 41.9421 105.178 42.0832C104.687 42.1623 104.625 42.264 104.625 42.7609C104.625 43.6984 104.613 44.6358 104.625 45.5676C104.625 45.8952 104.506 46.0251 104.19 45.9855H104.088C103.636 45.9855 103.625 45.9742 103.625 45.5394V43.5741L103.636 43.5854H103.648Z" fill="white"/>
<path d="M116.321 54.8578V52.8587C116.321 52.7062 116.293 52.5142 116.519 52.4916C116.722 52.4747 116.982 52.3787 117.095 52.6215C117.208 52.8643 117.315 52.7627 117.462 52.6836C117.954 52.4126 118.473 52.2996 119.027 52.4464C119.202 52.4916 119.388 52.5537 119.507 52.6836C119.721 52.9321 119.907 52.8813 120.139 52.7119C120.376 52.5368 120.664 52.4464 120.958 52.4013C122.07 52.2205 122.85 52.8643 122.867 53.9938C122.878 54.9539 122.867 55.9139 122.867 56.8683C122.867 57.2467 122.822 57.2749 122.353 57.2805C122.065 57.2805 121.856 57.258 121.867 56.8739C121.89 56.0155 121.878 55.1572 121.867 54.2988C121.867 53.9486 121.867 53.5703 121.477 53.3895C121.037 53.1862 120.613 53.3444 120.212 53.542C120.049 53.6211 120.088 53.7905 120.088 53.9373V56.8457C120.088 57.2467 120.054 57.2749 119.597 57.2749C119.139 57.2749 119.094 57.2467 119.094 56.8514V54.2762C119.094 53.9204 119.094 53.5477 118.699 53.3782C118.281 53.1919 117.874 53.3218 117.496 53.5081C117.327 53.5928 117.361 53.7792 117.361 53.9317V56.7441C117.361 56.9135 117.434 57.1507 117.219 57.2241C116.965 57.3144 116.683 57.3144 116.423 57.2128C116.288 57.1563 116.327 56.9982 116.327 56.8796V54.8466V54.8578H116.321Z" fill="white"/>
<path d="M117.904 29.9358V34.0301C117.904 34.4989 117.876 34.5328 117.407 34.5328C116.25 34.5328 116.464 34.64 116.459 33.584C116.447 31.4775 116.459 29.3654 116.459 27.259C116.459 26.8298 116.459 26.8298 116.041 26.9823C115.651 27.1291 115.256 27.2703 114.872 27.4284C114.657 27.5188 114.539 27.4567 114.448 27.2533C114.076 26.3893 114.059 26.587 114.781 26.2255C115.245 25.994 115.73 25.7963 116.176 25.5422C116.639 25.2768 117.131 25.322 117.628 25.3333C117.882 25.3333 117.904 25.5196 117.904 25.7116V29.9358Z" fill="white"/>
<path d="M110.609 53.0902C110.614 52.8191 110.518 52.678 110.253 52.6158C109.649 52.4803 109.039 52.373 108.412 52.3899C107.548 52.4182 106.989 52.853 106.785 53.6945C106.588 54.4964 106.576 55.304 106.785 56.1059C106.994 56.9248 107.565 57.3539 108.406 57.3765C108.717 57.3822 109.016 57.3314 109.298 57.2071C109.406 57.1619 109.507 57.1168 109.558 57.2918C109.716 57.834 109.434 58.2519 108.869 58.2801C108.451 58.3027 108.033 58.3083 107.621 58.218C107.254 58.1333 107.22 58.3761 107.181 58.6359C107.141 58.907 107.164 59.0877 107.497 59.1329C108.05 59.2119 108.598 59.2289 109.152 59.2006C110.072 59.1498 110.603 58.5851 110.609 57.6646V55.4282C110.609 54.6489 110.592 53.8695 110.609 53.0902ZM109.564 54.8861C109.564 55.2644 109.558 55.6485 109.564 56.0325C109.564 56.2584 109.468 56.3883 109.248 56.4391C109.039 56.4899 108.83 56.5238 108.615 56.5181C108.18 56.5012 107.909 56.3205 107.796 55.8969C107.621 55.2419 107.632 54.5811 107.791 53.926C107.887 53.5194 108.163 53.3274 108.576 53.3105C109.541 53.2653 109.564 53.2879 109.564 54.2366V54.8861Z" fill="white"/>
<path d="M136.332 39.2483C136.868 39.2427 137.348 39.333 137.828 39.3951C138.037 39.4234 138.145 39.5137 138.122 39.7509C138.071 40.31 138.026 40.3721 137.473 40.2874C137.009 40.2196 136.552 40.2253 136.089 40.2422C135.931 40.2422 135.773 40.2818 135.626 40.3269C135.315 40.4229 135.118 40.6319 135.089 40.9594C135.061 41.2587 135.191 41.5129 135.445 41.6823C135.761 41.8912 136.117 41.9929 136.473 42.1058C136.851 42.2188 137.224 42.343 137.569 42.5407C138.252 42.936 138.512 43.5516 138.444 44.3083C138.376 45.0594 137.992 45.5959 137.286 45.8783C136.546 46.1663 135.778 46.0929 135.01 46.0364C134.784 46.0194 134.564 45.9573 134.338 45.9404C134.09 45.9234 134.05 45.7823 134.073 45.5733C134.124 45.0142 134.158 44.9916 134.705 45.0481C135.276 45.1046 135.846 45.178 136.422 45.0707C137.134 44.9352 137.512 44.4269 137.32 43.8339C137.23 43.5629 137.021 43.4104 136.778 43.3087C136.445 43.1732 136.1 43.0659 135.756 42.9529C135.468 42.8569 135.18 42.7553 134.914 42.6085C134.208 42.2188 133.926 41.6089 134.016 40.8296C134.101 40.1067 134.536 39.6493 135.208 39.4121C135.586 39.2822 135.976 39.2314 136.326 39.2539H136.332V39.2483Z" fill="white"/>
<path d="M86.0551 15.8401V19.9005C86.0551 20.3805 86.0381 20.3975 85.5638 20.3975C84.9256 20.3975 84.6094 20.0869 84.6094 19.46V11.774C84.6094 11.2262 84.6094 11.2149 85.1402 11.2206C86.1567 11.2319 86.0494 11.0794 86.0551 12.1467V15.8344V15.8401Z" fill="white"/>
<path d="M109 15.806C109 14.4168 109 13.0275 109 11.644C109 11.339 109.09 11.2035 109.406 11.226C109.621 11.243 109.836 11.243 110.05 11.226C110.366 11.2035 110.474 11.3559 110.457 11.6496C110.446 11.8303 110.457 12.011 110.457 12.1917V19.8439C110.457 20.4086 110.457 20.4142 109.892 20.4086C108.859 20.3973 109.017 20.5385 109.005 19.5389C108.994 18.2965 109.005 17.0541 109.005 15.8173V15.806H109Z" fill="white"/>
<path d="M95.875 56.8682V55.383C95.8637 54.9255 95.892 54.3495 95.8355 53.7622C95.7677 53.028 95.4119 52.6045 94.6891 52.4577C94.0001 52.3165 93.3224 52.4012 92.6391 52.5254C92.2833 52.5932 92.3793 52.8304 92.4189 53.045C92.4527 53.2539 92.464 53.4855 92.8029 53.4121C93.2321 53.3161 93.6726 53.2878 94.1131 53.3161C94.5931 53.3443 94.8133 53.5758 94.8416 54.0333C94.8585 54.3043 94.7681 54.389 94.4971 54.3721C94.0171 54.3382 93.5314 54.3156 93.057 54.4738C92.4019 54.6883 92.0461 55.1966 92.0631 55.9138C92.08 56.5802 92.481 57.1223 93.1078 57.2974C93.6669 57.4555 94.2034 57.3878 94.7117 57.1111C94.8642 57.032 94.9658 56.9755 95.1013 57.1732C95.2369 57.3652 95.491 57.2974 95.7 57.2579C95.9089 57.2127 95.875 57.015 95.875 56.8682ZM94.6044 56.3656C94.2938 56.5294 93.9549 56.5746 93.6161 56.5124C93.3168 56.4616 93.1474 56.264 93.1135 55.959C93.0796 55.6371 93.1587 55.3717 93.4862 55.2418C93.7177 55.1458 93.9662 55.1232 94.2486 55.1458H94.2542C94.3333 55.1458 94.4462 55.1345 94.5592 55.1458C94.6213 55.1514 94.6947 55.1684 94.7456 55.2079C94.9545 55.3773 94.8472 56.2357 94.6044 56.3656Z" fill="white"/>
<path d="M105.66 56.8738V55.3885H105.655C105.655 54.8859 105.672 54.3776 105.655 53.8694C105.632 53.0618 105.226 52.5987 104.435 52.4463C103.831 52.3333 103.221 52.3841 102.622 52.4971C102.142 52.5874 102.148 52.5987 102.227 53.0731C102.266 53.3385 102.351 53.4967 102.662 53.4007C102.808 53.3555 102.972 53.3498 103.13 53.3385C103.503 53.3159 103.876 53.2651 104.237 53.3894C104.537 53.491 104.678 53.7847 104.616 54.1348C104.559 54.4624 104.299 54.3607 104.107 54.3607C103.746 54.3607 103.385 54.3494 103.029 54.4285C102.328 54.5809 101.894 55.0892 101.854 55.8064C101.815 56.5067 102.244 57.111 102.927 57.303C103.486 57.4554 104.023 57.3764 104.531 57.0997C104.672 57.0206 104.768 56.9811 104.892 57.1561C105.045 57.3707 105.305 57.2973 105.519 57.2465C105.711 57.2013 105.66 57.0093 105.66 56.8738ZM104.164 56.4615C103.961 56.5349 103.746 56.5406 103.531 56.5236C103.159 56.4954 102.921 56.2582 102.893 55.9024C102.865 55.5692 103.063 55.3038 103.401 55.1965C103.599 55.1344 103.802 55.1344 104.034 55.1344H104.028C104.22 55.1965 104.587 54.9932 104.604 55.4224C104.644 56.2582 104.661 56.2751 104.164 56.4615Z" fill="white"/>
<path d="M125.715 42.9867C125.574 41.8177 124.964 41.1796 123.795 41.1005C122.598 41.0214 121.75 41.5466 121.525 42.7778C121.474 43.0432 121.468 43.3086 121.474 43.574C121.474 43.7322 121.462 43.8903 121.474 44.0484C121.564 45.3191 122.253 46.0024 123.518 46.0702C124.755 46.1379 125.557 45.4602 125.715 44.2291C125.766 43.8169 125.766 43.4046 125.715 42.9867ZM124.715 43.5627C124.727 43.8338 124.71 44.0879 124.648 44.3421C124.512 44.8899 124.168 45.1722 123.614 45.1779C123.061 45.1835 122.699 44.9181 122.569 44.3647C122.451 43.8338 122.445 43.2917 122.592 42.7608C122.739 42.2413 123.1 41.9871 123.648 42.0041C124.162 42.021 124.506 42.2977 124.642 42.806C124.71 43.0545 124.744 43.3143 124.721 43.5627H124.715Z" fill="white"/>
<path d="M99.2301 43.1283C99.0833 41.4792 97.6602 40.6265 96.1298 41.2759C95.6836 41.4679 95.3674 41.7898 95.181 42.236C95.0003 42.6708 94.9551 43.1283 94.972 43.5913H94.9777V43.9641C95.0116 45.2742 95.7119 46.0084 97.0164 46.0875C98.1628 46.1609 98.9478 45.5679 99.1737 44.4384C99.2584 44.0092 99.2697 43.5688 99.2301 43.1283ZM98.1459 44.3594C98.0216 44.8846 97.6376 45.1839 97.0954 45.1839C96.5533 45.1839 96.2032 44.9128 96.0676 44.382C95.9377 43.8624 95.9377 43.3316 96.0676 42.812C96.1975 42.2755 96.5702 42.0044 97.1237 42.0044C97.6489 42.0101 98.016 42.2981 98.1402 42.8233C98.2023 43.0831 98.2475 43.3542 98.2249 43.6252C98.2419 43.8737 98.1967 44.1165 98.1402 44.3594H98.1459Z" fill="white"/>
<path d="M114.875 45.6129V44.0881C114.875 43.5798 114.886 43.0716 114.875 42.5633C114.858 41.7614 114.406 41.2757 113.61 41.1459C113.028 41.0498 112.464 41.1007 111.893 41.2023C111.362 41.2983 111.362 41.3153 111.458 41.8405C111.509 42.1059 111.633 42.1737 111.882 42.1228C112.153 42.072 112.435 42.0438 112.718 42.0155C112.966 41.9873 113.215 42.0212 113.452 42.0946C113.751 42.1906 113.966 42.6142 113.87 42.9304C113.768 43.241 113.514 43.0885 113.322 43.0772C112.927 43.0546 112.531 43.0659 112.147 43.1732C111.509 43.3483 111.12 43.834 111.103 44.4665C111.08 45.2402 111.413 45.788 112.074 45.9913C112.65 46.172 113.215 46.1155 113.746 45.8218C113.904 45.7371 113.994 45.6863 114.124 45.8896C114.259 46.0929 114.519 46.0026 114.723 45.9743C114.926 45.9404 114.875 45.7484 114.875 45.6129ZM112.87 45.274C112.379 45.2571 112.114 44.9634 112.153 44.4891C112.176 44.1615 112.368 43.9413 112.706 43.9074C113.006 43.8735 113.311 43.8735 113.616 43.8905C114.028 43.9187 113.819 44.2632 113.881 44.4213H113.887C113.887 45.0199 113.531 45.2966 112.87 45.274Z" fill="white"/>
<path d="M112.807 55.2641H113.891V55.2528H115.009C115.229 55.2584 115.337 55.1624 115.359 54.9366C115.388 54.6542 115.393 54.3775 115.359 54.0951C115.246 53.1407 114.71 52.5308 113.846 52.3953C112.908 52.2484 112.073 52.7059 111.717 53.5868C111.401 54.3775 111.384 55.1907 111.632 56.0039C111.768 56.45 112.016 56.8284 112.428 57.0599C113.332 57.5626 114.247 57.427 115.133 57.0374C115.472 56.8905 115.179 56.6025 115.15 56.3823C115.122 56.1733 114.964 56.2016 114.812 56.2524C114.388 56.3936 113.959 56.4783 113.513 56.4444C112.982 56.3992 112.677 56.1225 112.553 55.6029C112.49 55.3601 112.564 55.2641 112.807 55.2641ZM112.558 54.1685C112.626 53.6659 113.016 53.2875 113.507 53.2875C114.027 53.2819 114.298 53.5473 114.394 54.112C114.433 54.3549 114.337 54.4226 114.128 54.4226H113.451L112.773 54.417C112.603 54.417 112.53 54.3549 112.558 54.1685Z" fill="white"/>
<path d="M127 56.2638C126.593 56.4107 126.17 56.4784 125.735 56.4445C125.238 56.405 124.939 56.1565 124.809 55.6878C124.718 55.3603 124.78 55.2699 125.114 55.2642H126.644C127.327 55.2642 127.649 54.9198 127.615 54.2308C127.565 53.2538 126.983 52.5535 126.108 52.4067C125.142 52.2429 124.289 52.723 123.939 53.6322C123.651 54.3833 123.634 55.1513 123.849 55.925C124.086 56.7664 124.679 57.2634 125.543 57.3538C126.147 57.4215 126.734 57.3086 127.299 57.0883C127.706 56.9302 127.44 56.6648 127.406 56.4389C127.361 56.1848 127.197 56.1961 127 56.2638ZM124.792 54.1461C124.893 53.587 125.306 53.2538 125.865 53.299C126.316 53.3329 126.644 53.7225 126.621 54.1743C126.616 54.3437 126.537 54.4228 126.373 54.4228H125.023C124.843 54.4171 124.752 54.3494 124.792 54.1461Z" fill="white"/>
<path d="M142.085 43.9752C143.108 43.9752 143.125 43.9527 143.051 42.9135C142.978 41.9253 142.43 41.2815 141.509 41.129C140.589 40.9709 139.759 41.4396 139.386 42.3206C139.149 42.891 139.104 43.4839 139.166 44.0825C139.267 45.1555 139.798 45.8332 140.702 46.0252C141.408 46.1777 142.097 46.076 142.758 45.7993C143.153 45.6356 142.865 45.3588 142.837 45.1386C142.803 44.8958 142.633 44.9127 142.453 44.9805C142.035 45.1329 141.6 45.1894 141.154 45.1499C140.64 45.1047 140.318 44.8167 140.228 44.3197C140.188 44.0995 140.244 43.9696 140.499 43.9696H141.583H141.577L142.085 43.9752ZM140.442 43.1733C140.295 43.1733 140.216 43.0999 140.228 42.9418C140.256 42.4166 140.741 41.9761 141.278 42.0043C141.758 42.0269 142.131 42.4731 142.074 42.9531C142.057 43.1056 141.978 43.1733 141.831 43.1733H140.442Z" fill="white"/>
<path d="M164.171 45.0652C164.544 43.9188 164.837 42.8006 165.108 41.6711C165.148 41.513 165.125 41.2928 165.317 41.2419C165.577 41.1742 165.859 41.1685 166.119 41.2419C166.294 41.2984 166.193 41.4848 166.164 41.5977C165.927 42.5013 165.684 43.4049 165.43 44.3028C165.131 45.3532 164.781 46.3923 164.402 47.4145C164.273 47.7702 163.719 47.9735 163.38 47.8041C163.239 47.7307 163.318 47.6291 163.346 47.5443C163.488 47.1377 163.629 46.7368 163.776 46.3358C163.849 46.1382 163.888 45.98 163.589 45.98C163.437 45.98 163.386 45.8558 163.346 45.7372C162.849 44.348 162.46 42.9248 162.087 41.4961C162.036 41.2928 162.098 41.2024 162.319 41.208C163.233 41.2137 163.047 41.129 163.239 41.8801C163.476 42.8288 163.719 43.7776 164.007 44.715C164.041 44.8167 164.047 44.9353 164.176 45.0595H164.171V45.0652Z" fill="white"/>
<path d="M126.699 43.6083V41.5809C126.699 41.4454 126.665 41.2477 126.874 41.2308C127.083 41.2195 127.348 41.0952 127.489 41.3437C127.602 41.5414 127.698 41.4849 127.839 41.4115C128.274 41.1799 128.732 41.0387 129.234 41.1178C130.064 41.2533 130.545 41.7164 130.578 42.5635C130.618 43.6083 130.59 44.6587 130.595 45.7091C130.595 45.9067 130.505 45.9858 130.307 45.9971C129.59 46.0536 129.556 46.031 129.556 45.3194V42.9193C129.556 42.219 129.325 42.0157 128.624 42.0609C128.545 42.0609 128.466 42.0722 128.387 42.0835C127.806 42.1908 127.743 42.2642 127.743 42.8572C127.743 43.7608 127.732 44.6587 127.743 45.5623C127.743 45.9067 127.625 46.0423 127.286 46.0027C127.207 45.9914 127.128 45.9971 127.049 46.0027C126.783 46.0253 126.687 45.8954 126.687 45.6413C126.687 44.9636 126.687 44.2916 126.687 43.6139H126.699V43.6083Z" fill="white"/>
<path d="M103.777 20.4032C103.354 20.4032 103.218 20.1999 103.376 19.7989C104.427 17.0995 105.472 14.4001 106.528 11.7007C106.595 11.5312 106.601 11.2884 106.833 11.2489C107.132 11.1981 107.448 11.1755 107.736 11.2602C107.928 11.3166 107.804 11.4917 107.764 11.6047C107.335 12.7341 106.9 13.8579 106.466 14.9818C105.839 16.6025 105.217 18.2233 104.591 19.8385C104.348 20.4653 104.449 20.3975 103.777 20.4032Z" fill="white"/>
<path d="M152.12 43.6079V45.6014C152.12 45.7426 152.154 45.9346 151.968 45.9685C151.759 46.0024 151.488 46.104 151.347 45.8725C151.228 45.6805 151.138 45.7257 150.997 45.8047C150.72 45.9628 150.421 46.0476 150.099 46.0871C149.048 46.217 148.292 45.6184 148.258 44.5567C148.224 43.5514 148.258 42.5519 148.246 41.5466C148.246 41.3038 148.342 41.2134 148.591 41.2078C149.28 41.1909 149.28 41.1852 149.28 41.8798C149.28 42.6817 149.274 43.4837 149.28 44.2799C149.291 44.9746 149.5 45.1609 150.183 45.144C150.285 45.144 150.387 45.1327 150.488 45.1157C151.047 44.9971 151.081 44.9576 151.081 44.3759C151.081 43.4611 151.093 42.5462 151.081 41.637C151.081 41.3207 151.172 41.1683 151.505 41.2078H151.539C151.928 41.2078 152.126 41.3998 152.126 41.7782V43.6023H152.12V43.6079Z" fill="white"/>
<path d="M87.0419 43.5688V41.5696C87.0419 41.4341 87.0024 41.2364 87.217 41.2251C87.4203 41.2138 87.6801 41.1009 87.8043 41.3268C87.9229 41.5414 88.0246 41.4906 88.177 41.4059C88.6458 41.1517 89.1371 41.0218 89.6736 41.1291C90.3513 41.2647 90.7692 41.6769 90.8821 42.3715C90.9951 43.0662 90.9216 43.7664 90.9386 44.4667C90.9499 44.8733 90.9386 45.2799 90.9386 45.6865C90.9386 45.8955 90.8426 45.9802 90.6336 45.9971C89.9221 46.0423 89.8995 46.031 89.8995 45.3307V42.8911C89.8995 42.236 89.6623 42.0214 89.0072 42.0497C88.9168 42.0497 88.8265 42.0609 88.7361 42.0722C88.1601 42.1682 88.0867 42.253 88.0867 42.8403V45.5115C88.0867 45.9802 88.0697 45.9915 87.5389 45.9858C87.0645 45.9858 87.0532 45.9745 87.0476 45.5228V43.5575V43.5688H87.0419Z" fill="white"/>
<path d="M97.0724 54.8631V52.8301C97.0724 52.6833 97.0555 52.5138 97.2588 52.4912C97.4564 52.4687 97.7219 52.384 97.8179 52.5929C97.9478 52.8753 98.072 52.7567 98.2301 52.672C98.7384 52.4065 99.2692 52.3049 99.834 52.4517C100.433 52.6042 100.811 52.9939 100.89 53.5981C101.031 54.7332 100.935 55.874 100.946 57.0091C100.946 57.1898 100.839 57.2689 100.664 57.2745C100.596 57.2745 100.529 57.2745 100.461 57.2802C99.9469 57.2802 99.9243 57.2576 99.9187 56.755C99.9187 55.8853 99.9187 55.0156 99.9187 54.1516C99.9074 53.4965 99.5573 53.2198 98.9022 53.3271C98.857 53.3327 98.8118 53.3496 98.7723 53.3553C98.0777 53.5021 98.0664 53.5134 98.0664 54.2137C98.0664 55.106 98.0494 55.9982 98.0664 56.8849C98.0777 57.2915 97.8348 57.2802 97.5637 57.2802C97.2927 57.2802 97.0385 57.3028 97.0555 56.8905C97.0781 56.2128 97.0555 55.5352 97.0555 54.8631H97.0668H97.0724Z" fill="white"/>
<path d="M128.587 54.8804V52.8812C128.587 52.7344 128.531 52.5311 128.757 52.5029C128.966 52.4746 129.231 52.3786 129.35 52.6553C129.446 52.8756 129.553 52.7739 129.666 52.7118C130.169 52.4294 130.694 52.3108 131.264 52.4407C131.953 52.5989 132.399 53.0902 132.416 53.8017C132.439 54.8634 132.416 55.9195 132.427 56.9812C132.427 57.1788 132.348 57.2748 132.151 57.2805C132.049 57.2805 131.947 57.2805 131.846 57.2861C131.524 57.3144 131.411 57.1788 131.422 56.8513C131.439 55.9929 131.434 55.1345 131.422 54.2818C131.422 53.4629 131.061 53.1862 130.253 53.3669C130.152 53.3895 130.056 53.4234 129.96 53.446C129.672 53.5081 129.564 53.6718 129.564 53.9768C129.581 54.9368 129.564 55.8969 129.564 56.8513C129.564 57.2635 129.525 57.2918 129.045 57.2918C128.599 57.2918 128.57 57.2635 128.57 56.8513V54.886H128.587V54.8804Z" fill="white"/>
<path d="M92.3949 44.0428C92.3949 43.5119 92.3949 42.9811 92.3949 42.4502C92.3949 42.1904 92.3328 42.0323 92.0391 42.0549C91.785 42.0775 91.6664 41.9589 91.6721 41.6991C91.6721 41.445 91.706 41.2473 92.0335 41.2643C92.3046 41.2812 92.4175 41.1287 92.3949 40.8577C92.3836 40.7221 92.3949 40.5866 92.3949 40.4511C92.4514 39.8073 92.7959 39.4232 93.434 39.2877C93.7616 39.2143 94.0835 39.2369 94.411 39.2482C94.6313 39.2538 94.7668 39.3611 94.716 39.587C94.6708 39.796 94.8007 40.1292 94.3941 40.1348H94.0214C93.5357 40.1461 93.259 40.5358 93.3945 41.0158C93.4284 41.1287 93.5018 41.1852 93.6147 41.1909H93.9536C94.411 41.1909 94.5578 41.4055 94.4336 41.8516C94.3771 42.0436 94.2303 42.0436 94.0835 42.0436C93.3041 42.0323 93.3889 42.0154 93.3889 42.7721C93.3889 43.6983 93.3776 44.6244 93.3889 45.5449C93.3889 45.8612 93.3041 45.9911 92.971 45.9854C92.3893 45.9741 92.3836 45.9854 92.3836 45.4151V44.0258V44.0428H92.3949Z" fill="white"/>
<path d="M133.753 54.9313C133.753 54.4965 133.753 54.1125 133.753 53.7284C133.753 53.4743 133.662 53.3388 133.397 53.3557C133.103 53.3727 133.053 53.1976 133.047 52.9491C133.047 52.6837 133.132 52.5312 133.408 52.5425C133.719 52.5538 133.821 52.4013 133.809 52.1077C133.809 51.9043 133.86 51.701 133.854 51.5034C133.854 51.2323 133.984 51.1646 134.233 51.1646C134.769 51.1646 134.781 51.1646 134.786 51.701C134.786 52.5199 134.702 52.4747 135.549 52.4747C136.074 52.4747 136.198 52.6441 136.079 53.1581C136.04 53.3218 135.927 53.3444 135.803 53.3501C135.577 53.3614 135.351 53.3614 135.125 53.3614C134.882 53.3614 134.781 53.4687 134.781 53.7115C134.781 54.4456 134.781 55.1798 134.781 55.9083C134.781 56.3657 134.956 56.49 135.402 56.394C135.882 56.2923 135.865 56.298 136.063 56.7272C136.181 56.9869 136.125 57.1225 135.854 57.2015C135.475 57.3145 135.097 57.4218 134.69 57.3314C134.176 57.2185 133.883 56.9192 133.792 56.4053C133.702 55.9027 133.764 55.3944 133.742 54.937L133.753 54.9313Z" fill="white"/>
<path d="M116.252 43.6367C116.252 43.23 116.252 42.8234 116.252 42.4168C116.252 42.1853 116.19 42.0385 115.93 42.0554C115.647 42.078 115.557 41.9425 115.563 41.6714C115.563 41.4229 115.608 41.2535 115.907 41.2648C116.19 41.2761 116.314 41.1123 116.314 40.8412C116.314 40.6944 116.314 40.5476 116.314 40.4007C116.325 39.8812 116.596 39.7061 117.104 39.8642C117.246 39.9094 117.263 40.0111 117.268 40.124C117.28 40.316 117.268 40.508 117.28 40.7C117.28 41.1857 117.296 41.197 117.765 41.2027C117.923 41.2027 118.081 41.2139 118.24 41.2027C118.556 41.1801 118.578 41.3721 118.578 41.6093C118.578 41.8465 118.561 42.0667 118.228 42.0554C118.014 42.0441 117.799 42.0554 117.584 42.0554C117.37 42.0554 117.274 42.1571 117.28 42.366C117.28 43.1453 117.28 43.919 117.28 44.6983C117.28 45.105 117.5 45.2123 117.974 45.0767C118.177 45.0202 118.341 44.9468 118.454 45.2348C118.68 45.7826 118.669 45.8335 118.081 45.9859C117.884 46.0368 117.686 46.065 117.477 46.0594C116.715 46.0537 116.274 45.6471 116.235 44.8847C116.212 44.4668 116.235 44.0489 116.235 43.6367H116.24H116.252Z" fill="white"/>
<path d="M159.22 43.6136C159.22 43.2183 159.209 42.823 159.22 42.4277C159.226 42.1736 159.136 42.038 158.87 42.0606C158.593 42.0832 158.531 41.9307 158.531 41.6823C158.531 41.4338 158.559 41.2587 158.87 41.27C159.169 41.2813 159.299 41.1175 159.282 40.8239C159.277 40.6996 159.282 40.5754 159.282 40.4511C159.294 39.8638 159.452 39.7509 160.033 39.8638C160.214 39.8977 160.242 40.0163 160.248 40.1575C160.254 40.3947 160.259 40.6319 160.254 40.869C160.254 41.1119 160.35 41.2248 160.598 41.2135C160.779 41.2022 160.96 41.2248 161.14 41.2135C161.445 41.1853 161.564 41.3039 161.564 41.6145C161.564 41.9251 161.496 42.1002 161.152 42.0663C161.095 42.0606 161.039 42.0663 160.982 42.0663C160.502 42.0663 160.259 42.3035 160.259 42.7778V44.6019C160.265 45.0932 160.446 45.2175 160.92 45.1045C161.056 45.0706 161.208 44.9295 161.327 45.0706C161.474 45.2401 161.547 45.466 161.592 45.6862C161.615 45.7935 161.507 45.8387 161.428 45.8726C161.005 46.0533 160.564 46.1323 160.107 46.0363C159.553 45.9177 159.248 45.5111 159.226 44.873C159.209 44.4551 159.226 44.0372 159.226 43.6193H159.22V43.6136Z" fill="white"/>
<path d="M145.834 46.0816C144.756 46.1211 144.055 45.579 143.813 44.5286C143.677 43.9243 143.677 43.32 143.813 42.7158C144.022 41.7388 144.535 41.2757 145.529 41.1232C146.032 41.0442 146.518 41.1232 147.009 41.1966C147.331 41.2418 147.269 41.4734 147.241 41.688C147.212 41.9026 147.212 42.1115 146.879 42.0776C146.535 42.0437 146.19 41.9647 145.834 42.0212C145.185 42.1341 144.931 42.36 144.807 43.0038C144.716 43.4725 144.722 43.9469 144.857 44.41C144.999 44.9013 145.303 45.1328 145.817 45.1498C146.184 45.1667 146.54 45.1102 146.879 44.9747C147.099 44.8843 147.201 44.9408 147.286 45.1611C147.483 45.6919 147.472 45.7258 146.936 45.9009C146.58 46.0138 146.213 46.0759 145.84 46.0816H145.834Z" fill="white"/>
<path d="M85.7105 42.6594C85.7105 43.6308 85.7105 44.6021 85.7105 45.5678C85.7105 45.884 85.6089 46.0422 85.2813 45.997H85.2475C84.8239 45.997 84.6093 45.7937 84.6093 45.3758V39.8583C84.6093 39.6889 84.5246 39.4517 84.7505 39.384C85.0272 39.2993 85.3378 39.2823 85.6089 39.4066C85.7388 39.4687 85.7049 39.6494 85.7049 39.7793V42.6538L85.7105 42.6594Z" fill="white"/>
<path d="M100.204 43.6079V41.5805C100.204 41.4281 100.181 41.2248 100.413 41.2304C100.633 41.2304 100.944 41.0779 101.028 41.4507C101.09 41.7048 101.186 41.637 101.316 41.5128C101.683 41.1739 102.135 41.1118 102.609 41.1118C102.847 41.1118 102.948 41.2191 102.943 41.4676C102.926 42.0097 102.897 42.0493 102.35 42.0549C102.248 42.0549 102.146 42.0549 102.045 42.0606C101.395 42.1057 101.237 42.2752 101.237 42.9077V45.5788C101.237 45.9855 101.203 46.0024 100.701 45.9967C100.238 45.9967 100.209 45.9798 100.209 45.5676V43.6079H100.204Z" fill="white"/>
<path d="M154.297 41.7048C154.703 41.2135 155.206 41.1006 155.759 41.1006C156.013 41.1006 156.143 41.1966 156.093 41.4733C156.076 41.558 156.081 41.654 156.081 41.7444C156.081 41.9703 155.98 42.0606 155.748 42.055C155.432 42.0493 155.116 42.0267 154.811 42.134C154.517 42.2357 154.381 42.3995 154.387 42.727C154.404 43.6758 154.393 44.6189 154.387 45.5676C154.387 45.9855 154.364 45.9968 153.867 45.9968C153.41 45.9968 153.399 45.9855 153.399 45.5563V41.6653C153.399 41.4959 153.297 41.2418 153.608 41.2192C153.867 41.2022 154.178 41.1232 154.223 41.5354C154.223 41.575 154.257 41.6145 154.297 41.7048Z" fill="white"/>
<path d="M157.815 43.6419C157.815 44.2857 157.804 44.9295 157.815 45.5733C157.821 45.8896 157.713 46.0138 157.386 46.0082C156.781 45.9912 156.781 46.0082 156.781 45.4152V41.6597C156.781 41.2362 156.798 41.2249 157.256 41.2192C157.787 41.2192 157.804 41.2249 157.809 41.6541V43.6532V43.6419H157.815Z" fill="white"/>
<path d="M120.5 43.6082C120.5 44.2746 120.488 44.941 120.5 45.6017C120.5 45.8897 120.404 46.0253 120.11 45.997C120.008 45.9857 119.907 45.9914 119.805 45.997C119.59 46.0083 119.5 45.9123 119.5 45.6921V41.4961C119.5 41.2984 119.573 41.1968 119.777 41.2137H119.811C120.262 41.1911 120.488 41.4001 120.494 41.8462V43.6026L120.5 43.6082Z" fill="white"/>
<path d="M119.993 40.4341C119.683 40.4341 119.44 40.1856 119.445 39.875C119.445 39.5814 119.688 39.3329 119.976 39.3272C120.276 39.3216 120.541 39.5701 120.547 39.875C120.547 40.1743 120.298 40.4341 119.993 40.4341Z" fill="white"/>
<path d="M157.84 39.8867C157.84 40.203 157.597 40.4402 157.287 40.4345C156.993 40.4289 156.756 40.1917 156.75 39.898C156.744 39.5931 156.993 39.3276 157.292 39.3276C157.592 39.3276 157.84 39.5705 157.84 39.8867Z" fill="white"/>
</g>
<defs>
<clipPath id="clip0_185_581">
<rect width="172.334" height="80" fill="white"/>
</clipPath>
</defs>
</svg>
