<svg width="25" height="24" viewBox="0 0 25 24" fill="none" xmlns="http://www.w3.org/2000/svg">
<path d="M21.4513 9.46013L13.4984 1.50728C12.6763 0.685096 11.3384 0.685049 10.5161 1.50728C9.77701 2.24636 9.71336 3.37356 10.2592 4.17845L10.2481 4.23381C9.67473 7.10091 8.27885 9.70922 6.21124 11.7768L2.56348 15.4245C1.73933 16.2487 1.73919 17.5826 2.56348 18.4068L4.55163 20.395C5.37574 21.2191 6.70971 21.2192 7.53391 20.395L8.03097 19.8979L11.5103 23.3772C12.3345 24.2014 13.6683 24.2015 14.4925 23.3772C15.3148 22.5551 15.3148 21.2172 14.4925 20.395L13.0014 18.9039L13.4985 18.4068C14.3226 17.5827 14.3227 16.2488 13.4985 15.4246L13.1607 15.0868C14.8223 13.9234 16.7095 13.1134 18.7248 12.7103L18.7808 12.6991C19.6036 13.2546 20.7282 13.1654 21.4513 12.4423H21.4513C22.2734 11.6202 22.2734 10.2824 21.4513 9.46013ZM6.53983 19.4009C6.26515 19.6755 5.8204 19.6756 5.54571 19.4008L3.55756 17.4127C3.28282 17.1379 3.28282 16.6933 3.55756 16.4186L7.03685 12.9393L10.0191 15.9215C9.67872 16.262 6.88863 19.052 6.53983 19.4009ZM13.4984 21.389C13.7724 21.6631 13.7724 22.109 13.4984 22.3831C13.2244 22.6571 12.7784 22.6571 12.5043 22.3831L9.025 18.9038L10.0191 17.9097L13.4984 21.389ZM11.0132 16.9156C11.2245 16.7043 11.5408 16.3806 12.04 15.9543L12.5043 16.4186C12.7791 16.6933 12.7791 17.1379 12.5043 17.4127L12.0073 17.9097L11.0132 16.9156ZM11.0431 14.9574L8.00097 11.9153C9.63123 10.0328 10.7987 7.81074 11.4233 5.39668L17.5617 11.535C15.1476 12.1596 12.9256 13.3271 11.0431 14.9574ZM20.457 11.4482C20.1823 11.7229 19.7377 11.7229 19.463 11.4482L11.5102 3.49543C11.2355 3.22065 11.2355 2.77609 11.5102 2.50136C11.7849 2.22662 12.2296 2.22662 12.5043 2.50136L20.457 10.4541C20.7311 10.7281 20.7311 11.1741 20.457 11.4482Z" fill="#242733"/>
<path d="M7.53387 15.4285C7.25942 15.154 6.81429 15.154 6.5398 15.4285L5.54572 16.4226C5.27122 16.6971 5.27122 17.1422 5.54572 17.4167C5.82017 17.6912 6.26534 17.6912 6.5398 17.4167L7.53387 16.4226C7.80837 16.1481 7.80837 15.703 7.53387 15.4285Z" fill="#242733"/>
<path d="M16.7303 0C16.3421 0 16.0273 0.314718 16.0273 0.702936V2.10881C16.0273 2.49703 16.3421 2.81174 16.7303 2.81174C17.1185 2.81174 17.4332 2.49703 17.4332 2.10881V0.702936C17.4332 0.314718 17.1185 0 16.7303 0Z" fill="#242733"/>
<path d="M22.3549 5.625H20.949C20.5608 5.625 20.2461 5.93972 20.2461 6.32794C20.2461 6.71615 20.5608 7.03087 20.949 7.03087H22.3549C22.7431 7.03087 23.0578 6.71615 23.0578 6.32794C23.0578 5.93972 22.7431 5.625 22.3549 5.625Z" fill="#242733"/>
<path d="M21.4457 1.61212C21.1712 1.33763 20.7261 1.33763 20.4516 1.61212L19.0457 3.018C18.7712 3.2925 18.7712 3.73757 19.0457 4.01207C19.3202 4.28657 19.7653 4.28662 20.0398 4.01207L21.4457 2.6062C21.7202 2.3317 21.7202 1.88667 21.4457 1.61212Z" fill="#242733"/>
</svg>
