<svg width="24" height="24" viewBox="0 0 24 24" fill="none" xmlns="http://www.w3.org/2000/svg">
<path d="M20.9513 9.46013L12.9984 1.50728C12.1763 0.685096 10.8384 0.685049 10.0161 1.50728C9.27701 2.24636 9.21336 3.37356 9.75917 4.17845L9.74811 4.23381C9.17473 7.10091 7.77885 9.70922 5.71124 11.7768L2.06348 15.4245C1.23933 16.2487 1.23919 17.5826 2.06348 18.4068L4.05163 20.395C4.87574 21.2191 6.20971 21.2192 7.03391 20.395L7.53097 19.8979L11.0103 23.3772C11.8345 24.2014 13.1683 24.2015 13.9925 23.3772C14.8148 22.5551 14.8148 21.2172 13.9925 20.395L12.5014 18.9039L12.9985 18.4068C13.8226 17.5827 13.8227 16.2488 12.9985 15.4246L12.6607 15.0868C14.3223 13.9234 16.2095 13.1134 18.2248 12.7103L18.2808 12.6991C19.1036 13.2546 20.2282 13.1654 20.9513 12.4423H20.9513C21.7734 11.6202 21.7734 10.2824 20.9513 9.46013ZM6.03983 19.4009C5.76515 19.6755 5.3204 19.6756 5.04571 19.4008L3.05756 17.4127C2.78282 17.1379 2.78282 16.6933 3.05756 16.4186L6.53685 12.9393L9.51912 15.9215C9.17872 16.262 6.38863 19.052 6.03983 19.4009ZM12.9984 21.389C13.2724 21.6631 13.2724 22.109 12.9984 22.3831C12.7244 22.6571 12.2784 22.6571 12.0043 22.3831L8.525 18.9038L9.51912 17.9097L12.9984 21.389ZM10.5132 16.9156C10.7245 16.7043 11.0408 16.3806 11.54 15.9543L12.0043 16.4186C12.2791 16.6933 12.2791 17.1379 12.0043 17.4127L11.5073 17.9097L10.5132 16.9156ZM10.5431 14.9574L7.50097 11.9153C9.13123 10.0328 10.2987 7.81074 10.9233 5.39668L17.0617 11.535C14.6476 12.1596 12.4256 13.3271 10.5431 14.9574ZM19.957 11.4482C19.6823 11.7229 19.2377 11.7229 18.963 11.4482L11.0102 3.49543C10.7355 3.22065 10.7355 2.77609 11.0102 2.50136C11.2849 2.22662 11.7296 2.22662 12.0043 2.50136L19.957 10.4541C20.2311 10.7281 20.2311 11.1741 19.957 11.4482Z" fill="#4E546D"/>
<path d="M7.03387 15.4285C6.75942 15.154 6.31429 15.154 6.0398 15.4285L5.04572 16.4226C4.77122 16.6971 4.77122 17.1422 5.04572 17.4167C5.32017 17.6912 5.76534 17.6912 6.0398 17.4167L7.03387 16.4226C7.30837 16.1481 7.30837 15.703 7.03387 15.4285Z" fill="#4E546D"/>
<path d="M16.2303 0C15.8421 0 15.5273 0.314718 15.5273 0.702936V2.10881C15.5273 2.49703 15.8421 2.81174 16.2303 2.81174C16.6185 2.81174 16.9332 2.49703 16.9332 2.10881V0.702936C16.9332 0.314718 16.6185 0 16.2303 0Z" fill="#4E546D"/>
<path d="M21.8549 5.625H20.449C20.0608 5.625 19.7461 5.93972 19.7461 6.32794C19.7461 6.71615 20.0608 7.03087 20.449 7.03087H21.8549C22.2431 7.03087 22.5578 6.71615 22.5578 6.32794C22.5578 5.93972 22.2431 5.625 21.8549 5.625Z" fill="#4E546D"/>
<path d="M20.9457 1.61212C20.6712 1.33763 20.2261 1.33763 19.9516 1.61212L18.5457 3.018C18.2712 3.2925 18.2712 3.73757 18.5457 4.01207C18.8202 4.28657 19.2653 4.28662 19.5398 4.01207L20.9457 2.6062C21.2202 2.3317 21.2202 1.88667 20.9457 1.61212Z" fill="#4E546D"/>
</svg>
