<svg width="24" height="22" viewBox="0 0 24 22" fill="none" xmlns="http://www.w3.org/2000/svg">
<mask id="path-1-outside-1_455_12388" maskUnits="userSpaceOnUse" x="-1" y="-0.304062" width="26" height="22" fill="black">
<rect fill="white" x="-1" y="-0.304062" width="26" height="22"/>
<path d="M23.3892 17.9352H22.2113V5.41531C22.2113 4.94984 21.8325 4.57109 21.367 4.57109H17.4225L17.5791 4.26359C17.7534 3.92375 17.6892 3.51359 17.4188 3.24313L16.3875 2.21328C16.1194 1.94281 15.7102 1.87719 15.3684 2.05016L14.4731 2.50672C14.4333 2.52688 14.4014 2.52734 14.3597 2.50859C14.2223 2.44578 14.085 2.38906 13.9519 2.33984C13.9102 2.32391 13.8886 2.30141 13.875 2.25922L13.5642 1.30297C13.447 0.940157 13.1119 0.695938 12.7298 0.695938H11.2697C10.89 0.695938 10.5553 0.939219 10.4358 1.30203L10.125 2.25922C10.1114 2.30141 10.0894 2.32391 10.0495 2.33891C9.91594 2.38813 9.77812 2.44484 9.63984 2.50813C9.59859 2.52688 9.56719 2.52641 9.52828 2.50719L8.63062 2.04922C8.28516 1.87531 7.88578 1.93953 7.61344 2.21188L6.58078 3.24313C6.31031 3.51359 6.24609 3.92328 6.42 4.26219L6.57703 4.57109H2.63297C2.1675 4.57109 1.78875 4.94984 1.78875 5.41531V14.6928C1.78875 14.9 1.95656 15.0683 2.16422 15.0683C2.37187 15.0683 2.53969 14.9005 2.53969 14.6928V5.41531C2.53969 5.36469 2.58281 5.32156 2.63344 5.32156H6.85594C6.80297 5.43875 6.75281 5.55828 6.70781 5.68063C6.69328 5.72094 6.67078 5.74203 6.62812 5.75609L5.67375 6.06688C5.61422 6.08609 5.55844 6.11141 5.50594 6.14188H3.96984C3.63328 6.14188 3.35906 6.41516 3.35906 6.75125V16.5055C3.35906 16.842 3.63281 17.1163 3.96984 17.1163H20.0302C20.3667 17.1163 20.6409 16.8425 20.6409 16.5055V6.75078C20.6409 6.41469 20.3672 6.14141 20.0302 6.14141H18.495C18.4425 6.11141 18.3867 6.08563 18.3272 6.06688L17.3714 5.75609C17.3292 5.7425 17.3067 5.72141 17.2917 5.67922C17.2491 5.56297 17.1998 5.44344 17.1459 5.32156H21.367C21.4177 5.32156 21.4608 5.36469 21.4608 5.41531V17.9352H14.6048H9.39516H2.53922V15.7236C2.53922 15.5164 2.37141 15.3481 2.16375 15.3481C1.95609 15.3481 1.78828 15.5159 1.78828 15.7236V17.9352H0.611719C0.274219 17.9352 0 18.2098 0 18.5469V19.6194C0 20.548 0.755625 21.3036 1.68422 21.3036H22.3153C23.2439 21.3036 23.9995 20.548 23.9995 19.6194V18.5469C24 18.2098 23.7258 17.9352 23.3892 17.9352ZM19.89 16.3648H4.11V6.89234H5.06719C5.06719 6.89516 5.06672 6.89797 5.06672 6.90078V8.35953C5.06672 8.73969 5.31 9.07531 5.67328 9.19484L6.62859 9.50422C6.67031 9.51781 6.69328 9.53984 6.70828 9.58109C6.75938 9.72078 6.8175 9.85953 6.87891 9.99078C6.89766 10.0311 6.89672 10.062 6.87609 10.1023L6.42094 10.9967C6.24656 11.3366 6.31078 11.7467 6.58125 12.0172L7.61344 13.048C7.88625 13.3208 8.28563 13.3845 8.63297 13.2097L9.52688 12.7531C9.56719 12.733 9.59859 12.7325 9.63984 12.7513C9.77766 12.8145 9.91547 12.8713 10.0472 12.9195C10.0894 12.9355 10.1114 12.958 10.125 13.0002L10.4362 13.9583C10.5553 14.3202 10.8905 14.563 11.2697 14.563H12.7298C13.1114 14.563 13.447 14.3192 13.5637 13.9569L13.875 13.0016C13.8886 12.9594 13.9106 12.9369 13.9505 12.9219C14.0841 12.8727 14.2219 12.8159 14.3602 12.7527C14.4009 12.7339 14.4333 12.7344 14.4717 12.7541L15.3694 13.2116C15.7102 13.3845 16.1194 13.3184 16.3861 13.0494L17.4188 12.0181C17.6892 11.7477 17.7534 11.338 17.5795 10.9991L17.1244 10.1047C17.1038 10.0644 17.1033 10.0334 17.1225 9.99125C17.1858 9.85344 17.2425 9.71563 17.2917 9.58156C17.3067 9.54078 17.3297 9.51875 17.3714 9.50516L18.3286 9.19484C18.6905 9.07578 18.9333 8.74016 18.9333 8.36V6.90125C18.9333 6.89844 18.9328 6.89563 18.9328 6.89281H19.89V16.3648ZM18.0966 6.78125C18.1519 6.79906 18.1828 6.84172 18.1828 6.90078V8.35953C18.1828 8.41813 18.1505 8.46266 18.0956 8.48094L17.1403 8.79078C16.8783 8.87563 16.6819 9.065 16.5877 9.32281C16.545 9.43859 16.4958 9.55859 16.4419 9.67578C16.3256 9.92375 16.3303 10.1961 16.4555 10.4436L16.912 11.3403C16.9387 11.3919 16.9303 11.4453 16.8891 11.4866L15.8555 12.5188C15.8152 12.5595 15.7622 12.5675 15.7106 12.5417L14.8125 12.0847C14.5688 11.9605 14.2973 11.9553 14.0475 12.0697C13.927 12.125 13.8075 12.1742 13.6894 12.2178C13.433 12.3139 13.2455 12.5098 13.1611 12.7695L12.8498 13.7267C12.832 13.782 12.7884 13.8134 12.7298 13.8134H11.2697C11.2116 13.8134 11.168 13.7811 11.1497 13.7258L10.8389 12.7691C10.7545 12.5094 10.567 12.3134 10.3083 12.2164C10.1925 12.1738 10.073 12.1245 9.9525 12.0692C9.83344 12.0144 9.70875 11.9872 9.58453 11.9872C9.44953 11.9872 9.31453 12.0195 9.18656 12.0842L8.29266 12.5403C8.23875 12.5675 8.18578 12.5591 8.14359 12.5169L7.11141 11.4861C7.07016 11.4448 7.06172 11.3914 7.08891 11.3384L7.54406 10.4441C7.66969 10.1998 7.67531 9.9275 7.55953 9.67484C7.50609 9.56 7.45641 9.44141 7.41281 9.32234C7.31812 9.06406 7.12219 8.87516 6.85969 8.78984L5.90625 8.48141C5.85 8.46266 5.81766 8.41859 5.81766 8.35953V6.90078C5.81766 6.84266 5.84906 6.79859 5.90531 6.78078L6.86063 6.47C7.12359 6.38469 7.32 6.19531 7.41328 5.93797C7.45734 5.81844 7.50656 5.69938 7.56094 5.58359C7.67672 5.33375 7.67063 5.06094 7.54547 4.81719L7.08891 3.92047C7.06219 3.86891 7.07062 3.81547 7.11188 3.77422L8.14453 2.74297C8.18672 2.70078 8.23969 2.69234 8.29172 2.71906L9.18891 3.17703C9.43312 3.30031 9.70453 3.305 9.9525 3.19109C10.073 3.13578 10.193 3.08656 10.3111 3.04297C10.5675 2.94688 10.755 2.75094 10.8394 2.49125L11.1497 1.53594C11.1684 1.47969 11.212 1.44734 11.2702 1.44734H12.7303C12.7889 1.44734 12.8325 1.47875 12.8503 1.535L13.1611 2.49172C13.2455 2.75141 13.433 2.94734 13.6894 3.04344C13.6903 3.04391 13.6908 3.04391 13.6917 3.04438C13.8075 3.08703 13.927 3.13625 14.0475 3.19156C14.2964 3.30547 14.5673 3.30078 14.813 3.17703L15.7092 2.72047C15.7613 2.69422 15.8147 2.70219 15.8564 2.74438L16.8886 3.77516C16.9298 3.81641 16.9383 3.86984 16.9111 3.92281L16.455 4.81953C16.3308 5.06609 16.3261 5.33844 16.4409 5.58313C16.4958 5.70359 16.5455 5.82313 16.5877 5.9375C16.6814 6.19625 16.8778 6.38563 17.1403 6.47094L18.0966 6.78125ZM14.2298 18.6861V18.9125C14.2298 19.0353 14.1262 19.1389 14.0034 19.1389H9.9975C9.87469 19.1389 9.77109 19.0353 9.77109 18.9125V18.6861H14.2298ZM23.2491 19.6194C23.2491 20.1341 22.8305 20.5527 22.3158 20.5527H1.68422C1.16953 20.5527 0.750938 20.1341 0.750938 19.6194V18.6861H9.01969V18.9125C9.01969 19.4516 9.45797 19.8898 9.99703 19.8898H14.003C14.542 19.8898 14.9803 19.4516 14.9803 18.9125V18.6861H23.2491V19.6194ZM12.9952 7.11734C12.9952 6.5675 12.5484 6.12031 11.9991 6.12031H11.1516C10.9444 6.12031 10.7761 6.28813 10.7761 6.49578V8.76547C10.7761 8.97266 10.9439 9.14094 11.1516 9.14094C11.3592 9.14094 11.527 8.97312 11.527 8.76547V8.11484H11.67L12.1542 8.95297C12.2236 9.07344 12.3497 9.14047 12.4795 9.14047C12.5433 9.14047 12.608 9.12406 12.667 9.08984C12.8466 8.98625 12.908 8.75656 12.8044 8.57703L12.4688 7.99672C12.7819 7.82844 12.9952 7.4975 12.9952 7.11734ZM11.527 6.87078H11.9995C12.1345 6.87078 12.2447 6.98141 12.2447 7.11734C12.2447 7.25094 12.1322 7.36391 11.9995 7.36391H11.527V6.87078ZM14.8191 6.12031H13.9725C13.7653 6.12031 13.597 6.28813 13.597 6.49578V8.76547C13.597 8.97266 13.7648 9.14094 13.9725 9.14094C14.1802 9.14094 14.348 8.97312 14.348 8.76547V8.11484H14.8191C15.3689 8.11484 15.8161 7.66766 15.8161 7.11781C15.8161 6.56797 15.3689 6.12031 14.8191 6.12031ZM14.8191 7.36391H14.348V6.87078H14.8191C14.955 6.87078 15.0656 6.98141 15.0656 7.11734C15.0656 7.25328 14.955 7.36391 14.8191 7.36391ZM8.93438 6.87078V7.25469H9.81047C10.0177 7.25469 10.1859 7.4225 10.1859 7.63016C10.1859 7.83781 10.0181 8.00563 9.81047 8.00563H8.93438V8.38953H9.81047C10.0177 8.38953 10.1859 8.55734 10.1859 8.765C10.1859 8.97266 10.0181 9.14047 9.81047 9.14047H8.55891C8.35172 9.14047 8.18344 8.97266 8.18344 8.765V6.49531C8.18344 6.28813 8.35125 6.11984 8.55891 6.11984H9.81047C10.0177 6.11984 10.1859 6.28766 10.1859 6.49531C10.1859 6.70297 10.0181 6.87078 9.81047 6.87078H8.93438Z"/>
</mask>
<path d="M23.3892 17.9352H22.2113V5.41531C22.2113 4.94984 21.8325 4.57109 21.367 4.57109H17.4225L17.5791 4.26359C17.7534 3.92375 17.6892 3.51359 17.4188 3.24313L16.3875 2.21328C16.1194 1.94281 15.7102 1.87719 15.3684 2.05016L14.4731 2.50672C14.4333 2.52688 14.4014 2.52734 14.3597 2.50859C14.2223 2.44578 14.085 2.38906 13.9519 2.33984C13.9102 2.32391 13.8886 2.30141 13.875 2.25922L13.5642 1.30297C13.447 0.940157 13.1119 0.695938 12.7298 0.695938H11.2697C10.89 0.695938 10.5553 0.939219 10.4358 1.30203L10.125 2.25922C10.1114 2.30141 10.0894 2.32391 10.0495 2.33891C9.91594 2.38813 9.77812 2.44484 9.63984 2.50813C9.59859 2.52688 9.56719 2.52641 9.52828 2.50719L8.63062 2.04922C8.28516 1.87531 7.88578 1.93953 7.61344 2.21188L6.58078 3.24313C6.31031 3.51359 6.24609 3.92328 6.42 4.26219L6.57703 4.57109H2.63297C2.1675 4.57109 1.78875 4.94984 1.78875 5.41531V14.6928C1.78875 14.9 1.95656 15.0683 2.16422 15.0683C2.37187 15.0683 2.53969 14.9005 2.53969 14.6928V5.41531C2.53969 5.36469 2.58281 5.32156 2.63344 5.32156H6.85594C6.80297 5.43875 6.75281 5.55828 6.70781 5.68063C6.69328 5.72094 6.67078 5.74203 6.62812 5.75609L5.67375 6.06688C5.61422 6.08609 5.55844 6.11141 5.50594 6.14188H3.96984C3.63328 6.14188 3.35906 6.41516 3.35906 6.75125V16.5055C3.35906 16.842 3.63281 17.1163 3.96984 17.1163H20.0302C20.3667 17.1163 20.6409 16.8425 20.6409 16.5055V6.75078C20.6409 6.41469 20.3672 6.14141 20.0302 6.14141H18.495C18.4425 6.11141 18.3867 6.08563 18.3272 6.06688L17.3714 5.75609C17.3292 5.7425 17.3067 5.72141 17.2917 5.67922C17.2491 5.56297 17.1998 5.44344 17.1459 5.32156H21.367C21.4177 5.32156 21.4608 5.36469 21.4608 5.41531V17.9352H14.6048H9.39516H2.53922V15.7236C2.53922 15.5164 2.37141 15.3481 2.16375 15.3481C1.95609 15.3481 1.78828 15.5159 1.78828 15.7236V17.9352H0.611719C0.274219 17.9352 0 18.2098 0 18.5469V19.6194C0 20.548 0.755625 21.3036 1.68422 21.3036H22.3153C23.2439 21.3036 23.9995 20.548 23.9995 19.6194V18.5469C24 18.2098 23.7258 17.9352 23.3892 17.9352ZM19.89 16.3648H4.11V6.89234H5.06719C5.06719 6.89516 5.06672 6.89797 5.06672 6.90078V8.35953C5.06672 8.73969 5.31 9.07531 5.67328 9.19484L6.62859 9.50422C6.67031 9.51781 6.69328 9.53984 6.70828 9.58109C6.75938 9.72078 6.8175 9.85953 6.87891 9.99078C6.89766 10.0311 6.89672 10.062 6.87609 10.1023L6.42094 10.9967C6.24656 11.3366 6.31078 11.7467 6.58125 12.0172L7.61344 13.048C7.88625 13.3208 8.28563 13.3845 8.63297 13.2097L9.52688 12.7531C9.56719 12.733 9.59859 12.7325 9.63984 12.7513C9.77766 12.8145 9.91547 12.8713 10.0472 12.9195C10.0894 12.9355 10.1114 12.958 10.125 13.0002L10.4362 13.9583C10.5553 14.3202 10.8905 14.563 11.2697 14.563H12.7298C13.1114 14.563 13.447 14.3192 13.5637 13.9569L13.875 13.0016C13.8886 12.9594 13.9106 12.9369 13.9505 12.9219C14.0841 12.8727 14.2219 12.8159 14.3602 12.7527C14.4009 12.7339 14.4333 12.7344 14.4717 12.7541L15.3694 13.2116C15.7102 13.3845 16.1194 13.3184 16.3861 13.0494L17.4188 12.0181C17.6892 11.7477 17.7534 11.338 17.5795 10.9991L17.1244 10.1047C17.1038 10.0644 17.1033 10.0334 17.1225 9.99125C17.1858 9.85344 17.2425 9.71563 17.2917 9.58156C17.3067 9.54078 17.3297 9.51875 17.3714 9.50516L18.3286 9.19484C18.6905 9.07578 18.9333 8.74016 18.9333 8.36V6.90125C18.9333 6.89844 18.9328 6.89563 18.9328 6.89281H19.89V16.3648ZM18.0966 6.78125C18.1519 6.79906 18.1828 6.84172 18.1828 6.90078V8.35953C18.1828 8.41813 18.1505 8.46266 18.0956 8.48094L17.1403 8.79078C16.8783 8.87563 16.6819 9.065 16.5877 9.32281C16.545 9.43859 16.4958 9.55859 16.4419 9.67578C16.3256 9.92375 16.3303 10.1961 16.4555 10.4436L16.912 11.3403C16.9387 11.3919 16.9303 11.4453 16.8891 11.4866L15.8555 12.5188C15.8152 12.5595 15.7622 12.5675 15.7106 12.5417L14.8125 12.0847C14.5688 11.9605 14.2973 11.9553 14.0475 12.0697C13.927 12.125 13.8075 12.1742 13.6894 12.2178C13.433 12.3139 13.2455 12.5098 13.1611 12.7695L12.8498 13.7267C12.832 13.782 12.7884 13.8134 12.7298 13.8134H11.2697C11.2116 13.8134 11.168 13.7811 11.1497 13.7258L10.8389 12.7691C10.7545 12.5094 10.567 12.3134 10.3083 12.2164C10.1925 12.1738 10.073 12.1245 9.9525 12.0692C9.83344 12.0144 9.70875 11.9872 9.58453 11.9872C9.44953 11.9872 9.31453 12.0195 9.18656 12.0842L8.29266 12.5403C8.23875 12.5675 8.18578 12.5591 8.14359 12.5169L7.11141 11.4861C7.07016 11.4448 7.06172 11.3914 7.08891 11.3384L7.54406 10.4441C7.66969 10.1998 7.67531 9.9275 7.55953 9.67484C7.50609 9.56 7.45641 9.44141 7.41281 9.32234C7.31812 9.06406 7.12219 8.87516 6.85969 8.78984L5.90625 8.48141C5.85 8.46266 5.81766 8.41859 5.81766 8.35953V6.90078C5.81766 6.84266 5.84906 6.79859 5.90531 6.78078L6.86063 6.47C7.12359 6.38469 7.32 6.19531 7.41328 5.93797C7.45734 5.81844 7.50656 5.69938 7.56094 5.58359C7.67672 5.33375 7.67063 5.06094 7.54547 4.81719L7.08891 3.92047C7.06219 3.86891 7.07062 3.81547 7.11188 3.77422L8.14453 2.74297C8.18672 2.70078 8.23969 2.69234 8.29172 2.71906L9.18891 3.17703C9.43312 3.30031 9.70453 3.305 9.9525 3.19109C10.073 3.13578 10.193 3.08656 10.3111 3.04297C10.5675 2.94688 10.755 2.75094 10.8394 2.49125L11.1497 1.53594C11.1684 1.47969 11.212 1.44734 11.2702 1.44734H12.7303C12.7889 1.44734 12.8325 1.47875 12.8503 1.535L13.1611 2.49172C13.2455 2.75141 13.433 2.94734 13.6894 3.04344C13.6903 3.04391 13.6908 3.04391 13.6917 3.04438C13.8075 3.08703 13.927 3.13625 14.0475 3.19156C14.2964 3.30547 14.5673 3.30078 14.813 3.17703L15.7092 2.72047C15.7613 2.69422 15.8147 2.70219 15.8564 2.74438L16.8886 3.77516C16.9298 3.81641 16.9383 3.86984 16.9111 3.92281L16.455 4.81953C16.3308 5.06609 16.3261 5.33844 16.4409 5.58313C16.4958 5.70359 16.5455 5.82313 16.5877 5.9375C16.6814 6.19625 16.8778 6.38563 17.1403 6.47094L18.0966 6.78125ZM14.2298 18.6861V18.9125C14.2298 19.0353 14.1262 19.1389 14.0034 19.1389H9.9975C9.87469 19.1389 9.77109 19.0353 9.77109 18.9125V18.6861H14.2298ZM23.2491 19.6194C23.2491 20.1341 22.8305 20.5527 22.3158 20.5527H1.68422C1.16953 20.5527 0.750938 20.1341 0.750938 19.6194V18.6861H9.01969V18.9125C9.01969 19.4516 9.45797 19.8898 9.99703 19.8898H14.003C14.542 19.8898 14.9803 19.4516 14.9803 18.9125V18.6861H23.2491V19.6194ZM12.9952 7.11734C12.9952 6.5675 12.5484 6.12031 11.9991 6.12031H11.1516C10.9444 6.12031 10.7761 6.28813 10.7761 6.49578V8.76547C10.7761 8.97266 10.9439 9.14094 11.1516 9.14094C11.3592 9.14094 11.527 8.97312 11.527 8.76547V8.11484H11.67L12.1542 8.95297C12.2236 9.07344 12.3497 9.14047 12.4795 9.14047C12.5433 9.14047 12.608 9.12406 12.667 9.08984C12.8466 8.98625 12.908 8.75656 12.8044 8.57703L12.4688 7.99672C12.7819 7.82844 12.9952 7.4975 12.9952 7.11734ZM11.527 6.87078H11.9995C12.1345 6.87078 12.2447 6.98141 12.2447 7.11734C12.2447 7.25094 12.1322 7.36391 11.9995 7.36391H11.527V6.87078ZM14.8191 6.12031H13.9725C13.7653 6.12031 13.597 6.28813 13.597 6.49578V8.76547C13.597 8.97266 13.7648 9.14094 13.9725 9.14094C14.1802 9.14094 14.348 8.97312 14.348 8.76547V8.11484H14.8191C15.3689 8.11484 15.8161 7.66766 15.8161 7.11781C15.8161 6.56797 15.3689 6.12031 14.8191 6.12031ZM14.8191 7.36391H14.348V6.87078H14.8191C14.955 6.87078 15.0656 6.98141 15.0656 7.11734C15.0656 7.25328 14.955 7.36391 14.8191 7.36391ZM8.93438 6.87078V7.25469H9.81047C10.0177 7.25469 10.1859 7.4225 10.1859 7.63016C10.1859 7.83781 10.0181 8.00563 9.81047 8.00563H8.93438V8.38953H9.81047C10.0177 8.38953 10.1859 8.55734 10.1859 8.765C10.1859 8.97266 10.0181 9.14047 9.81047 9.14047H8.55891C8.35172 9.14047 8.18344 8.97266 8.18344 8.765V6.49531C8.18344 6.28813 8.35125 6.11984 8.55891 6.11984H9.81047C10.0177 6.11984 10.1859 6.28766 10.1859 6.49531C10.1859 6.70297 10.0181 6.87078 9.81047 6.87078H8.93438Z" fill="#4E546D"/>
<path d="M23.3892 17.9352H22.2113V5.41531C22.2113 4.94984 21.8325 4.57109 21.367 4.57109H17.4225L17.5791 4.26359C17.7534 3.92375 17.6892 3.51359 17.4188 3.24313L16.3875 2.21328C16.1194 1.94281 15.7102 1.87719 15.3684 2.05016L14.4731 2.50672C14.4333 2.52688 14.4014 2.52734 14.3597 2.50859C14.2223 2.44578 14.085 2.38906 13.9519 2.33984C13.9102 2.32391 13.8886 2.30141 13.875 2.25922L13.5642 1.30297C13.447 0.940157 13.1119 0.695938 12.7298 0.695938H11.2697C10.89 0.695938 10.5553 0.939219 10.4358 1.30203L10.125 2.25922C10.1114 2.30141 10.0894 2.32391 10.0495 2.33891C9.91594 2.38813 9.77812 2.44484 9.63984 2.50813C9.59859 2.52688 9.56719 2.52641 9.52828 2.50719L8.63062 2.04922C8.28516 1.87531 7.88578 1.93953 7.61344 2.21188L6.58078 3.24313C6.31031 3.51359 6.24609 3.92328 6.42 4.26219L6.57703 4.57109H2.63297C2.1675 4.57109 1.78875 4.94984 1.78875 5.41531V14.6928C1.78875 14.9 1.95656 15.0683 2.16422 15.0683C2.37187 15.0683 2.53969 14.9005 2.53969 14.6928V5.41531C2.53969 5.36469 2.58281 5.32156 2.63344 5.32156H6.85594C6.80297 5.43875 6.75281 5.55828 6.70781 5.68063C6.69328 5.72094 6.67078 5.74203 6.62812 5.75609L5.67375 6.06688C5.61422 6.08609 5.55844 6.11141 5.50594 6.14188H3.96984C3.63328 6.14188 3.35906 6.41516 3.35906 6.75125V16.5055C3.35906 16.842 3.63281 17.1163 3.96984 17.1163H20.0302C20.3667 17.1163 20.6409 16.8425 20.6409 16.5055V6.75078C20.6409 6.41469 20.3672 6.14141 20.0302 6.14141H18.495C18.4425 6.11141 18.3867 6.08563 18.3272 6.06688L17.3714 5.75609C17.3292 5.7425 17.3067 5.72141 17.2917 5.67922C17.2491 5.56297 17.1998 5.44344 17.1459 5.32156H21.367C21.4177 5.32156 21.4608 5.36469 21.4608 5.41531V17.9352H14.6048H9.39516H2.53922V15.7236C2.53922 15.5164 2.37141 15.3481 2.16375 15.3481C1.95609 15.3481 1.78828 15.5159 1.78828 15.7236V17.9352H0.611719C0.274219 17.9352 0 18.2098 0 18.5469V19.6194C0 20.548 0.755625 21.3036 1.68422 21.3036H22.3153C23.2439 21.3036 23.9995 20.548 23.9995 19.6194V18.5469C24 18.2098 23.7258 17.9352 23.3892 17.9352ZM19.89 16.3648H4.11V6.89234H5.06719C5.06719 6.89516 5.06672 6.89797 5.06672 6.90078V8.35953C5.06672 8.73969 5.31 9.07531 5.67328 9.19484L6.62859 9.50422C6.67031 9.51781 6.69328 9.53984 6.70828 9.58109C6.75938 9.72078 6.8175 9.85953 6.87891 9.99078C6.89766 10.0311 6.89672 10.062 6.87609 10.1023L6.42094 10.9967C6.24656 11.3366 6.31078 11.7467 6.58125 12.0172L7.61344 13.048C7.88625 13.3208 8.28563 13.3845 8.63297 13.2097L9.52688 12.7531C9.56719 12.733 9.59859 12.7325 9.63984 12.7513C9.77766 12.8145 9.91547 12.8713 10.0472 12.9195C10.0894 12.9355 10.1114 12.958 10.125 13.0002L10.4362 13.9583C10.5553 14.3202 10.8905 14.563 11.2697 14.563H12.7298C13.1114 14.563 13.447 14.3192 13.5637 13.9569L13.875 13.0016C13.8886 12.9594 13.9106 12.9369 13.9505 12.9219C14.0841 12.8727 14.2219 12.8159 14.3602 12.7527C14.4009 12.7339 14.4333 12.7344 14.4717 12.7541L15.3694 13.2116C15.7102 13.3845 16.1194 13.3184 16.3861 13.0494L17.4188 12.0181C17.6892 11.7477 17.7534 11.338 17.5795 10.9991L17.1244 10.1047C17.1038 10.0644 17.1033 10.0334 17.1225 9.99125C17.1858 9.85344 17.2425 9.71563 17.2917 9.58156C17.3067 9.54078 17.3297 9.51875 17.3714 9.50516L18.3286 9.19484C18.6905 9.07578 18.9333 8.74016 18.9333 8.36V6.90125C18.9333 6.89844 18.9328 6.89563 18.9328 6.89281H19.89V16.3648ZM18.0966 6.78125C18.1519 6.79906 18.1828 6.84172 18.1828 6.90078V8.35953C18.1828 8.41813 18.1505 8.46266 18.0956 8.48094L17.1403 8.79078C16.8783 8.87563 16.6819 9.065 16.5877 9.32281C16.545 9.43859 16.4958 9.55859 16.4419 9.67578C16.3256 9.92375 16.3303 10.1961 16.4555 10.4436L16.912 11.3403C16.9387 11.3919 16.9303 11.4453 16.8891 11.4866L15.8555 12.5188C15.8152 12.5595 15.7622 12.5675 15.7106 12.5417L14.8125 12.0847C14.5688 11.9605 14.2973 11.9553 14.0475 12.0697C13.927 12.125 13.8075 12.1742 13.6894 12.2178C13.433 12.3139 13.2455 12.5098 13.1611 12.7695L12.8498 13.7267C12.832 13.782 12.7884 13.8134 12.7298 13.8134H11.2697C11.2116 13.8134 11.168 13.7811 11.1497 13.7258L10.8389 12.7691C10.7545 12.5094 10.567 12.3134 10.3083 12.2164C10.1925 12.1738 10.073 12.1245 9.9525 12.0692C9.83344 12.0144 9.70875 11.9872 9.58453 11.9872C9.44953 11.9872 9.31453 12.0195 9.18656 12.0842L8.29266 12.5403C8.23875 12.5675 8.18578 12.5591 8.14359 12.5169L7.11141 11.4861C7.07016 11.4448 7.06172 11.3914 7.08891 11.3384L7.54406 10.4441C7.66969 10.1998 7.67531 9.9275 7.55953 9.67484C7.50609 9.56 7.45641 9.44141 7.41281 9.32234C7.31812 9.06406 7.12219 8.87516 6.85969 8.78984L5.90625 8.48141C5.85 8.46266 5.81766 8.41859 5.81766 8.35953V6.90078C5.81766 6.84266 5.84906 6.79859 5.90531 6.78078L6.86063 6.47C7.12359 6.38469 7.32 6.19531 7.41328 5.93797C7.45734 5.81844 7.50656 5.69938 7.56094 5.58359C7.67672 5.33375 7.67063 5.06094 7.54547 4.81719L7.08891 3.92047C7.06219 3.86891 7.07062 3.81547 7.11188 3.77422L8.14453 2.74297C8.18672 2.70078 8.23969 2.69234 8.29172 2.71906L9.18891 3.17703C9.43312 3.30031 9.70453 3.305 9.9525 3.19109C10.073 3.13578 10.193 3.08656 10.3111 3.04297C10.5675 2.94688 10.755 2.75094 10.8394 2.49125L11.1497 1.53594C11.1684 1.47969 11.212 1.44734 11.2702 1.44734H12.7303C12.7889 1.44734 12.8325 1.47875 12.8503 1.535L13.1611 2.49172C13.2455 2.75141 13.433 2.94734 13.6894 3.04344C13.6903 3.04391 13.6908 3.04391 13.6917 3.04438C13.8075 3.08703 13.927 3.13625 14.0475 3.19156C14.2964 3.30547 14.5673 3.30078 14.813 3.17703L15.7092 2.72047C15.7613 2.69422 15.8147 2.70219 15.8564 2.74438L16.8886 3.77516C16.9298 3.81641 16.9383 3.86984 16.9111 3.92281L16.455 4.81953C16.3308 5.06609 16.3261 5.33844 16.4409 5.58313C16.4958 5.70359 16.5455 5.82313 16.5877 5.9375C16.6814 6.19625 16.8778 6.38563 17.1403 6.47094L18.0966 6.78125ZM14.2298 18.6861V18.9125C14.2298 19.0353 14.1262 19.1389 14.0034 19.1389H9.9975C9.87469 19.1389 9.77109 19.0353 9.77109 18.9125V18.6861H14.2298ZM23.2491 19.6194C23.2491 20.1341 22.8305 20.5527 22.3158 20.5527H1.68422C1.16953 20.5527 0.750938 20.1341 0.750938 19.6194V18.6861H9.01969V18.9125C9.01969 19.4516 9.45797 19.8898 9.99703 19.8898H14.003C14.542 19.8898 14.9803 19.4516 14.9803 18.9125V18.6861H23.2491V19.6194ZM12.9952 7.11734C12.9952 6.5675 12.5484 6.12031 11.9991 6.12031H11.1516C10.9444 6.12031 10.7761 6.28813 10.7761 6.49578V8.76547C10.7761 8.97266 10.9439 9.14094 11.1516 9.14094C11.3592 9.14094 11.527 8.97312 11.527 8.76547V8.11484H11.67L12.1542 8.95297C12.2236 9.07344 12.3497 9.14047 12.4795 9.14047C12.5433 9.14047 12.608 9.12406 12.667 9.08984C12.8466 8.98625 12.908 8.75656 12.8044 8.57703L12.4688 7.99672C12.7819 7.82844 12.9952 7.4975 12.9952 7.11734ZM11.527 6.87078H11.9995C12.1345 6.87078 12.2447 6.98141 12.2447 7.11734C12.2447 7.25094 12.1322 7.36391 11.9995 7.36391H11.527V6.87078ZM14.8191 6.12031H13.9725C13.7653 6.12031 13.597 6.28813 13.597 6.49578V8.76547C13.597 8.97266 13.7648 9.14094 13.9725 9.14094C14.1802 9.14094 14.348 8.97312 14.348 8.76547V8.11484H14.8191C15.3689 8.11484 15.8161 7.66766 15.8161 7.11781C15.8161 6.56797 15.3689 6.12031 14.8191 6.12031ZM14.8191 7.36391H14.348V6.87078H14.8191C14.955 6.87078 15.0656 6.98141 15.0656 7.11734C15.0656 7.25328 14.955 7.36391 14.8191 7.36391ZM8.93438 6.87078V7.25469H9.81047C10.0177 7.25469 10.1859 7.4225 10.1859 7.63016C10.1859 7.83781 10.0181 8.00563 9.81047 8.00563H8.93438V8.38953H9.81047C10.0177 8.38953 10.1859 8.55734 10.1859 8.765C10.1859 8.97266 10.0181 9.14047 9.81047 9.14047H8.55891C8.35172 9.14047 8.18344 8.97266 8.18344 8.765V6.49531C8.18344 6.28813 8.35125 6.11984 8.55891 6.11984H9.81047C10.0177 6.11984 10.1859 6.28766 10.1859 6.49531C10.1859 6.70297 10.0181 6.87078 9.81047 6.87078H8.93438Z" stroke="#4E546D" stroke-width="0.2" mask="url(#path-1-outside-1_455_12388)"/>
</svg>
