<svg width="24" height="24" viewBox="0 0 24 24" fill="none" xmlns="http://www.w3.org/2000/svg">
<path d="M16.8354 9.0791L12.3354 6.8291C12.1245 6.72363 11.8755 6.72363 11.6646 6.8291L7.16455 9.0791C6.9104 9.20618 6.75 9.46582 6.75 9.75V14.25C6.75 14.5342 6.9104 14.7938 7.16455 14.9209L11.6646 17.1709C11.77 17.2236 11.885 17.25 12 17.25C12.115 17.25 12.23 17.2236 12.3354 17.1709L16.8354 14.9209C17.0896 14.7938 17.25 14.5342 17.25 14.25V9.75C17.25 9.46582 17.0896 9.20618 16.8354 9.0791ZM12 8.33862L14.8228 9.75L12 11.1614L9.17725 9.75L12 8.33862ZM8.25 10.9636L11.25 12.4636V15.2864L8.25 13.7864V10.9636ZM12.75 15.2864V12.4636L15.75 10.9636V13.7864L12.75 15.2864Z" fill="#4E546D"/>
<path d="M22.4422 19.9636C22.4041 19.8715 22.3492 19.7885 22.2798 19.7192L20.7803 18.2197C20.4873 17.9268 20.0127 17.9268 19.7197 18.2197C19.4268 18.5127 19.4268 18.9873 19.7197 19.2803L19.9395 19.5H16.9642C19.3162 17.9381 20.8867 15.3008 20.985 12.2956L21.2197 12.5303C21.3662 12.6768 21.5581 12.75 21.75 12.75C21.9419 12.75 22.1338 12.6768 22.2803 12.5303C22.5732 12.2373 22.5732 11.7627 22.2803 11.4697L20.7803 9.96973C20.7732 9.96268 20.7637 9.96057 20.7564 9.95384C19.8482 6.06857 16.4216 3.14987 12.2956 3.01497L12.5303 2.78027C12.8232 2.4873 12.8232 2.0127 12.5303 1.71973C12.2373 1.42676 11.7627 1.42676 11.4697 1.71973L9.96973 3.21973C9.96268 3.22678 9.96057 3.23634 9.95384 3.24362C6.06839 4.15182 3.14987 7.5786 3.01497 11.7044L2.78027 11.4697C2.4873 11.1768 2.0127 11.1768 1.71973 11.4697C1.42676 11.7627 1.42676 12.2373 1.71973 12.5303L3.21973 14.0303C3.22678 14.0373 3.23634 14.0394 3.24362 14.0462C3.77303 16.3109 5.15364 18.2501 7.03583 19.5H2.25C1.83545 19.5 1.5 19.8358 1.5 20.25C1.5 20.6642 1.83545 21 2.25 21H19.9395L19.7197 21.2197C19.4268 21.5127 19.4268 21.9873 19.7197 22.2803C19.8662 22.4268 20.0581 22.5 20.25 22.5C20.4419 22.5 20.6338 22.4268 20.7803 22.2803L22.2798 20.7808C22.3492 20.7115 22.4041 20.6285 22.4422 20.5364C22.518 20.3532 22.518 20.1468 22.4422 19.9636ZM4.68306 13.6275L5.78027 12.5303C6.07324 12.2373 6.07324 11.7627 5.78027 11.4697C5.4873 11.1768 5.0127 11.1768 4.71973 11.4697L4.51657 11.6729C4.66562 8.24318 7.12148 5.40605 10.3725 4.68301L11.4697 5.78027C11.6162 5.92676 11.8081 6 12 6C12.1919 6 12.3838 5.92676 12.5303 5.78027C12.8232 5.4873 12.8232 5.0127 12.5303 4.71973L12.3271 4.51657C15.7566 4.66557 18.5939 7.12129 19.3169 10.3725L18.2197 11.4697C17.9268 11.7627 17.9268 12.2373 18.2197 12.5303C18.5127 12.8232 18.9873 12.8232 19.2803 12.5303L19.4834 12.3271C19.3103 16.3104 16.0248 19.5 12 19.5C8.42404 19.5 5.42912 16.9823 4.68306 13.6275Z" fill="#4E546D"/>
</svg>
