<svg width="24" height="24" viewBox="0 0 24 24" fill="none" xmlns="http://www.w3.org/2000/svg">
<g clip-path="url(#clip0_1125_12390)">
<path d="M23.7675 11.8426L19.9434 2.68981L16.2536 4.23148C16.2999 3.7963 16.2999 3.18056 16.0637 2.73612C15.536 1.75 14.3045 1.375 13.3184 1.90278C12.3323 2.43056 11.9573 3.66204 12.4851 4.64815C12.6702 4.99537 12.9481 5.27778 13.2906 5.46759L9.34619 7.11111C9.25822 6.83334 9.12397 6.56944 8.95266 6.33333C9.00359 6.30556 9.04526 6.27315 9.08693 6.23148C9.18415 6.13426 9.24433 6.00463 9.24433 5.86574L9.22581 4.33796H9.54063C9.61475 4.33796 9.68416 4.30555 9.73504 4.25463C9.79062 4.20371 9.81836 4.12963 9.81836 4.05556L9.76288 0L9.20729 0.00925926L9.25822 3.78241L1.83692 3.83797L1.78601 0L1.23044 0.00925926L1.28137 4.125C1.286 4.27778 1.40637 4.39352 1.55915 4.39814H1.88322C1.88322 4.41204 1.90174 5.92593 1.90174 5.92593C1.90637 6.09259 1.98971 6.24537 2.12396 6.3426L1.92026 6.66666C1.84156 6.79166 1.73508 7.10185 1.73508 7.10185H1.73045L0.920261 10.125L1.13322 10.7824L0.832297 10.9166C0.55452 11.0416 0.332297 11.2685 0.225816 11.5555C0.119335 11.8426 0.128594 12.1574 0.253593 12.4352L4.36934 21.6297L8.22582 19.9028C8.3647 19.8426 8.46193 19.7129 8.47581 19.5602C8.4897 19.4074 8.42026 19.2592 8.29526 19.1759C7.79989 18.8287 7.4573 18.4537 7.35544 18.1481C7.09619 17.3797 7.50822 16.5417 8.28137 16.2824C9.04989 16.0232 9.88787 16.4352 10.1471 17.2083C10.2722 17.574 10.2443 17.9769 10.0731 18.3241C9.99894 18.4722 10.0268 18.6482 10.1425 18.7639C10.2536 18.8843 10.4295 18.9213 10.5776 18.8518L13.7813 17.4167C13.9342 17.3518 14.0638 17.2407 14.1564 17.1018L14.6425 16.9028C14.698 17.3611 14.8693 17.7963 15.1425 18.1713C15.0915 18.1991 15.0499 18.2361 15.0082 18.2778C14.9064 18.375 14.8508 18.5093 14.8508 18.6482L14.874 20.1713H14.5591C14.4851 20.1713 14.4156 20.2037 14.3647 20.2547C14.3091 20.3055 14.2814 20.3797 14.286 20.4537L14.3369 23.9491H14.8924L14.8416 20.7315L22.2628 20.6713L22.3138 23.9537H22.8694L22.8184 20.3935C22.8138 20.2407 22.6934 20.1204 22.5407 20.1157H22.2166C22.2166 20.1065 22.2212 20.0926 22.2212 20.0833L22.198 18.5926C22.198 18.426 22.1147 18.2685 21.9758 18.176C22.0823 18.0046 22.1656 17.875 22.1795 17.8473C22.2582 17.7269 22.3184 17.5926 22.3555 17.4491L22.3647 17.4167H22.3693L23.1795 14.3889L22.8832 13.4537L23.1517 13.3426C23.7351 13.1019 24.0128 12.4398 23.7722 11.8565C23.7722 11.8519 23.7675 11.8473 23.7675 11.8426ZM4.37396 9.33333L4.32766 9.41204C4.01285 9.96758 3.44341 10.213 3.43878 10.213L3.23508 10.2963C3.23508 10.2963 3.55452 12.2268 3.64248 12.787C3.69341 13.1204 3.63323 13.4629 3.46655 13.7546C3.34619 13.926 3.15174 14.0278 2.94341 14.0278C2.79989 14.0231 2.73971 13.9491 2.71655 13.9074L1.81378 11.088L1.64249 10.5556L1.49897 10.1111L2.28137 7.19908C2.30452 7.11574 2.34156 7.03704 2.38785 6.96297C2.38785 6.96297 2.53137 6.73148 2.69341 6.48148L8.32304 6.43519C8.56378 6.68982 8.73971 7 8.83693 7.33796L4.37396 9.33333ZM8.58692 5.88426H8.57767V5.875L2.57304 5.9213C2.53137 5.92593 2.49433 5.91204 2.46193 5.88889V5.83333L2.44341 4.43518C2.47581 4.41666 2.51285 4.40278 2.54989 4.40278L8.56378 4.35648C8.60544 4.35185 8.64248 4.36574 8.67489 4.38889L8.69804 5.85185C8.66563 5.87037 8.62396 5.88426 8.58692 5.88426ZM13.5545 16.9074L10.7165 18.1806C10.9897 17.0926 10.3323 15.9907 9.24433 15.7176C8.15637 15.4445 7.05452 16.1019 6.78137 17.1899C6.68415 17.5648 6.70266 17.9629 6.82304 18.3287C6.98045 18.787 7.40175 19.1944 7.786 19.4908L4.64248 20.8981L0.753593 12.2083C0.688779 12.0648 0.684149 11.9028 0.744334 11.7546C0.79989 11.6065 0.911 11.4907 1.05452 11.4259L1.29989 11.3148L2.2073 14.1435C2.34618 14.4074 2.61471 14.5787 2.91563 14.5834C2.91563 14.5834 3.63785 14.5972 3.93415 14.0463V14.037C4.16563 13.6296 4.25359 13.1574 4.17951 12.6945C4.11008 12.25 3.92026 11.088 3.84156 10.6204C4.21193 10.4167 4.52674 10.1204 4.75822 9.76848L9.4573 7.66204C9.4573 7.66204 9.58693 7.58797 9.68876 7.61111C9.74896 7.63426 9.80454 7.7037 9.83228 7.76389L11.286 11.088C11.3462 11.2407 11.4989 11.3334 11.661 11.3241C11.823 11.3148 11.9619 11.2037 12.0128 11.0509C12.1378 10.6296 12.4434 10.2917 12.8508 10.125C13.573 9.80093 14.4249 10.1204 14.7489 10.8426C15.0499 11.5092 14.8045 12.2916 14.1748 12.6666C13.7721 12.8935 13.0684 12.838 12.786 12.8055C12.6379 12.787 12.4897 12.8518 12.3971 12.9722C12.3971 12.9769 12.2628 13.1296 12.3508 13.3935L13.7259 16.4583C13.7767 16.5741 13.7582 16.7129 13.6795 16.8102C13.6517 16.8518 13.6055 16.8889 13.5545 16.9074ZM21.6425 18.6713L21.6656 20.0695C21.6332 20.0926 21.5962 20.1065 21.5546 20.1018L15.5406 20.1482C15.499 20.1528 15.4619 20.1389 15.4296 20.1157L15.4063 18.6759L21.6425 18.6713ZM21.8184 17.3055C21.7952 17.3889 21.7583 17.4676 21.7119 17.5417V17.5509C21.7119 17.5509 21.5731 17.7778 21.411 18.0277L21.3555 18.1158H15.8231L15.7767 18.0694C15.4203 17.6898 15.2073 17.1945 15.1795 16.6713L19.1887 15C19.1008 15.1574 19.0175 15.3241 18.9387 15.4908L19.4434 15.7268C19.5453 15.5093 19.6563 15.2963 19.7721 15.0926C19.8879 14.8889 20.0452 14.713 20.2258 14.5648C20.3601 14.4537 20.5035 14.3657 20.661 14.2917L20.8647 14.2083L20.8323 13.9908C20.8276 13.9861 20.8138 13.8843 20.786 13.7315C20.7027 13.2315 20.5268 12.1481 20.4573 11.7222C20.4064 11.3889 20.4666 11.0463 20.6332 10.7546C20.7536 10.5833 20.948 10.4769 21.1563 10.4769C21.2999 10.4815 21.3601 10.5556 21.3832 10.6019L22.198 13.1388L22.3693 13.6713L22.6009 14.3982L21.8184 17.3055ZM23.2583 12.5093C23.1981 12.6528 23.0823 12.7685 22.9388 12.8287L22.7119 12.9259L21.8879 10.3611C21.749 10.0972 21.4804 9.93053 21.1842 9.92131C20.4712 9.93984 20.161 10.4629 20.161 10.4629C19.9296 10.8704 19.8415 11.3426 19.9156 11.8056C19.9851 12.2546 20.1748 13.4121 20.2536 13.8796C20.1471 13.9398 20.0452 14.0093 19.948 14.0833L14.2999 16.4444C14.286 16.3704 12.9989 13.4723 12.9989 13.4723C13.4573 13.5046 13.9851 13.4815 14.3786 13.2732L14.5545 13.1667C14.7675 13.0232 14.9526 12.8426 15.0962 12.6297L15.1563 12.537C15.2628 12.3612 15.3415 12.1713 15.3925 11.9723C15.3971 11.9629 15.3971 11.9537 15.3971 11.9444H15.4017C15.4527 11.7639 15.4758 11.5787 15.4758 11.3889C15.4758 11.1852 15.4434 10.9768 15.3832 10.7824C15.0499 9.71299 13.911 9.12038 12.8416 9.45371C12.5862 9.53444 12.3493 9.6647 12.1443 9.83712C11.9394 10.0095 11.7704 10.2206 11.6471 10.4583L11.3184 9.72221C11.2119 9.45833 10.5036 7.90278 10.3462 7.54166C10.3091 7.47222 10.2675 7.40278 10.2166 7.34259L13.8786 5.83333C14.0314 5.76852 14.124 5.61574 14.1147 5.4537C14.11 5.29166 13.999 5.15278 13.8461 5.10648C13.0684 4.87037 12.6286 4.05092 12.8647 3.26852C12.8879 3.19445 12.9156 3.125 12.9481 3.05556C13.1286 2.67592 13.4619 2.38889 13.8694 2.27778C14.536 2.08796 15.2444 2.38426 15.5731 2.99537C15.7906 3.40278 15.7166 4.10185 15.6748 4.38426C15.6564 4.53704 15.7166 4.68518 15.8369 4.77778C15.9573 4.87037 16.1147 4.89352 16.2536 4.83333L19.6425 3.41667L23.2536 12.0556C23.3184 12.1991 23.3184 12.3658 23.2583 12.5093Z" fill="#4E546D"/>
<path d="M5.87069 22.0096L6.36435 21.7549L7.00555 22.9973L6.51185 23.2521L5.87069 22.0096ZM1.86328 23.0196L2.50448 21.7772L2.99819 22.032L2.35698 23.2744L1.86328 23.0196ZM4.1287 23.9707L4.16287 22.573L4.71823 22.5866L4.68407 23.9843L4.1287 23.9707ZM17.6164 1.03891L18.1101 0.784148L18.7513 2.02655L18.2576 2.28133L17.6164 1.03891ZM21.6253 2.04522L22.2665 0.802804L22.7601 1.05762L22.1189 2.29998L21.6253 2.04522ZM19.8729 1.45785L19.9071 0.0601196L20.4625 0.0736844L20.4283 1.47137L19.8729 1.45785Z" fill="#4E546D"/>
</g>
<defs>
<clipPath id="clip0_1125_12390">
<rect width="24" height="24" fill="white"/>
</clipPath>
</defs>
</svg>
