<svg width="28" height="28" viewBox="0 0 28 28" fill="none" xmlns="http://www.w3.org/2000/svg">
<g clip-path="url(#clip0_1248_6503)">
<path d="M27.7229 13.8163L23.2615 3.13812L18.9566 4.93673C19.0106 4.42902 19.0106 3.71065 18.7352 3.19213C18.1194 2.04167 16.6827 1.60416 15.5322 2.21991C14.3818 2.83565 13.9443 4.27237 14.5601 5.42284C14.7761 5.82793 15.1001 6.15741 15.4999 6.37886L10.898 8.2963C10.7954 7.97223 10.6388 7.66435 10.4389 7.38889C10.4983 7.35648 10.5469 7.31867 10.5956 7.27007C10.709 7.15663 10.7792 7.0054 10.7792 6.84337L10.7576 5.06096H11.1249C11.2113 5.06096 11.2923 5.02314 11.3517 4.96374C11.4166 4.90432 11.4489 4.8179 11.4489 4.73148L11.3841 0L10.736 0.0108025L10.7954 4.41281L2.13722 4.47763L2.07781 0L1.42966 0.0108025L1.48908 4.81251C1.49448 4.99074 1.6349 5.12577 1.81315 5.13117H2.19123C2.19123 5.14737 2.21283 6.91358 2.21283 6.91358C2.21824 7.10802 2.31546 7.28626 2.4721 7.39969L2.23445 7.77777C2.14262 7.92361 2.01839 8.28549 2.01839 8.28549H2.01299L1.06778 11.8125L1.31623 12.5795L0.965154 12.7361C0.641079 12.8819 0.381821 13.1466 0.257592 13.4814C0.133364 13.8163 0.144167 14.1837 0.29 14.5077L5.09169 25.2346L9.59092 23.22C9.75296 23.1497 9.86639 22.9984 9.88259 22.8202C9.8988 22.6419 9.81778 22.4691 9.67194 22.3719C9.09401 21.9668 8.69432 21.5293 8.5755 21.1728C8.27303 20.2763 8.75374 19.2986 9.65574 18.9961C10.5523 18.6937 11.5299 19.1744 11.8324 20.0763C11.9783 20.5031 11.9459 20.973 11.746 21.3781C11.6596 21.5509 11.692 21.7562 11.8271 21.8912C11.9566 22.0316 12.1619 22.0749 12.3348 21.9938L16.0724 20.3195C16.2506 20.2438 16.4019 20.1142 16.5099 19.9521L17.0771 19.72C17.1419 20.2546 17.3417 20.7623 17.6604 21.1998C17.601 21.2323 17.5524 21.2754 17.5038 21.3241C17.3849 21.4375 17.3201 21.5942 17.3201 21.7562L17.3471 23.5332H16.9798C16.8934 23.5332 16.8124 23.571 16.7529 23.6304C16.6882 23.6898 16.6557 23.7763 16.6611 23.8626L16.7206 27.9406H17.3687L17.3092 24.1867L25.9675 24.1165L26.0269 27.946H26.675L26.6157 23.7924C26.6102 23.6142 26.4698 23.4737 26.2915 23.4684H25.9134C25.9134 23.4576 25.9189 23.4414 25.9189 23.4305L25.8919 21.6914C25.8919 21.4969 25.7946 21.3133 25.6326 21.2053C25.7568 21.0054 25.8541 20.8542 25.8703 20.8218C25.962 20.6814 26.0322 20.5247 26.0755 20.3572L26.0863 20.3195H26.0917L27.0369 16.787L26.6913 15.696L27.0045 15.5663C27.685 15.2855 28.0092 14.5131 27.7283 13.8326C27.7283 13.8272 27.7229 13.8218 27.7229 13.8163ZM5.0971 10.8889L5.04308 10.9807C4.6758 11.6288 4.01145 11.9151 4.00605 11.9151L3.76839 12.0123C3.76839 12.0123 4.14108 14.2647 4.24371 14.9182C4.30311 15.3072 4.2329 15.7068 4.03846 16.047C3.89802 16.2469 3.67117 16.3658 3.42811 16.3658C3.26068 16.3603 3.19046 16.2739 3.16346 16.2253L2.11022 12.936L1.91037 12.3148L1.74293 11.7963L2.65574 8.39892C2.68275 8.3017 2.72596 8.20988 2.77997 8.12346C2.77997 8.12346 2.94741 7.8534 3.13645 7.56173L9.70436 7.50772C9.98522 7.80479 10.1905 8.16667 10.3039 8.56096L5.0971 10.8889ZM10.0122 6.86497H10.0014V6.85417L2.99602 6.90818C2.94741 6.91358 2.9042 6.89737 2.86639 6.87037V6.80556L2.84478 5.17438C2.88259 5.15277 2.9258 5.13658 2.96901 5.13658L9.98522 5.08256C10.0338 5.07716 10.077 5.09337 10.1148 5.12037L10.1419 6.82716C10.104 6.84877 10.0554 6.86497 10.0122 6.86497ZM15.8078 19.7253L12.4968 21.2107C12.8155 19.9414 12.0485 18.6558 10.7792 18.3372C9.5099 18.0186 8.22441 18.7855 7.90574 20.0548C7.79232 20.4923 7.81392 20.9568 7.95436 21.3835C8.13799 21.9182 8.6295 22.3935 9.07781 22.7392L5.41037 24.3812L0.873333 14.243C0.797716 14.0756 0.792314 13.8865 0.86253 13.7137C0.927346 13.5409 1.05697 13.4058 1.22441 13.3302L1.51068 13.2007L2.56932 16.5007C2.73136 16.8086 3.04462 17.0084 3.39571 17.0139C3.39571 17.0139 4.2383 17.03 4.58399 16.3874V16.3765C4.85404 15.9012 4.95667 15.3503 4.87025 14.8102C4.78923 14.2916 4.56778 12.936 4.47596 12.3904C4.90806 12.1528 5.27534 11.8072 5.5454 11.3966L11.0277 8.93904C11.0277 8.93904 11.1789 8.85263 11.2977 8.87963C11.368 8.90663 11.4327 8.98765 11.4652 9.05787L13.1611 12.936C13.2313 13.1142 13.4096 13.2223 13.5987 13.2114C13.7877 13.2007 13.9497 13.071 14.0092 12.8928C14.155 12.4012 14.5115 12.007 14.9868 11.8125C15.8294 11.4344 16.8232 11.8072 17.2013 12.6497C17.5524 13.4275 17.2661 14.3403 16.5315 14.7777C16.0616 15.0424 15.2406 14.9776 14.9111 14.9398C14.7383 14.9182 14.5655 14.9938 14.4575 15.1342C14.4575 15.1397 14.3008 15.3179 14.4034 15.6258L16.0076 19.2014C16.067 19.3365 16.0454 19.4984 15.9536 19.6119C15.9212 19.6605 15.8671 19.7037 15.8078 19.7253ZM25.2437 21.7832L25.2708 23.4144C25.2329 23.4414 25.1897 23.4576 25.1411 23.4521L18.1249 23.5062C18.0762 23.5116 18.0331 23.4954 17.9952 23.4684L17.9682 21.7886L25.2437 21.7832ZM25.4489 20.1898C25.422 20.287 25.3787 20.3788 25.3247 20.4653V20.4761C25.3247 20.4761 25.1627 20.7407 24.9736 21.0324L24.9089 21.1351H18.4543L18.4003 21.081C17.9845 20.6381 17.736 20.0602 17.7036 19.4498L22.381 17.5C22.2785 17.6837 22.1812 17.8781 22.0894 18.0725L22.6781 18.348C22.7969 18.0942 22.9266 17.8456 23.0616 17.6081C23.1966 17.3704 23.3803 17.1651 23.591 16.9923C23.7476 16.8626 23.915 16.76 24.0987 16.6737L24.3363 16.5763L24.2985 16.3225C24.2931 16.3172 24.2769 16.1983 24.2445 16.02C24.1473 15.4367 23.942 14.1728 23.861 13.6759C23.8015 13.287 23.8718 12.8874 24.0662 12.547C24.2066 12.3472 24.4336 12.223 24.6766 12.223C24.844 12.2284 24.9143 12.3148 24.9413 12.3688L25.8919 15.3287L26.0917 15.9498L26.3617 16.7979L25.4489 20.1898ZM27.1287 14.5942C27.0585 14.7616 26.9235 14.8966 26.7561 14.9668L26.4914 15.0802L25.5299 12.0879C25.368 11.78 25.0547 11.5856 24.709 11.5749C23.8771 11.5965 23.5153 12.2068 23.5153 12.2068C23.2452 12.6821 23.1426 13.233 23.229 13.7732C23.3101 14.297 23.5315 15.6474 23.6233 16.1928C23.4991 16.2631 23.3803 16.3442 23.2669 16.4305L16.6773 19.1852C16.6611 19.0988 15.1596 15.7176 15.1596 15.7176C15.6943 15.7554 16.3101 15.7284 16.7692 15.4853L16.9745 15.3611C17.2229 15.1937 17.4389 14.983 17.6064 14.7346L17.6766 14.6265C17.8008 14.4213 17.8926 14.1998 17.952 13.9676C17.9575 13.9568 17.9575 13.946 17.9575 13.9352H17.9629C18.0222 13.7246 18.0492 13.5084 18.0492 13.287C18.0492 13.0493 18.0115 12.8063 17.9413 12.5795C17.5524 11.3318 16.2236 10.6404 14.9759 11.0293C14.678 11.1235 14.4016 11.2755 14.1625 11.4766C13.9234 11.6778 13.7262 11.9241 13.5824 12.2014L13.1989 11.3426C13.0747 11.0347 12.2483 9.21991 12.0647 8.79861C12.0215 8.71759 11.9729 8.63658 11.9134 8.56635L16.1859 6.80556C16.3641 6.72993 16.4721 6.5517 16.4613 6.36265C16.4559 6.17361 16.3262 6.01158 16.148 5.95756C15.2406 5.6821 14.7275 4.72608 15.0029 3.81328C15.0299 3.72686 15.0624 3.64584 15.1001 3.56481C15.3108 3.12191 15.6997 2.78704 16.175 2.65741C16.9529 2.43596 17.7792 2.78163 18.1627 3.4946C18.4166 3.96991 18.3301 4.78549 18.2815 5.11497C18.2599 5.29321 18.3301 5.46605 18.4706 5.57407C18.611 5.6821 18.7946 5.70911 18.9566 5.63889L22.9104 3.98611L27.1233 14.0648C27.1989 14.2323 27.1989 14.4267 27.1287 14.5942Z" fill="#4E546D"/>
<path d="M6.85109 25.6779L7.42702 25.3806L8.17509 26.8301L7.5991 27.1274L6.85109 25.6779ZM2.17578 26.8562L2.92385 25.4067L3.49983 25.704L2.75176 27.1535L2.17578 26.8562ZM4.81877 27.9658L4.85863 26.3351L5.50656 26.3509L5.4667 27.9816L4.81877 27.9658ZM20.5544 1.212L21.1304 0.914768L21.8785 2.36424L21.3025 2.66147L20.5544 1.212ZM25.2315 2.386L25.9796 0.936534L26.5555 1.23382L25.8073 2.68324L25.2315 2.386ZM23.187 1.70075L23.2268 0.0700684L23.8748 0.085894L23.835 1.71652L23.187 1.70075Z" fill="#4E546D"/>
</g>
<defs>
<clipPath id="clip0_1248_6503">
<rect width="28" height="28" fill="white"/>
</clipPath>
</defs>
</svg>
