<svg width="28" height="28" viewBox="0 0 28 28" fill="none" xmlns="http://www.w3.org/2000/svg">
<g clip-path="url(#clip0_1248_6508)">
<mask id="mask0_1248_6508" style="mask-type:luminance" maskUnits="userSpaceOnUse" x="0" y="0" width="28" height="28">
<path d="M28 0H0V28H28V0Z" fill="white"/>
</mask>
<g mask="url(#mask0_1248_6508)">
<path d="M12.6933 14.5084L14.505 12.6965C14.5405 12.661 14.5688 12.6187 14.588 12.5724C14.6073 12.5259 14.6172 12.4762 14.6172 12.4259C14.6172 12.3756 14.6073 12.3259 14.588 12.2794C14.5688 12.233 14.5405 12.1908 14.505 12.1553L13.5398 11.1902C13.7383 10.8266 13.8973 10.4429 14.0144 10.0456H15.3784C15.48 10.0456 15.5773 10.0053 15.6491 9.93352C15.7209 9.86173 15.7612 9.76437 15.7612 9.66284V7.10084C15.7612 6.99931 15.7209 6.90194 15.6491 6.83015C15.5773 6.75836 15.48 6.71803 15.3784 6.71803H14.0174C13.9002 6.32019 13.7406 5.93612 13.5414 5.57243L14.505 4.60862C14.5405 4.57308 14.5688 4.53089 14.588 4.48443C14.6073 4.43799 14.6173 4.3882 14.6173 4.33791C14.6173 4.28764 14.6073 4.23784 14.588 4.1914C14.5688 4.14494 14.5405 4.10275 14.505 4.06721L12.6933 2.25531C12.6578 2.21974 12.6156 2.19151 12.5692 2.17226C12.5228 2.15301 12.473 2.14309 12.4227 2.14309C12.3725 2.14309 12.3227 2.15301 12.2762 2.17226C12.2298 2.19151 12.1877 2.21974 12.1521 2.25531L11.1883 3.21934C10.8246 3.02004 10.4406 2.86045 10.0427 2.74334V1.38184C10.0428 1.33155 10.0329 1.28177 10.0136 1.2353C9.99441 1.18884 9.96621 1.14664 9.93066 1.11108C9.8951 1.07553 9.85289 1.04733 9.80643 1.02811C9.75997 1.00888 9.71019 0.998995 9.6599 0.999023H7.09769C7.04741 0.998995 6.99762 1.00888 6.95116 1.02811C6.9047 1.04733 6.86249 1.07553 6.82693 1.11108C6.79138 1.14664 6.76318 1.18884 6.74396 1.2353C6.72473 1.28177 6.71485 1.33155 6.71487 1.38184V2.74574C6.31768 2.86291 5.93409 3.02204 5.57059 3.22043L4.60569 2.25531C4.57015 2.21972 4.52796 2.1915 4.4815 2.17225C4.43506 2.15298 4.38526 2.14307 4.33499 2.14307C4.2847 2.14307 4.23491 2.15298 4.18847 2.17225C4.14201 2.1915 4.09982 2.21972 4.06428 2.25531L2.25238 4.06721C2.2168 4.10275 2.18857 4.14494 2.16932 4.1914C2.15006 4.23784 2.14014 4.28764 2.14014 4.33791C2.14014 4.3882 2.15006 4.43799 2.16932 4.48443C2.18857 4.53089 2.2168 4.57308 2.25238 4.60862L3.21706 5.57352C3.01868 5.93711 2.85955 6.32076 2.74238 6.71803H1.3789C1.32863 6.71799 1.27883 6.72788 1.23237 6.7471C1.18591 6.76633 1.1437 6.79453 1.10815 6.83008C1.0726 6.86564 1.0444 6.90784 1.02517 6.95431C1.00595 7.00077 0.996065 7.05055 0.996094 7.10084V9.66284C0.996065 9.71312 1.00595 9.76291 1.02517 9.80937C1.0444 9.85583 1.0726 9.89804 1.10815 9.93359C1.1437 9.96914 1.18591 9.99734 1.23237 10.0166C1.27883 10.0358 1.32863 10.0457 1.3789 10.0456H2.74018C2.85737 10.4435 3.01703 10.8276 3.21641 11.1912L2.25238 12.1553C2.21681 12.1908 2.18858 12.233 2.16933 12.2794C2.15008 12.3259 2.14017 12.3756 2.14017 12.4259C2.14017 12.4762 2.15008 12.5259 2.16933 12.5724C2.18858 12.6187 2.21681 12.661 2.25238 12.6965L4.06384 14.5084C4.13569 14.5801 4.23304 14.6203 4.33455 14.6203C4.43604 14.6203 4.5334 14.5801 4.60525 14.5084L5.56906 13.5443C5.93286 13.7437 6.31699 13.9033 6.71487 14.0205V15.382C6.71487 15.4836 6.7552 15.5809 6.827 15.6527C6.89879 15.7245 6.99616 15.7648 7.09769 15.7648H9.6599C9.76143 15.7648 9.8588 15.7245 9.93059 15.6527C10.0024 15.5809 10.0427 15.4836 10.0427 15.382V14.018C10.4399 13.9008 10.8235 13.7417 11.187 13.5432L12.1521 14.5084C12.2239 14.5801 12.3213 14.6204 12.4227 14.6204C12.5242 14.6204 12.6215 14.5801 12.6933 14.5084ZM11.5206 12.794C11.4598 12.7331 11.3802 12.6945 11.2948 12.6844C11.2093 12.6743 11.1229 12.6933 11.0496 12.7385C10.5923 13.0197 10.0931 13.2265 9.57087 13.351C9.4873 13.371 9.4129 13.4186 9.35962 13.4861C9.30633 13.5535 9.27726 13.6369 9.2771 13.7228V14.9982H7.4805V13.7263C7.48038 13.6403 7.45128 13.5569 7.3979 13.4893C7.34453 13.4219 7.26998 13.3744 7.18628 13.3545C6.66409 13.2296 6.16524 13.0219 5.70862 12.7396C5.63525 12.6943 5.54875 12.6751 5.46313 12.6852C5.3775 12.6951 5.29775 12.7338 5.23679 12.7947L4.33487 13.696L3.06482 12.4254L3.96606 11.5239C4.02695 11.463 4.06552 11.3833 4.07553 11.2977C4.08553 11.2121 4.06639 11.1257 4.02118 11.0523C3.73878 10.5954 3.53133 10.0963 3.40672 9.5738C3.3868 9.49012 3.33928 9.41557 3.27183 9.36219C3.20436 9.30881 3.12087 9.27971 3.03484 9.27959H1.76172V7.48343H3.03682C3.12278 7.48329 3.20619 7.45425 3.27364 7.40096C3.34109 7.34767 3.38865 7.27324 3.40869 7.18965C3.5331 6.66749 3.73986 6.16848 4.02118 5.71134C4.0662 5.63793 4.08519 5.55151 4.07511 5.466C4.06503 5.38049 4.02647 5.30086 3.96562 5.23993L3.06482 4.3378L4.33487 3.06774L5.237 3.96987C5.29787 4.03073 5.37747 4.0693 5.46296 4.07938C5.54844 4.08946 5.63482 4.07046 5.70818 4.02543C6.16548 3.74424 6.66454 3.53748 7.18672 3.41293C7.27029 3.39287 7.34469 3.34529 7.39798 3.27784C7.45126 3.2104 7.48033 3.127 7.4805 3.04105V1.76465H9.2771V3.03756C9.27722 3.12359 9.30632 3.20706 9.3597 3.27453C9.41306 3.342 9.48762 3.38952 9.57131 3.40943C10.0938 3.534 10.5929 3.74137 11.0498 4.02368C11.1231 4.06907 11.2097 4.08832 11.2952 4.07832C11.3809 4.06831 11.4607 4.02962 11.5215 3.96856L12.4227 3.06731L13.693 4.3378L12.7918 5.23928C12.7309 5.30028 12.6923 5.38003 12.6824 5.46563C12.6723 5.55123 12.6914 5.63772 12.7367 5.71112C13.019 6.16792 13.2265 6.66701 13.3509 7.18943C13.3708 7.27312 13.4183 7.34767 13.4857 7.40105C13.5533 7.45443 13.6367 7.48352 13.7227 7.48365H14.9956V9.28003H13.7204C13.6344 9.28022 13.5509 9.3093 13.4835 9.36263C13.4161 9.41595 13.3685 9.49041 13.3484 9.57403C13.224 10.0962 13.0172 10.5953 12.736 11.0526C12.6909 11.1259 12.6718 11.2122 12.6819 11.2977C12.692 11.3832 12.7306 11.4627 12.7916 11.5235L13.693 12.4259L12.4227 13.696L11.5206 12.794Z" fill="#4E546D"/>
<path d="M8.38025 5.06787C7.72484 5.06787 7.08413 5.26222 6.53917 5.62636C5.99421 5.99048 5.56948 6.50803 5.31866 7.11356C5.06784 7.71909 5.00222 8.38539 5.13008 9.02821C5.25795 9.67104 5.57357 10.2615 6.03701 10.725C6.50046 11.1884 7.09093 11.504 7.73375 11.6319C8.37658 11.7598 9.04288 11.6942 9.64841 11.4433C10.2539 11.1925 10.7715 10.7678 11.1356 10.2228C11.4997 9.67782 11.6941 9.03713 11.6941 8.38172C11.6932 7.50313 11.3436 6.66081 10.7224 6.03956C10.1012 5.41831 9.25884 5.06886 8.38025 5.06787ZM8.38025 10.9304C7.87627 10.9304 7.38363 10.7809 6.96458 10.5009C6.54553 10.221 6.21893 9.82302 6.02604 9.35742C5.83316 8.89182 5.78268 8.37948 5.88096 7.88519C5.97925 7.39089 6.2219 6.93684 6.57824 6.58044C6.93457 6.22406 7.38857 5.98132 7.88285 5.88295C8.37713 5.78458 8.88947 5.83498 9.35511 6.02778C9.82074 6.22059 10.2188 6.54712 10.4988 6.96613C10.7789 7.38512 10.9284 7.87775 10.9285 8.38172C10.9277 9.0573 10.6589 9.70497 10.1812 10.1827C9.70351 10.6604 9.05584 10.9296 8.38025 10.9304ZM26.621 17.9586H25.2594C25.1424 17.5607 24.9827 17.1767 24.7834 16.813L25.7473 15.8489C25.7828 15.8134 25.811 15.7713 25.8303 15.7248C25.8495 15.6785 25.8595 15.6286 25.8595 15.5783C25.8595 15.5282 25.8495 15.4783 25.8303 15.4319C25.811 15.3855 25.7828 15.3432 25.7473 15.3077L23.9356 13.4964C23.9 13.4607 23.8578 13.4325 23.8113 13.4133C23.765 13.394 23.7151 13.384 23.6648 13.384C23.6146 13.384 23.5648 13.394 23.5184 13.4133C23.4719 13.4325 23.4296 13.4607 23.3941 13.4964L22.4304 14.4599C22.0667 14.2607 21.6827 14.1009 21.285 13.9837V12.6222C21.285 12.5206 21.2446 12.4233 21.1728 12.3515C21.1011 12.2797 21.0037 12.2394 20.9021 12.2394H18.3399C18.2384 12.2394 18.141 12.2797 18.0692 12.3515C17.9974 12.4233 17.9571 12.5206 17.9571 12.6222V13.9864C17.5598 14.1034 17.1761 14.2626 16.8126 14.461L15.8477 13.4964C15.8122 13.4607 15.7701 13.4325 15.7236 13.4133C15.6771 13.394 15.6274 13.3841 15.5771 13.3841C15.5268 13.3841 15.4771 13.394 15.4306 13.4133C15.3842 13.4325 15.342 13.4607 15.3065 13.4964L13.4946 15.3077C13.4229 15.3795 13.3826 15.4769 13.3826 15.5783C13.3826 15.6798 13.4229 15.7771 13.4946 15.8489L14.46 16.8141C14.2616 17.1776 14.1024 17.5613 13.9855 17.9586H12.621C12.5194 17.9586 12.4221 17.9989 12.3503 18.0707C12.2785 18.1425 12.2382 18.2399 12.2382 18.3414V20.9034C12.2382 21.005 12.2785 21.1023 12.3503 21.1741C12.4221 21.2459 12.5194 21.2862 12.621 21.2862H13.9824C14.0996 21.684 14.2592 22.0682 14.4584 22.4318L13.4946 23.3956C13.4229 23.4674 13.3826 23.5648 13.3826 23.6663C13.3826 23.7679 13.4229 23.8652 13.4946 23.937L15.3065 25.7489C15.342 25.7846 15.3842 25.8128 15.4306 25.8319C15.4771 25.8512 15.5268 25.8612 15.5771 25.8612C15.6274 25.8612 15.6771 25.8512 15.7236 25.8319C15.7701 25.8128 15.8122 25.7846 15.8477 25.7489L16.8116 24.7864C17.1752 24.9858 17.5593 25.1454 17.9571 25.2624V26.6239C17.9571 26.6742 17.967 26.724 17.9862 26.7705C18.0055 26.817 18.0336 26.8591 18.0692 26.8947C18.1047 26.9302 18.1469 26.9584 18.1934 26.9777C18.2399 26.9968 18.2896 27.0068 18.3399 27.0067H20.9019C20.9522 27.0068 21.002 26.9968 21.0484 26.9777C21.0949 26.9584 21.1371 26.9302 21.1727 26.8947C21.2082 26.8591 21.2365 26.817 21.2556 26.7705C21.2749 26.724 21.2847 26.6742 21.2847 26.6239V25.2601C21.682 25.1428 22.0657 24.9836 22.4293 24.7851L23.3941 25.7501C23.4296 25.7856 23.4719 25.8138 23.5184 25.8331C23.5648 25.8523 23.6146 25.8623 23.6648 25.8623C23.7151 25.8623 23.765 25.8523 23.8113 25.8331C23.8578 25.8138 23.9 25.7856 23.9356 25.7501L25.7473 23.9386C25.7829 23.9031 25.8111 23.8608 25.8303 23.8144C25.8495 23.7679 25.8595 23.7182 25.8595 23.6679C25.8595 23.6176 25.8495 23.5677 25.8303 23.5214C25.8111 23.4749 25.7829 23.4327 25.7473 23.3972L24.7824 22.4321C24.9807 22.0685 25.1399 21.6849 25.257 21.2878H26.621C26.6713 21.2878 26.721 21.2779 26.7675 21.2586C26.8139 21.2395 26.8562 21.2113 26.8917 21.1756C26.9273 21.1401 26.9554 21.0979 26.9747 21.0514C26.9939 21.005 27.0038 20.9552 27.0038 20.9049V18.3414C27.0038 18.2911 26.9939 18.2414 26.9747 18.1949C26.9554 18.1484 26.9273 18.1062 26.8917 18.0707C26.8562 18.0351 26.8139 18.0069 26.7675 17.9877C26.721 17.9684 26.6713 17.9586 26.621 17.9586ZM26.2382 20.5208H24.963C24.877 20.5209 24.7937 20.55 24.7262 20.6033C24.6587 20.6565 24.6111 20.731 24.5912 20.8146C24.4667 21.3368 24.2599 21.8359 23.9787 22.2931C23.9336 22.3665 23.9147 22.4529 23.9248 22.5383C23.9349 22.6238 23.9734 22.7034 24.0342 22.7644L24.9366 23.6666L23.6663 24.9367L22.7641 24.0346C22.7032 23.9739 22.6236 23.9353 22.5382 23.9252C22.4528 23.9152 22.3663 23.9341 22.293 23.979C21.8356 24.2602 21.3365 24.467 20.8142 24.5915C20.7307 24.6116 20.6562 24.6592 20.6029 24.7266C20.5497 24.794 20.5206 24.8775 20.5204 24.9634V26.2385H18.7227V24.9656C18.7226 24.8796 18.6935 24.796 18.6402 24.7286C18.5868 24.6612 18.5122 24.6136 18.4285 24.5938C17.906 24.4691 17.407 24.2618 16.95 23.9795C16.8766 23.9341 16.7902 23.9149 16.7046 23.9249C16.6189 23.9349 16.5393 23.9735 16.4784 24.0346L15.5771 24.9358L14.3068 23.6664L15.2081 22.7649C15.2691 22.704 15.3077 22.6243 15.3177 22.5387C15.3277 22.453 15.3085 22.3665 15.2632 22.2931C14.9809 21.8362 14.7737 21.3371 14.6492 20.8148C14.6292 20.7311 14.5818 20.6565 14.5143 20.6032C14.4468 20.5498 14.3634 20.5207 14.2773 20.5206H13.0038V18.7242H14.2788C14.3648 18.7241 14.4483 18.695 14.5157 18.6416C14.5831 18.5883 14.6307 18.5139 14.6508 18.4302C14.7753 17.908 14.982 17.409 15.2632 16.9517C15.3083 16.8784 15.3273 16.792 15.3173 16.7065C15.3072 16.6211 15.2685 16.5415 15.2076 16.4807L14.3068 15.5783L15.5771 14.3084L16.4793 15.2104C16.54 15.2715 16.6196 15.3101 16.7051 15.3202C16.7905 15.3303 16.877 15.3112 16.9502 15.266C17.4076 14.9848 17.9067 14.7781 18.429 14.6535C18.5125 14.6334 18.587 14.5859 18.6402 14.5184C18.6935 14.4509 18.7226 14.3676 18.7227 14.2816V13.0064H20.5193V14.2792C20.5194 14.3653 20.5486 14.4487 20.602 14.5162C20.6553 14.5837 20.7299 14.6311 20.8135 14.6511C21.3359 14.7757 21.835 14.9833 22.2918 15.2655C22.3652 15.3109 22.4518 15.3301 22.5373 15.3202C22.623 15.3102 22.7028 15.2715 22.7637 15.2104L23.665 14.3084L24.9353 15.5786L24.0338 16.48C23.9728 16.541 23.9343 16.6207 23.9242 16.7063C23.9143 16.7919 23.9334 16.8783 23.9787 16.9517C24.2609 17.4085 24.4682 17.9076 24.5927 18.43C24.6126 18.5137 24.6601 18.5883 24.7275 18.6418C24.795 18.6952 24.8785 18.7243 24.9646 18.7244H26.2375L26.2382 20.5208Z" fill="#4E546D"/>
<path d="M19.6176 16.3084C18.9622 16.3084 18.3215 16.5027 17.7765 16.8668C17.2316 17.2309 16.8068 17.7485 16.556 18.354C16.3051 18.9595 16.2396 19.6258 16.3674 20.2687C16.4953 20.9114 16.8109 21.5019 17.2744 21.9654C17.7378 22.4288 18.3283 22.7444 18.9711 22.8723C19.614 23.0002 20.2802 22.9346 20.8857 22.6837C21.4913 22.433 22.0088 22.0081 22.373 21.4633C22.7371 20.9183 22.9314 20.2776 22.9314 19.6222C22.9305 18.7436 22.5811 17.9012 21.9598 17.28C21.3385 16.6588 20.4962 16.3093 19.6176 16.3084ZM19.6176 22.1708C19.1136 22.1708 18.621 22.0214 18.2019 21.7414C17.7829 21.4614 17.4563 21.0634 17.2633 20.5977C17.0704 20.1321 17.02 19.6197 17.1184 19.1255C17.2167 18.6311 17.4594 18.1771 17.8157 17.8207C18.1721 17.4644 18.6261 17.2217 19.1205 17.1234C19.6147 17.025 20.1271 17.0754 20.5927 17.2683C21.0584 17.4612 21.4564 17.7879 21.7364 18.2069C22.0164 18.626 22.1658 19.1187 22.1658 19.6225C22.165 20.2981 21.8962 20.9457 21.4185 21.4234C20.9408 21.901 20.2931 22.17 19.6176 22.1708ZM16.7778 4.56429C19.002 5.21907 20.9228 6.63957 22.2004 8.57442C21.8939 8.85176 21.7003 9.23208 21.656 9.64299C21.6118 10.0539 21.7202 10.4667 21.9607 10.8029C22.201 11.1391 22.5566 11.3751 22.9597 11.4661C23.3629 11.5572 23.7854 11.4968 24.1469 11.2966C24.5085 11.0963 24.7838 10.7701 24.9204 10.3801C25.057 9.99008 25.0455 9.56342 24.888 9.18132C24.7306 8.79923 24.4381 8.48836 24.0663 8.30788C23.6946 8.1274 23.2694 8.08991 22.8717 8.20253C21.4954 6.09188 19.4113 4.54143 16.9942 3.82994C16.9456 3.81465 16.8945 3.8092 16.8439 3.81388C16.7931 3.81857 16.744 3.83331 16.699 3.85724C16.6541 3.88117 16.6145 3.91382 16.5823 3.95327C16.5502 3.99271 16.5262 4.03817 16.5119 4.08698C16.4974 4.13579 16.493 4.18699 16.4987 4.23755C16.5043 4.28812 16.52 4.33706 16.5447 4.3815C16.5696 4.42594 16.6029 4.46499 16.6429 4.49638C16.683 4.52777 16.7287 4.55085 16.7778 4.56429ZM24.2347 9.81801C24.2347 9.99851 24.1812 10.175 24.081 10.325C23.9807 10.4751 23.8381 10.5921 23.6714 10.6612C23.5046 10.7302 23.3212 10.7483 23.1441 10.7131C22.967 10.6779 22.8044 10.591 22.6768 10.4633C22.5491 10.3357 22.4622 10.1731 22.4271 9.99605C22.3918 9.81902 22.4099 9.63552 22.479 9.46876C22.548 9.302 22.6651 9.15947 22.8151 9.05919C22.9652 8.9589 23.1416 8.90538 23.3222 8.90538C23.5641 8.90561 23.7961 9.00184 23.9672 9.17294C24.1383 9.34404 24.2345 9.57604 24.2347 9.81801ZM11.2168 23.4394C8.99294 22.7843 7.07251 21.3638 5.79522 19.4292C6.10161 19.1519 6.29535 18.7716 6.33956 18.3606C6.38376 17.9497 6.27536 17.5369 6.03496 17.2008C5.79457 16.8645 5.43899 16.6285 5.03585 16.5375C4.63272 16.4465 4.21019 16.5068 3.84868 16.7071C3.48715 16.9073 3.21187 17.2335 3.07521 17.6236C2.93856 18.0136 2.95007 18.4403 3.10755 18.8223C3.26503 19.2045 3.5575 19.5153 3.92928 19.6958C4.30108 19.8762 4.72624 19.9137 5.12387 19.8011C6.49986 21.9116 8.58356 23.462 11.0004 24.1737C11.0355 24.1841 11.072 24.1893 11.1087 24.1892C11.2006 24.189 11.2894 24.1557 11.3589 24.0955C11.4282 24.0351 11.4737 23.9519 11.4868 23.861C11.4998 23.7699 11.4797 23.6772 11.4301 23.5998C11.3805 23.5224 11.3049 23.4655 11.2168 23.4394ZM3.75976 18.1856C3.75984 18.0052 3.81344 17.8288 3.91377 17.6787C4.0141 17.5287 4.15666 17.4118 4.32343 17.3428C4.4902 17.2738 4.67369 17.2558 4.85069 17.291C5.02769 17.3263 5.19027 17.4132 5.31786 17.5409C5.44545 17.6686 5.53232 17.8312 5.56749 18.0082C5.60267 18.1853 5.58457 18.3687 5.51549 18.5354C5.4464 18.7021 5.32943 18.8447 5.17936 18.9449C5.02929 19.0452 4.85286 19.0987 4.67238 19.0987C4.43032 19.0985 4.19827 19.0022 4.02716 18.8309C3.85604 18.6598 3.75987 18.4277 3.75976 18.1856Z" fill="#4E546D"/>
</g>
</g>
<defs>
<clipPath id="clip0_1248_6508">
<rect width="28" height="28" fill="white"/>
</clipPath>
</defs>
</svg>
