<svg width="24" height="25" viewBox="0 0 24 25" fill="none" xmlns="http://www.w3.org/2000/svg">
<path fill-rule="evenodd" clip-rule="evenodd" d="M9.429 9.16822H13.143V11.0182C13.678 9.95422 15.05 8.99822 17.111 8.99822C21.062 8.99822 22 11.1162 22 15.0022V22.1992H18V15.8872C18 13.6742 17.465 12.4262 16.103 12.4262C14.214 12.4262 13.429 13.7712 13.429 15.8862V22.1992H9.429V9.16822ZM2.57 22.0292H6.57V8.99822H2.57V22.0292ZM7.143 4.74922C7.14315 5.08449 7.07666 5.41645 6.94739 5.72581C6.81812 6.03516 6.62865 6.31573 6.39 6.55122C5.9064 7.03184 5.25181 7.30087 4.57 7.29922C3.88939 7.29876 3.23631 7.03042 2.752 6.55222C2.51421 6.31593 2.32539 6.03504 2.19634 5.72565C2.0673 5.41626 2.00058 5.08444 2 4.74922C2 4.07222 2.27 3.42422 2.753 2.94622C3.23689 2.46738 3.89024 2.19892 4.571 2.19922C5.253 2.19922 5.907 2.46822 6.39 2.94622C6.872 3.42422 7.143 4.07222 7.143 4.74922Z" fill="#848A96"/>
</svg>
