<svg width="40" height="40" viewBox="0 0 40 40" fill="none" xmlns="http://www.w3.org/2000/svg">
<g clip-path="url(#clip0_185_573)">
<circle cx="20" cy="20" r="19.5" stroke="white" stroke-opacity="0.2"/>
<path d="M15.1667 13.25C14.7909 13.25 14.4306 13.3993 14.1649 13.6649C13.8993 13.9306 13.75 14.2909 13.75 14.6667C13.75 15.0424 13.8993 15.4027 14.1649 15.6684C14.4306 15.9341 14.7909 16.0833 15.1667 16.0833C15.5424 16.0833 15.9027 15.9341 16.1684 15.6684C16.4341 15.4027 16.5833 15.0424 16.5833 14.6667C16.5833 14.2909 16.4341 13.9306 16.1684 13.6649C15.9027 13.3993 15.5424 13.25 15.1667 13.25ZM13.8333 17.25C13.8112 17.25 13.79 17.2588 13.7744 17.2744C13.7588 17.29 13.75 17.3112 13.75 17.3333V26C13.75 26.046 13.7873 26.0833 13.8333 26.0833H16.5C16.5221 26.0833 16.5433 26.0746 16.5589 26.0589C16.5746 26.0433 16.5833 26.0221 16.5833 26V17.3333C16.5833 17.3112 16.5746 17.29 16.5589 17.2744C16.5433 17.2588 16.5221 17.25 16.5 17.25H13.8333ZM18.1667 17.25C18.1446 17.25 18.1234 17.2588 18.1077 17.2744C18.0921 17.29 18.0833 17.3112 18.0833 17.3333V26C18.0833 26.046 18.1207 26.0833 18.1667 26.0833H20.8333C20.8554 26.0833 20.8766 26.0746 20.8923 26.0589C20.9079 26.0433 20.9167 26.0221 20.9167 26V21.3333C20.9167 21.0018 21.0484 20.6839 21.2828 20.4494C21.5172 20.215 21.8351 20.0833 22.1667 20.0833C22.4982 20.0833 22.8161 20.215 23.0506 20.4494C23.285 20.6839 23.4167 21.0018 23.4167 21.3333V26C23.4167 26.046 23.454 26.0833 23.5 26.0833H26.1667C26.1888 26.0833 26.21 26.0746 26.2256 26.0589C26.2412 26.0433 26.25 26.0221 26.25 26V20.2533C26.25 18.6353 24.8433 17.37 23.2333 17.516C22.7352 17.5617 22.2474 17.685 21.7873 17.8813L20.9167 18.2547V17.3333C20.9167 17.3112 20.9079 17.29 20.8923 17.2744C20.8766 17.2588 20.8554 17.25 20.8333 17.25H18.1667Z" fill="white"/>
</g>
<defs>
<clipPath id="clip0_185_573">
<rect width="40" height="40" fill="white"/>
</clipPath>
</defs>
</svg>
