<svg width="24" height="24" viewBox="0 0 24 24" fill="none" xmlns="http://www.w3.org/2000/svg">
<g clip-path="url(#clip0_1091_6577)">
<path d="M22.4622 6.76369C22.6487 6.59602 22.8001 6.4545 22.9115 6.34313C24.3492 4.90589 24.3764 2.55314 22.9114 1.08858C21.4469 -0.376406 19.0941 -0.349218 17.6569 1.08848C17.5284 1.21702 17.3599 1.39866 17.1572 1.62623C15.3409 0.560672 13.3101 2.61007e-07 11.2469 2.61007e-07C10.8586 2.61007e-07 10.5438 0.314813 10.5438 0.703125C10.5438 1.09144 10.8586 1.40625 11.2469 1.40625C13.0018 1.40625 14.6717 1.84453 16.2219 2.70998C11.8541 7.88016 0.69002 22.171 0.148895 22.8639C-0.0696831 23.1438 -0.0450737 23.5429 0.206036 23.7939C0.457145 24.045 0.856239 24.0697 1.13608 23.8511C1.83321 23.3067 16.2929 12.0107 21.3827 7.69973C23.3593 11.0845 22.7785 15.6802 20.5822 18.8332C19.0654 17.4218 17.1343 16.1908 15.0124 16.1908C12.9636 16.1908 11.2968 17.8576 11.2968 19.9064C11.2968 21.9552 12.9636 23.622 15.0124 23.622C18.1251 23.622 20.2025 21.4512 20.6767 20.9482C21.9101 22.337 22.6826 23.6381 22.6908 23.652C22.8585 23.9373 23.2738 24.1247 23.6533 23.9016C23.988 23.7046 24.0997 23.2737 23.9028 22.939C23.8281 22.812 22.9674 21.369 21.5849 19.8499C24.3626 16.1388 24.8158 10.4292 22.4622 6.76369ZM18.6513 2.08289C19.5477 1.18613 21.0082 1.17375 21.917 2.08284C22.8263 2.99189 22.8138 4.45256 21.9174 5.34863C21.8476 5.41838 21.7599 5.50167 21.6558 5.59734C21.2573 5.0947 20.8749 4.70311 20.5719 4.42256L20.7816 4.21289C21.0562 3.9383 21.0562 3.49313 20.7816 3.21853C20.507 2.94394 20.0618 2.94398 19.7872 3.21853L18.2809 4.72477C18.0063 4.99931 18.0063 5.44453 18.2809 5.71913C18.5554 5.99367 19.0007 5.99377 19.2753 5.71913L19.5764 5.41809C19.8476 5.66597 20.2137 6.03567 20.5958 6.5243C17.5586 9.10477 10.541 14.6779 4.83424 19.1659C10.2435 12.2875 17.2293 3.5048 18.6513 2.08289ZM15.0124 22.2157C13.739 22.2157 12.703 21.1798 12.703 19.9064C12.703 18.633 13.739 17.597 15.0124 17.597C16.0537 17.597 17.6773 18.0212 19.6987 19.9351C18.1431 21.6092 16.4343 22.2157 15.0124 22.2157Z" fill="#4E546D"/>
</g>
<defs>
<clipPath id="clip0_1091_6577">
<rect width="24" height="24" fill="white"/>
</clipPath>
</defs>
</svg>
