<svg width="25" height="24" viewBox="0 0 25 24" fill="none" xmlns="http://www.w3.org/2000/svg">
<g clip-path="url(#clip0_1091_6566)">
<path d="M18.0423 12.5036L18.6314 11.9145C18.6316 11.9143 18.6318 11.9141 18.632 11.9139C18.6321 11.9137 18.6323 11.9136 18.6325 11.9134L20.7106 9.83531C20.7107 9.83517 20.7108 9.83507 20.711 9.83498C20.7111 9.83489 20.7112 9.83475 20.7113 9.8346L22.7897 7.75617C22.7898 7.75612 22.7898 7.75607 22.7899 7.75603C22.7899 7.75598 22.79 7.75593 22.79 7.75589L23.9316 6.61425C24.2982 6.24778 24.5 5.76046 24.5 5.24217C24.5 4.72387 24.2981 4.23656 23.9316 3.87014L20.63 0.568402C20.2635 0.201933 19.7762 4.25889e-05 19.2579 4.25889e-05C18.7395 4.25889e-05 18.2523 0.201886 17.8858 0.568402L11.9964 6.45768L7.99897 2.46018C7.32978 1.791 6.49109 1.31465 5.57352 1.08267L1.37548 0.0214645C1.13548 -0.0392387 0.881047 0.0308395 0.705969 0.206011C0.530844 0.381089 0.460766 0.635386 0.521469 0.87548L1.58272 5.07351C1.81466 5.99104 2.291 6.82978 2.96019 7.49896L6.95769 11.4964L1.06831 17.3857C0.701844 17.7523 0.5 18.2395 0.5 18.7578C0.5 19.2762 0.701844 19.7634 1.06836 20.1299L4.37009 23.4316C4.73661 23.7982 5.22388 24 5.74222 24C6.26052 24 6.74778 23.7982 7.11425 23.4316L10.3335 20.2124C10.334 20.212 10.3345 20.2115 10.335 20.211C10.3355 20.2105 10.336 20.21 10.3364 20.2095L13.0036 17.5424L18.4176 22.9565C19.1122 23.6511 20.0246 23.9984 20.937 23.9984C21.8495 23.9984 22.7618 23.6511 23.4564 22.9565C24.8457 21.5673 24.8457 19.3069 23.4564 17.9177L18.0423 12.5036ZM2.94603 4.72889L2.17372 1.67376L5.22884 2.44612C5.90061 2.6159 6.51463 2.96465 7.00456 3.45459L7.55891 4.00893L4.50884 7.059L3.9545 6.50465C3.46456 6.01467 3.11586 5.40065 2.94603 4.72889ZM5.5032 8.05331L8.55327 5.00325L11.0021 7.45204L7.952 10.5021L5.5032 8.05331ZM5.74222 22.5937C5.59953 22.5937 5.46542 22.5382 5.3645 22.4373L2.06272 19.1355C1.96184 19.0347 1.9063 18.9005 1.9063 18.7578C1.9063 18.6151 1.96184 18.481 2.06272 18.3801L18.8801 1.56271C18.981 1.46184 19.1152 1.40625 19.2579 1.40625C19.4006 1.40625 19.5347 1.46184 19.6356 1.56271L22.9373 4.8645C23.0382 4.96532 23.0938 5.09948 23.0938 5.24217C23.0938 5.38486 23.0382 5.51901 22.9373 5.61993L22.2927 6.26451L20.1479 4.11961C19.8734 3.84501 19.4282 3.84501 19.1535 4.11961C18.8789 4.39415 18.8789 4.83937 19.1535 5.11396L21.2984 7.25887L20.2138 8.34346L19.1084 7.2381C18.8338 6.96346 18.3886 6.96356 18.114 7.2381C17.8394 7.5127 17.8394 7.95787 18.114 8.23246L19.2194 9.33782L18.1348 10.4224L15.99 8.27751C15.7154 8.00292 15.2702 8.00292 14.9956 8.27751C14.721 8.55206 14.721 8.99728 14.9956 9.27187L17.1405 11.4167L16.0559 12.5013L14.9505 11.396C14.6759 11.1214 14.2307 11.1214 13.9561 11.396C13.6815 11.6705 13.6815 12.1157 13.9561 12.3903L15.0615 13.4957L13.9957 14.5615L11.8508 12.4166C11.5762 12.142 11.1311 12.142 10.8565 12.4166C10.5819 12.6912 10.5819 13.1364 10.8565 13.411L13.0013 15.5558L11.9167 16.6404L10.8114 15.5351C10.5368 15.2605 10.0916 15.2605 9.81702 15.5351C9.54242 15.8096 9.54242 16.2548 9.81702 16.5294L10.9224 17.6348L9.83778 18.7194L7.69297 16.5746C7.41842 16.3 6.9732 16.3 6.69861 16.5746C6.42402 16.8491 6.42402 17.2943 6.69861 17.5689L8.84342 19.7137L7.75883 20.7983L6.65347 19.693C6.37892 19.4184 5.9337 19.4184 5.65911 19.693C5.38452 19.9675 5.38452 20.4127 5.65911 20.6873L6.76447 21.7927L6.11989 22.4373C6.01902 22.5382 5.88486 22.5937 5.74222 22.5937ZM14.49 16.0559C14.491 16.055 14.492 16.054 14.4929 16.053C14.4939 16.0521 14.4949 16.0511 14.4958 16.0501L16.5523 13.9936C16.5526 13.9934 16.5529 13.9931 16.5531 13.9928C16.5533 13.9926 16.5536 13.9923 16.5539 13.992L17.048 13.4979L20.0275 16.4774L16.9774 19.5275L13.9979 16.548L14.49 16.0559ZM22.4621 21.9621C21.6212 22.8029 20.2529 22.8029 19.412 21.9621L17.9718 20.5218L21.0218 17.4717L22.4621 18.9119C23.303 19.7529 23.303 21.1212 22.4621 21.9621Z" fill="#4E546D"/>
</g>
<defs>
<clipPath id="clip0_1091_6566">
<rect width="24" height="24" fill="white" transform="translate(0.5)"/>
</clipPath>
</defs>
</svg>
