<svg width="89" height="24" viewBox="0 0 89 24" fill="none" xmlns="http://www.w3.org/2000/svg">
<g clip-path="url(#clip0_1_274)">
<path d="M38.4686 5.82386V8.59515H39.2298C39.5164 8.59515 39.7372 9.16135 39.8119 9.4444L43.6178 23.9715H47.3787L50.8264 11.4559L54.0501 23.9715H57.9457C59.1246 19.3974 61.5186 10.0881 61.6619 9.4444C61.8053 8.80074 62.289 8.66963 62.5127 8.68452H64.3038V23.9715H67.6171V16.6409H73.393V13.8249H67.6171V8.68452H74.3782C74.7723 8.64876 75.1094 9.02725 75.2289 9.22093L84.7659 23.9715H88.6166C85.1539 18.5183 78.1122 7.41514 77.6467 6.62842C77.1811 5.84174 76.2585 5.76423 75.8555 5.82386H60.5875C59.0471 5.82386 58.5727 7.01582 58.5279 7.61181L55.7516 20.1722L52.2146 5.82386H49.4383L45.7221 20.1722C44.8267 16.3132 42.9998 8.31803 42.8566 7.20951C42.7133 6.10098 41.7223 5.82386 41.2446 5.82386H38.4686Z" fill="url(#paint0_linear_1_274)"/>
<path d="M76.8413 23.9719H73.125L78.5876 15.3003L80.289 18.0269L76.8413 23.9719Z" fill="url(#paint1_linear_1_274)"/>
<path d="M83.1094 14.4062L81.2734 11.5007C82.0943 10.1002 83.8257 7.14705 84.1838 6.53916C84.5419 5.93127 85.3184 5.83887 85.6616 5.86866H88.1242V8.68469H87.1838C86.7897 8.68469 86.5422 8.89331 86.4675 8.99758L83.1094 14.4062Z" fill="url(#paint2_linear_1_274)"/>
<path fill-rule="evenodd" clip-rule="evenodd" d="M7.01491 8.32749C-2.49293 10.2088 -2.3779 23.9432 7.61739 23.9166L27.635 23.8634C28.4521 23.8612 29.2421 23.7 30.0051 23.4594C33.8198 22.2826 36.4941 18.8816 36.5001 14.9574C36.5176 3.58242 19.2235 3.52234 18.3626 14.3692L18.3348 14.6875C18.6452 7.68672 32.976 4.33426 33.6949 14.9648C33.6907 17.6958 31.8079 20.0342 29.1648 20.8631C28.6743 21.0236 28.1567 21.131 27.6393 21.1324L7.62159 21.1856C5.87851 21.1902 4.19079 20.6379 3.34896 19.0492C2.47993 17.4342 2.80993 15.3651 3.73824 13.8513C4.85767 12.0453 6.76567 11.0327 8.94425 11.1595L9.29823 11.185L9.70996 9.14223C10.4238 5.4283 13.7778 2.74136 17.6452 2.73108C20.2325 2.72421 22.6818 3.93738 24.2037 6.00149L24.3668 6.26619L24.6664 6.15936C25.3204 5.94551 25.9743 5.81117 26.6553 5.72984L27.2818 5.67516L26.9557 5.14571C24.9998 1.9426 21.4622 -0.0100975 17.6493 3.92748e-05C12.5292 0.0136468 8.11172 3.49884 7.01491 8.32749Z" fill="url(#paint3_linear_1_274)"/>
</g>
<defs>
<linearGradient id="paint0_linear_1_274" x1="33.5997" y1="-1.35429" x2="66.0744" y2="25.2838" gradientUnits="userSpaceOnUse">
<stop stop-color="#00D1CF"/>
<stop offset="1" stop-color="#0099C4"/>
</linearGradient>
<linearGradient id="paint1_linear_1_274" x1="33.6002" y1="-1.35398" x2="66.0749" y2="25.2842" gradientUnits="userSpaceOnUse">
<stop stop-color="#00D1CF"/>
<stop offset="1" stop-color="#0099C4"/>
</linearGradient>
<linearGradient id="paint2_linear_1_274" x1="33.5998" y1="-1.35413" x2="66.0745" y2="25.284" gradientUnits="userSpaceOnUse">
<stop stop-color="#00D1CF"/>
<stop offset="1" stop-color="#0099C4"/>
</linearGradient>
<linearGradient id="paint3_linear_1_274" x1="33.5953" y1="-1.35408" x2="66.07" y2="25.284" gradientUnits="userSpaceOnUse">
<stop stop-color="#00D1CF"/>
<stop offset="1" stop-color="#0099C4"/>
</linearGradient>
<clipPath id="clip0_1_274">
<rect width="88.6226" height="24" fill="white"/>
</clipPath>
</defs>
</svg>
