<svg width="1106" height="342" viewBox="0 0 1106 342" fill="none" xmlns="http://www.w3.org/2000/svg">
<g opacity="0.3">
<path d="M62.0569 205.446C62.0569 205.446 59.6039 203.37 54.1309 203.181C48.6579 202.992 44.6959 203.936 43.9409 203.936C43.1859 203.936 39.9779 203.747 39.0349 203.559C38.0909 203.37 32.2409 199.974 32.2409 199.974L17.7109 225.827L63.7009 254.76C65.4489 255.86 67.7729 255.773 69.2819 254.363C69.3929 254.26 69.5009 254.148 69.6049 254.029C71.2729 252.123 70.0019 250.058 70.0019 250.058C70.0019 250.058 74.4679 252.663 77.1169 249.946C79.7269 247.269 78.3409 244.34 78.3409 244.34C78.3409 244.34 81.9149 245.69 84.2969 243.784C86.6789 241.878 85.3289 237.987 85.3289 237.987C85.3289 237.987 89.0609 238.384 90.2529 236.319C91.4439 234.254 90.4909 231.475 90.4909 231.475L62.0569 205.446Z" fill="white" stroke="#242733" stroke-miterlimit="10" stroke-linecap="round" stroke-linejoin="round"/>
<path d="M35.3605 234.256L30.0645 239.743C28.3615 241.508 25.5505 241.558 23.7865 239.855C22.0225 238.152 21.9715 235.342 23.6745 233.577L28.9705 228.089C30.6735 226.325 33.4845 226.274 35.2485 227.977C37.0135 229.681 37.0635 232.491 35.3605 234.256Z" fill="white" stroke="#242733" stroke-miterlimit="10" stroke-linecap="round" stroke-linejoin="round"/>
<path d="M44.8912 237.18L37.0492 245.306C35.3462 247.07 32.5352 247.121 30.7712 245.418C29.0062 243.715 28.9562 240.905 30.6592 239.14L38.5012 231.014C40.2042 229.25 43.0152 229.199 44.7792 230.902C46.5432 232.604 46.5932 235.415 44.8912 237.18Z" fill="white" stroke="#242733" stroke-miterlimit="10" stroke-linecap="round" stroke-linejoin="round"/>
<path d="M51.3436 243.628L43.5016 251.754C41.7986 253.518 38.9886 253.568 37.2236 251.866C35.4596 250.163 35.4096 247.352 37.1116 245.588L44.9537 237.462C46.6567 235.698 49.4677 235.647 51.2317 237.35C52.9967 239.053 53.0466 241.863 51.3436 243.628Z" fill="white" stroke="#242733" stroke-miterlimit="10" stroke-linecap="round" stroke-linejoin="round"/>
<path d="M57.1429 250.433L53.0489 254.675C51.3459 256.439 48.5349 256.49 46.7709 254.787C45.0069 253.084 44.9559 250.273 46.6589 248.509L50.7529 244.267C52.4559 242.503 55.2659 242.452 57.0309 244.155C58.7959 245.858 58.8459 248.669 57.1429 250.433Z" fill="white" stroke="#242733" stroke-miterlimit="10" stroke-linecap="round" stroke-linejoin="round"/>
<path d="M70.0001 250.058L59.3281 241.784" stroke="#242733" stroke-miterlimit="10" stroke-linecap="round" stroke-linejoin="round"/>
<path d="M78.3307 244.455L66.5937 235.225" stroke="#242733" stroke-miterlimit="10" stroke-linecap="round" stroke-linejoin="round"/>
<path d="M85.9792 238.582L74.2422 229.352" stroke="#242733" stroke-miterlimit="10" stroke-linecap="round" stroke-linejoin="round"/>
<path d="M99.7982 192.991L77.1532 206.767C77.1532 206.767 65.4532 200.351 62.2452 202.427C59.0372 204.503 52.6212 208.466 50.5452 209.598C48.4692 210.73 44.6952 211.108 46.0162 213.938C47.3372 216.769 50.3562 216.391 54.1302 216.769C57.9042 217.147 66.5852 212.806 66.5852 212.806L90.6262 231.511L114.78 216.981L99.7982 192.991Z" fill="white" stroke="#242733" stroke-miterlimit="10" stroke-linecap="round" stroke-linejoin="round"/>
<path d="M84.9765 201.756L99.1605 226.194L114.78 216.98L99.7955 192.991L84.9765 201.756Z" fill="#EFA64A" stroke="#242733" stroke-miterlimit="10" stroke-linecap="round" stroke-linejoin="round"/>
<path d="M89.2187 195.226L106.592 225.015L123.925 215.42L106.51 185L89.2187 195.226Z" fill="#EFA64A" stroke="#242733" stroke-miterlimit="10" stroke-linecap="round" stroke-linejoin="round"/>
<path d="M101.897 221.665C101.897 222.467 101.247 223.118 100.445 223.118C99.6432 223.118 98.9922 222.468 98.9922 221.665C98.9922 220.863 99.6422 220.212 100.445 220.212C101.247 220.212 101.897 220.863 101.897 221.665Z" fill="white" stroke="#242733" stroke-miterlimit="10" stroke-linecap="round" stroke-linejoin="round"/>
<path d="M36.4234 199.991L23.7734 192.411L5.53511 222.848L18.1851 230.428L36.4234 199.991Z" fill="white" stroke="#242733" stroke-miterlimit="10" stroke-linecap="round" stroke-linejoin="round"/>
<path d="M31.8843 197.335L19.2343 189.755L0.996553 220.191L13.6465 227.771L31.8843 197.335Z" fill="#242733" stroke="#242733" stroke-miterlimit="10" stroke-linecap="round" stroke-linejoin="round"/>
<path d="M12.2853 223.607C13.0253 223.607 13.6253 223.007 13.6253 222.267C13.6253 221.527 13.0253 220.927 12.2853 220.927C11.5452 220.927 10.9453 221.527 10.9453 222.267C10.9453 223.007 11.5452 223.607 12.2853 223.607Z" fill="white" stroke="#242733" stroke-miterlimit="10" stroke-linecap="round" stroke-linejoin="round"/>
<path d="M10.3909 220.06C10.3909 220.8 9.79088 221.4 9.05088 221.4C8.31088 221.4 7.71088 220.8 7.71088 220.06C7.71088 219.32 8.31088 218.72 9.05088 218.72C9.79088 218.72 10.3909 219.319 10.3909 220.06Z" fill="white" stroke="#242733" stroke-miterlimit="10" stroke-linecap="round" stroke-linejoin="round"/>
<path d="M43.5304 282.032V271.127H41.5234V269.431H47.8094V271.127H45.8334V282.032H43.5304Z" fill="#242733"/>
<path d="M48.9609 282.032V269.43H51.9789C52.8289 269.43 53.5479 269.531 54.1339 269.734C54.7199 269.936 55.1659 270.281 55.4719 270.768C55.7779 271.255 55.9309 271.919 55.9309 272.759C55.9309 273.268 55.8839 273.724 55.7909 274.128C55.6979 274.532 55.5399 274.878 55.3159 275.163C55.0929 275.448 54.7849 275.668 54.3909 275.824L56.1489 282.031H53.8459L52.3219 276.26H51.2639V282.031H48.9609V282.032ZM51.2639 274.813H51.9799C52.4259 274.813 52.7809 274.749 53.0449 274.619C53.3099 274.489 53.4989 274.282 53.6129 273.997C53.7269 273.712 53.7839 273.346 53.7839 272.9C53.7839 272.267 53.6669 271.793 53.4339 271.476C53.2009 271.16 52.7569 271.001 52.1039 271.001H51.2639V274.813Z" fill="#242733"/>
<path d="M61.0938 282.203C60.1598 282.203 59.4338 282.032 58.9158 281.69C58.3968 281.347 58.0398 280.86 57.8428 280.227C57.6458 279.595 57.5468 278.837 57.5468 277.956V269.431H59.7878V278.221C59.7878 278.616 59.8128 278.986 59.8658 279.333C59.9178 279.681 60.0388 279.961 60.2318 280.173C60.4228 280.386 60.7108 280.492 61.0948 280.492C61.4988 280.492 61.7918 280.386 61.9738 280.173C62.1558 279.961 62.2748 279.681 62.3318 279.333C62.3888 278.985 62.4178 278.615 62.4178 278.221V269.431H64.6428V277.956C64.6428 278.838 64.5438 279.596 64.3468 280.227C64.1498 280.86 63.7948 281.347 63.2818 281.69C62.7668 282.032 62.0378 282.203 61.0938 282.203Z" fill="#242733"/>
<path d="M69.6178 282.203C68.8608 282.203 68.2278 282.056 67.7198 281.76C67.2118 281.465 66.8278 281.032 66.5688 280.461C66.3088 279.891 66.1638 279.19 66.1328 278.36L68.1088 277.971C68.1298 278.459 68.1888 278.889 68.2878 279.263C68.3868 279.636 68.5368 279.924 68.7388 280.126C68.9418 280.328 69.2078 280.429 69.5398 280.429C69.9138 280.429 70.1778 280.318 70.3328 280.095C70.4888 279.872 70.5658 279.589 70.5658 279.247C70.5658 278.697 70.4418 278.246 70.1928 277.893C69.9438 277.541 69.6118 277.187 69.1968 276.834L67.6098 275.434C67.1638 275.051 66.8088 274.623 66.5448 274.151C66.2798 273.679 66.1478 273.096 66.1478 272.401C66.1478 271.405 66.4378 270.637 67.0188 270.098C67.5998 269.559 68.3928 269.289 69.3988 269.289C69.9898 269.289 70.4828 269.38 70.8768 269.56C71.2708 269.742 71.5848 269.994 71.8178 270.315C72.0508 270.636 72.2248 271.003 72.3388 271.412C72.4528 271.822 72.5258 272.255 72.5568 272.711L70.5968 273.054C70.5758 272.659 70.5318 272.307 70.4648 271.996C70.3978 271.684 70.2778 271.441 70.1068 271.264C69.9358 271.087 69.6838 270.999 69.3528 270.999C69.0108 270.999 68.7488 271.11 68.5668 271.334C68.3848 271.557 68.2948 271.834 68.2948 272.166C68.2948 272.592 68.3828 272.941 68.5598 273.216C68.7358 273.491 68.9898 273.774 69.3218 274.064L70.8928 275.449C71.4118 275.885 71.8548 276.396 72.2228 276.982C72.5908 277.568 72.7758 278.276 72.7758 279.105C72.7758 279.707 72.6438 280.241 72.3788 280.708C72.1138 281.175 71.7458 281.54 71.2748 281.805C70.8028 282.071 70.2498 282.203 69.6178 282.203Z" fill="#242733"/>
<path d="M75.3898 282.032V271.127H73.3828V269.431H79.6688V271.127H77.6928V282.032H75.3898Z" fill="#242733"/>
<path d="M236.238 158.634L224.512 180.245L253.901 228.659L290.968 206.158L261.579 157.744L236.238 158.634ZM242.816 168.617C241.354 169.505 239.449 169.039 238.561 167.577C237.673 166.115 238.139 164.21 239.601 163.322C241.063 162.434 242.968 162.9 243.856 164.362C244.744 165.824 244.278 167.729 242.816 168.617Z" fill="#EFA64A" stroke="#242733" stroke-miterlimit="10" stroke-linecap="round" stroke-linejoin="round"/>
<path d="M273.821 183.019C268.368 174.037 256.667 171.175 247.684 176.628C238.702 182.081 235.84 193.783 241.293 202.765C246.746 211.747 258.448 214.609 267.43 209.156C276.413 203.703 279.274 192.001 273.821 183.019Z" fill="#242733"/>
<path d="M265.802 206.759L264.386 204.426C262.433 205.51 260.635 205.752 258.992 205.153C257.349 204.554 255.829 203.209 254.432 201.117L257.566 198.264C258.132 199.112 258.7 199.818 259.271 200.384C259.843 200.95 260.418 201.303 260.999 201.445C261.578 201.587 262.165 201.478 262.758 201.119C263.425 200.714 263.781 200.226 263.826 199.653C263.871 199.08 263.709 198.489 263.338 197.878C262.742 196.896 262.026 196.228 261.191 195.874C260.355 195.52 259.385 195.248 258.28 195.056L253.901 194.293C253.102 194.145 252.354 193.935 251.655 193.661C250.957 193.389 250.303 193 249.693 192.495C249.083 191.991 248.52 191.313 248.003 190.462C246.98 188.776 246.66 187.166 247.044 185.627C247.428 184.089 248.406 182.779 249.98 181.697L248.614 179.447L249.809 178.722L251.158 180.944C252.137 180.425 253.04 180.162 253.87 180.152C254.701 180.143 255.468 180.31 256.172 180.656C256.877 181.002 257.53 181.474 258.132 182.07C258.736 182.668 259.286 183.334 259.784 184.071L256.655 186.807C256.19 186.126 255.732 185.537 255.278 185.039C254.824 184.542 254.346 184.224 253.843 184.085C253.341 183.947 252.805 184.076 252.234 184.472C251.616 184.872 251.263 185.365 251.175 185.951C251.086 186.537 251.223 187.126 251.582 187.719C252.065 188.515 252.632 189.052 253.282 189.328C253.931 189.605 254.662 189.828 255.473 189.994L259.807 190.747C260.725 190.924 261.63 191.173 262.522 191.493C263.413 191.814 264.248 192.27 265.026 192.862C265.804 193.455 266.496 194.25 267.103 195.25C267.71 196.25 268.053 197.265 268.133 198.293C268.213 199.322 268.038 200.296 267.608 201.216C267.178 202.136 266.496 202.954 265.564 203.672L266.998 206.034L265.802 206.759Z" fill="white"/>
<path d="M240.638 163.778L219.153 151.785C216.849 150.586 214.079 150.775 211.966 152.252C209.836 153.74 208.721 156.265 209.055 158.84C209.384 161.386 211.079 163.533 213.422 164.42L229.195 171.169C229.269 171.201 229.345 171.221 229.421 171.24L230.774 168.671C230.657 168.567 230.526 168.475 230.374 168.41L214.543 161.638C213.18 161.121 212.217 159.901 212.03 158.454C211.837 156.968 212.456 155.568 213.684 154.711C214.901 153.863 216.438 153.753 217.729 154.425L239.175 166.397C239.664 166.669 240.239 166.64 240.685 166.369C240.9 166.239 241.085 166.053 241.216 165.818C241.62 165.095 241.361 164.182 240.638 163.778Z" fill="#242733"/>
<path d="M236.848 252.891V240.289H240.55C241.307 240.289 241.922 240.429 242.394 240.709C242.866 240.988 243.213 241.395 243.436 241.93C243.66 242.464 243.771 243.111 243.771 243.868C243.771 244.687 243.631 245.348 243.351 245.851C243.071 246.354 242.679 246.72 242.176 246.948C241.673 247.177 241.079 247.291 240.395 247.291H239.15V252.891H236.848ZM239.149 245.672H240.021C240.435 245.672 240.759 245.612 240.993 245.492C241.226 245.374 241.388 245.181 241.475 244.917C241.563 244.652 241.607 244.298 241.607 243.852C241.607 243.396 241.574 243.025 241.506 242.74C241.439 242.455 241.293 242.245 241.07 242.109C240.846 241.975 240.497 241.907 240.02 241.907H239.148V245.672H239.149Z" fill="#242733"/>
<path d="M244.981 252.891V240.289H247.999C248.85 240.289 249.568 240.39 250.154 240.592C250.74 240.794 251.185 241.139 251.492 241.627C251.798 242.114 251.951 242.777 251.951 243.618C251.951 244.126 251.904 244.583 251.81 244.987C251.717 245.391 251.559 245.736 251.335 246.021C251.112 246.306 250.804 246.527 250.41 246.682L252.168 252.89H249.865L248.341 247.118H247.282V252.89H244.981V252.891ZM247.283 245.672H247.999C248.445 245.672 248.801 245.607 249.065 245.478C249.33 245.348 249.519 245.141 249.633 244.855C249.747 244.57 249.804 244.205 249.804 243.758C249.804 243.125 249.688 242.652 249.454 242.334C249.221 242.019 248.777 241.86 248.124 241.86H247.283V245.672Z" fill="#242733"/>
<path d="M253.747 252.891V240.289H256.018V252.89H253.747V252.891Z" fill="#242733"/>
<path d="M261.349 253.062C260.426 253.062 259.703 252.88 259.179 252.517C258.655 252.155 258.289 251.66 258.082 251.032C257.874 250.405 257.77 249.681 257.77 248.862V244.365C257.77 243.505 257.874 242.758 258.082 242.125C258.289 241.493 258.654 241.005 259.179 240.663C259.702 240.32 260.426 240.149 261.349 240.149C262.22 240.149 262.902 240.296 263.395 240.592C263.887 240.888 264.238 241.311 264.445 241.861C264.653 242.411 264.757 243.049 264.757 243.774V244.832H262.548V243.743C262.548 243.39 262.529 243.069 262.493 242.778C262.457 242.488 262.358 242.257 262.197 242.087C262.037 241.915 261.758 241.83 261.365 241.83C260.97 241.83 260.682 241.921 260.502 242.102C260.32 242.284 260.203 242.528 260.151 242.834C260.099 243.141 260.074 243.485 260.074 243.869V249.345C260.074 249.802 260.11 250.178 260.182 250.473C260.254 250.769 260.387 250.993 260.579 251.142C260.771 251.293 261.033 251.368 261.365 251.368C261.749 251.368 262.021 251.278 262.181 251.097C262.342 250.915 262.443 250.674 262.485 250.373C262.526 250.072 262.548 249.735 262.548 249.361V248.225H264.757V249.237C264.757 249.984 264.658 250.645 264.461 251.22C264.264 251.796 263.919 252.247 263.427 252.574C262.933 252.898 262.24 253.062 261.349 253.062Z" fill="#242733"/>
<path d="M266.364 252.891V240.289H271.653V241.906H268.666V245.531H271.016V247.134H268.666V251.304H271.684V252.891H266.364Z" fill="#242733"/>
<path d="M878.735 126.88L872.588 115.21L861.984 122.549L873.089 79.5981L889.84 83.9291L878.735 126.88Z" fill="#EFA64A" stroke="#242733" stroke-miterlimit="10" stroke-linecap="round" stroke-linejoin="round"/>
<path d="M888.614 126.88L894.761 115.21L905.364 122.549L894.259 79.5981L877.508 83.9291L888.614 126.88Z" fill="#EFA64A" stroke="#242733" stroke-miterlimit="10" stroke-linecap="round" stroke-linejoin="round"/>
<path d="M910.023 67.454L915.343 60.454L907.519 56.453L909.263 47.84L900.476 47.631L898.324 39.11L890.318 42.733L884.672 36L879.025 42.733L871.019 39.11L868.866 47.632L860.08 47.842L861.824 56.454L854 60.455L859.321 67.454L854 74.453L861.825 78.455L860.081 87.068L868.868 87.277L871.02 95.798L879.026 92.174L884.672 98.908L890.318 92.174L898.325 95.797L900.478 87.275L909.264 87.066L907.519 78.454L915.344 74.452L910.023 67.454Z" fill="#242733"/>
<path d="M888.592 91.727C902.005 89.567 911.127 76.9429 908.967 63.5303C906.807 50.1178 894.183 40.9958 880.77 43.1558C867.357 45.3158 858.235 57.9399 860.395 71.3525C862.555 84.7651 875.18 93.887 888.592 91.727Z" fill="white" stroke="#242733" stroke-miterlimit="10" stroke-linecap="round" stroke-linejoin="round"/>
<path d="M887.439 84.7033C896.964 83.1662 903.44 74.1983 901.903 64.6728C900.366 55.1473 891.398 48.6715 881.872 50.2086C872.347 51.7456 865.871 60.7136 867.408 70.2391C868.945 79.7645 877.913 86.2404 887.439 84.7033Z" fill="#EFA64A" stroke="#242733" stroke-miterlimit="10" stroke-linecap="round" stroke-linejoin="round"/>
<path d="M866.449 155.037C866.189 154.913 865.912 154.726 865.617 154.477C865.321 154.228 865.03 153.945 864.745 153.629C864.46 153.313 864.214 152.999 864.007 152.688C863.965 152.698 863.921 152.703 863.874 152.703C863.827 152.703 863.778 152.703 863.727 152.703C862.834 152.703 862.124 152.537 861.595 152.205C861.067 151.873 860.688 151.396 860.459 150.774C860.231 150.152 860.117 149.415 860.117 148.565V143.851C860.117 143 860.231 142.272 860.459 141.665C860.687 141.058 861.066 140.594 861.595 140.272C862.124 139.951 862.834 139.79 863.727 139.79C864.639 139.79 865.361 139.951 865.889 140.272C866.418 140.594 866.797 141.058 867.025 141.665C867.254 142.272 867.368 143 867.368 143.851V148.58C867.368 149.182 867.31 149.726 867.197 150.214C867.083 150.701 866.895 151.124 866.636 151.482C866.376 151.84 866.034 152.118 865.61 152.315C865.744 152.46 865.884 152.61 866.03 152.766C866.175 152.922 866.32 153.067 866.466 153.202C866.611 153.337 866.751 153.446 866.886 153.529L866.449 155.037ZM863.726 151.007C864.11 151.007 864.395 150.924 864.581 150.758C864.767 150.592 864.892 150.364 864.954 150.073C865.017 149.782 865.048 149.466 865.048 149.124V143.321C865.048 142.969 865.017 142.652 864.954 142.372C864.892 142.092 864.767 141.872 864.581 141.711C864.395 141.55 864.109 141.47 863.726 141.47C863.353 141.47 863.073 141.551 862.886 141.711C862.698 141.872 862.576 142.092 862.52 142.372C862.463 142.652 862.435 142.969 862.435 143.321V149.124C862.435 149.466 862.463 149.783 862.52 150.073C862.577 150.364 862.699 150.592 862.886 150.758C863.073 150.924 863.353 151.007 863.726 151.007Z" fill="#242733"/>
<path d="M872.532 152.703C871.598 152.703 870.872 152.532 870.353 152.19C869.835 151.848 869.477 151.36 869.28 150.728C869.083 150.096 868.984 149.338 868.984 148.457V139.932H871.225V148.722C871.225 149.116 871.25 149.487 871.302 149.834C871.354 150.182 871.476 150.462 871.668 150.674C871.859 150.887 872.147 150.993 872.531 150.993C872.935 150.993 873.228 150.887 873.41 150.674C873.592 150.462 873.711 150.182 873.767 149.834C873.825 149.486 873.853 149.116 873.853 148.722V139.932H876.078V148.457C876.078 149.339 875.979 150.096 875.782 150.728C875.586 151.361 875.23 151.848 874.717 152.19C874.204 152.532 873.475 152.703 872.532 152.703Z" fill="#242733"/>
<path d="M877.18 152.532L879.701 139.93H882.159L884.68 152.532H882.549L882.051 149.623H879.857L879.343 152.532H877.18ZM880.09 148.16H881.801L880.946 142.87L880.09 148.16Z" fill="#242733"/>
<path d="M885.883 152.532V139.93H888.185V150.945H891.235V152.532H885.883Z" fill="#242733"/>
<path d="M892.43 152.532V139.93H894.701V152.532H892.43Z" fill="#242733"/>
<path d="M897.905 152.532V141.626H895.898V139.93H902.183V141.626H900.207V152.532H897.905Z" fill="#242733"/>
<path d="M905.09 152.532V147.725L902.539 139.931H904.685L906.241 144.925L907.704 139.931H909.804L907.284 147.725V152.532H905.09Z" fill="#242733"/>
<path d="M1054.64 45.8979L1050.66 41.4839L1043.53 46.6659L1046.44 51.7119C1044.19 53.9319 1042.27 56.4909 1040.77 59.3079L1034.96 58.0749L1032.23 66.4599L1037.55 68.8309C1037.28 70.4969 1037.12 72.2059 1037.12 73.9509C1037.12 75.4309 1037.23 76.8839 1037.43 78.3089L1032 80.7309L1034.72 89.1159L1040.42 87.9079C1041.85 90.7629 1043.7 93.3669 1045.9 95.6389L1042.93 100.797L1050.06 105.979L1053.96 101.654C1056.73 103.098 1059.75 104.135 1062.93 104.692L1063.56 110.609H1072.37L1072.99 104.822C1076.19 104.344 1079.23 103.378 1082.04 102.004L1086.02 106.418L1093.15 101.236L1090.24 96.1899C1092.49 93.9699 1094.41 91.4109 1095.91 88.5939L1101.73 89.8269L1104.45 81.4419L1099.13 79.0709C1099.41 77.4049 1099.56 75.6959 1099.56 73.9509C1099.56 72.4709 1099.45 71.0179 1099.25 69.5929L1104.68 67.1709L1101.96 58.7859L1096.26 59.9939C1094.83 57.1389 1092.98 54.5349 1090.78 52.2629L1093.76 47.1059L1086.62 41.9239L1082.73 46.2489C1079.95 44.8049 1076.93 43.7679 1073.75 43.2109L1073.12 37.2939H1064.31L1063.7 43.0809C1062.16 43.3109 1060.65 43.6539 1059.19 44.1009M1086.32 86.0759C1082.43 91.8449 1075.83 95.6379 1068.34 95.6379C1056.36 95.6379 1046.65 85.9279 1046.65 73.9499C1046.65 61.9719 1056.36 52.2619 1068.34 52.2619C1080.32 52.2619 1090.03 61.9719 1090.03 73.9499C1090.03 76.0399 1089.73 78.0609 1089.18 79.9739" stroke="#242733" stroke-miterlimit="10"/>
<path d="M1062.18 84.441L1065.5 90.806L1058.59 116.541L1066.84 126.502L1075.19 116.739L1069.65 90.806L1073.85 85.548L1066.89 76.417L1062.18 84.441Z" fill="#EFA64A" stroke="#242733" stroke-miterlimit="10" stroke-linecap="round" stroke-linejoin="round"/>
<path d="M1057.63 71.281L1052.78 75.221L1061.87 89.163L1068.54 80.98L1074 89.466L1084.73 76.593L1080.36 71.281H1057.63Z" fill="#242733" stroke="#242733" stroke-miterlimit="10" stroke-linecap="round" stroke-linejoin="round"/>
<path d="M1080.36 71.2809L1068.54 80.9799L1057.63 71.2809V54.6099H1080.36V71.2809Z" fill="white" stroke="#242733" stroke-miterlimit="10" stroke-linecap="round" stroke-linejoin="round"/>
<path d="M1054.41 32.806C1054.41 24.629 1061.04 18 1069.22 18H1072.41C1080.58 18 1087.21 24.629 1087.21 32.806V44.002" stroke="#242733" stroke-miterlimit="10" stroke-linecap="round" stroke-linejoin="round"/>
<path d="M1072.23 66.4679H1065.14C1058.04 66.4679 1052.29 60.7129 1052.29 53.6149V35.0959C1052.29 27.9969 1058.04 22.2429 1065.14 22.2429H1072.23C1079.33 22.2429 1085.09 27.9979 1085.09 35.0959V53.6149C1085.09 60.7139 1079.33 66.4679 1072.23 66.4679Z" fill="white" stroke="#242733" stroke-miterlimit="10" stroke-linecap="round" stroke-linejoin="round"/>
<path d="M1085.08 47.6392V37.0492C1085.08 28.8722 1078.45 22.2432 1070.28 22.2432H1067.09C1061.2 22.2432 1056.13 25.6892 1053.75 30.6662H1079.15C1079.15 30.6662 1076.42 34.0002 1077.63 37.3342C1078.84 40.6682 1080.66 42.1832 1080.66 42.1832V47.6392H1085.08Z" fill="#242733" stroke="#242733" stroke-miterlimit="10" stroke-linecap="round" stroke-linejoin="round"/>
<path d="M1087.51 52.1858H1086.55C1084.8 52.1858 1083.39 50.7718 1083.39 49.0278V38.9758C1083.39 37.2318 1084.8 35.8188 1086.55 35.8188H1087.51C1089.25 35.8188 1090.67 37.2328 1090.67 38.9758V49.0278C1090.66 50.7718 1089.25 52.1858 1087.51 52.1858Z" fill="#EFA64A" stroke="#242733" stroke-miterlimit="10" stroke-linecap="round" stroke-linejoin="round"/>
<path d="M1085.09 51.6631C1085.09 51.6631 1079.45 61.8851 1066.42 62.7941" stroke="#242733" stroke-miterlimit="10" stroke-linecap="round" stroke-linejoin="round"/>
<path d="M1066.27 64.9161C1067.36 64.9161 1068.24 64.0341 1068.24 62.9461C1068.24 61.8581 1067.36 60.9761 1066.27 60.9761C1065.18 60.9761 1064.3 61.8581 1064.3 62.9461C1064.3 64.0341 1065.18 64.9161 1066.27 64.9161Z" fill="#EFA64A" stroke="#242733" stroke-miterlimit="10" stroke-linecap="round" stroke-linejoin="round"/>
<path d="M1045.24 143.937C1044.48 143.937 1043.85 143.79 1043.34 143.494C1042.83 143.199 1042.45 142.765 1042.19 142.195C1041.93 141.625 1041.79 140.924 1041.76 140.094L1043.73 139.705C1043.75 140.193 1043.81 140.623 1043.91 140.996C1044.01 141.369 1044.16 141.657 1044.36 141.859C1044.57 142.061 1044.83 142.162 1045.16 142.162C1045.54 142.162 1045.8 142.051 1045.96 141.828C1046.11 141.605 1046.19 141.323 1046.19 140.98C1046.19 140.43 1046.07 139.979 1045.82 139.626C1045.57 139.274 1045.24 138.92 1044.82 138.568L1043.23 137.168C1042.79 136.785 1042.43 136.357 1042.17 135.885C1041.9 135.413 1041.77 134.83 1041.77 134.134C1041.77 133.138 1042.06 132.371 1042.64 131.832C1043.22 131.292 1044.02 131.023 1045.02 131.023C1045.62 131.023 1046.11 131.114 1046.5 131.295C1046.9 131.477 1047.21 131.729 1047.44 132.05C1047.68 132.371 1047.85 132.737 1047.96 133.147C1048.08 133.557 1048.15 133.99 1048.18 134.446L1046.22 134.788C1046.2 134.394 1046.16 134.041 1046.09 133.73C1046.02 133.419 1045.9 133.175 1045.73 132.999C1045.56 132.823 1045.31 132.735 1044.98 132.735C1044.63 132.735 1044.37 132.846 1044.19 133.07C1044.01 133.293 1043.92 133.571 1043.92 133.902C1043.92 134.328 1044.01 134.677 1044.18 134.952C1044.36 135.227 1044.62 135.51 1044.95 135.8L1046.52 137.185C1047.04 137.621 1047.48 138.132 1047.85 138.718C1048.22 139.304 1048.4 140.012 1048.4 140.842C1048.4 141.443 1048.27 141.978 1048 142.444C1047.74 142.911 1047.37 143.276 1046.9 143.541C1046.43 143.805 1045.87 143.937 1045.24 143.937Z" fill="#242733"/>
<path d="M1053.2 143.937C1052.27 143.937 1051.54 143.766 1051.03 143.424C1050.51 143.082 1050.15 142.594 1049.95 141.962C1049.76 141.33 1049.66 140.572 1049.66 139.691V131.166H1051.9V139.956C1051.9 140.35 1051.92 140.721 1051.97 141.068C1052.03 141.416 1052.15 141.695 1052.34 141.908C1052.53 142.121 1052.82 142.227 1053.2 142.227C1053.61 142.227 1053.9 142.121 1054.08 141.908C1054.26 141.696 1054.38 141.416 1054.44 141.068C1054.5 140.72 1054.52 140.35 1054.52 139.956V131.166H1056.75V139.691C1056.75 140.573 1056.65 141.33 1056.45 141.962C1056.26 142.595 1055.9 143.082 1055.39 143.424C1054.88 143.766 1054.15 143.937 1053.2 143.937Z" fill="#242733"/>
<path d="M1058.55 143.766V131.164H1062.26C1063.01 131.164 1063.63 131.304 1064.1 131.584C1064.57 131.864 1064.92 132.271 1065.14 132.805C1065.37 133.339 1065.48 133.985 1065.48 134.742C1065.48 135.561 1065.34 136.222 1065.06 136.725C1064.78 137.229 1064.39 137.594 1063.88 137.822C1063.38 138.05 1062.79 138.164 1062.1 138.164H1060.86V143.765H1058.55V143.766ZM1060.86 136.547H1061.73C1062.14 136.547 1062.47 136.488 1062.7 136.368C1062.93 136.249 1063.1 136.057 1063.18 135.793C1063.27 135.528 1063.32 135.173 1063.32 134.727C1063.32 134.271 1063.28 133.9 1063.21 133.615C1063.15 133.33 1063 133.12 1062.78 132.985C1062.55 132.851 1062.2 132.783 1061.73 132.783H1060.86V136.547H1060.86Z" fill="#242733"/>
<path d="M1066.7 143.766V131.164H1070.4C1071.16 131.164 1071.77 131.304 1072.24 131.584C1072.71 131.864 1073.06 132.271 1073.28 132.805C1073.51 133.339 1073.62 133.985 1073.62 134.742C1073.62 135.561 1073.48 136.222 1073.2 136.725C1072.92 137.229 1072.53 137.594 1072.02 137.822C1071.52 138.05 1070.93 138.164 1070.24 138.164H1069V143.765H1066.7V143.766ZM1069 136.547H1069.87C1070.28 136.547 1070.61 136.488 1070.84 136.368C1071.08 136.249 1071.24 136.057 1071.32 135.793C1071.41 135.528 1071.46 135.173 1071.46 134.727C1071.46 134.271 1071.42 133.9 1071.35 133.615C1071.29 133.33 1071.14 133.12 1070.92 132.985C1070.7 132.851 1070.35 132.783 1069.87 132.783H1069V136.547Z" fill="#242733"/>
<path d="M1078.31 143.937C1077.42 143.937 1076.71 143.771 1076.18 143.439C1075.65 143.107 1075.27 142.63 1075.05 142.008C1074.82 141.385 1074.7 140.649 1074.7 139.798V135.084C1074.7 134.233 1074.82 133.505 1075.05 132.898C1075.27 132.292 1075.65 131.827 1076.18 131.505C1076.71 131.184 1077.42 131.023 1078.31 131.023C1079.23 131.023 1079.94 131.184 1080.47 131.505C1080.99 131.827 1081.37 132.291 1081.6 132.898C1081.84 133.505 1081.95 134.233 1081.95 135.084V139.814C1081.95 140.654 1081.84 141.383 1081.6 142C1081.37 142.617 1080.99 143.094 1080.47 143.431C1079.94 143.769 1079.23 143.937 1078.31 143.937ZM1078.31 142.241C1078.7 142.241 1078.98 142.159 1079.16 141.992C1079.34 141.826 1079.47 141.598 1079.53 141.308C1079.59 141.017 1079.62 140.701 1079.62 140.359V134.556C1079.62 134.204 1079.59 133.887 1079.53 133.607C1079.46 133.327 1079.34 133.106 1079.16 132.946C1078.98 132.785 1078.7 132.705 1078.31 132.705C1077.95 132.705 1077.68 132.785 1077.49 132.946C1077.3 133.107 1077.18 133.327 1077.12 133.607C1077.05 133.887 1077.02 134.204 1077.02 134.556V140.359C1077.02 140.701 1077.05 141.018 1077.11 141.308C1077.16 141.598 1077.29 141.826 1077.47 141.992C1077.66 142.159 1077.94 142.241 1078.31 142.241Z" fill="#242733"/>
<path d="M1083.66 143.766V131.164H1086.68C1087.53 131.164 1088.24 131.265 1088.83 131.467C1089.42 131.669 1089.86 132.014 1090.17 132.502C1090.47 132.989 1090.63 133.653 1090.63 134.493C1090.63 135.001 1090.58 135.458 1090.49 135.862C1090.39 136.266 1090.23 136.611 1090.01 136.897C1089.79 137.182 1089.48 137.402 1089.09 137.558L1090.84 143.766H1088.54L1087.02 137.994H1085.96V143.766H1083.66ZM1085.96 136.547H1086.68C1087.12 136.547 1087.48 136.482 1087.74 136.353C1088.01 136.223 1088.19 136.016 1088.31 135.73C1088.42 135.445 1088.48 135.079 1088.48 134.633C1088.48 134 1088.36 133.526 1088.13 133.209C1087.9 132.893 1087.45 132.735 1086.8 132.735H1085.96V136.547H1085.96Z" fill="#242733"/>
<path d="M1093.58 143.766V132.86H1091.57V131.164H1097.86V132.86H1095.88V143.766H1093.58Z" fill="#242733"/>
<path d="M143.306 31.1875H133.758V58.2605H143.306V31.1875Z" fill="white" stroke="#242733" stroke-miterlimit="10" stroke-linecap="round" stroke-linejoin="round"/>
<path d="M135.856 28.6855H123.117V60.7635H135.856V28.6855Z" fill="#242733" stroke="#242733" stroke-miterlimit="10" stroke-linecap="round" stroke-linejoin="round"/>
<path d="M171.632 61.9845H143.939C141.414 61.9845 139.367 59.9375 139.367 57.4125L143.305 31.1885C143.305 28.6635 145.352 26.6165 147.877 26.6165H171.632C174.815 26.6165 177.395 29.1965 177.395 32.3795V56.2215C177.395 59.4035 174.815 61.9845 171.632 61.9845Z" fill="white" stroke="#242733" stroke-miterlimit="10" stroke-linecap="round" stroke-linejoin="round"/>
<path d="M141.226 47.0924C141.226 47.0924 139.896 28.7434 146.545 23.9564C153.193 19.1694 157.448 13.3194 157.448 9.33045C157.448 5.34145 164.096 6.13945 163.83 12.7874C163.564 19.4354 159.043 27.4134 158.511 29.0094C157.979 30.6054 164.096 40.9764 157.447 49.2204" fill="white"/>
<path d="M141.226 47.0924C141.226 47.0924 139.896 28.7434 146.545 23.9564C153.193 19.1694 157.448 13.3194 157.448 9.33045C157.448 5.34145 164.096 6.13945 163.83 12.7874C163.564 19.4354 159.043 27.4134 158.511 29.0094C157.979 30.6054 164.096 40.9764 157.447 49.2204" stroke="#242733" stroke-miterlimit="10" stroke-linecap="round" stroke-linejoin="round"/>
<path d="M185.439 32.7313H170.793C169.151 32.7313 167.82 31.4003 167.82 29.7593V26.3963C167.82 24.7543 169.151 23.4243 170.793 23.4243H185.439C187.081 23.4243 188.412 24.7553 188.412 26.3963V29.7593C188.411 31.4003 187.08 32.7313 185.439 32.7313Z" fill="white" stroke="#242733" stroke-miterlimit="10" stroke-linecap="round" stroke-linejoin="round"/>
<path d="M183.041 42.3055H168.395C166.753 42.3055 165.422 40.9745 165.422 39.3335V35.9705C165.422 34.3285 166.753 32.9985 168.395 32.9985H183.041C184.683 32.9985 186.013 34.3295 186.013 35.9705V39.3335C186.013 40.9745 184.682 42.3055 183.041 42.3055Z" fill="white" stroke="#242733" stroke-miterlimit="10" stroke-linecap="round" stroke-linejoin="round"/>
<path d="M183.041 51.3466H168.395C166.753 51.3466 165.422 50.0156 165.422 48.3736V45.0116C165.422 43.3696 166.753 42.0386 168.395 42.0386H183.041C184.683 42.0386 186.013 43.3696 186.013 45.0116V48.3736C186.013 50.0156 184.682 51.3466 183.041 51.3466Z" fill="white" stroke="#242733" stroke-miterlimit="10" stroke-linecap="round" stroke-linejoin="round"/>
<path d="M178.751 58.9074H167.142C165.648 58.9074 164.437 57.6964 164.437 56.2024V53.9194C164.437 52.4254 165.648 51.2144 167.142 51.2144H178.751C180.245 51.2144 181.456 52.4254 181.456 53.9194V56.2024C181.456 57.6954 180.245 58.9074 178.751 58.9074Z" fill="white" stroke="#242733" stroke-miterlimit="10" stroke-linecap="round" stroke-linejoin="round"/>
<path d="M187.596 2.01338C188.948 3.36538 188.947 5.55838 187.594 6.90838L187.12 7.38138L182.228 12.2794L177.33 7.38138L176.857 6.90838C175.506 5.55738 175.505 3.36737 176.856 2.01537C178.207 0.662375 180.4 0.661376 181.752 2.01338L182.228 2.48937L182.701 2.01537C184.052 0.662375 186.244 0.661376 187.596 2.01338Z" fill="#EFA64A" stroke="#242733" stroke-miterlimit="10" stroke-linecap="round" stroke-linejoin="round"/>
<path d="M129.61 20.2514C131.981 22.6224 131.979 26.4674 129.605 28.8354L128.774 29.6644L120.196 38.2534L111.607 29.6644L110.777 28.8344C108.408 26.4654 108.407 22.6244 110.774 20.2534C113.144 17.8804 116.989 17.8794 119.36 20.2504L120.195 21.0854L121.024 20.2544C123.394 17.8824 127.239 17.8804 129.61 20.2514Z" fill="#EFA64A" stroke="#242733" stroke-miterlimit="10" stroke-linecap="round" stroke-linejoin="round"/>
<path d="M204.062 53.6193C206.026 55.5833 206.024 58.7683 204.058 60.7303L203.37 61.4173L196.265 68.5313L189.151 61.4173L188.464 60.7303C186.502 58.7673 186.501 55.5863 188.462 53.6223C190.425 51.6573 193.61 51.6563 195.574 53.6203L196.266 54.3123L196.953 53.6243C198.913 51.6573 202.098 51.6553 204.062 53.6193Z" fill="#EFA64A" stroke="#242733" stroke-miterlimit="10" stroke-linecap="round" stroke-linejoin="round"/>
<path d="M119.704 86.4453C118.947 86.4453 118.314 86.2983 117.806 86.0023C117.298 85.7073 116.914 85.2733 116.655 84.7033C116.395 84.1333 116.25 83.4322 116.219 82.6022L118.195 82.2132C118.216 82.7012 118.275 83.1312 118.374 83.5042C118.473 83.8772 118.623 84.1653 118.825 84.3673C119.028 84.5693 119.294 84.6702 119.626 84.6702C120 84.6702 120.264 84.5593 120.419 84.3353C120.575 84.1123 120.652 83.8303 120.652 83.4873C120.652 82.9373 120.527 82.4863 120.278 82.1333C120.029 81.7803 119.697 81.4283 119.282 81.0753L117.695 79.6753C117.249 79.2923 116.894 78.8643 116.63 78.3923C116.365 77.9202 116.233 77.3372 116.233 76.6423C116.233 75.6463 116.523 74.8793 117.105 74.3403C117.685 73.8003 118.479 73.5312 119.485 73.5312C120.076 73.5312 120.569 73.6223 120.963 73.8033C121.357 73.9853 121.671 74.2373 121.904 74.5583C122.137 74.8793 122.311 75.2453 122.425 75.6553C122.539 76.0653 122.612 76.4983 122.643 76.9543L120.683 77.2962C120.662 76.9022 120.618 76.5493 120.551 76.2383C120.484 75.9273 120.364 75.6833 120.193 75.5073C120.022 75.3313 119.77 75.2433 119.439 75.2433C119.097 75.2433 118.834 75.3543 118.653 75.5773C118.471 75.8003 118.381 76.0783 118.381 76.4093C118.381 76.8353 118.469 77.1843 118.646 77.4593C118.822 77.7343 119.076 78.0173 119.408 78.3073L120.979 79.6923C121.498 80.1273 121.941 80.6393 122.309 81.2253C122.677 81.8113 122.862 82.5193 122.862 83.3483C122.862 83.9503 122.73 84.4843 122.465 84.9513C122.2 85.4183 121.832 85.7833 121.361 86.0483C120.888 86.3143 120.336 86.4453 119.704 86.4453Z" fill="#242733"/>
<path d="M123.516 86.2743L126.037 73.6733H128.495L131.015 86.2743H128.884L128.386 83.3653H126.193L125.679 86.2743H123.516ZM126.426 81.9033H128.137L127.282 76.6133L126.426 81.9033Z" fill="#242733"/>
<path d="M132.944 86.2744V75.3684H130.937V73.6724H137.223V75.3684H135.247V86.2744H132.944Z" fill="#242733"/>
<path d="M138.437 86.2743V73.6733H140.708V86.2743H138.437Z" fill="#242733"/>
<path d="M145.821 86.4453C145.064 86.4453 144.431 86.2983 143.923 86.0023C143.415 85.7073 143.031 85.2733 142.772 84.7033C142.512 84.1333 142.367 83.4322 142.336 82.6022L144.312 82.2132C144.333 82.7012 144.392 83.1312 144.491 83.5042C144.59 83.8772 144.74 84.1653 144.942 84.3673C145.145 84.5693 145.411 84.6702 145.743 84.6702C146.116 84.6702 146.381 84.5593 146.536 84.3353C146.692 84.1123 146.769 83.8303 146.769 83.4873C146.769 82.9373 146.645 82.4863 146.395 82.1333C146.147 81.7803 145.814 81.4283 145.399 81.0753L143.812 79.6753C143.366 79.2923 143.011 78.8643 142.747 78.3923C142.482 77.9202 142.35 77.3372 142.35 76.6423C142.35 75.6463 142.64 74.8793 143.222 74.3403C143.802 73.8003 144.596 73.5312 145.602 73.5312C146.193 73.5312 146.686 73.6223 147.08 73.8033C147.474 73.9853 147.788 74.2373 148.021 74.5583C148.254 74.8793 148.428 75.2453 148.542 75.6553C148.656 76.0653 148.729 76.4983 148.76 76.9543L146.8 77.2962C146.779 76.9022 146.735 76.5493 146.668 76.2383C146.601 75.9273 146.481 75.6833 146.31 75.5073C146.139 75.3313 145.887 75.2433 145.556 75.2433C145.214 75.2433 144.952 75.3543 144.77 75.5773C144.588 75.8003 144.498 76.0783 144.498 76.4093C144.498 76.8353 144.586 77.1843 144.763 77.4593C144.939 77.7343 145.193 78.0173 145.525 78.3073L147.096 79.6923C147.615 80.1273 148.058 80.6393 148.426 81.2253C148.794 81.8113 148.979 82.5193 148.979 83.3483C148.979 83.9503 148.847 84.4843 148.582 84.9513C148.317 85.4183 147.949 85.7833 147.477 86.0483C147.005 86.3143 146.453 86.4453 145.821 86.4453Z" fill="#242733"/>
<path d="M150.211 86.2743V73.6733H155.392V75.2593H152.514V78.9313H154.863V80.5343H152.514V86.2753L150.211 86.2743Z" fill="#242733"/>
<path d="M155.625 86.2743L158.146 73.6733H160.604L163.125 86.2743H160.994L160.496 83.3653H158.303L157.789 86.2743H155.625ZM158.535 81.9033H160.246L159.391 76.6133L158.535 81.9033Z" fill="#242733"/>
<path d="M167.64 86.4452C166.717 86.4452 165.993 86.2642 165.47 85.9012C164.946 85.5382 164.58 85.0432 164.373 84.4152C164.165 83.7882 164.062 83.0642 164.062 82.2452V77.7482C164.062 76.8882 164.166 76.1412 164.373 75.5082C164.58 74.8762 164.946 74.3882 165.47 74.0462C165.993 73.7042 166.717 73.5332 167.64 73.5332C168.511 73.5332 169.193 73.6802 169.685 73.9762C170.178 74.2712 170.528 74.6942 170.735 75.2442C170.942 75.7942 171.046 76.4322 171.046 77.1572V78.2152H168.837V77.1262C168.837 76.7732 168.819 76.4522 168.782 76.1612C168.746 75.8712 168.647 75.6402 168.487 75.4692C168.326 75.2982 168.048 75.2122 167.654 75.2122C167.26 75.2122 166.972 75.3032 166.791 75.4842C166.609 75.6662 166.493 75.9102 166.441 76.2152C166.389 76.5212 166.363 76.8662 166.363 77.2502V82.7262C166.363 83.1822 166.399 83.5582 166.472 83.8542C166.544 84.1502 166.677 84.3732 166.868 84.5232C167.06 84.6742 167.322 84.7492 167.654 84.7492C168.038 84.7492 168.31 84.6592 168.471 84.4772C168.632 84.2962 168.733 84.0552 168.775 83.7532C168.816 83.4522 168.837 83.1152 168.837 82.7422V81.6062H171.046V82.6172C171.046 83.3642 170.947 84.0252 170.75 84.6012C170.553 85.1772 170.208 85.6282 169.715 85.9552C169.224 86.2822 168.531 86.4452 167.64 86.4452Z" fill="#242733"/>
<path d="M173.905 86.2744V75.3684H171.898V73.6724H178.184V75.3684H176.208V86.2744H173.905Z" fill="#242733"/>
<path d="M179.398 86.2743V73.6733H181.669V86.2743H179.398Z" fill="#242733"/>
<path d="M187.039 86.4453C186.147 86.4453 185.436 86.2793 184.908 85.9473C184.379 85.6153 184 85.1383 183.772 84.5163C183.544 83.8943 183.43 83.1573 183.43 82.3063V77.5923C183.43 76.7413 183.544 76.0132 183.772 75.4062C184 74.8003 184.379 74.3353 184.908 74.0133C185.437 73.6923 186.147 73.5312 187.039 73.5312C187.952 73.5312 188.67 73.6923 189.194 74.0133C189.718 74.3353 190.096 74.7993 190.33 75.4062C190.563 76.0132 190.68 76.7413 190.68 77.5923V82.3213C190.68 83.1613 190.563 83.8903 190.33 84.5073C190.097 85.1243 189.718 85.6013 189.194 85.9383C188.67 86.2773 187.952 86.4453 187.039 86.4453ZM187.039 84.7503C187.423 84.7503 187.706 84.6673 187.887 84.5013C188.068 84.3353 188.19 84.1073 188.253 83.8163C188.315 83.5263 188.346 83.2093 188.346 82.8673V77.0643C188.346 76.7123 188.315 76.3952 188.253 76.1152C188.19 75.8352 188.068 75.6153 187.887 75.4543C187.705 75.2933 187.423 75.2132 187.039 75.2132C186.676 75.2132 186.401 75.2943 186.215 75.4543C186.028 75.6153 185.904 75.8352 185.841 76.1152C185.778 76.3952 185.748 76.7123 185.748 77.0643V82.8673C185.748 83.2093 185.776 83.5263 185.833 83.8163C185.89 84.1073 186.012 84.3353 186.199 84.5013C186.386 84.6673 186.666 84.7503 187.039 84.7503Z" fill="#242733"/>
<path d="M192.375 86.2743V73.6733H193.977L197.042 80.8613V73.6733H198.94V86.2743H197.415L194.334 78.7443V86.2743H192.375Z" fill="#242733"/>
<path d="M982.54 249.427C982.54 249.427 981.394 244.94 973.428 240.621C965.461 236.302 964.71 248.78 968.112 251.483C971.513 254.186 982.54 249.427 982.54 249.427Z" fill="#EFA64A" stroke="#242733" stroke-miterlimit="10" stroke-linecap="round" stroke-linejoin="round"/>
<path d="M982.537 249.427C982.537 249.427 974.395 247.017 966.428 242.698C958.462 238.379 957.71 250.857 961.112 253.56C964.514 256.263 982.537 249.427 982.537 249.427Z" fill="#EFA64A" stroke="#242733" stroke-miterlimit="10" stroke-linecap="round" stroke-linejoin="round"/>
<path d="M981.353 249.125C981.353 249.125 972.814 250.057 969.554 249.423C966.294 248.788 963.361 249.258 965.235 250.171C967.109 251.084 967.859 250.461 967.859 250.461" stroke="#242733" stroke-miterlimit="10" stroke-linecap="round" stroke-linejoin="round"/>
<path d="M985.943 248.414C985.943 248.414 984.454 244.029 988.773 236.062C993.092 228.095 1000.53 238.141 999.155 242.263C997.78 246.385 985.943 248.414 985.943 248.414Z" fill="#EFA64A" stroke="#242733" stroke-miterlimit="10" stroke-linecap="round" stroke-linejoin="round"/>
<path d="M985.945 248.414C985.945 248.414 991.453 241.951 995.772 233.985C1000.09 226.018 1007.53 236.064 1006.15 240.186C1004.78 244.308 985.945 248.414 985.945 248.414Z" fill="#EFA64A" stroke="#242733" stroke-miterlimit="10" stroke-linecap="round" stroke-linejoin="round"/>
<path d="M986.766 247.516C986.766 247.516 994.43 243.638 996.816 241.327C999.202 239.016 1001.92 237.809 1000.84 239.597C999.772 241.385 998.803 241.271 998.803 241.271" stroke="#242733" stroke-miterlimit="10" stroke-linecap="round" stroke-linejoin="round"/>
<path d="M985.355 253.139C987.727 252.434 989.104 250.022 988.429 247.751C987.755 245.481 985.285 244.211 982.913 244.916C980.54 245.62 979.164 248.032 979.838 250.303C980.513 252.574 982.982 253.843 985.355 253.139Z" fill="#EFA64A" stroke="#242733" stroke-miterlimit="10" stroke-linecap="round" stroke-linejoin="round"/>
<path d="M1015.11 240.026L953 258.467L968.243 309.809L1030.36 291.368L1015.11 240.026Z" fill="white" stroke="#242733" stroke-miterlimit="10" stroke-linecap="round" stroke-linejoin="round"/>
<path d="M992.04 246.877L976.078 251.616L991.321 302.958L1007.28 298.219L992.04 246.877Z" fill="#EFA64A" stroke="#242733" stroke-miterlimit="10" stroke-linecap="round" stroke-linejoin="round"/>
<path d="M1041.97 257.036C1041.97 257.036 1043.6 252.7 1039.54 244.6C1035.47 236.5 1027.72 246.302 1028.96 250.466C1030.2 254.63 1041.97 257.036 1041.97 257.036Z" fill="#EFA64A" stroke="#242733" stroke-miterlimit="10" stroke-linecap="round" stroke-linejoin="round"/>
<path d="M1041.97 257.036C1041.97 257.036 1036.67 250.4 1032.61 242.3C1028.54 234.2 1020.79 244.002 1022.03 248.166C1023.27 252.33 1041.97 257.036 1041.97 257.036Z" fill="#EFA64A" stroke="#242733" stroke-miterlimit="10" stroke-linecap="round" stroke-linejoin="round"/>
<path d="M1041.17 256.112C1041.17 256.112 1033.64 251.991 1031.32 249.604C1029.01 247.218 1026.34 245.925 1027.35 247.746C1028.37 249.567 1029.34 249.485 1029.34 249.485" stroke="#242733" stroke-miterlimit="10" stroke-linecap="round" stroke-linejoin="round"/>
<path d="M1045.34 258.157C1045.34 258.157 1046.63 253.709 1054.73 249.647C1062.83 245.585 1063.19 258.08 1059.7 260.673C1056.21 263.266 1045.34 258.157 1045.34 258.157Z" fill="#EFA64A" stroke="#242733" stroke-miterlimit="10" stroke-linecap="round" stroke-linejoin="round"/>
<path d="M1045.34 258.157C1045.34 258.157 1053.56 256.009 1061.66 251.947C1069.76 247.885 1070.11 260.38 1066.63 262.973C1063.14 265.566 1045.34 258.157 1045.34 258.157Z" fill="#EFA64A" stroke="#242733" stroke-miterlimit="10" stroke-linecap="round" stroke-linejoin="round"/>
<path d="M1046.54 257.893C1046.54 257.893 1055.04 259.098 1058.32 258.568C1061.6 258.038 1064.52 258.601 1062.62 259.454C1060.71 260.307 1059.98 259.66 1059.98 259.66" stroke="#242733" stroke-miterlimit="10" stroke-linecap="round" stroke-linejoin="round"/>
<path d="M1047.76 259.04C1047.01 261.288 1044.5 262.479 1042.15 261.699C1039.8 260.919 1038.5 258.464 1039.25 256.216C1040 253.968 1042.51 252.777 1044.86 253.557C1047.2 254.336 1048.5 256.791 1047.76 259.04Z" fill="#EFA64A" stroke="#242733" stroke-miterlimit="10" stroke-linecap="round" stroke-linejoin="round"/>
<path d="M1074.06 267.961L1012.57 247.543L995.694 298.371L1057.19 318.788L1074.06 267.961Z" fill="white" stroke="#242733" stroke-miterlimit="10" stroke-linecap="round" stroke-linejoin="round"/>
<path d="M1051.22 260.375L1035.42 255.129L1018.55 305.956L1034.35 311.203L1051.22 260.375Z" fill="#EFA64A" stroke="#242733" stroke-miterlimit="10" stroke-linecap="round" stroke-linejoin="round"/>
<path d="M984.344 341.712V329.11H987.362C988.212 329.11 988.931 329.211 989.517 329.413C990.103 329.615 990.549 329.96 990.855 330.448C991.161 330.935 991.314 331.599 991.314 332.439C991.314 332.947 991.267 333.404 991.174 333.808C991.081 334.212 990.923 334.557 990.699 334.843C990.476 335.128 990.168 335.348 989.774 335.504L991.532 341.712H989.229L987.705 335.94H986.647V341.712H984.344ZM986.646 334.493H987.362C987.808 334.493 988.163 334.428 988.427 334.299C988.692 334.169 988.881 333.962 988.995 333.676C989.109 333.391 989.166 333.025 989.166 332.579C989.166 331.946 989.049 331.472 988.816 331.155C988.583 330.839 988.139 330.681 987.486 330.681H986.646V334.493Z" fill="#242733"/>
<path d="M993.039 341.712V329.11H998.329V330.728H995.342V334.353H997.691V335.956H995.342V340.125H998.361V341.712H993.039Z" fill="#242733"/>
<path d="M1001.02 341.712L999.234 329.11H1001.16L1002.21 337.278L1003.51 329.141H1005.08L1006.42 337.278L1007.45 329.11H1009.35L1007.59 341.712H1005.72L1004.32 333.264L1002.94 341.712H1001.02Z" fill="#242733"/>
<path d="M1009.75 341.712L1012.27 329.11H1014.73L1017.25 341.712H1015.12L1014.62 338.803H1012.43L1011.91 341.712H1009.75ZM1012.66 337.34H1014.37L1013.52 332.05L1012.66 337.34Z" fill="#242733"/>
<path d="M1018.45 341.712V329.11H1021.46C1022.31 329.11 1023.03 329.211 1023.62 329.413C1024.2 329.615 1024.65 329.96 1024.96 330.448C1025.26 330.935 1025.42 331.599 1025.42 332.439C1025.42 332.947 1025.37 333.404 1025.28 333.808C1025.18 334.212 1025.02 334.557 1024.8 334.843C1024.58 335.128 1024.27 335.348 1023.88 335.504L1025.63 341.712H1023.33L1021.81 335.94H1020.75V341.712H1018.45ZM1020.75 334.493H1021.46C1021.91 334.493 1022.26 334.428 1022.53 334.299C1022.79 334.169 1022.98 333.962 1023.1 333.676C1023.21 333.391 1023.27 333.025 1023.27 332.579C1023.27 331.946 1023.15 331.472 1022.92 331.155C1022.68 330.839 1022.24 330.681 1021.59 330.681H1020.75V334.493Z" fill="#242733"/>
<path d="M1027.14 341.712V329.11H1030.11C1031.14 329.11 1031.94 329.25 1032.52 329.53C1033.09 329.81 1033.5 330.24 1033.74 330.821C1033.99 331.402 1034.11 332.138 1034.11 333.031V337.636C1034.11 338.549 1033.99 339.308 1033.74 339.915C1033.5 340.522 1033.1 340.973 1032.53 341.269C1031.97 341.564 1031.19 341.712 1030.21 341.712H1027.14ZM1029.44 340.109H1030.14C1030.67 340.109 1031.05 340.016 1031.28 339.829C1031.51 339.642 1031.65 339.37 1031.7 339.012C1031.75 338.654 1031.78 338.216 1031.78 337.698V332.875C1031.78 332.367 1031.74 331.957 1031.67 331.646C1031.6 331.335 1031.45 331.107 1031.22 330.961C1030.99 330.816 1030.62 330.743 1030.11 330.743H1029.44V340.109Z" fill="#242733"/>
</g>
</svg>
