<svg width="41" height="42" viewBox="0 0 41 42" fill="none" xmlns="http://www.w3.org/2000/svg">
<mask id="path-1-outside-1_1_821" maskUnits="userSpaceOnUse" x="-0.390625" y="0" width="41" height="42" fill="black">
<rect fill="white" x="-0.390625" width="41" height="42"/>
<path d="M39.596 36.7439C38.978 36.0193 38.067 35.6101 37.1206 35.5825C35.5703 35.4589 34.661 33.6541 35.5034 32.3346L39.5711 25.9626C40.6116 24.3329 39.9691 22.1845 38.3053 21.2775C38.5702 20.8617 38.7432 20.5815 38.8008 20.4722C39.5138 19.1181 38.9781 17.3942 37.6239 16.6819C36.2542 15.9613 34.553 16.489 33.8321 17.8581C33.7849 17.9478 33.6846 18.1669 33.5407 18.4927L32.3716 17.8256C31.5767 17.3759 31.2238 16.3892 31.6911 15.5627C32.0617 14.9068 31.0476 14.3335 30.6767 14.9891C29.9137 16.3389 30.4382 18.1182 31.8022 18.8424L33.0733 19.5676C32.3856 21.1655 31.3207 23.6873 30.1697 26.4277C29.3552 24.9628 28.5298 23.5016 28.1617 21.8497C27.2247 17.6445 29.3638 13.675 31.5799 10.3466C32.1845 9.43863 32.3117 8.59332 31.9579 7.83408C31.1192 6.03417 27.7817 5.44249 24.9678 5.12804C23.3231 4.94425 23.2523 3.86334 23.2523 2.48903C23.2523 0.499658 17.737 0.507659 17.737 2.48903C17.737 3.80764 17.7148 4.94207 16.0971 5.11724C13.1676 5.43371 9.70063 6.0271 8.88585 7.8222C8.66501 8.30878 8.55113 9.10228 9.26306 10.1186C10.6271 12.0661 11.5912 13.8219 12.2103 15.4863C12.5411 16.3753 12.7726 17.2442 12.9077 18.09L11.9202 18.1117C11.9126 18.1119 11.9051 18.1122 11.8975 18.1126C7.40466 18.3868 4.17932 19.6808 2.31105 21.9591C0.961526 23.6046 0.386075 25.7649 0.687705 28.0458V36.2941C0.687705 37.355 1.3984 38.5282 2.58876 39.4322C3.91964 40.4431 5.71575 40.9998 7.64608 40.9998C11.8661 40.9998 15.7303 37.5746 15.8927 37.4288C16.0157 37.3182 16.0861 37.1607 16.0861 36.9952V36.9805H18.6232V40.3697C18.6232 41.123 19.7884 41.123 19.7884 40.3697V36.9805H21.2008V40.3697C21.2008 41.123 22.366 41.123 22.366 40.3697V36.9805H25.7568C25.0178 38.7535 24.5112 39.9711 24.4289 40.1691C24.1691 40.7937 25.079 41.2742 25.4515 40.7162C25.5909 40.5072 26.5701 39.0393 27.9404 36.9805H30.978C31.8697 36.9805 32.5951 36.2521 32.5951 35.3569C32.5951 33.6845 32.4154 32.191 32.0465 30.8009C34.2137 27.5325 36.3924 24.2338 37.6735 22.2583C38.7554 22.9007 39.3362 24.1648 38.5888 25.3356L34.5211 31.7076C33.2102 33.7611 34.61 36.5511 37.0278 36.7439C38.3736 36.7895 39.2066 37.796 39.2066 39.0872V40.3928C39.2066 41.1461 40.3718 41.1461 40.3718 40.3928V39.1094C40.4347 38.2441 40.1596 37.4049 39.596 36.7439ZM2.24697 24.3196V26.2396C2.24697 26.9929 3.41216 26.9929 3.41216 26.2396V22.4664C3.77415 22.0642 4.19067 21.6989 4.66148 21.3708V22.3565C4.66148 23.1098 5.82667 23.1098 5.82667 22.3565V20.6881C6.27877 20.4659 6.76706 20.269 7.29047 20.0971V23.4473C7.29047 24.2005 8.45566 24.2005 8.45566 23.4473V19.7695C8.90985 19.6616 9.38665 19.57 9.88481 19.4939V20.8046C9.88481 21.5579 11.05 21.5579 11.05 20.8046V19.3489C11.7125 19.2841 12.3681 19.2673 13.0327 19.2527C13.1749 21.917 12.0886 24.1466 10.8302 26.408C6.72799 26.7994 4.11563 28.4687 3.1395 30.0991C2.28798 29.3988 1.8529 28.5875 1.8529 28.0099C1.8529 28.0068 1.85251 28.004 1.85243 28.0009C1.85228 27.9908 1.85158 27.9805 1.85088 27.9703C1.85018 27.96 1.84948 27.9498 1.84824 27.9397C1.84785 27.9367 1.84785 27.9337 1.84746 27.9308C1.71245 26.9449 1.71432 25.6366 2.24697 24.3196ZM7.64608 31.5505C6.20334 31.5505 5.02222 31.2185 4.11104 30.7394C4.45858 30.1212 5.14496 29.4967 6.06266 28.9762C6.8804 28.5125 8.21851 27.9419 10.1593 27.6606C9.61417 28.7391 9.11788 29.9349 8.7893 31.4354C8.41162 31.509 8.02936 31.5505 7.64608 31.5505ZM1.8529 36.2942V30.4931C2.22778 30.8863 2.66092 31.2284 3.12296 31.5139V33.1328C3.12296 33.8861 4.28815 33.8861 4.28815 33.1328V32.0972C4.75004 32.281 5.23934 32.4245 5.74791 32.5274V36.0346C5.74791 36.7879 6.9131 36.7879 6.9131 36.0346V32.6884C7.39868 32.7246 7.88806 32.727 8.37285 32.6752V33.9548C8.37285 34.7081 9.53805 34.7081 9.53805 33.9548V32.4593C10.0589 32.3226 10.5649 32.1378 11.0496 31.9224V39.0794C9.99853 39.5166 8.82876 39.8347 7.64608 39.8347C3.84258 39.8347 1.8529 37.5297 1.8529 36.2942ZM14.9209 36.7258C14.5189 37.0574 13.5217 37.834 12.2148 38.528V31.3284C13.325 30.6906 14.2642 29.9498 14.9209 29.3725V36.7258ZM16.0861 35.8153V28.0099C16.0861 27.4905 15.4288 27.2336 15.076 27.6141C15.0475 27.6448 12.8268 30.0122 10.081 31.0604C10.5592 29.2838 11.3037 27.9486 12.0281 26.6525C12.7826 25.3028 13.5627 23.9072 13.9648 22.1029C14.4496 19.9274 14.2267 17.5645 13.3024 15.08C12.6482 13.3214 11.6391 11.4799 10.2174 9.45013C9.73745 8.76492 9.89506 8.41777 9.94688 8.30366C10.2409 7.65596 11.5682 6.77826 16.2222 6.2756C18.467 6.03308 18.9022 4.43428 18.9022 2.48895C18.9022 2.2229 22.0871 2.24193 22.0871 2.48895C22.0871 4.49169 22.5433 6.02897 24.8384 6.28593C25.6012 6.37115 27.0212 6.52984 28.3108 6.87295C30.1165 7.3534 30.7164 7.92839 30.9018 8.32618C30.9653 8.46243 31.1584 8.87709 30.6099 9.7008C28.2577 13.2337 25.9921 17.4702 27.0244 22.1029C27.4875 24.1808 28.6126 25.9469 29.5919 27.8046C28.4145 30.6123 27.1994 33.5215 26.2427 35.8153H16.0861V35.8153ZM31.43 35.3569C31.43 35.6097 31.2273 35.8153 30.9781 35.8153H28.7159C29.4693 34.6827 30.3013 33.4311 31.1549 32.1448C31.3394 33.1398 31.43 34.201 31.43 35.3569ZM27.8222 35.0549C30.8577 27.7811 34.517 19.0579 34.863 18.4008C35.2761 17.6164 36.2973 17.3004 37.0815 17.713C37.8582 18.1214 38.1826 19.1455 37.7699 19.9291C37.7181 20.0275 37.5524 20.2947 37.2954 20.697L36.4177 20.1927L36.6422 19.782C37.0034 19.121 35.9811 18.562 35.6198 19.2231L34.6308 21.0324C34.2785 21.677 35.296 22.2447 35.6532 21.5913L35.8588 21.2153L36.663 21.6774C34.7928 24.5565 30.9406 30.3663 27.8222 35.0549Z"/>
</mask>
<path d="M39.596 36.7439C38.978 36.0193 38.067 35.6101 37.1206 35.5825C35.5703 35.4589 34.661 33.6541 35.5034 32.3346L39.5711 25.9626C40.6116 24.3329 39.9691 22.1845 38.3053 21.2775C38.5702 20.8617 38.7432 20.5815 38.8008 20.4722C39.5138 19.1181 38.9781 17.3942 37.6239 16.6819C36.2542 15.9613 34.553 16.489 33.8321 17.8581C33.7849 17.9478 33.6846 18.1669 33.5407 18.4927L32.3716 17.8256C31.5767 17.3759 31.2238 16.3892 31.6911 15.5627C32.0617 14.9068 31.0476 14.3335 30.6767 14.9891C29.9137 16.3389 30.4382 18.1182 31.8022 18.8424L33.0733 19.5676C32.3856 21.1655 31.3207 23.6873 30.1697 26.4277C29.3552 24.9628 28.5298 23.5016 28.1617 21.8497C27.2247 17.6445 29.3638 13.675 31.5799 10.3466C32.1845 9.43863 32.3117 8.59332 31.9579 7.83408C31.1192 6.03417 27.7817 5.44249 24.9678 5.12804C23.3231 4.94425 23.2523 3.86334 23.2523 2.48903C23.2523 0.499658 17.737 0.507659 17.737 2.48903C17.737 3.80764 17.7148 4.94207 16.0971 5.11724C13.1676 5.43371 9.70063 6.0271 8.88585 7.8222C8.66501 8.30878 8.55113 9.10228 9.26306 10.1186C10.6271 12.0661 11.5912 13.8219 12.2103 15.4863C12.5411 16.3753 12.7726 17.2442 12.9077 18.09L11.9202 18.1117C11.9126 18.1119 11.9051 18.1122 11.8975 18.1126C7.40466 18.3868 4.17932 19.6808 2.31105 21.9591C0.961526 23.6046 0.386075 25.7649 0.687705 28.0458V36.2941C0.687705 37.355 1.3984 38.5282 2.58876 39.4322C3.91964 40.4431 5.71575 40.9998 7.64608 40.9998C11.8661 40.9998 15.7303 37.5746 15.8927 37.4288C16.0157 37.3182 16.0861 37.1607 16.0861 36.9952V36.9805H18.6232V40.3697C18.6232 41.123 19.7884 41.123 19.7884 40.3697V36.9805H21.2008V40.3697C21.2008 41.123 22.366 41.123 22.366 40.3697V36.9805H25.7568C25.0178 38.7535 24.5112 39.9711 24.4289 40.1691C24.1691 40.7937 25.079 41.2742 25.4515 40.7162C25.5909 40.5072 26.5701 39.0393 27.9404 36.9805H30.978C31.8697 36.9805 32.5951 36.2521 32.5951 35.3569C32.5951 33.6845 32.4154 32.191 32.0465 30.8009C34.2137 27.5325 36.3924 24.2338 37.6735 22.2583C38.7554 22.9007 39.3362 24.1648 38.5888 25.3356L34.5211 31.7076C33.2102 33.7611 34.61 36.5511 37.0278 36.7439C38.3736 36.7895 39.2066 37.796 39.2066 39.0872V40.3928C39.2066 41.1461 40.3718 41.1461 40.3718 40.3928V39.1094C40.4347 38.2441 40.1596 37.4049 39.596 36.7439ZM2.24697 24.3196V26.2396C2.24697 26.9929 3.41216 26.9929 3.41216 26.2396V22.4664C3.77415 22.0642 4.19067 21.6989 4.66148 21.3708V22.3565C4.66148 23.1098 5.82667 23.1098 5.82667 22.3565V20.6881C6.27877 20.4659 6.76706 20.269 7.29047 20.0971V23.4473C7.29047 24.2005 8.45566 24.2005 8.45566 23.4473V19.7695C8.90985 19.6616 9.38665 19.57 9.88481 19.4939V20.8046C9.88481 21.5579 11.05 21.5579 11.05 20.8046V19.3489C11.7125 19.2841 12.3681 19.2673 13.0327 19.2527C13.1749 21.917 12.0886 24.1466 10.8302 26.408C6.72799 26.7994 4.11563 28.4687 3.1395 30.0991C2.28798 29.3988 1.8529 28.5875 1.8529 28.0099C1.8529 28.0068 1.85251 28.004 1.85243 28.0009C1.85228 27.9908 1.85158 27.9805 1.85088 27.9703C1.85018 27.96 1.84948 27.9498 1.84824 27.9397C1.84785 27.9367 1.84785 27.9337 1.84746 27.9308C1.71245 26.9449 1.71432 25.6366 2.24697 24.3196ZM7.64608 31.5505C6.20334 31.5505 5.02222 31.2185 4.11104 30.7394C4.45858 30.1212 5.14496 29.4967 6.06266 28.9762C6.8804 28.5125 8.21851 27.9419 10.1593 27.6606C9.61417 28.7391 9.11788 29.9349 8.7893 31.4354C8.41162 31.509 8.02936 31.5505 7.64608 31.5505ZM1.8529 36.2942V30.4931C2.22778 30.8863 2.66092 31.2284 3.12296 31.5139V33.1328C3.12296 33.8861 4.28815 33.8861 4.28815 33.1328V32.0972C4.75004 32.281 5.23934 32.4245 5.74791 32.5274V36.0346C5.74791 36.7879 6.9131 36.7879 6.9131 36.0346V32.6884C7.39868 32.7246 7.88806 32.727 8.37285 32.6752V33.9548C8.37285 34.7081 9.53805 34.7081 9.53805 33.9548V32.4593C10.0589 32.3226 10.5649 32.1378 11.0496 31.9224V39.0794C9.99853 39.5166 8.82876 39.8347 7.64608 39.8347C3.84258 39.8347 1.8529 37.5297 1.8529 36.2942ZM14.9209 36.7258C14.5189 37.0574 13.5217 37.834 12.2148 38.528V31.3284C13.325 30.6906 14.2642 29.9498 14.9209 29.3725V36.7258ZM16.0861 35.8153V28.0099C16.0861 27.4905 15.4288 27.2336 15.076 27.6141C15.0475 27.6448 12.8268 30.0122 10.081 31.0604C10.5592 29.2838 11.3037 27.9486 12.0281 26.6525C12.7826 25.3028 13.5627 23.9072 13.9648 22.1029C14.4496 19.9274 14.2267 17.5645 13.3024 15.08C12.6482 13.3214 11.6391 11.4799 10.2174 9.45013C9.73745 8.76492 9.89506 8.41777 9.94688 8.30366C10.2409 7.65596 11.5682 6.77826 16.2222 6.2756C18.467 6.03308 18.9022 4.43428 18.9022 2.48895C18.9022 2.2229 22.0871 2.24193 22.0871 2.48895C22.0871 4.49169 22.5433 6.02897 24.8384 6.28593C25.6012 6.37115 27.0212 6.52984 28.3108 6.87295C30.1165 7.3534 30.7164 7.92839 30.9018 8.32618C30.9653 8.46243 31.1584 8.87709 30.6099 9.7008C28.2577 13.2337 25.9921 17.4702 27.0244 22.1029C27.4875 24.1808 28.6126 25.9469 29.5919 27.8046C28.4145 30.6123 27.1994 33.5215 26.2427 35.8153H16.0861V35.8153ZM31.43 35.3569C31.43 35.6097 31.2273 35.8153 30.9781 35.8153H28.7159C29.4693 34.6827 30.3013 33.4311 31.1549 32.1448C31.3394 33.1398 31.43 34.201 31.43 35.3569ZM27.8222 35.0549C30.8577 27.7811 34.517 19.0579 34.863 18.4008C35.2761 17.6164 36.2973 17.3004 37.0815 17.713C37.8582 18.1214 38.1826 19.1455 37.7699 19.9291C37.7181 20.0275 37.5524 20.2947 37.2954 20.697L36.4177 20.1927L36.6422 19.782C37.0034 19.121 35.9811 18.562 35.6198 19.2231L34.6308 21.0324C34.2785 21.677 35.296 22.2447 35.6532 21.5913L35.8588 21.2153L36.663 21.6774C34.7928 24.5565 30.9406 30.3663 27.8222 35.0549Z" fill="#242733"/>
<path d="M39.596 36.7439C38.978 36.0193 38.067 35.6101 37.1206 35.5825C35.5703 35.4589 34.661 33.6541 35.5034 32.3346L39.5711 25.9626C40.6116 24.3329 39.9691 22.1845 38.3053 21.2775C38.5702 20.8617 38.7432 20.5815 38.8008 20.4722C39.5138 19.1181 38.9781 17.3942 37.6239 16.6819C36.2542 15.9613 34.553 16.489 33.8321 17.8581C33.7849 17.9478 33.6846 18.1669 33.5407 18.4927L32.3716 17.8256C31.5767 17.3759 31.2238 16.3892 31.6911 15.5627C32.0617 14.9068 31.0476 14.3335 30.6767 14.9891C29.9137 16.3389 30.4382 18.1182 31.8022 18.8424L33.0733 19.5676C32.3856 21.1655 31.3207 23.6873 30.1697 26.4277C29.3552 24.9628 28.5298 23.5016 28.1617 21.8497C27.2247 17.6445 29.3638 13.675 31.5799 10.3466C32.1845 9.43863 32.3117 8.59332 31.9579 7.83408C31.1192 6.03417 27.7817 5.44249 24.9678 5.12804C23.3231 4.94425 23.2523 3.86334 23.2523 2.48903C23.2523 0.499658 17.737 0.507659 17.737 2.48903C17.737 3.80764 17.7148 4.94207 16.0971 5.11724C13.1676 5.43371 9.70063 6.0271 8.88585 7.8222C8.66501 8.30878 8.55113 9.10228 9.26306 10.1186C10.6271 12.0661 11.5912 13.8219 12.2103 15.4863C12.5411 16.3753 12.7726 17.2442 12.9077 18.09L11.9202 18.1117C11.9126 18.1119 11.9051 18.1122 11.8975 18.1126C7.40466 18.3868 4.17932 19.6808 2.31105 21.9591C0.961526 23.6046 0.386075 25.7649 0.687705 28.0458V36.2941C0.687705 37.355 1.3984 38.5282 2.58876 39.4322C3.91964 40.4431 5.71575 40.9998 7.64608 40.9998C11.8661 40.9998 15.7303 37.5746 15.8927 37.4288C16.0157 37.3182 16.0861 37.1607 16.0861 36.9952V36.9805H18.6232V40.3697C18.6232 41.123 19.7884 41.123 19.7884 40.3697V36.9805H21.2008V40.3697C21.2008 41.123 22.366 41.123 22.366 40.3697V36.9805H25.7568C25.0178 38.7535 24.5112 39.9711 24.4289 40.1691C24.1691 40.7937 25.079 41.2742 25.4515 40.7162C25.5909 40.5072 26.5701 39.0393 27.9404 36.9805H30.978C31.8697 36.9805 32.5951 36.2521 32.5951 35.3569C32.5951 33.6845 32.4154 32.191 32.0465 30.8009C34.2137 27.5325 36.3924 24.2338 37.6735 22.2583C38.7554 22.9007 39.3362 24.1648 38.5888 25.3356L34.5211 31.7076C33.2102 33.7611 34.61 36.5511 37.0278 36.7439C38.3736 36.7895 39.2066 37.796 39.2066 39.0872V40.3928C39.2066 41.1461 40.3718 41.1461 40.3718 40.3928V39.1094C40.4347 38.2441 40.1596 37.4049 39.596 36.7439ZM2.24697 24.3196V26.2396C2.24697 26.9929 3.41216 26.9929 3.41216 26.2396V22.4664C3.77415 22.0642 4.19067 21.6989 4.66148 21.3708V22.3565C4.66148 23.1098 5.82667 23.1098 5.82667 22.3565V20.6881C6.27877 20.4659 6.76706 20.269 7.29047 20.0971V23.4473C7.29047 24.2005 8.45566 24.2005 8.45566 23.4473V19.7695C8.90985 19.6616 9.38665 19.57 9.88481 19.4939V20.8046C9.88481 21.5579 11.05 21.5579 11.05 20.8046V19.3489C11.7125 19.2841 12.3681 19.2673 13.0327 19.2527C13.1749 21.917 12.0886 24.1466 10.8302 26.408C6.72799 26.7994 4.11563 28.4687 3.1395 30.0991C2.28798 29.3988 1.8529 28.5875 1.8529 28.0099C1.8529 28.0068 1.85251 28.004 1.85243 28.0009C1.85228 27.9908 1.85158 27.9805 1.85088 27.9703C1.85018 27.96 1.84948 27.9498 1.84824 27.9397C1.84785 27.9367 1.84785 27.9337 1.84746 27.9308C1.71245 26.9449 1.71432 25.6366 2.24697 24.3196ZM7.64608 31.5505C6.20334 31.5505 5.02222 31.2185 4.11104 30.7394C4.45858 30.1212 5.14496 29.4967 6.06266 28.9762C6.8804 28.5125 8.21851 27.9419 10.1593 27.6606C9.61417 28.7391 9.11788 29.9349 8.7893 31.4354C8.41162 31.509 8.02936 31.5505 7.64608 31.5505ZM1.8529 36.2942V30.4931C2.22778 30.8863 2.66092 31.2284 3.12296 31.5139V33.1328C3.12296 33.8861 4.28815 33.8861 4.28815 33.1328V32.0972C4.75004 32.281 5.23934 32.4245 5.74791 32.5274V36.0346C5.74791 36.7879 6.9131 36.7879 6.9131 36.0346V32.6884C7.39868 32.7246 7.88806 32.727 8.37285 32.6752V33.9548C8.37285 34.7081 9.53805 34.7081 9.53805 33.9548V32.4593C10.0589 32.3226 10.5649 32.1378 11.0496 31.9224V39.0794C9.99853 39.5166 8.82876 39.8347 7.64608 39.8347C3.84258 39.8347 1.8529 37.5297 1.8529 36.2942ZM14.9209 36.7258C14.5189 37.0574 13.5217 37.834 12.2148 38.528V31.3284C13.325 30.6906 14.2642 29.9498 14.9209 29.3725V36.7258ZM16.0861 35.8153V28.0099C16.0861 27.4905 15.4288 27.2336 15.076 27.6141C15.0475 27.6448 12.8268 30.0122 10.081 31.0604C10.5592 29.2838 11.3037 27.9486 12.0281 26.6525C12.7826 25.3028 13.5627 23.9072 13.9648 22.1029C14.4496 19.9274 14.2267 17.5645 13.3024 15.08C12.6482 13.3214 11.6391 11.4799 10.2174 9.45013C9.73745 8.76492 9.89506 8.41777 9.94688 8.30366C10.2409 7.65596 11.5682 6.77826 16.2222 6.2756C18.467 6.03308 18.9022 4.43428 18.9022 2.48895C18.9022 2.2229 22.0871 2.24193 22.0871 2.48895C22.0871 4.49169 22.5433 6.02897 24.8384 6.28593C25.6012 6.37115 27.0212 6.52984 28.3108 6.87295C30.1165 7.3534 30.7164 7.92839 30.9018 8.32618C30.9653 8.46243 31.1584 8.87709 30.6099 9.7008C28.2577 13.2337 25.9921 17.4702 27.0244 22.1029C27.4875 24.1808 28.6126 25.9469 29.5919 27.8046C28.4145 30.6123 27.1994 33.5215 26.2427 35.8153H16.0861V35.8153ZM31.43 35.3569C31.43 35.6097 31.2273 35.8153 30.9781 35.8153H28.7159C29.4693 34.6827 30.3013 33.4311 31.1549 32.1448C31.3394 33.1398 31.43 34.201 31.43 35.3569ZM27.8222 35.0549C30.8577 27.7811 34.517 19.0579 34.863 18.4008C35.2761 17.6164 36.2973 17.3004 37.0815 17.713C37.8582 18.1214 38.1826 19.1455 37.7699 19.9291C37.7181 20.0275 37.5524 20.2947 37.2954 20.697L36.4177 20.1927L36.6422 19.782C37.0034 19.121 35.9811 18.562 35.6198 19.2231L34.6308 21.0324C34.2785 21.677 35.296 22.2447 35.6532 21.5913L35.8588 21.2153L36.663 21.6774C34.7928 24.5565 30.9406 30.3663 27.8222 35.0549Z" stroke="#242733" stroke-width="0.4" mask="url(#path-1-outside-1_1_821)"/>
</svg>
