<svg width="26" height="26" viewBox="0 0 26 26" fill="none" xmlns="http://www.w3.org/2000/svg">
<mask id="path-1-outside-1_1125_11677" maskUnits="userSpaceOnUse" x="0.0664062" y="0" width="25" height="26" fill="black">
<rect fill="white" x="0.0664062" width="25" height="26"/>
<path d="M24.4584 22.4464C24.0876 22.0116 23.541 21.7661 22.9731 21.7495C22.0429 21.6753 21.4974 20.5925 22.0028 19.8008L24.4434 15.9775C25.0677 14.9997 24.6822 13.7107 23.6839 13.1665C23.8429 12.917 23.9467 12.7489 23.9813 12.6833C24.4091 11.8709 24.0877 10.8365 23.2751 10.4091C22.4533 9.97679 21.4326 10.2934 21 11.1149C20.9717 11.1687 20.9115 11.3001 20.8252 11.4956L20.1237 11.0954C19.6468 10.8255 19.435 10.2335 19.7154 9.73759C19.9378 9.34409 19.3293 9.00007 19.1068 9.39349C18.649 10.2033 18.9637 11.2709 19.7821 11.7054L20.5448 12.1406C20.1322 13.0993 19.4932 14.6124 18.8026 16.2566C18.3139 15.3777 17.8186 14.501 17.5978 13.5098C17.0356 10.9867 18.3191 8.60503 19.6487 6.60798C20.0115 6.06318 20.0878 5.55599 19.8755 5.10045C19.3723 4.0205 17.3698 3.66549 15.6815 3.47682C14.6947 3.36655 14.6522 2.718 14.6522 1.89342C14.6522 0.699795 11.343 0.704595 11.343 1.89342C11.343 2.68459 11.3296 3.36524 10.359 3.47035C8.60136 3.66023 6.52116 4.01626 6.03229 5.09332C5.89979 5.38527 5.83146 5.86137 6.25862 6.47118C7.07705 7.63964 7.6555 8.69312 8.02696 9.69178C8.22542 10.2252 8.36436 10.7465 8.44541 11.254L7.85288 11.267C7.84836 11.2671 7.84384 11.2673 7.83927 11.2676C5.14358 11.4321 3.20838 12.2085 2.08741 13.5755C1.2777 14.5628 0.932426 15.8589 1.1134 17.2275V22.1765C1.1134 22.813 1.53982 23.5169 2.25404 24.0593C3.05257 24.6659 4.13023 24.9999 5.28843 24.9999C7.82044 24.9999 10.1389 22.9447 10.2364 22.8573C10.3102 22.7909 10.3525 22.6964 10.3525 22.5971V22.5883H11.8747V24.6218C11.8747 25.0738 12.5738 25.0738 12.5738 24.6218V22.5883H13.4213V24.6218C13.4213 25.0738 14.1204 25.0738 14.1204 24.6218V22.5883H16.1549C15.7115 23.6521 15.4075 24.3827 15.3581 24.5015C15.2023 24.8762 15.7482 25.1645 15.9717 24.8297C16.0553 24.7043 16.6428 23.8236 17.465 22.5883H19.2876C19.8226 22.5883 20.2579 22.1513 20.2579 21.6141C20.2579 20.6107 20.15 19.7146 19.9287 18.8805C21.229 16.9195 22.5362 14.9403 23.3049 13.755C23.954 14.1404 24.3025 14.8989 23.8541 15.6014L21.4135 19.4245C20.6269 20.6567 21.4668 22.3307 22.9175 22.4464C23.725 22.4737 24.2247 23.0776 24.2247 23.8523V24.6357C24.2247 25.0877 24.9239 25.0877 24.9239 24.6357V23.8656C24.9616 23.3464 24.7966 22.8429 24.4584 22.4464ZM2.04896 14.9917V16.1438C2.04896 16.5957 2.74808 16.5957 2.74808 16.1438V13.8798C2.96527 13.6385 3.21518 13.4193 3.49767 13.2225V13.8139C3.49767 14.2659 4.19679 14.2659 4.19679 13.8139V12.8129C4.46804 12.6796 4.76102 12.5614 5.07506 12.4583V14.4684C5.07506 14.9203 5.77418 14.9203 5.77418 14.4684V12.2617C6.04669 12.1969 6.33277 12.142 6.63167 12.0963V12.8828C6.63167 13.3347 7.33078 13.3347 7.33078 12.8828V12.0093C7.7283 11.9705 8.12167 11.9604 8.5204 11.9516C8.60574 13.5502 7.95393 14.8879 7.19888 16.2448C4.73758 16.4796 3.17016 17.4812 2.58448 18.4594C2.07357 18.0393 1.81252 17.5525 1.81252 17.2059C1.81252 17.2041 1.81229 17.2024 1.81224 17.2006C1.81215 17.1945 1.81173 17.1883 1.81131 17.1822C1.81089 17.176 1.81047 17.1699 1.80972 17.1638C1.80949 17.162 1.80949 17.1602 1.80926 17.1585C1.72825 16.5669 1.72937 15.782 2.04896 14.9917ZM5.28843 19.3303C4.42279 19.3303 3.71412 19.1311 3.16741 18.8436C3.37593 18.4727 3.78776 18.098 4.33838 17.7857C4.82902 17.5075 5.63189 17.1651 6.79633 16.9963C6.46929 17.6435 6.17151 18.361 5.97436 19.2612C5.74775 19.3054 5.51839 19.3303 5.28843 19.3303ZM1.81252 22.1765V18.6958C2.03745 18.9318 2.29733 19.137 2.57456 19.3084V20.2797C2.57456 20.7317 3.27367 20.7317 3.27367 20.2797V19.6583C3.5508 19.7686 3.84438 19.8547 4.14953 19.9164V22.0208C4.14953 22.4727 4.84864 22.4727 4.84864 22.0208V20.0131C5.13999 20.0347 5.43362 20.0362 5.72449 20.0051V20.7729C5.72449 21.2249 6.42361 21.2249 6.42361 20.7729V19.8756C6.73612 19.7935 7.03972 19.6827 7.33055 19.5535V23.8477C6.6999 24.11 5.99804 24.3008 5.28843 24.3008C3.00633 24.3008 1.81252 22.9178 1.81252 22.1765ZM9.65334 22.4355C9.41215 22.6345 8.8138 23.1004 8.02967 23.5168V19.1971C8.69579 18.8144 9.25927 18.3699 9.65334 18.0235V22.4355ZM10.3525 21.8892V17.2059C10.3525 16.8943 9.95806 16.7402 9.74637 16.9685C9.72931 16.9869 8.39689 18.4073 6.7494 19.0362C7.03632 17.9703 7.48301 17.1692 7.91767 16.3915C8.37032 15.5817 8.8384 14.7443 9.07965 13.6617C9.37053 12.3564 9.23681 10.9387 8.68222 9.44797C8.28969 8.39287 7.68426 7.28794 6.83124 6.07008C6.54325 5.65895 6.63782 5.45066 6.66891 5.38219C6.84532 4.99358 7.6417 4.46696 10.4341 4.16536C11.781 4.01985 12.0421 3.06057 12.0421 1.89337C12.0421 1.73374 13.953 1.74516 13.953 1.89337C13.953 3.09501 14.2268 4.01738 15.6038 4.17156C16.0615 4.22269 16.9135 4.31791 17.6873 4.52377C18.7707 4.81204 19.1307 5.15703 19.2419 5.39571C19.2799 5.47746 19.3958 5.72625 19.0668 6.22048C17.6554 8.34025 16.296 10.8821 16.9154 13.6617C17.1933 14.9085 17.8683 15.9681 18.4559 17.0828C17.7495 18.7674 17.0204 20.5129 16.4464 21.8892H10.3525V21.8892ZM19.5588 21.6141C19.5588 21.7658 19.4371 21.8892 19.2876 21.8892H17.9303C18.3824 21.2096 18.8815 20.4586 19.3938 19.6869C19.5044 20.2839 19.5588 20.9206 19.5588 21.6141ZM17.3941 21.4329C19.2154 17.0687 21.411 11.8348 21.6186 11.4405C21.8664 10.9699 22.4791 10.7803 22.9497 11.0278C23.4157 11.2729 23.6104 11.8873 23.3627 12.3575C23.3316 12.4165 23.2322 12.5768 23.078 12.8182L22.5514 12.5156L22.6861 12.2692C22.9028 11.8726 22.2894 11.5372 22.0727 11.9338L21.4793 13.0194C21.2679 13.4062 21.8784 13.7468 22.0927 13.3548L22.216 13.1292L22.6986 13.4065C21.5765 15.1339 19.2651 18.6198 17.3941 21.4329Z"/>
</mask>
<path d="M24.4584 22.4464C24.0876 22.0116 23.541 21.7661 22.9731 21.7495C22.0429 21.6753 21.4974 20.5925 22.0028 19.8008L24.4434 15.9775C25.0677 14.9997 24.6822 13.7107 23.6839 13.1665C23.8429 12.917 23.9467 12.7489 23.9813 12.6833C24.4091 11.8709 24.0877 10.8365 23.2751 10.4091C22.4533 9.97679 21.4326 10.2934 21 11.1149C20.9717 11.1687 20.9115 11.3001 20.8252 11.4956L20.1237 11.0954C19.6468 10.8255 19.435 10.2335 19.7154 9.73759C19.9378 9.34409 19.3293 9.00007 19.1068 9.39349C18.649 10.2033 18.9637 11.2709 19.7821 11.7054L20.5448 12.1406C20.1322 13.0993 19.4932 14.6124 18.8026 16.2566C18.3139 15.3777 17.8186 14.501 17.5978 13.5098C17.0356 10.9867 18.3191 8.60503 19.6487 6.60798C20.0115 6.06318 20.0878 5.55599 19.8755 5.10045C19.3723 4.0205 17.3698 3.66549 15.6815 3.47682C14.6947 3.36655 14.6522 2.718 14.6522 1.89342C14.6522 0.699795 11.343 0.704595 11.343 1.89342C11.343 2.68459 11.3296 3.36524 10.359 3.47035C8.60136 3.66023 6.52116 4.01626 6.03229 5.09332C5.89979 5.38527 5.83146 5.86137 6.25862 6.47118C7.07705 7.63964 7.6555 8.69312 8.02696 9.69178C8.22542 10.2252 8.36436 10.7465 8.44541 11.254L7.85288 11.267C7.84836 11.2671 7.84384 11.2673 7.83927 11.2676C5.14358 11.4321 3.20838 12.2085 2.08741 13.5755C1.2777 14.5628 0.932426 15.8589 1.1134 17.2275V22.1765C1.1134 22.813 1.53982 23.5169 2.25404 24.0593C3.05257 24.6659 4.13023 24.9999 5.28843 24.9999C7.82044 24.9999 10.1389 22.9447 10.2364 22.8573C10.3102 22.7909 10.3525 22.6964 10.3525 22.5971V22.5883H11.8747V24.6218C11.8747 25.0738 12.5738 25.0738 12.5738 24.6218V22.5883H13.4213V24.6218C13.4213 25.0738 14.1204 25.0738 14.1204 24.6218V22.5883H16.1549C15.7115 23.6521 15.4075 24.3827 15.3581 24.5015C15.2023 24.8762 15.7482 25.1645 15.9717 24.8297C16.0553 24.7043 16.6428 23.8236 17.465 22.5883H19.2876C19.8226 22.5883 20.2579 22.1513 20.2579 21.6141C20.2579 20.6107 20.15 19.7146 19.9287 18.8805C21.229 16.9195 22.5362 14.9403 23.3049 13.755C23.954 14.1404 24.3025 14.8989 23.8541 15.6014L21.4135 19.4245C20.6269 20.6567 21.4668 22.3307 22.9175 22.4464C23.725 22.4737 24.2247 23.0776 24.2247 23.8523V24.6357C24.2247 25.0877 24.9239 25.0877 24.9239 24.6357V23.8656C24.9616 23.3464 24.7966 22.8429 24.4584 22.4464ZM2.04896 14.9917V16.1438C2.04896 16.5957 2.74808 16.5957 2.74808 16.1438V13.8798C2.96527 13.6385 3.21518 13.4193 3.49767 13.2225V13.8139C3.49767 14.2659 4.19679 14.2659 4.19679 13.8139V12.8129C4.46804 12.6796 4.76102 12.5614 5.07506 12.4583V14.4684C5.07506 14.9203 5.77418 14.9203 5.77418 14.4684V12.2617C6.04669 12.1969 6.33277 12.142 6.63167 12.0963V12.8828C6.63167 13.3347 7.33078 13.3347 7.33078 12.8828V12.0093C7.7283 11.9705 8.12167 11.9604 8.5204 11.9516C8.60574 13.5502 7.95393 14.8879 7.19888 16.2448C4.73758 16.4796 3.17016 17.4812 2.58448 18.4594C2.07357 18.0393 1.81252 17.5525 1.81252 17.2059C1.81252 17.2041 1.81229 17.2024 1.81224 17.2006C1.81215 17.1945 1.81173 17.1883 1.81131 17.1822C1.81089 17.176 1.81047 17.1699 1.80972 17.1638C1.80949 17.162 1.80949 17.1602 1.80926 17.1585C1.72825 16.5669 1.72937 15.782 2.04896 14.9917ZM5.28843 19.3303C4.42279 19.3303 3.71412 19.1311 3.16741 18.8436C3.37593 18.4727 3.78776 18.098 4.33838 17.7857C4.82902 17.5075 5.63189 17.1651 6.79633 16.9963C6.46929 17.6435 6.17151 18.361 5.97436 19.2612C5.74775 19.3054 5.51839 19.3303 5.28843 19.3303ZM1.81252 22.1765V18.6958C2.03745 18.9318 2.29733 19.137 2.57456 19.3084V20.2797C2.57456 20.7317 3.27367 20.7317 3.27367 20.2797V19.6583C3.5508 19.7686 3.84438 19.8547 4.14953 19.9164V22.0208C4.14953 22.4727 4.84864 22.4727 4.84864 22.0208V20.0131C5.13999 20.0347 5.43362 20.0362 5.72449 20.0051V20.7729C5.72449 21.2249 6.42361 21.2249 6.42361 20.7729V19.8756C6.73612 19.7935 7.03972 19.6827 7.33055 19.5535V23.8477C6.6999 24.11 5.99804 24.3008 5.28843 24.3008C3.00633 24.3008 1.81252 22.9178 1.81252 22.1765ZM9.65334 22.4355C9.41215 22.6345 8.8138 23.1004 8.02967 23.5168V19.1971C8.69579 18.8144 9.25927 18.3699 9.65334 18.0235V22.4355ZM10.3525 21.8892V17.2059C10.3525 16.8943 9.95806 16.7402 9.74637 16.9685C9.72931 16.9869 8.39689 18.4073 6.7494 19.0362C7.03632 17.9703 7.48301 17.1692 7.91767 16.3915C8.37032 15.5817 8.8384 14.7443 9.07965 13.6617C9.37053 12.3564 9.23681 10.9387 8.68222 9.44797C8.28969 8.39287 7.68426 7.28794 6.83124 6.07008C6.54325 5.65895 6.63782 5.45066 6.66891 5.38219C6.84532 4.99358 7.6417 4.46696 10.4341 4.16536C11.781 4.01985 12.0421 3.06057 12.0421 1.89337C12.0421 1.73374 13.953 1.74516 13.953 1.89337C13.953 3.09501 14.2268 4.01738 15.6038 4.17156C16.0615 4.22269 16.9135 4.31791 17.6873 4.52377C18.7707 4.81204 19.1307 5.15703 19.2419 5.39571C19.2799 5.47746 19.3958 5.72625 19.0668 6.22048C17.6554 8.34025 16.296 10.8821 16.9154 13.6617C17.1933 14.9085 17.8683 15.9681 18.4559 17.0828C17.7495 18.7674 17.0204 20.5129 16.4464 21.8892H10.3525V21.8892ZM19.5588 21.6141C19.5588 21.7658 19.4371 21.8892 19.2876 21.8892H17.9303C18.3824 21.2096 18.8815 20.4586 19.3938 19.6869C19.5044 20.2839 19.5588 20.9206 19.5588 21.6141ZM17.3941 21.4329C19.2154 17.0687 21.411 11.8348 21.6186 11.4405C21.8664 10.9699 22.4791 10.7803 22.9497 11.0278C23.4157 11.2729 23.6104 11.8873 23.3627 12.3575C23.3316 12.4165 23.2322 12.5768 23.078 12.8182L22.5514 12.5156L22.6861 12.2692C22.9028 11.8726 22.2894 11.5372 22.0727 11.9338L21.4793 13.0194C21.2679 13.4062 21.8784 13.7468 22.0927 13.3548L22.216 13.1292L22.6986 13.4065C21.5765 15.1339 19.2651 18.6198 17.3941 21.4329Z" fill="#4E546D"/>
<path d="M24.4584 22.4464C24.0876 22.0116 23.541 21.7661 22.9731 21.7495C22.0429 21.6753 21.4974 20.5925 22.0028 19.8008L24.4434 15.9775C25.0677 14.9997 24.6822 13.7107 23.6839 13.1665C23.8429 12.917 23.9467 12.7489 23.9813 12.6833C24.4091 11.8709 24.0877 10.8365 23.2751 10.4091C22.4533 9.97679 21.4326 10.2934 21 11.1149C20.9717 11.1687 20.9115 11.3001 20.8252 11.4956L20.1237 11.0954C19.6468 10.8255 19.435 10.2335 19.7154 9.73759C19.9378 9.34409 19.3293 9.00007 19.1068 9.39349C18.649 10.2033 18.9637 11.2709 19.7821 11.7054L20.5448 12.1406C20.1322 13.0993 19.4932 14.6124 18.8026 16.2566C18.3139 15.3777 17.8186 14.501 17.5978 13.5098C17.0356 10.9867 18.3191 8.60503 19.6487 6.60798C20.0115 6.06318 20.0878 5.55599 19.8755 5.10045C19.3723 4.0205 17.3698 3.66549 15.6815 3.47682C14.6947 3.36655 14.6522 2.718 14.6522 1.89342C14.6522 0.699795 11.343 0.704595 11.343 1.89342C11.343 2.68459 11.3296 3.36524 10.359 3.47035C8.60136 3.66023 6.52116 4.01626 6.03229 5.09332C5.89979 5.38527 5.83146 5.86137 6.25862 6.47118C7.07705 7.63964 7.6555 8.69312 8.02696 9.69178C8.22542 10.2252 8.36436 10.7465 8.44541 11.254L7.85288 11.267C7.84836 11.2671 7.84384 11.2673 7.83927 11.2676C5.14358 11.4321 3.20838 12.2085 2.08741 13.5755C1.2777 14.5628 0.932426 15.8589 1.1134 17.2275V22.1765C1.1134 22.813 1.53982 23.5169 2.25404 24.0593C3.05257 24.6659 4.13023 24.9999 5.28843 24.9999C7.82044 24.9999 10.1389 22.9447 10.2364 22.8573C10.3102 22.7909 10.3525 22.6964 10.3525 22.5971V22.5883H11.8747V24.6218C11.8747 25.0738 12.5738 25.0738 12.5738 24.6218V22.5883H13.4213V24.6218C13.4213 25.0738 14.1204 25.0738 14.1204 24.6218V22.5883H16.1549C15.7115 23.6521 15.4075 24.3827 15.3581 24.5015C15.2023 24.8762 15.7482 25.1645 15.9717 24.8297C16.0553 24.7043 16.6428 23.8236 17.465 22.5883H19.2876C19.8226 22.5883 20.2579 22.1513 20.2579 21.6141C20.2579 20.6107 20.15 19.7146 19.9287 18.8805C21.229 16.9195 22.5362 14.9403 23.3049 13.755C23.954 14.1404 24.3025 14.8989 23.8541 15.6014L21.4135 19.4245C20.6269 20.6567 21.4668 22.3307 22.9175 22.4464C23.725 22.4737 24.2247 23.0776 24.2247 23.8523V24.6357C24.2247 25.0877 24.9239 25.0877 24.9239 24.6357V23.8656C24.9616 23.3464 24.7966 22.8429 24.4584 22.4464ZM2.04896 14.9917V16.1438C2.04896 16.5957 2.74808 16.5957 2.74808 16.1438V13.8798C2.96527 13.6385 3.21518 13.4193 3.49767 13.2225V13.8139C3.49767 14.2659 4.19679 14.2659 4.19679 13.8139V12.8129C4.46804 12.6796 4.76102 12.5614 5.07506 12.4583V14.4684C5.07506 14.9203 5.77418 14.9203 5.77418 14.4684V12.2617C6.04669 12.1969 6.33277 12.142 6.63167 12.0963V12.8828C6.63167 13.3347 7.33078 13.3347 7.33078 12.8828V12.0093C7.7283 11.9705 8.12167 11.9604 8.5204 11.9516C8.60574 13.5502 7.95393 14.8879 7.19888 16.2448C4.73758 16.4796 3.17016 17.4812 2.58448 18.4594C2.07357 18.0393 1.81252 17.5525 1.81252 17.2059C1.81252 17.2041 1.81229 17.2024 1.81224 17.2006C1.81215 17.1945 1.81173 17.1883 1.81131 17.1822C1.81089 17.176 1.81047 17.1699 1.80972 17.1638C1.80949 17.162 1.80949 17.1602 1.80926 17.1585C1.72825 16.5669 1.72937 15.782 2.04896 14.9917ZM5.28843 19.3303C4.42279 19.3303 3.71412 19.1311 3.16741 18.8436C3.37593 18.4727 3.78776 18.098 4.33838 17.7857C4.82902 17.5075 5.63189 17.1651 6.79633 16.9963C6.46929 17.6435 6.17151 18.361 5.97436 19.2612C5.74775 19.3054 5.51839 19.3303 5.28843 19.3303ZM1.81252 22.1765V18.6958C2.03745 18.9318 2.29733 19.137 2.57456 19.3084V20.2797C2.57456 20.7317 3.27367 20.7317 3.27367 20.2797V19.6583C3.5508 19.7686 3.84438 19.8547 4.14953 19.9164V22.0208C4.14953 22.4727 4.84864 22.4727 4.84864 22.0208V20.0131C5.13999 20.0347 5.43362 20.0362 5.72449 20.0051V20.7729C5.72449 21.2249 6.42361 21.2249 6.42361 20.7729V19.8756C6.73612 19.7935 7.03972 19.6827 7.33055 19.5535V23.8477C6.6999 24.11 5.99804 24.3008 5.28843 24.3008C3.00633 24.3008 1.81252 22.9178 1.81252 22.1765ZM9.65334 22.4355C9.41215 22.6345 8.8138 23.1004 8.02967 23.5168V19.1971C8.69579 18.8144 9.25927 18.3699 9.65334 18.0235V22.4355ZM10.3525 21.8892V17.2059C10.3525 16.8943 9.95806 16.7402 9.74637 16.9685C9.72931 16.9869 8.39689 18.4073 6.7494 19.0362C7.03632 17.9703 7.48301 17.1692 7.91767 16.3915C8.37032 15.5817 8.8384 14.7443 9.07965 13.6617C9.37053 12.3564 9.23681 10.9387 8.68222 9.44797C8.28969 8.39287 7.68426 7.28794 6.83124 6.07008C6.54325 5.65895 6.63782 5.45066 6.66891 5.38219C6.84532 4.99358 7.6417 4.46696 10.4341 4.16536C11.781 4.01985 12.0421 3.06057 12.0421 1.89337C12.0421 1.73374 13.953 1.74516 13.953 1.89337C13.953 3.09501 14.2268 4.01738 15.6038 4.17156C16.0615 4.22269 16.9135 4.31791 17.6873 4.52377C18.7707 4.81204 19.1307 5.15703 19.2419 5.39571C19.2799 5.47746 19.3958 5.72625 19.0668 6.22048C17.6554 8.34025 16.296 10.8821 16.9154 13.6617C17.1933 14.9085 17.8683 15.9681 18.4559 17.0828C17.7495 18.7674 17.0204 20.5129 16.4464 21.8892H10.3525V21.8892ZM19.5588 21.6141C19.5588 21.7658 19.4371 21.8892 19.2876 21.8892H17.9303C18.3824 21.2096 18.8815 20.4586 19.3938 19.6869C19.5044 20.2839 19.5588 20.9206 19.5588 21.6141ZM17.3941 21.4329C19.2154 17.0687 21.411 11.8348 21.6186 11.4405C21.8664 10.9699 22.4791 10.7803 22.9497 11.0278C23.4157 11.2729 23.6104 11.8873 23.3627 12.3575C23.3316 12.4165 23.2322 12.5768 23.078 12.8182L22.5514 12.5156L22.6861 12.2692C22.9028 11.8726 22.2894 11.5372 22.0727 11.9338L21.4793 13.0194C21.2679 13.4062 21.8784 13.7468 22.0927 13.3548L22.216 13.1292L22.6986 13.4065C21.5765 15.1339 19.2651 18.6198 17.3941 21.4329Z" stroke="#4E546D" stroke-width="0.24" mask="url(#path-1-outside-1_1125_11677)"/>
</svg>
