<svg width="18" height="14" viewBox="0 0 18 14" fill="none" xmlns="http://www.w3.org/2000/svg">
<path d="M17.3635 7.70685C17.5509 7.51933 17.6562 7.26502 17.6562 6.99985C17.6562 6.73469 17.5509 6.48038 17.3635 6.29285L11.7065 0.635855C11.6142 0.540344 11.5039 0.464162 11.3819 0.411753C11.2599 0.359344 11.1286 0.331758 10.9959 0.330604C10.8631 0.32945 10.7314 0.354752 10.6085 0.405033C10.4856 0.455314 10.374 0.529567 10.2801 0.62346C10.1862 0.717352 10.1119 0.829004 10.0616 0.9519C10.0114 1.0748 9.98606 1.20648 9.98721 1.33926C9.98837 1.47203 10.016 1.60325 10.0684 1.72526C10.1208 1.84726 10.197 1.95761 10.2925 2.04985L14.2425 5.99985L0.999464 5.99985C0.734247 5.99985 0.479892 6.10521 0.292356 6.29275C0.10482 6.48028 -0.000536245 6.73464 -0.000536256 6.99985C-0.000536268 7.26507 0.10482 7.51942 0.292356 7.70696C0.479892 7.8945 0.734247 7.99985 0.999464 7.99985L14.2425 7.99985L10.2925 11.9499C10.1103 12.1385 10.0095 12.3911 10.0118 12.6533C10.0141 12.9155 10.1192 13.1663 10.3046 13.3517C10.4901 13.5371 10.7409 13.6423 11.0031 13.6445C11.2653 13.6468 11.5179 13.546 11.7065 13.3639L17.3635 7.70685Z" fill="black"/>
</svg>
