<svg width="12" height="9" viewBox="0 0 12 9" fill="none" xmlns="http://www.w3.org/2000/svg">
<path d="M7.01461 1.90063C6.95321 1.84341 6.90395 1.77441 6.86979 1.69775C6.83563 1.62108 6.81727 1.53832 6.81579 1.4544C6.8143 1.37048 6.82974 1.28712 6.86118 1.2093C6.89261 1.13148 6.9394 1.06078 6.99875 1.00143C7.0581 0.942084 7.12879 0.895296 7.20661 0.863862C7.28444 0.832428 7.36779 0.816991 7.45171 0.818472C7.53563 0.819952 7.61839 0.83832 7.69506 0.87248C7.77173 0.90664 7.84073 0.955892 7.89795 1.0173L11.2313 4.35063C11.3483 4.46782 11.4141 4.62667 11.4141 4.7923C11.4141 4.95792 11.3483 5.11678 11.2313 5.23396L7.89795 8.5673C7.84073 8.6287 7.77173 8.67796 7.69506 8.71212C7.61839 8.74628 7.53563 8.76464 7.45171 8.76612C7.36779 8.7676 7.28444 8.75217 7.20661 8.72073C7.12879 8.6893 7.0581 8.64251 6.99875 8.58316C6.9394 8.52381 6.89261 8.45312 6.86118 8.3753C6.82974 8.29747 6.8143 8.21412 6.81579 8.1302C6.81727 8.04628 6.83563 7.96352 6.86979 7.88685C6.90395 7.81018 6.95321 7.74118 7.01461 7.68397L9.28128 5.4173L1.20628 5.4173C1.04052 5.4173 0.881547 5.35145 0.764336 5.23424C0.647126 5.11703 0.581279 4.95806 0.581279 4.7923C0.581279 4.62654 0.647126 4.46757 0.764336 4.35036C0.881547 4.23315 1.04052 4.1673 1.20628 4.1673L9.28128 4.1673L7.01461 1.90063Z" fill="#081F2C"/>
</svg>
