<svg width="24" height="25" viewBox="0 0 24 25" fill="none" xmlns="http://www.w3.org/2000/svg">
<path d="M8.415 16.07C7.25 16.985 6.5 18.405 6.5 20V21.5H3.5C2.67 21.5 2 20.83 2 20V19C2 17.065 3.565 15.5 5.5 15.5H6.5C7.21 15.5 7.865 15.71 8.415 16.07Z" fill="#6D707A"/>
<path d="M18 15.5C19.2426 15.5 20.25 14.4926 20.25 13.25C20.25 12.0074 19.2426 11 18 11C16.7574 11 15.75 12.0074 15.75 13.25C15.75 14.4926 16.7574 15.5 18 15.5Z" fill="#6D707A"/>
<path d="M6 15.5C7.24264 15.5 8.25 14.4926 8.25 13.25C8.25 12.0074 7.24264 11 6 11C4.75736 11 3.75 12.0074 3.75 13.25C3.75 14.4926 4.75736 15.5 6 15.5Z" fill="#6D707A"/>
<path d="M22.0009 19V20C22.0009 20.83 21.3309 21.5 20.5009 21.5H17.5009V20C17.5009 18.405 16.7509 16.985 15.5859 16.07C16.1359 15.71 16.7909 15.5 17.5009 15.5H18.5009C20.4359 15.5 22.0009 17.065 22.0009 19Z" fill="#6D707A"/>
<path d="M12 16C13.5188 16 14.75 14.7688 14.75 13.25C14.75 11.7312 13.5188 10.5 12 10.5C10.4812 10.5 9.25 11.7312 9.25 13.25C9.25 14.7688 10.4812 16 12 16Z" fill="#6D707A"/>
<path d="M12.5 16H11.5C9.2945 16 7.5 17.7945 7.5 20V21.5C7.5 22.327 8.173 23 9 23H15C15.827 23 16.5 22.327 16.5 21.5V20C16.5 17.7945 14.7055 16 12.5 16Z" fill="#6D707A"/>
<path d="M19.2501 8.84166L18.0436 9.27066C17.7011 9.39216 17.3436 9.13266 17.3536 8.76916L17.3886 7.48916L16.6076 6.47416C16.3861 6.18616 16.5226 5.76566 16.8711 5.66266L18.0996 5.30066L18.8236 4.24416C19.0291 3.94466 19.4711 3.94466 19.6766 4.24416L20.4006 5.30066L21.6291 5.66266C21.9776 5.76516 22.1141 6.18616 21.8926 6.47416L21.1116 7.48916L21.1466 8.76916C21.1566 9.13216 20.7986 9.39216 20.4566 9.27066L19.2501 8.84166Z" fill="#6D707A"/>
<path d="M4.75008 8.84166L3.54358 9.27066C3.20108 9.39216 2.84358 9.13266 2.85358 8.76916L2.88858 7.48916L2.10758 6.47416C1.88608 6.18616 2.02258 5.76566 2.37108 5.66266L3.59958 5.30066L4.32358 4.24416C4.52908 3.94466 4.97108 3.94466 5.17658 4.24416L5.90058 5.30066L7.12908 5.66266C7.47758 5.76516 7.61408 6.18616 7.39258 6.47416L6.61158 7.48916L6.64658 8.76916C6.65658 9.13216 6.29858 9.39216 5.95658 9.27066L4.75008 8.84166Z" fill="#6D707A"/>
<path d="M12.0026 7.71665L10.5721 8.22515C10.1661 8.36965 9.74212 8.06115 9.75412 7.63065L9.79562 6.11315L8.86962 4.90965C8.60712 4.56815 8.76912 4.06965 9.18212 3.94765L10.6386 3.51815L11.4971 2.26565C11.7406 1.91015 12.2651 1.91015 12.5086 2.26565L13.3671 3.51815L14.8236 3.94765C15.2366 4.06965 15.3986 4.56815 15.1361 4.90965L14.2101 6.11315L14.2516 7.63065C14.2636 8.06115 13.8391 8.36965 13.4336 8.22515L12.0026 7.71665Z" fill="#6D707A"/>
</svg>
