<svg width="24" height="25" viewBox="0 0 24 25" fill="none" xmlns="http://www.w3.org/2000/svg">
<g clip-path="url(#clip0_1_428)">
<path d="M20.5436 13.3125H18.6875C18.8767 13.8305 18.98 14.3895 18.98 14.9721V21.9869C18.98 22.2298 18.9378 22.463 18.8608 22.6798H21.9293C23.0756 22.6798 24.0081 21.7473 24.0081 20.6011V16.777C24.0081 14.8667 22.4539 13.3125 20.5436 13.3125Z" fill="#6D707A"/>
<path d="M5.02806 14.9711C5.02806 14.3884 5.13142 13.8295 5.3206 13.3115H3.46454C1.55419 13.3115 0 14.8657 0 16.7761V20.6002C0 21.7464 0.932486 22.6789 2.07872 22.6789H5.14726C5.07034 22.462 5.02806 22.2289 5.02806 21.9859V14.9711Z" fill="#6D707A"/>
<path d="M14.1296 11.5071H9.88641C7.97607 11.5071 6.42188 13.0613 6.42188 14.9716V21.9865C6.42188 22.3691 6.73209 22.6794 7.11478 22.6794H16.9013C17.284 22.6794 17.5942 22.3692 17.5942 21.9865V14.9716C17.5942 13.0613 16.04 11.5071 14.1296 11.5071Z" fill="#6D707A"/>
<path d="M11.9947 2.32031C9.69722 2.32031 7.82812 4.18941 7.82812 6.4869C7.82812 8.04526 8.68824 9.40628 9.95846 10.1208C10.5609 10.4598 11.2555 10.6534 11.9947 10.6534C12.7338 10.6534 13.4284 10.4598 14.0309 10.1208C15.3011 9.40628 16.1612 8.04521 16.1612 6.4869C16.1612 4.18946 14.2921 2.32031 11.9947 2.32031Z" fill="#6D707A"/>
<path d="M4.67071 6.2041C2.9525 6.2041 1.55469 7.60192 1.55469 9.32012C1.55469 11.0383 2.9525 12.4361 4.67071 12.4361C5.10655 12.4361 5.52159 12.3459 5.8986 12.1836C6.55045 11.9029 7.08792 11.4062 7.4205 10.7839C7.65393 10.3472 7.78673 9.84892 7.78673 9.32012C7.78673 7.60196 6.38892 6.2041 4.67071 6.2041Z" fill="#6D707A"/>
<path d="M19.327 6.2041C17.6088 6.2041 16.2109 7.60192 16.2109 9.32012C16.2109 9.84897 16.3437 10.3472 16.5772 10.7839C16.9098 11.4062 17.4472 11.903 18.0991 12.1836C18.4761 12.3459 18.8911 12.4361 19.327 12.4361C21.0452 12.4361 22.443 11.0383 22.443 9.32012C22.443 7.60192 21.0452 6.2041 19.327 6.2041Z" fill="#6D707A"/>
</g>
<defs>
<clipPath id="clip0_1_428">
<rect width="24" height="24" fill="white" transform="translate(0 0.5)"/>
</clipPath>
</defs>
</svg>
