<svg width="24" height="25" viewBox="0 0 24 25" fill="none" xmlns="http://www.w3.org/2000/svg">
<path d="M12 23.0003C17.79 23.0003 22.5 18.2903 22.5 12.5003C22.5 7.55031 19.0538 3.39156 14.4375 2.28906C14.4338 2.31156 14.43 2.33406 14.4338 2.36031C14.4413 2.50281 14.5388 2.74281 14.9213 3.06531C15.4913 3.54531 15.75 4.12281 15.6525 4.68906C15.5138 5.51406 14.685 6.21531 13.1925 6.78156C10.9237 7.63656 10.905 7.73406 10.6012 9.36906L10.5825 9.46281C10.3237 10.8316 9.31125 12.0728 8.4525 12.0728H8.445C8.28 12.0728 7.74 12.0091 7.60875 11.2403C7.39875 10.0441 6.94125 8.80281 6.675 8.49906C6.5175 8.62656 6.3 8.87781 6.105 9.10656C5.6175 9.66906 5.1975 10.1528 4.73625 10.1528C4.48875 10.1528 4.25625 10.1528 2.685 7.66656C1.9275 9.11406 1.5 10.7566 1.5 12.5003C1.5 18.2903 6.21 23.0003 12 23.0003ZM19.1512 6.48156C19.3125 6.35406 19.5487 6.38031 19.68 6.54156C20.58 7.67781 21.6488 9.57531 21.63 12.1628C21.6262 12.3691 21.4613 12.5378 21.255 12.5378H21.2512C21.045 12.5341 20.8762 12.3653 20.88 12.1591C20.8988 9.78906 19.9163 8.04906 19.0912 7.00656C18.9638 6.84531 18.99 6.60906 19.1512 6.48156ZM17.3475 4.91781C17.46 4.74531 17.6925 4.69281 17.865 4.80531C17.8725 4.81281 18.0788 4.94406 18.3825 5.20281C18.5438 5.33781 18.5625 5.57406 18.4275 5.73156C18.3562 5.81781 18.2475 5.86656 18.1425 5.86656C18.0562 5.86656 17.97 5.83656 17.8988 5.77656C17.6325 5.55156 17.46 5.43531 17.4562 5.43531C17.2837 5.32281 17.235 5.09031 17.3475 4.91781ZM16.5262 14.4203C16.5787 14.0491 16.7738 13.7303 17.0775 13.5278C17.9813 12.9203 18.765 13.7866 19.23 14.3041L19.35 14.4353C20.0925 15.2341 19.9088 16.8728 19.6087 17.4916C19.4363 17.8403 19.1775 17.9041 19.0387 17.9116H19.005C18.5812 17.9116 18.1612 17.4991 17.5238 16.4603C17.3025 16.1003 17.0737 15.7816 16.845 15.5078C16.59 15.2078 16.4738 14.8141 16.5262 14.4203ZM16.0575 16.0666C16.1512 16.1941 16.2563 16.3328 16.3688 16.4716C16.5075 16.6403 16.6612 16.8016 16.8263 16.9703C17.4712 17.6303 18.27 18.4516 17.58 19.8878C17.0025 21.0878 16.2938 21.5266 15.4237 21.5266C14.91 21.5266 14.3438 21.3766 13.71 21.1366C13.02 20.8778 12.255 20.7541 11.5837 20.6453C10.485 20.4691 9.53625 20.3153 9.21 19.6178C8.98875 19.1416 9.11625 18.5266 9.61125 17.6903C10.2487 16.6103 11.0963 16.1528 12.3563 16.2241C12.7275 16.2428 12.7612 16.1903 12.9075 15.9803C13.065 15.7478 13.2825 15.4366 13.8638 15.1891C15.0263 14.7016 15.5475 15.3953 16.0575 16.0666ZM8.83875 13.5278C9.00375 12.7891 9.255 12.3316 9.63375 12.0878C9.93375 11.8966 10.3013 11.8516 10.7513 11.9528C11.1562 12.0428 11.2425 11.9191 11.4675 11.5966C11.6663 11.3041 11.94 10.9066 12.54 10.7791C13.4212 10.5916 14.01 10.6478 14.3325 10.9591C14.475 11.0941 14.6325 11.3453 14.565 11.7578C14.49 12.2003 14.2013 12.3953 14.01 12.5228C13.8075 12.6578 13.7887 12.6728 13.8412 12.9166C14.0175 13.7153 13.9125 14.3866 13.545 14.8066C13.2525 15.1403 12.8175 15.3053 12.255 15.3053C12.1613 15.3053 12.0638 15.3016 11.9662 15.2941C11.8012 15.2791 11.64 15.2641 11.4788 15.2528C10.38 15.1628 9.4275 15.0878 9.00375 14.5141C8.80875 14.2516 8.7525 13.9178 8.83875 13.5278ZM5.12625 12.1178C5.1975 12.0241 5.31 11.9641 5.43 11.9641C5.475 11.9528 6.70875 11.9716 7.53375 13.4228C7.89375 14.0566 8.3325 14.4841 8.68125 14.8291C9.06 15.1966 9.33 15.4666 9.33 15.8303C9.32625 16.1566 9.13875 16.5841 8.72625 16.7941C8.59125 16.8616 8.415 16.9141 8.205 16.9141C7.8825 16.9141 7.47375 16.7978 6.97125 16.4303C6.35625 15.9841 5.745 15.1891 5.33625 14.3041C5.13 13.8466 4.6875 12.7253 5.12625 12.1178Z" fill="#6D707A"/>
<path d="M12.0033 2C8.25925 2 4.96863 3.97137 3.10938 6.929C4.20888 8.68662 4.645 9.218 4.80025 9.37512C4.98325 9.25925 5.33838 8.84788 5.53975 8.61462C5.85925 8.24487 6.13488 7.92538 6.4045 7.77688C6.57288 7.68388 6.76338 7.68087 6.94113 7.766C7.81563 8.18488 8.34738 11.0821 8.35263 11.1114C8.359 11.1481 8.39163 11.3221 8.4535 11.3225H8.45538C8.80525 11.3225 9.63175 10.481 9.84925 9.323L9.8665 9.23C10.21 7.38988 10.3405 7.05688 12.9314 6.08C14.539 5.47137 14.8664 4.86875 14.9185 4.5635C14.983 4.1855 14.6961 3.85325 14.4438 3.641C13.9604 3.23638 13.705 2.8115 13.6859 2.37875C13.6821 2.29175 13.6904 2.21338 13.7031 2.1395C13.1496 2.04913 12.5819 2 12.0033 2Z" fill="#6D707A"/>
<path d="M18.1649 16.0658C18.5972 16.7711 18.8425 17.0246 18.9569 17.1146C19.1676 16.6151 19.2467 15.4234 18.8039 14.9441L18.6771 14.8054C18.1251 14.1956 17.8079 13.9418 17.4974 14.1495C17.3736 14.2328 17.2934 14.3651 17.2716 14.5226C17.2469 14.7026 17.2994 14.8849 17.4171 15.0229C17.6729 15.3236 17.9245 15.6743 18.1645 16.0654L18.1649 16.0658Z" fill="#6D707A"/>
<path d="M13.5295 16.4048C13.2996 16.7378 13.0472 17.0097 12.319 16.9715C12.2496 16.9677 12.1825 16.9658 12.1172 16.9658C11.2555 16.9658 10.7237 17.288 10.2595 18.0728C9.82637 18.8052 9.82187 19.1438 9.89462 19.2995C10.0525 19.6366 10.8561 19.7671 11.707 19.9051C12.4154 20.0202 13.2179 20.1503 13.9791 20.4357C15.6276 21.0545 16.2839 20.8576 16.9071 19.5627C17.371 18.599 16.9191 18.1351 16.2936 17.4935C16.1249 17.3202 15.9501 17.141 15.7907 16.9452C15.6711 16.7975 15.5627 16.6546 15.4611 16.52C14.9234 15.8071 14.758 15.6297 14.1602 15.8813C13.7804 16.0415 13.6585 16.2181 13.5291 16.4052L13.5295 16.4048Z" fill="#6D707A"/>
<path d="M11.5433 14.5046C11.7057 14.5178 11.8707 14.5313 12.0376 14.5463C12.4917 14.5883 12.8112 14.5084 12.9848 14.3108C13.1888 14.0786 13.2353 13.6294 13.1127 13.0778C12.9473 12.3326 13.3535 12.0619 13.5957 11.8999C13.7648 11.787 13.8098 11.7461 13.8282 11.6363C13.8327 11.6104 13.8443 11.5249 13.8185 11.4998C13.8106 11.4919 13.6141 11.3164 12.6995 11.5121C12.4085 11.5744 12.2768 11.7465 12.0867 12.0218C11.8358 12.3851 11.492 12.882 10.5908 12.6836C10.4813 12.6596 10.3928 12.6499 10.3197 12.6499C10.1753 12.6499 10.094 12.6874 10.0415 12.7211C9.84609 12.8456 9.68971 13.1711 9.57609 13.689C9.52021 13.9448 9.58884 14.0381 9.61134 14.0685C9.83184 14.3659 10.7022 14.4364 11.5437 14.5046H11.5433Z" fill="#6D707A"/>
<path d="M7.41262 15.8245C7.82212 16.1211 8.17612 16.2295 8.38537 16.1245C8.51812 16.057 8.57849 15.9089 8.57887 15.8249C8.55637 15.7562 8.33399 15.5376 8.15512 15.3617C7.79174 15.0047 7.29487 14.5161 6.88349 13.7935C6.48449 13.0919 5.98574 12.8466 5.68799 12.7607C5.68012 13.0067 5.76524 13.4365 6.01949 13.99C6.37012 14.7524 6.90337 15.4555 7.41262 15.8245Z" fill="#6D707A"/>
</svg>
