<svg width="24" height="25" viewBox="0 0 24 25" fill="none" xmlns="http://www.w3.org/2000/svg">
<path d="M15.75 1.25H6.75C4.67925 1.25 3 2.92925 3 5V17.75C3 19.8207 4.67925 21.5 6.75 21.5H15V19.1667C14.0737 18.2195 13.5 16.9257 13.5 15.5C13.5 12.605 15.8558 10.25 18.75 10.25C19.005 10.25 19.254 10.2747 19.5 10.31V5C19.5 2.92925 17.8208 1.25 15.75 1.25ZM10.635 17.75H6.75C6.33525 17.75 6 17.414 6 17C6 16.586 6.33525 16.25 6.75 16.25H10.635C11.0498 16.25 11.385 16.586 11.385 17C11.385 17.414 11.0498 17.75 10.635 17.75ZM10.815 14H6.75C6.33525 14 6 13.664 6 13.25C6 12.836 6.33525 12.5 6.75 12.5H10.815C11.2297 12.5 11.565 12.836 11.565 13.25C11.565 13.664 11.2297 14 10.815 14ZM13.0875 10.25H6.75C6.33525 10.25 6 9.914 6 9.5C6 9.086 6.33525 8.75 6.75 8.75H13.0875C13.5023 8.75 13.8375 9.086 13.8375 9.5C13.8375 9.914 13.5023 10.25 13.0875 10.25ZM15.75 6.5H6.75C6.33525 6.5 6 6.164 6 5.75C6 5.336 6.33525 5 6.75 5H15.75C16.1648 5 16.5 5.336 16.5 5.75C16.5 6.164 16.1648 6.5 15.75 6.5Z" fill="#6D707A"/>
<path d="M18.75 20.7505C17.9437 20.7505 17.1825 20.563 16.5 20.2383V22.999C16.5 23.5983 17.1675 23.9553 17.6663 23.623L18.75 22.9L19.8337 23.623C20.3325 23.9553 21 23.5983 21 22.999V20.2383C20.3175 20.563 19.5563 20.7505 18.75 20.7505Z" fill="#6D707A"/>
<path d="M18.75 19.25C20.8211 19.25 22.5 17.5711 22.5 15.5C22.5 13.4289 20.8211 11.75 18.75 11.75C16.6789 11.75 15 13.4289 15 15.5C15 17.5711 16.6789 19.25 18.75 19.25Z" fill="#6D707A"/>
</svg>
