<svg width="40" height="41" viewBox="0 0 40 41" fill="none" xmlns="http://www.w3.org/2000/svg">
<path d="M25.6046 19.1473L25.7894 18.8788C26.8921 17.276 27.4751 15.4006 27.4751 13.455V9.72128H23.4982V6.75H16.5016V9.72128H12.5247V13.455C12.5247 15.4005 13.1076 17.276 14.2104 18.8788L14.3952 19.1473L13.5759 20.5695C12.4166 22.5821 11.8037 24.8734 11.8037 27.1961V34.1822H18.828V38.1583H15.2471V40.5019H24.7528V38.1583H21.1717V34.1822H28.1961V27.1961C28.1961 24.8734 27.5832 22.582 26.4239 20.5695L25.6046 19.1473ZM18.8453 9.09365H21.1546V11.5378C21.1546 12.1745 20.6366 12.6925 20 12.6925C19.3633 12.6925 18.8454 12.1745 18.8454 11.5378L18.8453 9.09365ZM14.8684 12.0649H16.5413C16.7962 13.7448 18.2502 15.0362 20 15.0362C21.7499 15.0362 23.2038 13.7448 23.4587 12.0649H25.1316V13.455C25.1316 14.924 24.6914 16.3401 23.8587 17.5503L23.6044 17.92H16.3957L16.1413 17.5503C15.3086 16.3401 14.8685 14.9239 14.8685 13.455V12.0649H14.8684ZM25.8524 31.8385H14.1474V27.1961C14.1474 25.2835 14.652 23.3966 15.6068 21.7394L16.4568 20.2637H23.543L24.3931 21.7394C25.3478 23.3965 25.8524 25.2834 25.8524 27.1961V31.8385Z" fill="#242733"/>
<path d="M0.000854492 0.5V40.5H7.81286V28.6032C7.81286 26.5965 6.91829 24.7951 5.50687 23.5765C8.11379 22.3462 9.9223 19.6918 9.9223 16.6232V2.84365H30.0777V16.6232C30.0777 19.6918 31.8861 22.3462 34.493 23.5764C33.0817 24.795 32.1871 26.5965 32.1871 28.6032V40.5001H39.9991V0.5L0.000854492 0.5ZM5.46921 38.1564H2.3445V24.469C4.14599 24.9803 5.46921 26.6401 5.46921 28.6032V38.1564ZM7.57865 16.6232C7.57865 19.5324 5.2404 21.9056 2.3445 21.962V2.84365H7.57865V16.6232ZM37.6553 38.1564H34.5306V28.6032C34.5306 26.6401 35.8538 24.9803 37.6553 24.469V38.1564ZM37.6553 21.962C34.7594 21.9056 32.4213 19.5324 32.4213 16.6232V2.84365H37.6553V21.962Z" fill="#242733"/>
</svg>
