<svg width="1101" height="342" viewBox="0 0 1101 342" fill="none" xmlns="http://www.w3.org/2000/svg">
<g opacity="0.3">
<path d="M62.055 261.446C62.055 261.446 59.602 259.37 54.129 259.181C48.656 258.992 44.694 259.936 43.939 259.936C43.184 259.936 39.976 259.747 39.033 259.559C38.089 259.37 32.239 255.974 32.239 255.974L17.709 281.827L63.699 310.76C65.447 311.86 67.771 311.773 69.28 310.363C69.391 310.26 69.499 310.148 69.603 310.029C71.271 308.123 70 306.058 70 306.058C70 306.058 74.466 308.663 77.115 305.946C79.725 303.269 78.339 300.34 78.339 300.34C78.339 300.34 81.913 301.69 84.295 299.784C86.677 297.878 85.327 293.987 85.327 293.987C85.327 293.987 89.059 294.384 90.251 292.319C91.442 290.254 90.489 287.475 90.489 287.475L62.055 261.446Z" fill="white" stroke="#242733" stroke-miterlimit="10" stroke-linecap="round" stroke-linejoin="round"/>
<path d="M35.3586 290.256L30.0626 295.743C28.3596 297.508 25.5486 297.558 23.7846 295.855C22.0206 294.152 21.9696 291.342 23.6726 289.577L28.9686 284.089C30.6716 282.325 33.4826 282.274 35.2466 283.977C37.0116 285.681 37.0616 288.491 35.3586 290.256Z" fill="white" stroke="#242733" stroke-miterlimit="10" stroke-linecap="round" stroke-linejoin="round"/>
<path d="M44.8932 293.18L37.0512 301.306C35.3482 303.07 32.5372 303.121 30.7732 301.418C29.0082 299.715 28.9582 296.905 30.6612 295.14L38.5032 287.014C40.2062 285.25 43.0172 285.199 44.7812 286.902C46.5452 288.604 46.5952 291.415 44.8932 293.18Z" fill="white" stroke="#242733" stroke-miterlimit="10" stroke-linecap="round" stroke-linejoin="round"/>
<path d="M51.3397 299.628L43.4977 307.754C41.7947 309.518 38.9847 309.568 37.2197 307.866C35.4557 306.163 35.4057 303.352 37.1077 301.588L44.9497 293.462C46.6527 291.698 49.4637 291.647 51.2277 293.35C52.9927 295.053 53.0427 297.863 51.3397 299.628Z" fill="white" stroke="#242733" stroke-miterlimit="10" stroke-linecap="round" stroke-linejoin="round"/>
<path d="M57.1449 306.433L53.0509 310.675C51.3479 312.439 48.5369 312.49 46.7729 310.787C45.0089 309.084 44.9579 306.273 46.6609 304.509L50.7549 300.267C52.4579 298.503 55.2679 298.452 57.0329 300.155C58.7979 301.858 58.8479 304.669 57.1449 306.433Z" fill="white" stroke="#242733" stroke-miterlimit="10" stroke-linecap="round" stroke-linejoin="round"/>
<path d="M70.0001 306.058L59.3281 297.784" stroke="#242733" stroke-miterlimit="10" stroke-linecap="round" stroke-linejoin="round"/>
<path d="M78.3288 300.455L66.5918 291.225" stroke="#242733" stroke-miterlimit="10" stroke-linecap="round" stroke-linejoin="round"/>
<path d="M85.9831 294.582L74.2461 285.352" stroke="#242733" stroke-miterlimit="10" stroke-linecap="round" stroke-linejoin="round"/>
<path d="M99.7962 248.991L77.1512 262.767C77.1512 262.767 65.4513 256.351 62.2432 258.427C59.0352 260.503 52.6192 264.466 50.5432 265.598C48.4672 266.73 44.6932 267.108 46.0142 269.938C47.3352 272.769 50.3542 272.391 54.1282 272.769C57.9022 273.147 66.5832 268.806 66.5832 268.806L90.6242 287.511L114.778 272.981L99.7962 248.991Z" fill="white" stroke="#242733" stroke-miterlimit="10" stroke-linecap="round" stroke-linejoin="round"/>
<path d="M84.9766 257.756L99.1606 282.194L114.78 272.98L99.7956 248.991L84.9766 257.756Z" fill="#3CBBC9" stroke="#242733" stroke-miterlimit="10" stroke-linecap="round" stroke-linejoin="round"/>
<path d="M89.2148 251.226L106.588 281.015L123.921 271.42L106.506 241L89.2148 251.226Z" fill="#3CBBC9" stroke="#242733" stroke-miterlimit="10" stroke-linecap="round" stroke-linejoin="round"/>
<path d="M101.895 277.665C101.895 278.467 101.245 279.118 100.443 279.118C99.6412 279.118 98.9902 278.468 98.9902 277.665C98.9902 276.863 99.6402 276.212 100.443 276.212C101.245 276.212 101.895 276.863 101.895 277.665Z" fill="white" stroke="#242733" stroke-miterlimit="10" stroke-linecap="round" stroke-linejoin="round"/>
<path d="M36.4195 255.991L23.7695 248.411L5.53127 278.848L18.1812 286.428L36.4195 255.991Z" fill="white" stroke="#242733" stroke-miterlimit="10" stroke-linecap="round" stroke-linejoin="round"/>
<path d="M31.8883 253.335L19.2383 245.755L1.00052 276.191L13.6505 283.771L31.8883 253.335Z" fill="#242733" stroke="#242733" stroke-miterlimit="10" stroke-linecap="round" stroke-linejoin="round"/>
<path d="M12.2873 279.607C13.0273 279.607 13.6273 279.007 13.6273 278.267C13.6273 277.527 13.0273 276.927 12.2873 276.927C11.5472 276.927 10.9473 277.527 10.9473 278.267C10.9473 279.007 11.5472 279.607 12.2873 279.607Z" fill="white" stroke="#242733" stroke-miterlimit="10" stroke-linecap="round" stroke-linejoin="round"/>
<path d="M10.3948 276.06C10.3948 276.8 9.79484 277.4 9.05484 277.4C8.31484 277.4 7.71484 276.8 7.71484 276.06C7.71484 275.32 8.31484 274.72 9.05484 274.72C9.79484 274.72 10.3948 275.319 10.3948 276.06Z" fill="white" stroke="#242733" stroke-miterlimit="10" stroke-linecap="round" stroke-linejoin="round"/>
<path d="M43.5304 338.032V327.127H41.5234V325.431H47.8094V327.127H45.8334V338.032H43.5304Z" fill="#242733"/>
<path d="M48.9609 338.032V325.43H51.9789C52.8289 325.43 53.5479 325.531 54.1339 325.734C54.7199 325.936 55.1659 326.281 55.4719 326.768C55.7779 327.255 55.9309 327.919 55.9309 328.759C55.9309 329.268 55.8839 329.724 55.7909 330.128C55.6979 330.532 55.5399 330.878 55.3159 331.163C55.0929 331.448 54.7849 331.668 54.3909 331.824L56.1489 338.031H53.8459L52.3219 332.26H51.2639V338.031H48.9609V338.032ZM51.2639 330.813H51.9799C52.4259 330.813 52.7809 330.749 53.0449 330.619C53.3099 330.489 53.4989 330.282 53.6129 329.997C53.7269 329.712 53.7839 329.346 53.7839 328.9C53.7839 328.267 53.6669 327.793 53.4339 327.476C53.2009 327.16 52.7569 327.001 52.1039 327.001H51.2639V330.813Z" fill="#242733"/>
<path d="M61.0958 338.203C60.1618 338.203 59.4358 338.032 58.9178 337.69C58.3988 337.347 58.0418 336.86 57.8448 336.227C57.6478 335.595 57.5488 334.837 57.5488 333.956V325.431H59.7898V334.221C59.7898 334.616 59.8148 334.986 59.8678 335.333C59.9198 335.681 60.0408 335.961 60.2338 336.173C60.4248 336.386 60.7128 336.492 61.0968 336.492C61.5008 336.492 61.7938 336.386 61.9758 336.173C62.1578 335.961 62.2768 335.681 62.3338 335.333C62.3908 334.985 62.4198 334.615 62.4198 334.221V325.431H64.6448V333.956C64.6448 334.838 64.5458 335.596 64.3488 336.227C64.1518 336.86 63.7968 337.347 63.2838 337.69C62.7688 338.032 62.0398 338.203 61.0958 338.203Z" fill="#242733"/>
<path d="M69.6217 338.203C68.8647 338.203 68.2317 338.056 67.7237 337.76C67.2157 337.465 66.8317 337.032 66.5727 336.461C66.3127 335.891 66.1677 335.19 66.1367 334.36L68.1127 333.971C68.1337 334.459 68.1927 334.889 68.2917 335.263C68.3907 335.636 68.5407 335.924 68.7427 336.126C68.9457 336.328 69.2117 336.429 69.5437 336.429C69.9177 336.429 70.1817 336.318 70.3367 336.095C70.4927 335.872 70.5697 335.589 70.5697 335.247C70.5697 334.697 70.4457 334.246 70.1967 333.893C69.9477 333.541 69.6157 333.187 69.2007 332.834L67.6137 331.434C67.1677 331.051 66.8127 330.623 66.5487 330.151C66.2837 329.679 66.1517 329.096 66.1517 328.401C66.1517 327.405 66.4417 326.637 67.0227 326.098C67.6037 325.559 68.3967 325.289 69.4027 325.289C69.9937 325.289 70.4867 325.38 70.8807 325.56C71.2747 325.742 71.5887 325.994 71.8217 326.315C72.0547 326.636 72.2287 327.003 72.3427 327.412C72.4567 327.822 72.5297 328.255 72.5607 328.711L70.6007 329.054C70.5797 328.659 70.5357 328.307 70.4687 327.996C70.4017 327.684 70.2817 327.441 70.1107 327.264C69.9397 327.087 69.6877 326.999 69.3567 326.999C69.0147 326.999 68.7527 327.11 68.5707 327.334C68.3887 327.557 68.2987 327.834 68.2987 328.166C68.2987 328.592 68.3867 328.941 68.5637 329.216C68.7397 329.491 68.9937 329.774 69.3257 330.064L70.8967 331.449C71.4157 331.885 71.8587 332.396 72.2267 332.982C72.5947 333.568 72.7797 334.276 72.7797 335.105C72.7797 335.707 72.6477 336.241 72.3827 336.708C72.1177 337.175 71.7497 337.54 71.2787 337.805C70.8067 338.071 70.2537 338.203 69.6217 338.203Z" fill="#242733"/>
<path d="M75.3918 338.032V327.127H73.3848V325.431H79.6708V327.127H77.6948V338.032H75.3918Z" fill="#242733"/>
<path d="M221.242 151.634L209.516 173.245L238.905 221.659L275.972 199.158L246.583 150.744L221.242 151.634ZM227.82 161.617C226.358 162.505 224.453 162.039 223.565 160.577C222.677 159.115 223.143 157.21 224.605 156.322C226.067 155.434 227.972 155.9 228.86 157.362C229.748 158.824 229.282 160.729 227.82 161.617Z" fill="#3CBBC9" stroke="#242733" stroke-miterlimit="10" stroke-linecap="round" stroke-linejoin="round"/>
<path d="M258.824 176.019C253.371 167.037 241.67 164.175 232.687 169.628C223.705 175.081 220.843 186.783 226.296 195.765C231.749 204.747 243.451 207.609 252.433 202.156C261.416 196.703 264.277 185.001 258.824 176.019Z" fill="#242733"/>
<path d="M250.806 199.759L249.39 197.426C247.437 198.51 245.639 198.752 243.996 198.153C242.353 197.554 240.833 196.209 239.436 194.117L242.57 191.264C243.136 192.112 243.704 192.818 244.275 193.384C244.847 193.95 245.422 194.303 246.003 194.445C246.582 194.587 247.169 194.478 247.762 194.119C248.429 193.714 248.785 193.226 248.83 192.653C248.875 192.08 248.713 191.489 248.342 190.878C247.746 189.896 247.03 189.228 246.195 188.874C245.359 188.52 244.389 188.248 243.284 188.056L238.905 187.293C238.106 187.145 237.358 186.935 236.659 186.661C235.961 186.389 235.307 186 234.697 185.495C234.087 184.991 233.524 184.313 233.007 183.462C231.984 181.776 231.664 180.166 232.048 178.627C232.432 177.089 233.41 175.779 234.984 174.697L233.618 172.447L234.813 171.722L236.162 173.944C237.141 173.425 238.044 173.162 238.874 173.152C239.705 173.143 240.472 173.31 241.176 173.656C241.881 174.002 242.534 174.474 243.136 175.07C243.74 175.668 244.29 176.334 244.788 177.071L241.659 179.807C241.194 179.126 240.736 178.537 240.282 178.039C239.828 177.542 239.35 177.224 238.847 177.085C238.345 176.947 237.809 177.076 237.238 177.472C236.62 177.872 236.267 178.365 236.179 178.951C236.09 179.537 236.227 180.126 236.586 180.719C237.069 181.515 237.636 182.052 238.286 182.328C238.935 182.605 239.666 182.828 240.477 182.994L244.811 183.747C245.729 183.924 246.634 184.173 247.526 184.493C248.417 184.814 249.252 185.27 250.03 185.862C250.808 186.455 251.5 187.25 252.107 188.25C252.714 189.25 253.057 190.265 253.137 191.293C253.217 192.322 253.042 193.296 252.612 194.216C252.182 195.136 251.5 195.954 250.568 196.672L252.002 199.034L250.806 199.759Z" fill="white"/>
<path d="M225.641 156.778L204.156 144.785C201.852 143.586 199.082 143.775 196.969 145.252C194.839 146.74 193.724 149.265 194.058 151.84C194.387 154.386 196.082 156.533 198.425 157.42L214.198 164.169C214.272 164.201 214.348 164.221 214.424 164.24L215.777 161.671C215.66 161.567 215.529 161.475 215.377 161.41L199.546 154.638C198.183 154.121 197.22 152.901 197.033 151.454C196.84 149.968 197.459 148.568 198.687 147.711C199.904 146.863 201.441 146.753 202.732 147.425L224.178 159.397C224.667 159.669 225.242 159.64 225.688 159.369C225.903 159.239 226.088 159.053 226.219 158.818C226.623 158.095 226.364 157.182 225.641 156.778Z" fill="#242733"/>
<path d="M221.852 245.401V232.799H225.554C226.311 232.799 226.926 232.939 227.398 233.219C227.87 233.498 228.217 233.905 228.44 234.44C228.664 234.974 228.775 235.621 228.775 236.378C228.775 237.197 228.635 237.858 228.355 238.361C228.075 238.864 227.683 239.23 227.18 239.458C226.677 239.687 226.083 239.801 225.399 239.801H224.154V245.401H221.852ZM224.153 238.182H225.025C225.439 238.182 225.763 238.122 225.997 238.002C226.23 237.884 226.392 237.691 226.479 237.427C226.567 237.162 226.611 236.808 226.611 236.362C226.611 235.906 226.578 235.535 226.51 235.25C226.443 234.965 226.297 234.755 226.074 234.619C225.85 234.485 225.501 234.417 225.024 234.417H224.152V238.182H224.153Z" fill="#242733"/>
<path d="M229.984 245.401V232.799H233.002C233.853 232.799 234.571 232.9 235.157 233.102C235.743 233.304 236.188 233.649 236.495 234.137C236.801 234.624 236.954 235.287 236.954 236.128C236.954 236.636 236.907 237.093 236.813 237.497C236.72 237.901 236.562 238.246 236.338 238.531C236.115 238.816 235.807 239.037 235.413 239.192L237.171 245.4H234.868L233.344 239.628H232.285V245.4H229.984V245.401ZM232.286 238.182H233.002C233.448 238.182 233.804 238.117 234.068 237.988C234.333 237.858 234.522 237.651 234.636 237.365C234.75 237.08 234.807 236.715 234.807 236.268C234.807 235.635 234.691 235.162 234.457 234.844C234.224 234.529 233.78 234.37 233.127 234.37H232.286V238.182Z" fill="#242733"/>
<path d="M238.75 245.401V232.799H241.021V245.4H238.75V245.401Z" fill="#242733"/>
<path d="M246.352 245.572C245.429 245.572 244.706 245.39 244.182 245.027C243.658 244.665 243.292 244.17 243.085 243.542C242.877 242.915 242.773 242.191 242.773 241.372V236.875C242.773 236.015 242.877 235.268 243.085 234.635C243.292 234.003 243.657 233.515 244.182 233.173C244.705 232.83 245.429 232.659 246.352 232.659C247.223 232.659 247.905 232.806 248.398 233.102C248.89 233.398 249.241 233.821 249.448 234.371C249.656 234.921 249.76 235.559 249.76 236.284V237.342H247.551V236.253C247.551 235.9 247.532 235.579 247.496 235.288C247.46 234.998 247.361 234.767 247.2 234.597C247.04 234.425 246.761 234.34 246.368 234.34C245.973 234.34 245.685 234.431 245.505 234.612C245.323 234.794 245.206 235.038 245.154 235.344C245.102 235.651 245.077 235.995 245.077 236.379V241.855C245.077 242.312 245.113 242.688 245.185 242.983C245.257 243.279 245.39 243.503 245.582 243.652C245.774 243.803 246.036 243.878 246.368 243.878C246.752 243.878 247.024 243.788 247.184 243.607C247.345 243.425 247.446 243.184 247.488 242.883C247.529 242.582 247.551 242.245 247.551 241.871V240.735H249.76V241.747C249.76 242.494 249.661 243.155 249.464 243.73C249.267 244.306 248.922 244.757 248.43 245.084C247.936 245.408 247.243 245.572 246.352 245.572Z" fill="#242733"/>
<path d="M251.367 245.401V232.799H256.656V234.416H253.669V238.041H256.019V239.644H253.669V243.814H256.687V245.401H251.367Z" fill="#242733"/>
<path d="M873.733 126.88L867.586 115.21L856.982 122.549L868.087 79.5979L884.838 83.9289L873.733 126.88Z" fill="#3CBBC9" stroke="#242733" stroke-miterlimit="10" stroke-linecap="round" stroke-linejoin="round"/>
<path d="M883.616 126.88L889.763 115.21L900.366 122.549L889.261 79.5979L872.51 83.9289L883.616 126.88Z" fill="#3CBBC9" stroke="#242733" stroke-miterlimit="10" stroke-linecap="round" stroke-linejoin="round"/>
<path d="M905.023 67.454L910.343 60.454L902.519 56.453L904.263 47.84L895.476 47.631L893.324 39.11L885.318 42.733L879.672 36L874.025 42.733L866.019 39.11L863.866 47.632L855.08 47.842L856.824 56.454L849 60.455L854.321 67.454L849 74.453L856.825 78.455L855.081 87.068L863.868 87.277L866.02 95.798L874.026 92.174L879.672 98.908L885.318 92.174L893.325 95.797L895.478 87.275L904.264 87.066L902.519 78.454L910.344 74.452L905.023 67.454Z" fill="#242733"/>
<path d="M883.596 91.7273C897.009 89.5672 906.131 76.9431 903.971 63.5306C901.811 50.118 889.186 40.996 875.774 43.1561C862.361 45.3161 853.239 57.9402 855.399 71.3527C857.559 84.7653 870.184 93.8873 883.596 91.7273Z" fill="white" stroke="#242733" stroke-miterlimit="10" stroke-linecap="round" stroke-linejoin="round"/>
<path d="M882.441 84.7033C891.966 83.1662 898.442 74.1983 896.905 64.6728C895.368 55.1473 886.4 48.6715 876.874 50.2086C867.349 51.7456 860.873 60.7136 862.41 70.2391C863.947 79.7645 872.915 86.2404 882.441 84.7033Z" fill="#3CBBC9" stroke="#242733" stroke-miterlimit="10" stroke-linecap="round" stroke-linejoin="round"/>
<path d="M861.447 155.037C861.187 154.913 860.91 154.726 860.615 154.477C860.319 154.228 860.028 153.945 859.743 153.629C859.458 153.313 859.212 152.999 859.005 152.688C858.963 152.698 858.919 152.703 858.872 152.703C858.825 152.703 858.776 152.703 858.725 152.703C857.832 152.703 857.122 152.537 856.593 152.205C856.065 151.873 855.686 151.396 855.457 150.774C855.229 150.152 855.115 149.415 855.115 148.565V143.851C855.115 143 855.229 142.272 855.457 141.665C855.685 141.058 856.064 140.594 856.593 140.272C857.122 139.951 857.832 139.79 858.725 139.79C859.637 139.79 860.359 139.951 860.887 140.272C861.416 140.594 861.795 141.058 862.023 141.665C862.252 142.272 862.366 143 862.366 143.851V148.58C862.366 149.182 862.308 149.726 862.195 150.214C862.081 150.701 861.893 151.124 861.634 151.482C861.374 151.84 861.032 152.118 860.608 152.315C860.742 152.46 860.882 152.61 861.028 152.766C861.173 152.922 861.318 153.067 861.464 153.202C861.609 153.337 861.749 153.446 861.884 153.529L861.447 155.037ZM858.724 151.007C859.108 151.007 859.393 150.924 859.579 150.758C859.765 150.592 859.89 150.364 859.952 150.073C860.015 149.782 860.046 149.466 860.046 149.124V143.321C860.046 142.969 860.015 142.652 859.952 142.372C859.89 142.092 859.765 141.872 859.579 141.711C859.393 141.55 859.107 141.47 858.724 141.47C858.351 141.47 858.071 141.551 857.884 141.711C857.696 141.872 857.574 142.092 857.518 142.372C857.461 142.652 857.433 142.969 857.433 143.321V149.124C857.433 149.466 857.461 149.783 857.518 150.073C857.575 150.364 857.697 150.592 857.884 150.758C858.071 150.924 858.351 151.007 858.724 151.007Z" fill="#242733"/>
<path d="M867.53 152.703C866.596 152.703 865.87 152.532 865.351 152.19C864.833 151.848 864.475 151.36 864.278 150.728C864.081 150.096 863.982 149.338 863.982 148.457V139.932H866.223V148.722C866.223 149.116 866.248 149.487 866.3 149.834C866.352 150.182 866.474 150.462 866.666 150.674C866.857 150.887 867.145 150.993 867.529 150.993C867.933 150.993 868.226 150.887 868.408 150.674C868.59 150.462 868.709 150.182 868.765 149.834C868.823 149.486 868.851 149.116 868.851 148.722V139.932H871.076V148.457C871.076 149.339 870.977 150.096 870.78 150.728C870.584 151.361 870.228 151.848 869.715 152.19C869.202 152.532 868.473 152.703 867.53 152.703Z" fill="#242733"/>
<path d="M872.182 152.532L874.703 139.93H877.161L879.682 152.532H877.551L877.053 149.623H874.859L874.345 152.532H872.182ZM875.092 148.16H876.803L875.948 142.87L875.092 148.16Z" fill="#242733"/>
<path d="M880.879 152.532V139.93H883.181V150.945H886.231V152.532H880.879Z" fill="#242733"/>
<path d="M887.428 152.532V139.93H889.699V152.532H887.428Z" fill="#242733"/>
<path d="M892.904 152.532V141.626H890.896V139.93H897.181V141.626H895.206V152.532H892.904Z" fill="#242733"/>
<path d="M900.092 152.532V147.725L897.541 139.931H899.687L901.243 144.925L902.706 139.931H904.806L902.286 147.725V152.532H900.092Z" fill="#242733"/>
<path d="M1049.64 45.8979L1045.66 41.4839L1038.53 46.6659L1041.44 51.7119C1039.19 53.9319 1037.27 56.4909 1035.77 59.3079L1029.96 58.0749L1027.23 66.4599L1032.55 68.8309C1032.28 70.4969 1032.12 72.2059 1032.12 73.9509C1032.12 75.4309 1032.23 76.8839 1032.43 78.3089L1027 80.7309L1029.72 89.1159L1035.42 87.9079C1036.85 90.7629 1038.7 93.3669 1040.9 95.6389L1037.93 100.797L1045.06 105.979L1048.96 101.654C1051.73 103.098 1054.75 104.135 1057.93 104.692L1058.56 110.609H1067.37L1067.99 104.822C1071.19 104.344 1074.23 103.378 1077.04 102.004L1081.02 106.418L1088.15 101.236L1085.24 96.1899C1087.49 93.9699 1089.41 91.4109 1090.91 88.5939L1096.73 89.8269L1099.45 81.4419L1094.13 79.0709C1094.41 77.4049 1094.56 75.6959 1094.56 73.9509C1094.56 72.4709 1094.45 71.0179 1094.25 69.5929L1099.68 67.1709L1096.96 58.7859L1091.26 59.9939C1089.83 57.1389 1087.98 54.5349 1085.78 52.2629L1088.76 47.1059L1081.62 41.9239L1077.73 46.2489C1074.95 44.8049 1071.93 43.7679 1068.75 43.2109L1068.12 37.2939H1059.31L1058.7 43.0809C1057.16 43.3109 1055.65 43.6539 1054.19 44.1009M1081.32 86.0759C1077.43 91.8449 1070.83 95.6379 1063.34 95.6379C1051.36 95.6379 1041.65 85.9279 1041.65 73.9499C1041.65 61.9719 1051.36 52.2619 1063.34 52.2619C1075.32 52.2619 1085.03 61.9719 1085.03 73.9499C1085.03 76.0399 1084.73 78.0609 1084.18 79.9739" stroke="#242733" stroke-miterlimit="10"/>
<path d="M1057.18 84.441L1060.5 90.806L1053.58 116.541L1061.84 126.502L1070.18 116.739L1064.65 90.806L1068.85 85.548L1061.88 76.417L1057.18 84.441Z" fill="#3CBBC9" stroke="#242733" stroke-miterlimit="10" stroke-linecap="round" stroke-linejoin="round"/>
<path d="M1052.62 71.281L1047.78 75.221L1056.87 89.163L1063.54 80.98L1068.99 89.466L1079.72 76.593L1075.36 71.281H1052.62Z" fill="#242733" stroke="#242733" stroke-miterlimit="10" stroke-linecap="round" stroke-linejoin="round"/>
<path d="M1075.36 71.2811L1063.54 80.9801L1052.62 71.2811V54.6101H1075.36V71.2811Z" fill="white" stroke="#242733" stroke-miterlimit="10" stroke-linecap="round" stroke-linejoin="round"/>
<path d="M1049.41 32.806C1049.41 24.629 1056.04 18 1064.21 18H1067.4C1075.57 18 1082.2 24.629 1082.2 32.806V44.002" stroke="#242733" stroke-miterlimit="10" stroke-linecap="round" stroke-linejoin="round"/>
<path d="M1067.23 66.4679H1060.14C1053.04 66.4679 1047.29 60.7129 1047.29 53.6149V35.0959C1047.29 27.9969 1053.04 22.2429 1060.14 22.2429H1067.23C1074.33 22.2429 1080.08 27.9979 1080.08 35.0959V53.6149C1080.08 60.7139 1074.33 66.4679 1067.23 66.4679Z" fill="white" stroke="#242733" stroke-miterlimit="10" stroke-linecap="round" stroke-linejoin="round"/>
<path d="M1080.08 47.6389V37.0489C1080.08 28.8719 1073.45 22.2429 1065.28 22.2429H1062.09C1056.2 22.2429 1051.13 25.6889 1048.75 30.6659H1074.15C1074.15 30.6659 1071.42 33.9999 1072.63 37.3339C1073.84 40.6679 1075.66 42.1829 1075.66 42.1829V47.6389H1080.08Z" fill="#242733" stroke="#242733" stroke-miterlimit="10" stroke-linecap="round" stroke-linejoin="round"/>
<path d="M1082.51 52.1861H1081.55C1079.8 52.1861 1078.39 50.7721 1078.39 49.0281V38.9761C1078.39 37.2321 1079.8 35.8191 1081.55 35.8191H1082.51C1084.25 35.8191 1085.66 37.2331 1085.66 38.9761V49.0281C1085.66 50.7721 1084.25 52.1861 1082.51 52.1861Z" fill="#3CBBC9" stroke="#242733" stroke-miterlimit="10" stroke-linecap="round" stroke-linejoin="round"/>
<path d="M1080.08 51.6631C1080.08 51.6631 1074.45 61.8851 1061.42 62.7941" stroke="#242733" stroke-miterlimit="10" stroke-linecap="round" stroke-linejoin="round"/>
<path d="M1061.26 64.9161C1062.35 64.9161 1063.23 64.0341 1063.23 62.9461C1063.23 61.8581 1062.35 60.9761 1061.26 60.9761C1060.17 60.9761 1059.29 61.8581 1059.29 62.9461C1059.29 64.0341 1060.17 64.9161 1061.26 64.9161Z" fill="#3CBBC9" stroke="#242733" stroke-miterlimit="10" stroke-linecap="round" stroke-linejoin="round"/>
<path d="M1040.24 143.937C1039.48 143.937 1038.85 143.79 1038.34 143.494C1037.83 143.199 1037.45 142.765 1037.19 142.195C1036.93 141.625 1036.79 140.924 1036.76 140.094L1038.73 139.705C1038.75 140.193 1038.81 140.623 1038.91 140.996C1039.01 141.369 1039.16 141.657 1039.36 141.859C1039.57 142.061 1039.83 142.162 1040.16 142.162C1040.54 142.162 1040.8 142.051 1040.96 141.828C1041.11 141.605 1041.19 141.323 1041.19 140.98C1041.19 140.43 1041.07 139.979 1040.82 139.626C1040.57 139.274 1040.24 138.92 1039.82 138.568L1038.23 137.168C1037.79 136.785 1037.43 136.357 1037.17 135.885C1036.9 135.413 1036.77 134.83 1036.77 134.134C1036.77 133.138 1037.06 132.371 1037.64 131.832C1038.22 131.292 1039.02 131.023 1040.02 131.023C1040.62 131.023 1041.11 131.114 1041.5 131.295C1041.9 131.477 1042.21 131.729 1042.44 132.05C1042.68 132.371 1042.85 132.737 1042.96 133.147C1043.08 133.557 1043.15 133.99 1043.18 134.446L1041.22 134.788C1041.2 134.394 1041.16 134.041 1041.09 133.73C1041.02 133.419 1040.9 133.175 1040.73 132.999C1040.56 132.823 1040.31 132.735 1039.98 132.735C1039.63 132.735 1039.37 132.846 1039.19 133.07C1039.01 133.293 1038.92 133.571 1038.92 133.902C1038.92 134.328 1039.01 134.677 1039.18 134.952C1039.36 135.227 1039.62 135.51 1039.95 135.8L1041.52 137.185C1042.04 137.621 1042.48 138.132 1042.85 138.718C1043.22 139.304 1043.4 140.012 1043.4 140.842C1043.4 141.443 1043.27 141.978 1043 142.444C1042.74 142.911 1042.37 143.276 1041.9 143.541C1041.43 143.805 1040.87 143.937 1040.24 143.937Z" fill="#242733"/>
<path d="M1048.21 143.937C1047.27 143.937 1046.55 143.766 1046.03 143.424C1045.51 143.082 1045.15 142.594 1044.96 141.962C1044.76 141.33 1044.66 140.572 1044.66 139.691V131.166H1046.9V139.956C1046.9 140.35 1046.93 140.721 1046.98 141.068C1047.03 141.416 1047.15 141.695 1047.34 141.908C1047.53 142.121 1047.82 142.227 1048.21 142.227C1048.61 142.227 1048.9 142.121 1049.09 141.908C1049.27 141.696 1049.39 141.416 1049.44 141.068C1049.5 140.72 1049.53 140.35 1049.53 139.956V131.166H1051.75V139.691C1051.75 140.573 1051.66 141.33 1051.46 141.962C1051.26 142.595 1050.91 143.082 1050.39 143.424C1049.88 143.766 1049.15 143.937 1048.21 143.937Z" fill="#242733"/>
<path d="M1053.56 143.766V131.164H1057.26C1058.02 131.164 1058.63 131.304 1059.11 131.584C1059.58 131.864 1059.92 132.271 1060.15 132.805C1060.37 133.339 1060.48 133.985 1060.48 134.742C1060.48 135.561 1060.34 136.222 1060.06 136.725C1059.78 137.229 1059.39 137.594 1058.89 137.822C1058.38 138.05 1057.79 138.164 1057.11 138.164H1055.86V143.765H1053.56V143.766ZM1055.86 136.547H1056.73C1057.15 136.547 1057.47 136.488 1057.71 136.368C1057.94 136.249 1058.1 136.057 1058.19 135.793C1058.28 135.528 1058.32 135.173 1058.32 134.727C1058.32 134.271 1058.29 133.9 1058.22 133.615C1058.15 133.33 1058.01 133.12 1057.78 132.985C1057.56 132.851 1057.21 132.783 1056.73 132.783H1055.86V136.547H1055.86Z" fill="#242733"/>
<path d="M1061.7 143.766V131.164H1065.4C1066.16 131.164 1066.77 131.304 1067.24 131.584C1067.71 131.864 1068.06 132.271 1068.28 132.805C1068.51 133.339 1068.62 133.985 1068.62 134.742C1068.62 135.561 1068.48 136.222 1068.2 136.725C1067.92 137.229 1067.53 137.594 1067.02 137.822C1066.52 138.05 1065.93 138.164 1065.24 138.164H1064V143.765H1061.7V143.766ZM1064 136.547H1064.87C1065.28 136.547 1065.61 136.488 1065.84 136.368C1066.08 136.249 1066.24 136.057 1066.32 135.793C1066.41 135.528 1066.46 135.173 1066.46 134.727C1066.46 134.271 1066.42 133.9 1066.35 133.615C1066.29 133.33 1066.14 133.12 1065.92 132.985C1065.7 132.851 1065.35 132.783 1064.87 132.783H1064V136.547Z" fill="#242733"/>
<path d="M1073.32 143.937C1072.42 143.937 1071.72 143.771 1071.19 143.439C1070.66 143.107 1070.28 142.63 1070.05 142.008C1069.82 141.385 1069.71 140.649 1069.71 139.798V135.084C1069.71 134.233 1069.82 133.505 1070.05 132.898C1070.28 132.292 1070.66 131.827 1071.19 131.505C1071.71 131.184 1072.42 131.023 1073.32 131.023C1074.23 131.023 1074.95 131.184 1075.47 131.505C1076 131.827 1076.37 132.291 1076.61 132.898C1076.84 133.505 1076.96 134.233 1076.96 135.084V139.814C1076.96 140.654 1076.84 141.383 1076.61 142C1076.37 142.617 1076 143.094 1075.47 143.431C1074.95 143.769 1074.23 143.937 1073.32 143.937ZM1073.32 142.241C1073.7 142.241 1073.98 142.159 1074.17 141.992C1074.35 141.826 1074.47 141.598 1074.53 141.308C1074.59 141.017 1074.62 140.701 1074.62 140.359V134.556C1074.62 134.204 1074.59 133.887 1074.53 133.607C1074.47 133.327 1074.35 133.106 1074.17 132.946C1073.98 132.785 1073.7 132.705 1073.32 132.705C1072.95 132.705 1072.68 132.785 1072.49 132.946C1072.31 133.107 1072.18 133.327 1072.12 133.607C1072.06 133.887 1072.03 134.204 1072.03 134.556V140.359C1072.03 140.701 1072.05 141.018 1072.11 141.308C1072.17 141.598 1072.29 141.826 1072.48 141.992C1072.66 142.159 1072.94 142.241 1073.32 142.241Z" fill="#242733"/>
<path d="M1078.65 143.766V131.164H1081.67C1082.52 131.164 1083.24 131.265 1083.83 131.467C1084.41 131.669 1084.86 132.014 1085.16 132.502C1085.47 132.989 1085.62 133.653 1085.62 134.493C1085.62 135.001 1085.58 135.458 1085.48 135.862C1085.39 136.266 1085.23 136.611 1085.01 136.897C1084.78 137.182 1084.48 137.402 1084.08 137.558L1085.84 143.766H1083.54L1082.01 137.994H1080.96V143.766H1078.65ZM1080.96 136.547H1081.67C1082.12 136.547 1082.47 136.482 1082.74 136.353C1083 136.223 1083.19 136.016 1083.3 135.73C1083.42 135.445 1083.48 135.079 1083.48 134.633C1083.48 134 1083.36 133.526 1083.12 133.209C1082.89 132.893 1082.45 132.735 1081.79 132.735H1080.95V136.547H1080.96Z" fill="#242733"/>
<path d="M1088.58 143.766V132.86H1086.57V131.164H1092.86V132.86H1090.88V143.766H1088.58Z" fill="#242733"/>
<path d="M138.306 31.1875H128.758V58.2605H138.306V31.1875Z" fill="white" stroke="#242733" stroke-miterlimit="10" stroke-linecap="round" stroke-linejoin="round"/>
<path d="M130.856 28.6855H118.117V60.7635H130.856V28.6855Z" fill="#242733" stroke="#242733" stroke-miterlimit="10" stroke-linecap="round" stroke-linejoin="round"/>
<path d="M166.632 61.9845H138.939C136.414 61.9845 134.367 59.9375 134.367 57.4125L138.305 31.1885C138.305 28.6635 140.352 26.6165 142.877 26.6165H166.632C169.815 26.6165 172.395 29.1965 172.395 32.3795V56.2215C172.395 59.4035 169.815 61.9845 166.632 61.9845Z" fill="white" stroke="#242733" stroke-miterlimit="10" stroke-linecap="round" stroke-linejoin="round"/>
<path d="M136.226 47.0924C136.226 47.0924 134.896 28.7434 141.545 23.9564C148.193 19.1694 152.448 13.3194 152.448 9.33045C152.448 5.34145 159.096 6.13945 158.83 12.7874C158.564 19.4354 154.043 27.4134 153.511 29.0094C152.979 30.6054 159.096 40.9764 152.447 49.2204" fill="white"/>
<path d="M136.226 47.0924C136.226 47.0924 134.896 28.7434 141.545 23.9564C148.193 19.1694 152.448 13.3194 152.448 9.33045C152.448 5.34145 159.096 6.13945 158.83 12.7874C158.564 19.4354 154.043 27.4134 153.511 29.0094C152.979 30.6054 159.096 40.9764 152.447 49.2204" stroke="#242733" stroke-miterlimit="10" stroke-linecap="round" stroke-linejoin="round"/>
<path d="M180.439 32.7313H165.793C164.151 32.7313 162.82 31.4003 162.82 29.7593V26.3963C162.82 24.7543 164.151 23.4243 165.793 23.4243H180.439C182.081 23.4243 183.412 24.7553 183.412 26.3963V29.7593C183.411 31.4003 182.08 32.7313 180.439 32.7313Z" fill="white" stroke="#242733" stroke-miterlimit="10" stroke-linecap="round" stroke-linejoin="round"/>
<path d="M178.041 42.3055H163.395C161.753 42.3055 160.422 40.9745 160.422 39.3335V35.9705C160.422 34.3285 161.753 32.9985 163.395 32.9985H178.041C179.683 32.9985 181.013 34.3295 181.013 35.9705V39.3335C181.013 40.9745 179.682 42.3055 178.041 42.3055Z" fill="white" stroke="#242733" stroke-miterlimit="10" stroke-linecap="round" stroke-linejoin="round"/>
<path d="M178.041 51.3466H163.395C161.753 51.3466 160.422 50.0156 160.422 48.3736V45.0116C160.422 43.3696 161.753 42.0386 163.395 42.0386H178.041C179.683 42.0386 181.013 43.3696 181.013 45.0116V48.3736C181.013 50.0156 179.682 51.3466 178.041 51.3466Z" fill="white" stroke="#242733" stroke-miterlimit="10" stroke-linecap="round" stroke-linejoin="round"/>
<path d="M173.751 58.9074H162.143C160.649 58.9074 159.438 57.6964 159.438 56.2024V53.9194C159.438 52.4254 160.649 51.2144 162.143 51.2144H173.751C175.245 51.2144 176.456 52.4254 176.456 53.9194V56.2024C176.456 57.6954 175.245 58.9074 173.751 58.9074Z" fill="white" stroke="#242733" stroke-miterlimit="10" stroke-linecap="round" stroke-linejoin="round"/>
<path d="M182.597 2.01338C183.949 3.36538 183.948 5.55838 182.595 6.90838L182.121 7.38138L177.229 12.2794L172.331 7.38138L171.858 6.90838C170.507 5.55738 170.505 3.36737 171.856 2.01537C173.207 0.662375 175.401 0.661376 176.753 2.01338L177.229 2.48937L177.701 2.01537C179.052 0.662375 181.245 0.661376 182.597 2.01338Z" fill="#3CBBC9" stroke="#242733" stroke-miterlimit="10" stroke-linecap="round" stroke-linejoin="round"/>
<path d="M124.61 20.2514C126.981 22.6224 126.979 26.4674 124.605 28.8354L123.774 29.6644L115.196 38.2534L106.607 29.6644L105.778 28.8344C103.409 26.4654 103.407 22.6244 105.774 20.2534C108.144 17.8804 111.989 17.8794 114.36 20.2504L115.196 21.0854L116.024 20.2544C118.394 17.8824 122.239 17.8804 124.61 20.2514Z" fill="#3CBBC9" stroke="#242733" stroke-miterlimit="10" stroke-linecap="round" stroke-linejoin="round"/>
<path d="M199.062 53.6193C201.026 55.5833 201.024 58.7683 199.058 60.7303L198.37 61.4173L191.265 68.5313L184.151 61.4173L183.464 60.7303C181.502 58.7673 181.501 55.5863 183.462 53.6223C185.425 51.6573 188.61 51.6563 190.574 53.6203L191.266 54.3123L191.953 53.6243C193.913 51.6573 197.098 51.6553 199.062 53.6193Z" fill="#3CBBC9" stroke="#242733" stroke-miterlimit="10" stroke-linecap="round" stroke-linejoin="round"/>
<path d="M114.704 86.4453C113.947 86.4453 113.314 86.2983 112.806 86.0023C112.298 85.7073 111.914 85.2733 111.655 84.7033C111.395 84.1333 111.25 83.4322 111.219 82.6022L113.195 82.2132C113.216 82.7012 113.275 83.1312 113.374 83.5042C113.473 83.8772 113.623 84.1653 113.825 84.3673C114.028 84.5693 114.294 84.6702 114.626 84.6702C115 84.6702 115.264 84.5593 115.419 84.3353C115.575 84.1123 115.652 83.8303 115.652 83.4873C115.652 82.9373 115.527 82.4863 115.278 82.1333C115.029 81.7803 114.697 81.4283 114.282 81.0753L112.695 79.6753C112.249 79.2923 111.894 78.8643 111.63 78.3923C111.365 77.9202 111.233 77.3372 111.233 76.6423C111.233 75.6463 111.523 74.8793 112.105 74.3403C112.685 73.8003 113.479 73.5312 114.485 73.5312C115.076 73.5312 115.569 73.6223 115.963 73.8033C116.357 73.9853 116.671 74.2373 116.904 74.5583C117.137 74.8793 117.311 75.2453 117.425 75.6553C117.539 76.0653 117.612 76.4983 117.643 76.9543L115.683 77.2962C115.662 76.9022 115.618 76.5493 115.551 76.2383C115.484 75.9273 115.364 75.6833 115.193 75.5073C115.022 75.3313 114.77 75.2433 114.439 75.2433C114.097 75.2433 113.834 75.3543 113.653 75.5773C113.471 75.8003 113.381 76.0783 113.381 76.4093C113.381 76.8353 113.469 77.1843 113.646 77.4593C113.822 77.7343 114.076 78.0173 114.408 78.3073L115.979 79.6923C116.498 80.1273 116.941 80.6393 117.309 81.2253C117.677 81.8113 117.862 82.5193 117.862 83.3483C117.862 83.9503 117.73 84.4843 117.465 84.9513C117.2 85.4183 116.832 85.7833 116.361 86.0483C115.888 86.3143 115.336 86.4453 114.704 86.4453Z" fill="#242733"/>
<path d="M118.516 86.2743L121.037 73.6733H123.495L126.015 86.2743H123.884L123.386 83.3653H121.193L120.679 86.2743H118.516ZM121.426 81.9033H123.137L122.282 76.6133L121.426 81.9033Z" fill="#242733"/>
<path d="M127.945 86.2744V75.3684H125.938V73.6724H132.224V75.3684H130.247V86.2744H127.945Z" fill="#242733"/>
<path d="M133.438 86.2743V73.6733H135.708V86.2743H133.438Z" fill="#242733"/>
<path d="M140.821 86.4453C140.064 86.4453 139.431 86.2983 138.923 86.0023C138.415 85.7073 138.031 85.2733 137.772 84.7033C137.512 84.1333 137.367 83.4322 137.336 82.6022L139.312 82.2132C139.333 82.7012 139.392 83.1312 139.491 83.5042C139.59 83.8772 139.74 84.1653 139.942 84.3673C140.145 84.5693 140.411 84.6702 140.743 84.6702C141.116 84.6702 141.381 84.5593 141.536 84.3353C141.692 84.1123 141.769 83.8303 141.769 83.4873C141.769 82.9373 141.645 82.4863 141.395 82.1333C141.147 81.7803 140.814 81.4283 140.399 81.0753L138.812 79.6753C138.366 79.2923 138.011 78.8643 137.747 78.3923C137.482 77.9202 137.35 77.3372 137.35 76.6423C137.35 75.6463 137.64 74.8793 138.222 74.3403C138.802 73.8003 139.596 73.5312 140.602 73.5312C141.193 73.5312 141.686 73.6223 142.08 73.8033C142.474 73.9853 142.788 74.2373 143.021 74.5583C143.254 74.8793 143.428 75.2453 143.542 75.6553C143.656 76.0653 143.729 76.4983 143.76 76.9543L141.8 77.2962C141.779 76.9022 141.735 76.5493 141.668 76.2383C141.601 75.9273 141.481 75.6833 141.31 75.5073C141.139 75.3313 140.887 75.2433 140.556 75.2433C140.214 75.2433 139.952 75.3543 139.77 75.5773C139.588 75.8003 139.498 76.0783 139.498 76.4093C139.498 76.8353 139.586 77.1843 139.763 77.4593C139.939 77.7343 140.193 78.0173 140.525 78.3073L142.096 79.6923C142.615 80.1273 143.058 80.6393 143.426 81.2253C143.794 81.8113 143.979 82.5193 143.979 83.3483C143.979 83.9503 143.847 84.4843 143.582 84.9513C143.317 85.4183 142.949 85.7833 142.477 86.0483C142.005 86.3143 141.453 86.4453 140.821 86.4453Z" fill="#242733"/>
<path d="M145.211 86.2743V73.6733H150.392V75.2593H147.514V78.9313H149.863V80.5343H147.514V86.2753L145.211 86.2743Z" fill="#242733"/>
<path d="M150.625 86.2743L153.146 73.6733H155.604L158.125 86.2743H155.994L155.496 83.3653H153.303L152.789 86.2743H150.625ZM153.535 81.9033H155.246L154.391 76.6133L153.535 81.9033Z" fill="#242733"/>
<path d="M162.641 86.4452C161.718 86.4452 160.993 86.2642 160.47 85.9012C159.946 85.5382 159.58 85.0432 159.373 84.4152C159.165 83.7882 159.062 83.0642 159.062 82.2452V77.7482C159.062 76.8882 159.166 76.1412 159.373 75.5082C159.58 74.8762 159.946 74.3882 160.47 74.0462C160.993 73.7042 161.718 73.5332 162.641 73.5332C163.512 73.5332 164.194 73.6802 164.686 73.9762C165.179 74.2712 165.528 74.6942 165.735 75.2442C165.942 75.7942 166.046 76.4322 166.046 77.1572V78.2152H163.837V77.1262C163.837 76.7732 163.82 76.4522 163.783 76.1612C163.747 75.8712 163.648 75.6402 163.488 75.4692C163.327 75.2982 163.048 75.2122 162.654 75.2122C162.26 75.2122 161.973 75.3032 161.792 75.4842C161.61 75.6662 161.493 75.9102 161.441 76.2152C161.389 76.5212 161.363 76.8662 161.363 77.2502V82.7262C161.363 83.1822 161.4 83.5582 161.473 83.8542C161.545 84.1502 161.677 84.3732 161.868 84.5232C162.06 84.6742 162.322 84.7492 162.654 84.7492C163.038 84.7492 163.31 84.6592 163.471 84.4772C163.632 84.2962 163.733 84.0552 163.775 83.7532C163.816 83.4522 163.837 83.1152 163.837 82.7422V81.6062H166.046V82.6172C166.046 83.3642 165.948 84.0252 165.751 84.6012C165.554 85.1772 165.208 85.6282 164.715 85.9552C164.224 86.2822 163.532 86.4452 162.641 86.4452Z" fill="#242733"/>
<path d="M168.905 86.2744V75.3684H166.898V73.6724H173.184V75.3684H171.208V86.2744H168.905Z" fill="#242733"/>
<path d="M174.398 86.2743V73.6733H176.669V86.2743H174.398Z" fill="#242733"/>
<path d="M182.039 86.4453C181.147 86.4453 180.436 86.2793 179.908 85.9473C179.379 85.6153 179 85.1383 178.772 84.5163C178.544 83.8943 178.43 83.1573 178.43 82.3063V77.5923C178.43 76.7413 178.544 76.0132 178.772 75.4062C179 74.8003 179.379 74.3353 179.908 74.0133C180.437 73.6923 181.147 73.5312 182.039 73.5312C182.952 73.5312 183.67 73.6923 184.194 74.0133C184.718 74.3353 185.096 74.7993 185.33 75.4062C185.563 76.0132 185.68 76.7413 185.68 77.5923V82.3213C185.68 83.1613 185.563 83.8903 185.33 84.5073C185.097 85.1243 184.718 85.6013 184.194 85.9383C183.67 86.2773 182.952 86.4453 182.039 86.4453ZM182.039 84.7503C182.423 84.7503 182.706 84.6673 182.887 84.5013C183.068 84.3353 183.19 84.1073 183.253 83.8163C183.315 83.5263 183.346 83.2093 183.346 82.8673V77.0643C183.346 76.7123 183.315 76.3952 183.253 76.1152C183.19 75.8352 183.068 75.6153 182.887 75.4543C182.705 75.2933 182.423 75.2132 182.039 75.2132C181.676 75.2132 181.401 75.2943 181.215 75.4543C181.028 75.6153 180.904 75.8352 180.841 76.1152C180.778 76.3952 180.748 76.7123 180.748 77.0643V82.8673C180.748 83.2093 180.776 83.5263 180.833 83.8163C180.89 84.1073 181.012 84.3353 181.199 84.5013C181.386 84.6673 181.666 84.7503 182.039 84.7503Z" fill="#242733"/>
<path d="M187.375 86.2743V73.6733H188.977L192.042 80.8613V73.6733H193.94V86.2743H192.415L189.334 78.7443V86.2743H187.375Z" fill="#242733"/>
<path d="M977.54 249.427C977.54 249.427 976.394 244.94 968.428 240.621C960.461 236.302 959.71 248.78 963.112 251.483C966.513 254.186 977.54 249.427 977.54 249.427Z" fill="#3CBBC9" stroke="#242733" stroke-miterlimit="10" stroke-linecap="round" stroke-linejoin="round"/>
<path d="M977.541 249.427C977.541 249.427 969.399 247.017 961.432 242.698C953.466 238.379 952.714 250.857 956.116 253.56C959.518 256.263 977.541 249.427 977.541 249.427Z" fill="#3CBBC9" stroke="#242733" stroke-miterlimit="10" stroke-linecap="round" stroke-linejoin="round"/>
<path d="M976.357 249.125C976.357 249.125 967.818 250.057 964.558 249.423C961.298 248.788 958.365 249.258 960.239 250.171C962.113 251.084 962.863 250.461 962.863 250.461" stroke="#242733" stroke-miterlimit="10" stroke-linecap="round" stroke-linejoin="round"/>
<path d="M980.951 248.414C980.951 248.414 979.462 244.029 983.781 236.062C988.1 228.095 995.539 238.141 994.163 242.263C992.788 246.385 980.951 248.414 980.951 248.414Z" fill="#3CBBC9" stroke="#242733" stroke-miterlimit="10" stroke-linecap="round" stroke-linejoin="round"/>
<path d="M980.951 248.414C980.951 248.414 986.459 241.951 990.778 233.985C995.097 226.018 1002.54 236.064 1001.16 240.186C999.784 244.308 980.951 248.414 980.951 248.414Z" fill="#3CBBC9" stroke="#242733" stroke-miterlimit="10" stroke-linecap="round" stroke-linejoin="round"/>
<path d="M981.777 247.516C981.777 247.516 989.441 243.638 991.827 241.327C994.213 239.016 996.927 237.809 995.855 239.597C994.783 241.385 993.814 241.271 993.814 241.271" stroke="#242733" stroke-miterlimit="10" stroke-linecap="round" stroke-linejoin="round"/>
<path d="M980.363 253.139C982.735 252.434 984.111 250.022 983.437 247.751C982.763 245.481 980.293 244.211 977.92 244.916C975.548 245.62 974.172 248.032 974.846 250.303C975.52 252.574 977.99 253.843 980.363 253.139Z" fill="#3CBBC9" stroke="#242733" stroke-miterlimit="10" stroke-linecap="round" stroke-linejoin="round"/>
<path d="M1010.11 240.026L948 258.467L963.243 309.809L1025.36 291.368L1010.11 240.026Z" fill="white" stroke="#242733" stroke-miterlimit="10" stroke-linecap="round" stroke-linejoin="round"/>
<path d="M987.038 246.877L971.076 251.616L986.319 302.958L1002.28 298.219L987.038 246.877Z" fill="#3CBBC9" stroke="#242733" stroke-miterlimit="10" stroke-linecap="round" stroke-linejoin="round"/>
<path d="M1036.97 257.036C1036.97 257.036 1038.6 252.7 1034.54 244.6C1030.48 236.5 1022.72 246.302 1023.96 250.466C1025.21 254.63 1036.97 257.036 1036.97 257.036Z" fill="#3CBBC9" stroke="#242733" stroke-miterlimit="10" stroke-linecap="round" stroke-linejoin="round"/>
<path d="M1036.97 257.036C1036.97 257.036 1031.67 250.4 1027.61 242.3C1023.55 234.2 1015.79 244.002 1017.04 248.166C1018.28 252.33 1036.97 257.036 1036.97 257.036Z" fill="#3CBBC9" stroke="#242733" stroke-miterlimit="10" stroke-linecap="round" stroke-linejoin="round"/>
<path d="M1036.17 256.112C1036.17 256.112 1028.64 251.991 1026.33 249.604C1024.02 247.218 1021.34 245.925 1022.36 247.746C1023.37 249.567 1024.34 249.485 1024.34 249.485" stroke="#242733" stroke-miterlimit="10" stroke-linecap="round" stroke-linejoin="round"/>
<path d="M1040.35 258.157C1040.35 258.157 1041.64 253.709 1049.74 249.647C1057.84 245.585 1058.19 258.08 1054.7 260.673C1051.22 263.266 1040.35 258.157 1040.35 258.157Z" fill="#3CBBC9" stroke="#242733" stroke-miterlimit="10" stroke-linecap="round" stroke-linejoin="round"/>
<path d="M1040.35 258.157C1040.35 258.157 1048.56 256.009 1056.66 251.947C1064.76 247.885 1065.12 260.38 1061.63 262.973C1058.14 265.566 1040.35 258.157 1040.35 258.157Z" fill="#3CBBC9" stroke="#242733" stroke-miterlimit="10" stroke-linecap="round" stroke-linejoin="round"/>
<path d="M1041.54 257.893C1041.54 257.893 1050.04 259.098 1053.32 258.568C1056.6 258.038 1059.52 258.601 1057.62 259.454C1055.71 260.307 1054.98 259.66 1054.98 259.66" stroke="#242733" stroke-miterlimit="10" stroke-linecap="round" stroke-linejoin="round"/>
<path d="M1042.76 259.04C1042.01 261.288 1039.5 262.479 1037.15 261.699C1034.8 260.919 1033.5 258.464 1034.25 256.216C1035 253.968 1037.51 252.777 1039.86 253.557C1042.2 254.336 1043.5 256.791 1042.76 259.04Z" fill="#3CBBC9" stroke="#242733" stroke-miterlimit="10" stroke-linecap="round" stroke-linejoin="round"/>
<path d="M1069.07 267.961L1007.58 247.544L990.7 298.371L1052.19 318.788L1069.07 267.961Z" fill="white" stroke="#242733" stroke-miterlimit="10" stroke-linecap="round" stroke-linejoin="round"/>
<path d="M1046.22 260.376L1030.42 255.129L1013.55 305.956L1029.35 311.203L1046.22 260.376Z" fill="#3CBBC9" stroke="#242733" stroke-miterlimit="10" stroke-linecap="round" stroke-linejoin="round"/>
<path d="M979.342 341.712V329.11H982.36C983.21 329.11 983.929 329.211 984.515 329.413C985.101 329.615 985.547 329.96 985.853 330.448C986.159 330.935 986.312 331.599 986.312 332.439C986.312 332.947 986.265 333.404 986.172 333.808C986.079 334.212 985.921 334.557 985.697 334.843C985.474 335.128 985.166 335.348 984.772 335.504L986.53 341.712H984.227L982.703 335.94H981.645V341.712H979.342ZM981.644 334.493H982.36C982.806 334.493 983.161 334.428 983.425 334.299C983.69 334.169 983.879 333.962 983.993 333.676C984.107 333.391 984.164 333.025 984.164 332.579C984.164 331.946 984.047 331.472 983.814 331.155C983.581 330.839 983.137 330.681 982.484 330.681H981.644V334.493Z" fill="#242733"/>
<path d="M988.037 341.712V329.11H993.327V330.728H990.34V334.353H992.689V335.956H990.34V340.125H993.359V341.712H988.037Z" fill="#242733"/>
<path d="M996.019 341.712L994.23 329.11H996.159L997.201 337.278L998.508 329.141H1000.08L1001.42 337.278L1002.44 329.11H1004.34L1002.58 341.712H1000.72L999.317 333.264L997.932 341.712H996.019Z" fill="#242733"/>
<path d="M1004.75 341.712L1007.27 329.11H1009.73L1012.25 341.712H1010.12L1009.62 338.803H1007.42L1006.91 341.712H1004.75ZM1007.66 337.34H1009.37L1008.51 332.05L1007.66 337.34Z" fill="#242733"/>
<path d="M1013.44 341.712V329.11H1016.46C1017.31 329.11 1018.03 329.211 1018.62 329.413C1019.2 329.615 1019.65 329.96 1019.95 330.448C1020.26 330.935 1020.41 331.599 1020.41 332.439C1020.41 332.947 1020.37 333.404 1020.27 333.808C1020.18 334.212 1020.02 334.557 1019.8 334.843C1019.58 335.128 1019.27 335.348 1018.87 335.504L1020.63 341.712H1018.33L1016.8 335.94H1015.75V341.712H1013.44ZM1015.75 334.493H1016.46C1016.91 334.493 1017.26 334.428 1017.53 334.299C1017.79 334.169 1017.98 333.962 1018.09 333.676C1018.21 333.391 1018.27 333.025 1018.27 332.579C1018.27 331.946 1018.15 331.472 1017.92 331.155C1017.68 330.839 1017.24 330.681 1016.59 330.681H1015.75V334.493Z" fill="#242733"/>
<path d="M1022.14 341.712V329.11H1025.11C1026.14 329.11 1026.94 329.25 1027.52 329.53C1028.09 329.81 1028.5 330.24 1028.74 330.821C1028.99 331.402 1029.11 332.138 1029.11 333.031V337.636C1029.11 338.549 1028.99 339.308 1028.74 339.915C1028.5 340.522 1028.1 340.973 1027.53 341.269C1026.97 341.564 1026.19 341.712 1025.21 341.712H1022.14ZM1024.44 340.109H1025.14C1025.67 340.109 1026.05 340.016 1026.28 339.829C1026.51 339.642 1026.65 339.37 1026.7 339.012C1026.75 338.654 1026.78 338.216 1026.78 337.698V332.875C1026.78 332.367 1026.74 331.957 1026.67 331.646C1026.6 331.335 1026.45 331.107 1026.22 330.961C1025.99 330.816 1025.62 330.743 1025.11 330.743H1024.44V340.109Z" fill="#242733"/>
</g>
</svg>
