<svg width="22" height="22" viewBox="0 0 22 22" fill="none" xmlns="http://www.w3.org/2000/svg">
<path d="M14.4781 11.173H12.0343C11.9374 11.173 11.8445 11.2116 11.776 11.2804C11.7075 11.3492 11.669 11.4425 11.669 11.5398V21.2928C11.669 21.3901 11.7075 21.4834 11.776 21.5521C11.8445 21.621 11.9374 21.6596 12.0343 21.6596H14.4781C14.5749 21.6596 14.6679 21.621 14.7364 21.5521C14.8049 21.4834 14.8434 21.3901 14.8434 21.2928V11.5398C14.8434 11.4425 14.8049 11.3492 14.7364 11.2804C14.6679 11.2116 14.5749 11.173 14.4781 11.173ZM14.1129 20.9259H12.3995V11.9066H14.1129V20.9259ZM9.94027 13.7494H7.49635C7.39948 13.7494 7.30659 13.7881 7.23809 13.8568C7.1696 13.9256 7.13112 14.0189 7.13112 14.1162V21.2929C7.13112 21.3901 7.1696 21.4834 7.23809 21.5522C7.30659 21.621 7.39948 21.6597 7.49635 21.6597H9.94027C10.0371 21.6597 10.13 21.621 10.1985 21.5522C10.2669 21.4834 10.3054 21.3901 10.3054 21.2929V14.1162C10.3054 14.0189 10.2669 13.9256 10.1985 13.8568C10.13 13.7881 10.0371 13.7494 9.94027 13.7494ZM9.57501 20.9259H7.86158V14.483H9.57501V20.9259ZM19.0159 8.85523H16.572C16.4752 8.85523 16.3822 8.8939 16.3137 8.96267C16.2453 9.03153 16.2068 9.12476 16.2068 9.22215V21.2928C16.2068 21.3901 16.2453 21.4833 16.3137 21.5521C16.3822 21.6209 16.4752 21.6596 16.572 21.6596H19.0159C19.1128 21.6596 19.2057 21.6209 19.2741 21.5521C19.3426 21.4833 19.3811 21.3901 19.3811 21.2928V9.22215C19.3811 9.12476 19.3426 9.03153 19.2741 8.96267C19.2057 8.8939 19.1128 8.85523 19.0159 8.85523ZM18.6507 20.9258H16.9373V9.58898H18.6507V20.9258ZM5.40235 16.2167H2.95846C2.8616 16.2167 2.7687 16.2553 2.7002 16.3241C2.63171 16.393 2.59324 16.4862 2.59324 16.5835V21.2928C2.59324 21.3901 2.63171 21.4833 2.7002 21.5521C2.7687 21.6209 2.8616 21.6596 2.95846 21.6596H5.40231C5.49916 21.6596 5.59206 21.6209 5.66056 21.5521C5.72906 21.4833 5.76753 21.3901 5.76753 21.2928V16.5835C5.76754 16.5354 5.7581 16.4877 5.73975 16.4432C5.7214 16.3987 5.6945 16.3582 5.66059 16.3241C5.62668 16.2901 5.58642 16.2631 5.54211 16.2446C5.4978 16.2262 5.45031 16.2167 5.40235 16.2167ZM5.03712 20.9258H3.32369V16.9504H5.03707L5.03712 20.9258ZM2.70121 14.6257C2.61493 14.6257 2.53146 14.5949 2.46559 14.539C2.39972 14.4829 2.3557 14.4054 2.34132 14.3199C2.32694 14.2345 2.34313 14.1467 2.38702 14.0721C2.43091 13.9975 2.49968 13.9409 2.58113 13.9123C6.16262 12.6596 9.3784 10.9132 12.1499 8.71787L11.1787 8.7176C11.1307 8.7176 11.0832 8.70809 11.0389 8.68963C10.9945 8.67126 10.9543 8.64421 10.9204 8.61015C10.8519 8.54129 10.8134 8.44796 10.8134 8.35067C10.8135 8.25338 10.852 8.1601 10.9205 8.09131C10.989 8.02253 11.0818 7.98389 11.1788 7.9839L13.1361 7.98436C13.1902 7.98438 13.2437 7.99646 13.2925 8.01973C13.3413 8.043 13.3845 8.07688 13.4187 8.11892C13.4529 8.16096 13.4775 8.21011 13.4905 8.26279C13.5035 8.3155 13.5047 8.37052 13.494 8.42378L13.107 10.351C13.0904 10.4339 13.0456 10.5085 12.9804 10.5622C12.9153 10.6158 12.8337 10.6452 12.7494 10.6453C12.6953 10.6453 12.6418 10.6333 12.5929 10.6101C12.5439 10.5869 12.5008 10.553 12.4665 10.5109C12.4322 10.4689 12.4076 10.4197 12.3945 10.3669C12.3815 10.3141 12.3803 10.2591 12.391 10.2059L12.5688 9.32064C9.74098 11.5541 6.46535 13.3306 2.82132 14.6052C2.78272 14.6188 2.74211 14.6257 2.70121 14.6257ZM21.2695 1.14843H20.2838V0.707059C20.2838 0.609767 20.2454 0.516462 20.1769 0.447665C20.1084 0.378868 20.0155 0.34021 19.9186 0.34021H15.6693C15.5724 0.34021 15.4795 0.378868 15.411 0.447665C15.3425 0.516462 15.304 0.609767 15.304 0.707059V1.14843H14.3184C14.2216 1.14843 14.1286 1.18708 14.0602 1.25587C13.9917 1.32467 13.9532 1.41798 13.9532 1.51528V2.54896C13.9532 3.63547 14.622 4.42167 15.7522 4.68113C16.0583 5.22153 16.5017 5.68097 17.0213 5.91923C16.9385 6.41824 16.5063 6.80284 15.987 6.80696C15.8907 6.80774 15.7985 6.84672 15.7306 6.91543C15.6628 6.98413 15.6248 7.07698 15.6247 7.17377V7.74701C15.6247 7.79519 15.6341 7.8429 15.6525 7.88741C15.6708 7.93193 15.6977 7.97237 15.7317 8.00644C15.7655 8.04051 15.8058 8.06754 15.8501 8.08597C15.8944 8.10441 15.9419 8.1139 15.9899 8.1139H19.5981C19.6461 8.11392 19.6936 8.10444 19.7379 8.08601C19.7822 8.06758 19.8225 8.04055 19.8564 8.00648C19.8903 7.9724 19.9173 7.93196 19.9355 7.88744C19.9539 7.84291 19.9633 7.79519 19.9633 7.74701V7.17377C19.9632 7.07698 19.9252 6.98413 19.8573 6.91543C19.7895 6.84672 19.6973 6.80774 19.601 6.80696C19.0816 6.80284 18.6495 6.41819 18.5667 5.91923C19.0863 5.68097 19.5296 5.22153 19.8357 4.68117C20.9659 4.42167 21.6347 3.63547 21.6347 2.54891V1.51528C21.6347 1.41798 21.5962 1.32466 21.5277 1.25587C21.4593 1.18708 21.3663 1.14843 21.2695 1.14843ZM14.6837 2.54896V1.88212H15.304V3.09143C15.304 3.31338 15.3341 3.5428 15.3896 3.77143C15.0157 3.5671 14.6837 3.20191 14.6837 2.54896ZM18.8724 7.3802H16.7154C17.2327 7.14331 17.6183 6.66531 17.7313 6.09211C17.7522 6.09284 17.7729 6.09445 17.7939 6.09445C17.8149 6.09445 17.8357 6.09289 17.8565 6.09211C17.9695 6.66535 18.3552 7.14336 18.8724 7.3802ZM17.7939 5.36075C16.8629 5.36075 16.0345 4.09173 16.0345 3.09143V1.07391H19.5534V3.09143C19.5534 4.09178 18.725 5.36075 17.7939 5.36075ZM20.9042 2.54896C20.9042 3.20191 20.5722 3.5671 20.1983 3.77143C20.2538 3.5428 20.2838 3.31333 20.2838 3.09143V1.88212H20.9042V2.54896ZM8.48033 9.49233C8.51458 9.45403 8.54043 9.40889 8.55621 9.35996C8.572 9.31095 8.57735 9.25916 8.5719 9.20803C8.39181 7.51828 7.25918 6.15017 5.74261 5.61402C6.29994 5.18288 6.66006 4.50651 6.66006 3.7469C6.66006 2.44775 5.60779 1.39082 4.31438 1.39082C3.02096 1.39082 1.96869 2.44775 1.96869 3.7469C1.96869 4.50651 2.32876 5.18284 2.8861 5.61402C1.36944 6.15017 0.236767 7.51828 0.056758 9.20812C0.0513118 9.25926 0.056638 9.31104 0.0724041 9.35996C0.0881703 9.40898 0.114016 9.45403 0.148263 9.49233C0.182509 9.53055 0.224389 9.56119 0.271189 9.58215C0.317989 9.6031 0.368647 9.6139 0.419887 9.6139H8.20873C8.31233 9.6139 8.4111 9.56978 8.48033 9.49233ZM2.6991 3.7469C2.6991 2.8523 3.42372 2.12452 4.31433 2.12452C5.20494 2.12452 5.92956 2.8523 5.92956 3.7469C5.92956 4.64119 5.20544 5.36878 4.3152 5.36923H4.31337C3.42322 5.36874 2.6991 4.64119 2.6991 3.7469ZM0.849672 8.88024C1.20897 7.27148 2.63236 6.10339 4.31337 6.10293H4.31529C5.99626 6.10339 7.41965 7.27148 7.7789 8.88024H0.849672ZM19.0645 2.06807C19.1296 2.14012 19.1635 2.23519 19.1589 2.33236C19.1542 2.42953 19.1112 2.52086 19.0395 2.58624L17.6227 3.87773C17.5556 3.93907 17.4681 3.97303 17.3772 3.97292C17.3293 3.97298 17.2818 3.96352 17.2375 3.94508C17.1931 3.92664 17.1528 3.89959 17.1189 3.86549L16.5357 3.27958C16.4678 3.21065 16.43 3.11756 16.4302 3.02065C16.4305 2.92375 16.4689 2.83088 16.5372 2.76236C16.6054 2.69383 16.6978 2.6552 16.7943 2.6549C16.8908 2.6546 16.9834 2.69266 17.0521 2.76077L17.3894 3.0996L18.5485 2.04298C18.5841 2.01058 18.6256 1.98552 18.6707 1.96925C18.7159 1.95296 18.7638 1.94578 18.8117 1.94812C18.8596 1.95044 18.9066 1.96224 18.95 1.98282C18.9933 2.0034 19.0323 2.03237 19.0645 2.06807Z" fill="#4E546D"/>
</svg>
