<svg width="28" height="28" viewBox="0 0 28 28" fill="none" xmlns="http://www.w3.org/2000/svg">
<g clip-path="url(#clip0_1248_6548)">
<path d="M3.80991 10.8531C3.80991 10.6115 4.0058 10.4156 4.24741 10.4156H15.2974C15.539 10.4156 15.7349 10.6115 15.7349 10.8531C15.7349 11.0947 15.539 11.2906 15.2974 11.2906H4.24741C4.0058 11.2906 3.80991 11.0947 3.80991 10.8531ZM14.1194 23.4414H4.24741C4.0058 23.4414 3.80991 23.6373 3.80991 23.8789C3.80991 24.1205 4.0058 24.3164 4.24741 24.3164H14.1194C14.361 24.3164 14.5569 24.1205 14.5569 23.8789C14.5569 23.6373 14.361 23.4414 14.1194 23.4414ZM4.24741 8.03414H12.1797C12.4213 8.03414 12.6172 7.83825 12.6172 7.59664C12.6172 7.35503 12.4213 7.15914 12.1797 7.15914H4.24741C4.0058 7.15914 3.80991 7.35503 3.80991 7.59664C3.80991 7.83825 4.0058 8.03414 4.24741 8.03414ZM27.7321 26.5578L26.6123 27.712C26.4261 27.9038 26.1781 28.0002 25.9298 28.0002C25.691 28.0002 25.4521 27.9111 25.2676 27.7323L22.3679 24.9184C22.2877 25.0128 22.1682 25.0729 22.0346 25.0729H19.5449V27.5625C19.5449 27.8041 19.349 28 19.1074 28H0.4375C0.195891 28 0 27.8041 0 27.5625V3.3647C0 3.12309 0.195891 2.9272 0.4375 2.9272H2.92726V0.4375C2.92726 0.195891 3.12315 0 3.36476 0H19.0097C19.1257 0 19.237 0.0461016 19.3191 0.128133L22.3439 3.15301C22.426 3.23509 22.4721 3.34633 22.4721 3.46237V14.7479C22.9381 15.6081 23.203 16.5925 23.203 17.6375C23.203 18.7986 22.876 19.8847 22.3095 20.8088L23.5478 22.0239C23.6673 21.9686 23.7979 21.9377 23.9337 21.9356C24.1891 21.9342 24.4284 22.0269 24.6103 22.2034L27.712 25.2131C28.0882 25.5784 28.0972 26.1816 27.7321 26.5578ZM21.7932 21.5281C21.6758 21.669 21.5522 21.8047 21.4227 21.9346L22.5104 23.0019L22.8932 22.6074L21.7932 21.5281ZM22.328 17.6375C22.328 14.7644 19.9906 12.427 17.1175 12.427C14.2444 12.427 11.907 14.7644 11.907 17.6375C11.907 20.5107 14.2444 22.8481 17.1175 22.8481C19.9906 22.8481 22.328 20.5107 22.328 17.6375ZM16.5199 5.95213H18.0511L16.5199 4.42094V5.95213ZM19.4472 3.02487H20.9783L19.4472 1.49373V3.02487ZM3.80226 2.9272H16.0824C16.1985 2.9272 16.3097 2.9733 16.3918 3.05534L19.4167 6.08027C19.4987 6.16235 19.5448 6.27359 19.5448 6.38963V12.0576C20.3282 12.3997 21.0262 12.9019 21.5971 13.523V3.89987H19.0097C18.7681 3.89987 18.5722 3.70398 18.5722 3.46237V0.875H3.80226V2.9272ZM18.6698 24.6353V23.5221C18.1741 23.653 17.6538 23.7231 17.1175 23.7231C15.03 23.7231 13.1848 22.6664 12.0882 21.06H4.24741C4.0058 21.06 3.80991 20.8641 3.80991 20.6225C3.80991 20.3809 4.0058 20.185 4.24741 20.185H11.5916C11.2546 19.4569 11.0572 18.6517 11.0343 17.8035H4.24741C4.0058 17.8035 3.80991 17.6076 3.80991 17.366C3.80991 17.1244 4.0058 16.9285 4.24741 16.9285H11.0735C11.1739 16.0674 11.4547 15.2607 11.8771 14.547H4.24741C4.0058 14.547 3.80991 14.3511 3.80991 14.1095C3.80991 13.8679 4.0058 13.672 4.24741 13.672H12.5052C13.6221 12.3748 15.2754 11.5519 17.1175 11.5519C17.6538 11.5519 18.174 11.622 18.6698 11.7528V6.82708H16.0824C15.8408 6.82708 15.6449 6.63119 15.6449 6.38958V3.8022H0.875V27.125H18.6698V24.6353ZM21.5971 24.1978V23.3317L20.7596 22.5099C20.3856 22.7902 19.9782 23.0282 19.5448 23.2175V24.1978H21.5971ZM27.1025 25.841L24.0009 22.8313C23.9833 22.8142 23.9627 22.8105 23.9481 22.8105C23.9477 22.8105 23.9473 22.8105 23.9469 22.8105C23.9322 22.8107 23.9111 22.8148 23.8935 22.8329L22.7736 23.987C22.7454 24.016 22.7462 24.0662 22.7752 24.0944L25.8769 27.1042C25.9059 27.1324 25.9562 27.1316 25.9843 27.1026L27.1042 25.9485C27.1324 25.9195 27.1316 25.8693 27.1025 25.841ZM21.6106 17.6375C21.6106 20.1151 19.5951 22.1307 17.1175 22.1307C14.64 22.1307 12.6244 20.1151 12.6244 17.6375C12.6244 15.16 14.64 13.1444 17.1175 13.1444C19.5951 13.1444 21.6106 15.16 21.6106 17.6375ZM20.7356 17.6375C20.7356 15.6425 19.1125 14.0194 17.1175 14.0194C15.1225 14.0194 13.4994 15.6425 13.4994 17.6375C13.4994 19.6325 15.1225 21.2557 17.1175 21.2557C19.1125 21.2557 20.7356 19.6325 20.7356 17.6375Z" fill="#4E546D"/>
</g>
<defs>
<clipPath id="clip0_1248_6548">
<rect width="28" height="28" fill="white"/>
</clipPath>
</defs>
</svg>
