<svg width="28" height="24" viewBox="0 0 28 24" fill="none" xmlns="http://www.w3.org/2000/svg">
<g clip-path="url(#clip0_1506_1571)">
<path d="M11.5675 13.8539H4.949C4.84585 13.8539 4.74692 13.813 4.67398 13.7401C4.60104 13.6671 4.56006 13.5682 4.56006 13.465C4.56006 13.3619 4.60104 13.263 4.67398 13.1901C4.74692 13.1171 4.84585 13.0761 4.949 13.0761H11.5666C11.6697 13.0761 11.7687 13.1171 11.8417 13.1901C11.9146 13.263 11.9555 13.3619 11.9555 13.465C11.9555 13.5682 11.9146 13.6671 11.8417 13.7401C11.7687 13.813 11.6707 13.8539 11.5675 13.8539ZM27.3595 4.50855L21.9888 9.88323V16.8758C21.9882 17.4842 21.7462 18.0676 21.316 18.4977C20.8858 18.9279 20.3024 19.1699 19.6941 19.1705H10.0035L8.22982 21.7185C8.09855 21.9086 7.92306 22.064 7.71843 22.1713C7.51381 22.2787 7.28618 22.3347 7.05512 22.3345C6.58482 22.3345 6.14468 22.1026 5.87868 21.7163L4.10594 19.1705H2.29468C1.68627 19.1699 1.10295 18.9279 0.672738 18.4977C0.242526 18.0676 0.000579164 17.4842 0 16.8758V5.94049C0.000579164 5.33208 0.242526 4.74875 0.672738 4.31854C1.10295 3.88832 1.68627 3.64638 2.29468 3.64581H19.6941C20.0011 3.64643 20.3048 3.70955 20.5866 3.83132C20.8684 3.9531 21.1225 4.13097 21.3334 4.35411L24.2698 1.41849C25.0968 0.592051 26.5357 0.593801 27.3595 1.41849C27.5632 1.62071 27.7247 1.86135 27.8346 2.12646C27.9446 2.39156 28.0007 2.67586 28 2.96287C28 3.54737 27.7725 4.09599 27.3595 4.50855ZM21.2108 10.6611L17.906 13.9673C17.691 14.1823 17.4373 14.3548 17.1583 14.4756L15.0907 15.3716L15.0885 15.3726L15.0871 15.3729L13.8543 15.9067C13.7167 15.9672 13.5639 15.9845 13.4163 15.9563C13.2686 15.9281 13.1331 15.8558 13.0275 15.7488C12.921 15.6429 12.849 15.5072 12.8212 15.3596C12.7933 15.2119 12.8107 15.0594 12.8712 14.922L14.3093 11.6223C14.4296 11.3456 14.6008 11.094 14.8138 10.8803L15.9556 9.73755H4.949C4.84585 9.73755 4.74692 9.69658 4.67398 9.62364C4.60104 9.5507 4.56006 9.45176 4.56006 9.34861C4.56006 9.24546 4.60104 9.14654 4.67398 9.0736C4.74692 9.00066 4.84585 8.95967 4.949 8.95967H16.7318L20.7843 4.90317C20.5022 4.60567 20.1092 4.42323 19.6936 4.42323H2.29468C1.89255 4.4237 1.50701 4.58366 1.22265 4.86802C0.938289 5.15237 0.778338 5.53791 0.777875 5.94005V16.8758C0.778338 17.278 0.938289 17.6634 1.22265 17.9478C1.50701 18.2322 1.89255 18.3922 2.29468 18.3927H4.30894C4.43625 18.3927 4.55568 18.4552 4.62832 18.5593L6.51832 21.2739C6.64256 21.4543 6.83768 21.5567 7.05468 21.5567C7.27212 21.5567 7.46726 21.4543 7.59018 21.2753L9.48155 18.5593C9.51739 18.5079 9.56517 18.4659 9.6208 18.437C9.67633 18.408 9.73821 18.3929 9.80084 18.393H19.6941C20.0963 18.3926 20.4819 18.2326 20.7663 17.9481C21.0506 17.6637 21.2106 17.2781 21.2108 16.8758V10.6611ZM16.6854 13.8352L14.9499 12.0996L14.2722 13.6537C14.4511 13.7613 14.6186 13.8798 14.7578 14.0185C14.9121 14.173 15.0342 14.348 15.1402 14.5313L16.6854 13.8352ZM13.5839 15.2326L14.434 14.8493C14.3689 14.7479 14.2933 14.6537 14.2082 14.5684C14.1322 14.4943 14.0492 14.4276 13.9606 14.369L13.5839 15.2326ZM25.7815 4.9898L24.5651 3.76961L23.7909 2.9948L15.372 11.422L17.3613 13.4113L25.7815 4.9898ZM27.2222 2.96287C27.2222 2.58749 27.0755 2.23399 26.8095 1.96799C26.278 1.43643 25.3514 1.43555 24.8199 1.96799L24.3429 2.44487L25.1715 3.27567L26.3319 4.43637L26.8095 3.95861C26.9408 3.82817 27.0448 3.67299 27.1156 3.50207C27.1864 3.33115 27.2226 3.14787 27.2222 2.96287Z" fill="#4E546D"/>
</g>
<defs>
<clipPath id="clip0_1506_1571">
<rect width="28" height="22.4" fill="white" transform="translate(0 0.800049)"/>
</clipPath>
</defs>
</svg>
