<svg width="28" height="28" viewBox="0 0 28 28" fill="none" xmlns="http://www.w3.org/2000/svg">
<path fill-rule="evenodd" clip-rule="evenodd" d="M4.3048 3.8999H6.6158V2.6249C6.6158 1.41978 7.66203 0.399902 8.99634 0.399902H22.8117C24.1459 0.399902 25.1922 1.41978 25.1922 2.6249V21.8749C25.1922 23.08 24.1459 24.0999 22.8117 24.0999H21.3811V26.0998C21.3811 26.9266 20.7078 27.5999 19.881 27.5999H4.3048C3.47796 27.5999 2.80469 26.9266 2.80469 26.0998V5.40002C2.80469 4.57318 3.47796 3.8999 4.3048 3.8999ZM21.3811 5.40002V23.1499H22.8117C23.5369 23.1499 24.2422 22.6371 24.2422 21.8749V2.6249C24.2422 1.86268 23.5369 1.3499 22.8117 1.3499H8.99634C8.27108 1.3499 7.5658 1.86268 7.5658 2.6249V3.8999H19.881C20.7078 3.8999 21.3811 4.57318 21.3811 5.40002ZM19.881 26.6499C20.1847 26.6499 20.4311 26.4035 20.4311 26.0998V5.40002C20.4311 5.09631 20.1847 4.8499 19.881 4.8499H4.3048C4.00109 4.8499 3.75469 5.09631 3.75469 5.40002V26.0998C3.75469 26.4035 4.0011 26.6499 4.3048 26.6499H19.881Z" fill="#4E546D"/>
<path fill-rule="evenodd" clip-rule="evenodd" d="M16.4047 11.4124H8.09219C7.82988 11.4124 7.61719 11.1997 7.61719 10.9374C7.61719 10.6751 7.82988 10.4624 8.09219 10.4624H16.4047C16.667 10.4624 16.8797 10.6751 16.8797 10.9374C16.8797 11.1997 16.667 11.4124 16.4047 11.4124Z" fill="#4E546D"/>
<path fill-rule="evenodd" clip-rule="evenodd" d="M16.4047 14.9124H8.09219C7.82988 14.9124 7.61719 14.6997 7.61719 14.4374C7.61719 14.1751 7.82988 13.9624 8.09219 13.9624H16.4047C16.667 13.9624 16.8797 14.1751 16.8797 14.4374C16.8797 14.6997 16.667 14.9124 16.4047 14.9124Z" fill="#4E546D"/>
<path fill-rule="evenodd" clip-rule="evenodd" d="M16.4047 18.4124H8.09219C7.82988 18.4124 7.61719 18.1997 7.61719 17.9374C7.61719 17.6751 7.82988 17.4624 8.09219 17.4624H16.4047C16.667 17.4624 16.8797 17.6751 16.8797 17.9374C16.8797 18.1997 16.667 18.4124 16.4047 18.4124Z" fill="#4E546D"/>
</svg>
