<svg width="28" height="28" viewBox="0 0 28 28" fill="none" xmlns="http://www.w3.org/2000/svg">
<g clip-path="url(#clip0_1248_6572)">
<path d="M18.0534 8.90388C15.3304 4.89773 11.6934 2.7685 9.78882 4.07312C9.57909 4.22081 9.39685 4.40409 9.25035 4.61465C9.25035 4.63004 4.84112 13.5531 4.84112 13.5531L2.37959 15.2208C2.0017 15.4773 1.67806 15.8058 1.42715 16.1874C1.17624 16.569 1.00298 16.9964 0.917258 17.445C0.831537 17.8936 0.83504 18.3547 0.927566 18.8019C1.02009 19.2492 1.19983 19.6738 1.45651 20.0516L1.56728 20.2147C2.08611 20.9704 2.88199 21.4912 3.78229 21.664C4.68259 21.8368 5.61472 21.6477 6.37651 21.1377L10.3304 26.9623C10.9119 27.6793 12.0288 28.3931 13.4073 27.5531C13.6515 27.3948 13.8598 27.187 14.0188 26.9432C14.1778 26.6994 14.2839 26.425 14.3304 26.1377C14.386 25.852 14.3845 25.558 14.3259 25.2728C14.2673 24.9876 14.1527 24.7168 13.9888 24.4762L10.5057 19.3377C10.5057 19.3377 18.7396 18.6823 18.7704 18.67C19.0274 18.6162 19.2712 18.5116 19.4873 18.3623C20.4657 17.6977 20.8165 16.3039 20.478 14.4362C20.1734 12.7162 19.3088 10.7685 18.0534 8.90388ZM2.46266 19.6085L2.35189 19.4454C2.1748 19.1847 2.05086 18.8916 1.98718 18.5829C1.92349 18.2743 1.92131 17.9561 1.98076 17.6465C2.0402 17.337 2.16011 17.0422 2.33361 16.7791C2.50712 16.516 2.73081 16.2897 2.99189 16.1131L5.11805 14.667L7.9242 18.7993L5.79805 20.2454C5.53727 20.4227 5.2441 20.5469 4.9353 20.6109C4.6265 20.6749 4.30812 20.6773 3.99836 20.6182C3.6886 20.559 3.39354 20.4394 3.13003 20.2662C2.86653 20.0929 2.63975 19.8694 2.46266 19.6085ZM13.1027 25.0823C13.2708 25.3326 13.3329 25.6393 13.2752 25.9352C13.2175 26.2311 13.0448 26.4921 12.795 26.6608C12.5443 26.8291 12.2371 26.8913 11.9407 26.8336C11.6442 26.7759 11.3827 26.6032 11.2134 26.3531L7.27189 20.547L8.85651 19.47L9.27497 19.4362L13.1027 25.0823ZM8.94266 18.3808L5.8842 13.8762L8.80112 7.9285C9.0842 9.59927 9.91189 11.5839 11.235 13.5316C12.558 15.4793 14.0965 16.9808 15.5427 17.8608L8.94266 18.3808ZM18.0196 17.6639C16.5488 17.5685 14.155 15.91 12.1273 12.9223C10.0996 9.93465 9.44112 7.10696 9.89343 5.70081C9.97512 5.43687 10.1381 5.20548 10.3591 5.03971C10.5802 4.87393 10.8479 4.78224 11.1242 4.77773C12.5827 4.77773 15.0657 6.44542 17.1519 9.51927C18.3273 11.2485 19.1827 13.0577 19.4165 14.6393C19.875 17.6639 18.0196 17.6639 18.0196 17.6639Z" fill="#4E546D"/>
<path d="M14.2089 9.01802C13.832 8.944 13.4442 8.94588 13.068 9.02354C12.6918 9.10121 12.3349 9.2531 12.0182 9.47032C11.9598 9.51073 11.9099 9.56224 11.8714 9.62192C11.833 9.68159 11.8066 9.74826 11.7939 9.81812C11.7812 9.88798 11.7824 9.95966 11.7973 10.0291C11.8123 10.0985 11.8408 10.1642 11.8812 10.2226C11.9216 10.281 11.9732 10.3309 12.0328 10.3694C12.0925 10.4078 12.1592 10.4342 12.229 10.4469C12.2989 10.4596 12.3706 10.4584 12.44 10.4435C12.5094 10.4285 12.5752 10.4 12.6335 10.3596C12.8342 10.2234 13.0596 10.1281 13.2971 10.079C13.5346 10.03 13.7794 10.0282 14.0175 10.0738C14.2556 10.1194 14.4825 10.2114 14.6851 10.3446C14.8876 10.4779 15.062 10.6497 15.1982 10.8503C15.3343 11.0509 15.4297 11.2764 15.4787 11.5139C15.5277 11.7513 15.5295 11.9961 15.4839 12.2343C15.4384 12.4724 15.3463 12.6993 15.2131 12.9018C15.0798 13.1044 14.908 13.2788 14.7074 13.4149C14.6128 13.4803 14.5416 13.5742 14.5042 13.6829C14.4668 13.7916 14.4652 13.9094 14.4996 14.0191C14.534 14.1288 14.6025 14.2246 14.6953 14.2925C14.7881 14.3604 14.9001 14.3968 15.0151 14.3965C15.1248 14.3985 15.2323 14.3663 15.3228 14.3042C15.8014 13.98 16.173 13.521 16.3905 12.9855C16.608 12.4499 16.6617 11.8618 16.5447 11.2957C16.4277 10.7297 16.1454 10.211 15.7334 9.80554C15.3214 9.40006 14.7984 9.12598 14.2305 9.01802H14.2089Z" fill="#4E546D"/>
<path d="M18.7172 5.15942H18.7695C18.9027 5.15937 19.0311 5.10996 19.13 5.02074C19.2289 4.93152 19.2912 4.80882 19.3049 4.67635L19.7203 0.639423C19.7297 0.568039 19.7248 0.495485 19.7057 0.426052C19.6866 0.356619 19.6538 0.291719 19.6092 0.235191C19.5646 0.178662 19.5091 0.131654 19.446 0.0969475C19.3829 0.062241 19.3135 0.0405412 19.2419 0.0331317C19.1703 0.0257223 19.0979 0.0327539 19.029 0.0538104C18.9602 0.0748669 18.8962 0.109521 18.841 0.155721C18.7858 0.201922 18.7404 0.258731 18.7075 0.322788C18.6746 0.386844 18.6549 0.456846 18.6495 0.528653L18.2372 4.56865C18.2226 4.71063 18.2649 4.85262 18.3549 4.96339C18.4449 5.07417 18.5752 5.14468 18.7172 5.15942Z" fill="#4E546D"/>
<path d="M25.6777 4.3286C25.5987 4.20943 25.4757 4.12636 25.3356 4.09754C25.1955 4.06872 25.0497 4.09648 24.93 4.17476L21.1793 6.6363C21.0819 6.7006 21.008 6.79482 20.9688 6.90475C20.9296 7.01467 20.9272 7.13436 20.9619 7.24579C20.9966 7.35722 21.0666 7.45435 21.1613 7.52257C21.256 7.59078 21.3703 7.62637 21.487 7.62399C21.5958 7.62649 21.7029 7.5965 21.7946 7.53783L25.5454 5.0763C25.6618 4.99443 25.741 4.86984 25.7658 4.72974C25.7906 4.58964 25.7589 4.44543 25.6777 4.3286Z" fill="#4E546D"/>
<path d="M26.8259 10.901L22.4628 10.1164C22.322 10.0911 22.177 10.1228 22.0595 10.2044C21.9421 10.2861 21.8619 10.411 21.8366 10.5518C21.8113 10.6926 21.843 10.8376 21.9246 10.955C22.0063 11.0725 22.1312 11.1527 22.272 11.178L26.632 11.9626H26.7274C26.8646 11.9666 26.9981 11.918 27.1008 11.8269C27.2034 11.7357 27.2673 11.6088 27.2795 11.4721C27.2916 11.3354 27.2512 11.1992 27.1663 11.0913C27.0814 10.9835 26.9585 10.9121 26.8228 10.8918L26.8259 10.901Z" fill="#4E546D"/>
</g>
<defs>
<clipPath id="clip0_1248_6572">
<rect width="28" height="28" fill="white"/>
</clipPath>
</defs>
</svg>
