<svg width="24" height="24" viewBox="0 0 24 24" fill="none" xmlns="http://www.w3.org/2000/svg">
<path d="M17.5109 7.87498H17.0234C16.9484 7.87498 16.9109 7.83749 16.9109 7.76249C16.9109 7.53749 16.7609 7.38749 16.5359 7.38749C16.3109 7.38749 16.1609 7.53749 16.1609 7.76249C16.1609 8.21246 16.4984 8.54998 16.9109 8.62494C16.9109 8.84998 17.0609 8.99998 17.2859 8.99998C17.5109 8.99998 17.6609 8.84998 17.6609 8.62494C18.0734 8.54998 18.4109 8.21246 18.4109 7.76249V7.27498C18.4109 6.78749 18.0359 6.41249 17.5484 6.41249H16.9859C16.9109 6.41249 16.8734 6.37498 16.8734 6.29998V5.81249C16.8734 5.73749 16.9109 5.69998 16.9859 5.69998H17.4734C17.5484 5.69998 17.5859 5.73749 17.5859 5.81249C17.5859 6.03749 17.7359 6.18749 17.9609 6.18749C18.1859 6.18749 18.3359 6.03749 18.3359 5.81249C18.3359 5.36249 17.9984 5.02498 17.5859 4.94998C17.5859 4.72498 17.4359 4.57498 17.2109 4.57498C16.9859 4.57498 16.8359 4.72498 16.8359 4.94998C16.4234 5.02498 16.0859 5.36249 16.0859 5.81249V6.29998C16.0859 6.78748 16.4609 7.16249 16.9484 7.16249H17.5109C17.5859 7.16249 17.6234 7.19998 17.6234 7.27498V7.76249C17.6234 7.83749 17.5859 7.87498 17.5109 7.87498Z" fill="#4E546D"/>
<path d="M17.25 10.5C19.3125 10.5 21 8.81248 21 6.75C21 4.6875 19.3125 3 17.25 3C15.1875 3 13.5 4.6875 13.5 6.75C13.5 8.81248 15.1875 10.5 17.25 10.5ZM17.25 3.75C18.9 3.75 20.25 5.1 20.25 6.75C20.25 8.4 18.9 9.75 17.25 9.75C15.6 9.75 14.25 8.4 14.25 6.75C14.25 5.1 15.6 3.75 17.25 3.75Z" fill="#4E546D"/>
<path d="M22.125 11.625H12.375V1.875C12.375 1.65 12.225 1.5 12 1.5C11.775 1.5 11.625 1.65 11.625 1.875V11.625H1.875C1.65 11.625 1.5 11.775 1.5 12C1.5 12.225 1.65 12.375 1.875 12.375H11.625V22.125C11.625 22.35 11.775 22.5 12 22.5C12.225 22.5 12.375 22.35 12.375 22.125V12.375H22.125C22.35 12.375 22.5 12.225 22.5 12C22.5 11.775 22.35 11.625 22.125 11.625Z" fill="#4E546D"/>
<path d="M6.75 13.5C4.6875 13.5 3 15.1875 3 17.25C3 19.3125 4.6875 21 6.75 21C8.81248 21 10.5 19.3125 10.5 17.25C10.5 15.1875 8.81248 13.5 6.75 13.5ZM6.75 20.25C5.1 20.25 3.75 18.9 3.75 17.25C3.75 15.6 5.1 14.25 6.75 14.25C8.4 14.25 9.75 15.6 9.75 17.25C9.75 18.9 8.4 20.25 6.75 20.25Z" fill="#4E546D"/>
<path d="M7.3875 16.875C7.3125 16.7625 7.2375 16.6875 7.125 16.6125V15.375C7.125 15.15 6.975 15 6.75 15C6.525 15 6.375 15.15 6.375 15.375V16.6125C6.15 16.725 6 16.9875 6 17.25C6 17.6625 6.3375 18 6.75 18C7.0125 18 7.275 17.85 7.3875 17.625H8.62496C8.85 17.625 9 17.475 9 17.25C9 17.025 8.85 16.875 8.62496 16.875H7.3875ZM4.5 10.5H9C9.22496 10.5 9.37504 10.35 9.37504 10.125V8.62496C9.37504 7.6125 8.81248 6.75 7.95 6.3C8.36248 5.9625 8.62496 5.4375 8.62496 4.875C8.62496 3.825 7.8 3 6.75 3C5.7 3 4.875 3.825 4.875 4.875C4.875 5.4375 5.1375 5.9625 5.55 6.3C4.6875 6.75 4.125 7.6125 4.125 8.62496V10.125C4.125 10.35 4.275 10.5 4.5 10.5ZM5.625 4.875C5.625 4.2375 6.1125 3.75 6.75 3.75C7.3875 3.75 7.875 4.2375 7.875 4.875C7.875 5.5125 7.3875 6 6.75 6C6.1125 6 5.625 5.5125 5.625 4.875ZM4.875 8.62496C4.875 7.575 5.7 6.75 6.75 6.75C7.8 6.75 8.62496 7.575 8.62496 8.62496V9.75H4.875V8.62496ZM17.25 13.125C15.1875 13.125 13.5 14.8125 13.5 16.875C13.5 18.4125 14.4375 19.725 15.75 20.325V21.75C15.75 21.975 15.9 22.125 16.125 22.125H16.5C16.5 22.35 16.65 22.5 16.875 22.5H17.625C17.85 22.5 18 22.35 18 22.125H18.375C18.6 22.125 18.75 21.975 18.75 21.75V20.325C20.0625 19.7625 21 18.4125 21 16.875C21 14.8125 19.3125 13.125 17.25 13.125ZM15.9375 17.25C15.825 17.25 15.75 17.175 15.75 17.0625C15.75 16.95 15.825 16.875 15.9375 16.875C16.05 16.875 16.125 16.95 16.125 17.0625C16.125 17.175 16.05 17.25 15.9375 17.25ZM18 20.625V21.375H16.5V20.625H18ZM18.375 19.65V17.9625C18.45 17.9625 18.4875 18 18.5625 18C19.0875 18 19.5 17.5875 19.5 17.0625C19.5 16.5375 19.0875 16.125 18.5625 16.125C18.0375 16.125 17.625 16.5375 17.625 17.0625V19.8375C17.5125 19.8375 17.3625 19.875 17.25 19.875C17.1375 19.875 16.9875 19.875 16.875 19.8375V17.0625C16.875 16.5375 16.4625 16.125 15.9375 16.125C15.4125 16.125 15 16.5375 15 17.0625C15 17.5875 15.4125 18 15.9375 18C16.0125 18 16.05 18 16.125 17.9625V19.65C15.0375 19.2 14.25 18.1125 14.25 16.875C14.25 15.225 15.6 13.875 17.25 13.875C18.9 13.875 20.25 15.225 20.25 16.875C20.25 18.1125 19.4625 19.2 18.375 19.65ZM18.375 17.0625C18.375 16.95 18.45 16.875 18.5625 16.875C18.675 16.875 18.75 16.95 18.75 17.0625C18.75 17.175 18.675 17.25 18.5625 17.25C18.45 17.25 18.375 17.175 18.375 17.0625Z" fill="#4E546D"/>
</svg>
