<svg width="29" height="28" viewBox="0 0 29 28" fill="none" xmlns="http://www.w3.org/2000/svg">
<g clip-path="url(#clip0_824_295)">
<path d="M18.4204 13.0453L18.5497 12.8573C19.3217 11.7354 19.7297 10.4226 19.7297 9.0607V6.44708H16.9459V4.36719H12.0483V6.44708H9.26446V9.0607C9.26446 10.4225 9.67246 11.7354 10.4445 12.8573L10.5738 13.0453L10.0003 14.0408C9.18877 15.4496 8.75977 17.0536 8.75977 18.6794V23.5697H13.6768V26.353H11.1701V27.9935H17.8241V26.353H15.3174V23.5697H20.2344V18.6794C20.2344 17.0535 19.8054 15.4496 18.9939 14.0408L18.4204 13.0453ZM13.6889 6.00774H15.3054V7.71868C15.3054 8.16436 14.9428 8.52692 14.4972 8.52692C14.0515 8.52692 13.6889 8.16436 13.6889 7.71868L13.6889 6.00774ZM10.9051 8.08764H12.0761C12.2545 9.26353 13.2723 10.1675 14.4972 10.1675C15.7221 10.1675 16.7398 9.26353 16.9182 8.08764H18.0893V9.0607C18.0893 10.089 17.7812 11.0803 17.1983 11.9274L17.0202 12.1862H11.9742L11.7961 11.9274C11.2132 11.0802 10.9051 10.0889 10.9051 9.0607V8.08764H10.9051ZM18.5939 21.9292H10.4004V18.6794C10.4004 17.3406 10.7536 16.0198 11.4219 14.8597L12.0169 13.8268H16.9773L17.5723 14.8597C18.2406 16.0197 18.5939 17.3406 18.5939 18.6794V21.9292Z" fill="#4E546D"/>
<path d="M0.498047 -0.0078125V27.9922H5.96645V19.6644C5.96645 18.2598 5.34025 16.9987 4.35226 16.1457C6.1771 15.2845 7.44306 13.4265 7.44306 11.2784V1.63274H21.5518V11.2784C21.5518 13.4265 22.8177 15.2845 24.6426 16.1457C23.6546 16.9987 23.0284 18.2598 23.0284 19.6644V27.9922H28.4968V-0.0078125L0.498047 -0.0078125ZM4.3259 26.3516H2.1386V16.7705C3.39964 17.1284 4.3259 18.2903 4.3259 19.6644V26.3516ZM5.80251 11.2784C5.80251 13.3149 4.16573 14.9761 2.1386 15.0156V1.63274H5.80251V11.2784ZM26.8562 26.3516H24.6689V19.6644C24.6689 18.2903 25.5951 17.1284 26.8562 16.7705V26.3516ZM26.8562 15.0156C24.8291 14.9761 23.1923 13.3149 23.1923 11.2784V1.63274H26.8562V15.0156Z" fill="#4E546D"/>
</g>
<defs>
<clipPath id="clip0_824_295">
<rect width="28" height="28" fill="white" transform="translate(0.5 -0.00390625)"/>
</clipPath>
</defs>
</svg>
