<svg width="40" height="40" viewBox="0 0 40 40" fill="none" xmlns="http://www.w3.org/2000/svg">
<path d="M34.924 15.7744L21.6692 2.51971C20.299 1.1494 18.0692 1.14932 16.6988 2.51971C15.4669 3.7515 15.3608 5.63017 16.2705 6.97165L16.2521 7.06391C15.2964 11.8424 12.97 16.1896 9.52394 19.6355L3.44434 25.7151C2.07075 27.0888 2.07052 29.3119 3.44434 30.6856L6.75793 33.9992C8.13144 35.3728 10.3547 35.3728 11.7284 33.9992L12.5568 33.1707L18.3557 38.9696C19.7293 40.3433 21.9524 40.3434 23.3261 38.9696C24.6965 37.5993 24.6965 35.3696 23.3261 33.9993L20.8409 31.514L21.6693 30.6856C23.0429 29.3121 23.0431 27.089 21.6693 25.7152L21.1063 25.1522C23.8758 23.2132 27.021 21.8633 30.3798 21.1915L30.4733 21.1728C31.8446 22.0987 33.7189 21.9498 34.924 20.7447H34.924C36.2942 19.3745 36.2942 17.1448 34.924 15.7744ZM10.0716 32.3424C9.61379 32.8001 8.87254 32.8002 8.41472 32.3423L5.10114 29.0287C4.64325 28.5707 4.64325 27.8298 5.10114 27.3719L10.9 21.573L15.8704 26.5435C15.3031 27.1108 10.6529 31.761 10.0716 32.3424ZM21.6692 35.656C22.1259 36.1127 22.1259 36.856 21.6692 37.3128C21.2125 37.7695 20.4692 37.7695 20.0124 37.3128L14.2135 31.5139L15.8704 29.8571L21.6692 35.656ZM17.5272 28.2003C17.8794 27.8481 18.4066 27.3086 19.2386 26.598L20.0124 27.3719C20.4703 27.8298 20.4703 28.5707 20.0124 29.0287L19.184 29.8572L17.5272 28.2003ZM17.577 24.9365L12.5068 19.8664C15.2239 16.729 17.1697 13.0255 18.2107 9.00204L28.4413 19.2326C24.4179 20.2736 20.7145 22.2194 17.577 24.9365ZM33.2669 19.0879C32.8091 19.5457 32.068 19.5457 31.6101 19.0879L18.3556 5.83329C17.8977 5.37532 17.8977 4.63439 18.3556 4.1765C18.8135 3.71861 19.5545 3.71861 20.0124 4.1765L33.2669 17.431C33.7237 17.8878 33.7237 18.631 33.2669 19.0879Z" fill="#242733"/>
<path d="M11.727 25.7152C11.2696 25.2577 10.5277 25.2577 10.0702 25.7152L8.41344 27.372C7.95594 27.8295 7.95594 28.5713 8.41344 29.0288C8.87086 29.4863 9.61281 29.4863 10.0702 29.0288L11.727 27.372C12.1845 26.9145 12.1845 26.1727 11.727 25.7152Z" fill="#242733"/>
<path d="M27.0544 0C26.4073 0 25.8828 0.52453 25.8828 1.17156V3.51468C25.8828 4.16171 26.4073 4.68624 27.0544 4.68624C27.7014 4.68624 28.2259 4.16171 28.2259 3.51468V1.17156C28.2259 0.52453 27.7014 0 27.0544 0Z" fill="#242733"/>
<path d="M36.4287 9.37231H34.0856C33.4386 9.37231 32.9141 9.89684 32.9141 10.5439C32.9141 11.1909 33.4386 11.7154 34.0856 11.7154H36.4287C37.0758 11.7154 37.6003 11.1909 37.6003 10.5439C37.6003 9.89684 37.0757 9.37231 36.4287 9.37231Z" fill="#242733"/>
<path d="M34.9134 2.68614C34.4559 2.22864 33.7141 2.22864 33.2566 2.68614L30.9134 5.02926C30.4559 5.48676 30.4559 6.22856 30.9134 6.68606C31.3709 7.14355 32.1127 7.14363 32.5702 6.68606L34.9134 4.34294C35.3709 3.88544 35.3709 3.14372 34.9134 2.68614Z" fill="#242733"/>
</svg>
