<svg width="40" height="41" viewBox="0 0 40 41" fill="none" xmlns="http://www.w3.org/2000/svg">
<path d="M0 0.5V2.84375H2.5068C2.37672 3.21055 2.30586 3.60508 2.30586 4.01594V7.53172H9.33742V4.01594C9.33742 3.60508 9.26656 3.21055 9.13648 2.84375H16.6852C16.5551 3.21055 16.4842 3.60508 16.4842 4.01594V7.53172H23.5158V4.01594C23.5158 3.60508 23.4449 3.21055 23.3148 2.84375H30.8635C30.7334 3.21055 30.6626 3.60508 30.6626 4.01594V7.53172H37.6941V4.01594C37.6941 3.60508 37.6233 3.21055 37.4932 2.84375H40V0.5H0ZM6.99367 5.18797H4.64961V4.01594C4.64961 3.36969 5.17531 2.84391 5.82164 2.84391C6.46797 2.84391 6.99367 3.36961 6.99367 4.01594V5.18797ZM21.172 5.18797H18.828V4.01594C18.828 3.36969 19.3537 2.84391 20 2.84391C20.6463 2.84391 21.172 3.36961 21.172 4.01594V5.18797ZM35.3504 5.18797H33.0063V4.01594C33.0063 3.36969 33.532 2.84391 34.1784 2.84391C34.8247 2.84391 35.3504 3.36961 35.3504 4.01594V5.18797Z" fill="#242733"/>
<path d="M29.8237 30.727H35.5486V28.705C35.5486 26.046 35.0732 23.4362 34.1358 20.9477L34.8888 18.2219V12.5941H31.9527V9.875H25.351V12.5941H22.4148V18.2219L23.1678 20.9477C22.2304 23.4359 21.7551 26.0459 21.7551 28.705V30.727H27.48V33.4676H12.5201V30.727H18.245V28.705C18.245 26.0459 17.7697 23.436 16.8323 20.9477L17.5853 18.2219V12.5941H14.6491V9.875H8.04739V12.5941H5.11129V18.2219L5.86426 20.9477C4.92684 23.4361 4.45153 26.046 4.45153 28.705V30.727H10.1764V33.4676H0.00012207V40.4991H40V33.4676H29.8237V30.727ZM27.6947 14.9378V12.2187H29.6089V14.9378H32.3171C31.8525 16.0821 30.7289 16.8912 29.4199 16.8912H27.8839C26.5748 16.8912 25.4512 16.0821 24.9867 14.9378H27.6947ZM24.8768 18.3321C25.7401 18.9026 26.7739 19.2349 27.8839 19.2349H29.4198C30.5297 19.2349 31.5635 18.9025 32.4268 18.3321L31.6734 21.0597L31.9424 21.7736C32.7422 23.8966 33.1656 26.1186 33.2022 28.3833H24.1014C24.1381 26.1184 24.5615 23.8964 25.3611 21.7736L25.6302 21.0596L24.8768 18.3321ZM10.3911 14.9378V12.2187H12.3054V14.9378H15.2415V16.8912H12.8878L12.459 17.1773C11.7843 17.6276 10.9125 17.6277 10.2377 17.1774L9.80879 16.8912H7.45504V14.9378H10.3911ZM7.82262 19.2349H9.10676C9.79778 19.6518 10.5729 19.8602 11.3482 19.8601C12.1234 19.8601 12.8987 19.6516 13.5896 19.2349H14.8738L14.3697 21.0596L14.6387 21.7735C15.4385 23.8964 15.8618 26.1184 15.8985 28.3832H6.79786C6.8345 26.1185 7.25786 23.8965 8.05762 21.7735L8.32668 21.0595L7.82262 19.2349ZM37.6562 38.1554H2.34387V35.8113H37.6562V38.1554Z" fill="#242733"/>
</svg>
