<svg width="28" height="28" viewBox="0 0 28 28" fill="none" xmlns="http://www.w3.org/2000/svg">
<path d="M24.9752 12.8606C24.849 12.7435 24.7002 12.6537 24.5378 12.5968C24.3754 12.5399 24.2031 12.5171 24.0314 12.5299L23.1258 12.5972C23.0103 12.606 22.9029 12.6602 22.8271 12.7481C22.7515 12.8359 22.7139 12.9502 22.7224 13.0658C22.7399 13.3064 22.9477 13.4884 23.191 13.4696L24.0967 13.4022C24.1482 13.3985 24.1998 13.4054 24.2487 13.4226C24.2974 13.4397 24.3421 13.4668 24.3799 13.5019C24.4178 13.5371 24.4479 13.5797 24.4686 13.6271C24.4892 13.6744 24.5 13.7255 24.5 13.7772V17.7173C24.5003 17.769 24.4898 17.8202 24.4691 17.8677C24.4485 17.9152 24.4181 17.9579 24.3802 17.9929C24.3424 18.0283 24.2977 18.0554 24.2488 18.0725C24.2 18.0896 24.1482 18.0963 24.0967 18.0923L23.191 18.0249C22.9243 18.0046 22.658 18.0708 22.4319 18.2136C22.2058 18.3566 22.0317 18.5684 21.9353 18.818C21.8877 18.9405 21.8373 19.0618 21.784 19.1812C21.6737 19.426 21.6457 19.7002 21.7043 19.9622C21.7629 20.2243 21.905 20.4604 22.1091 20.635L22.7973 21.2283C22.8773 21.2978 22.9237 21.3936 22.9277 21.4994C22.9316 21.6054 22.8927 21.7038 22.8178 21.7786L20.0309 24.565C19.9947 24.6019 19.9511 24.6305 19.903 24.6494C19.8549 24.6682 19.8034 24.6767 19.7518 24.6744C19.7001 24.6728 19.6493 24.6604 19.6027 24.638C19.556 24.6156 19.5146 24.5838 19.481 24.5445L18.8882 23.8563C18.7135 23.6521 18.4773 23.51 18.215 23.4513C17.9528 23.3927 17.6785 23.4208 17.4335 23.5313C17.3141 23.5846 17.1935 23.6351 17.0717 23.6826C16.8217 23.7784 16.6093 23.9524 16.4662 24.1786C16.3232 24.4049 16.2569 24.6713 16.2777 24.9383L16.345 25.8439C16.3491 25.8955 16.3422 25.9473 16.3251 25.9961C16.308 26.0448 16.281 26.0896 16.2457 26.1274C16.2106 26.1654 16.1679 26.1957 16.1204 26.2163C16.073 26.2369 16.0217 26.2475 15.9701 26.2473H12.0299C11.9782 26.2475 11.927 26.2369 11.8795 26.2163C11.8321 26.1957 11.7894 26.1654 11.7543 26.1274C11.719 26.0896 11.6919 26.0448 11.6748 25.9961C11.6577 25.9473 11.651 25.8955 11.655 25.8439L11.7224 24.9383C11.7431 24.6714 11.677 24.405 11.534 24.1786C11.391 23.9524 11.1787 23.7784 10.9288 23.6826C10.8065 23.6351 10.6854 23.5846 10.5656 23.5313C10.3208 23.4211 10.0468 23.3934 9.78484 23.4519C9.52284 23.5105 9.28687 23.6524 9.11225 23.8563L8.519 24.5445C8.48534 24.5839 8.44385 24.6158 8.39713 24.6383C8.35043 24.6608 8.29955 24.6732 8.24775 24.6749C8.1961 24.6773 8.14454 24.6688 8.09642 24.6499C8.04832 24.631 8.00477 24.602 7.96863 24.565L5.18218 21.7782C5.10782 21.7038 5.06843 21.6049 5.07282 21.499C5.07718 21.3932 5.12268 21.2978 5.20275 21.2283L5.89093 20.6354C6.09518 20.4608 6.23727 20.2247 6.29588 19.9625C6.35449 19.7003 6.32646 19.426 6.216 19.1812C6.16263 19.0618 6.11232 18.9405 6.06463 18.8189C5.96952 18.5686 5.79569 18.3556 5.56926 18.2125C5.34283 18.0693 5.07605 18.0035 4.809 18.0249L3.90337 18.0923C3.85185 18.0959 3.80009 18.0891 3.75136 18.0718C3.70262 18.0547 3.65793 18.0277 3.62009 17.9926C3.58225 17.9574 3.55205 17.9147 3.53139 17.8674C3.51074 17.8201 3.50004 17.769 3.5 17.7173V13.7772C3.5 13.6713 3.54288 13.5738 3.61988 13.5016C3.65789 13.4666 3.70264 13.4398 3.75138 13.4227C3.80013 13.4056 3.85185 13.3987 3.90337 13.4022L4.809 13.4696C5.07601 13.4912 5.34279 13.4254 5.56921 13.2823C5.79565 13.1392 5.9695 12.9264 6.06463 12.676C6.11216 12.5538 6.16263 12.4327 6.216 12.3129C6.32625 12.068 6.35417 11.7941 6.29556 11.532C6.23696 11.27 6.09498 11.034 5.89093 10.8595L5.20275 10.2663C5.12268 10.1967 5.07632 10.1009 5.07237 9.99499C5.06843 9.88912 5.10738 9.79069 5.18218 9.71587C5.26428 9.63383 5.31042 9.52255 5.31047 9.4065C5.31051 9.29044 5.26445 9.17913 5.18241 9.09703C5.10037 9.01494 4.98908 8.96879 4.87304 8.96875C4.75698 8.96871 4.64566 9.01478 4.56357 9.09681C4.44214 9.21861 4.34707 9.36405 4.28422 9.52414C4.22139 9.68422 4.19212 9.85551 4.19825 10.0274C4.21093 10.3739 4.36888 10.7024 4.63138 10.9286L5.32 11.5223C5.3809 11.5747 5.42318 11.6453 5.44054 11.7237C5.45789 11.8021 5.44937 11.884 5.41625 11.9572C5.35763 12.0893 5.3025 12.2232 5.24913 12.3588C5.22071 12.4338 5.16879 12.4975 5.10112 12.5405C5.03345 12.5835 4.95368 12.6034 4.87375 12.5972L3.96812 12.5299C3.62032 12.5027 3.27863 12.6248 3.02488 12.8606C2.77113 13.0964 2.625 13.4307 2.625 13.7772V17.7173C2.625 18.0638 2.77068 18.398 3.02488 18.6339C3.27863 18.8697 3.62075 18.9914 3.96857 18.9646L4.87418 18.8973C4.95426 18.891 5.0342 18.9108 5.10194 18.9541C5.16967 18.9972 5.22148 19.0613 5.24957 19.1365C5.30207 19.2713 5.35762 19.4048 5.41582 19.5364C5.44918 19.6097 5.45783 19.6919 5.44047 19.7706C5.42311 19.8493 5.38069 19.9201 5.31957 19.9726L4.63138 20.5659C4.50122 20.6784 4.39559 20.8164 4.32109 20.9715C4.24658 21.1265 4.20476 21.2952 4.19825 21.4671C4.18512 21.8132 4.31857 22.1527 4.56357 22.3973L7.35 25.1841C7.595 25.4291 7.93493 25.5648 8.28057 25.5494C8.45246 25.5429 8.62119 25.5011 8.77624 25.4266C8.93127 25.3521 9.06934 25.2464 9.18182 25.1163L9.7755 24.4277C9.82789 24.3668 9.89855 24.3246 9.97693 24.3073C10.0553 24.2899 10.1372 24.2983 10.2104 24.3314C10.3425 24.39 10.4764 24.4452 10.612 24.4985C10.6869 24.5271 10.7505 24.579 10.7935 24.6467C10.8365 24.7143 10.8564 24.7941 10.8504 24.8739L10.7831 25.7795C10.7568 26.1252 10.878 26.469 11.1138 26.7229C11.3496 26.9765 11.6839 27.1227 12.0304 27.1227H15.9705C16.317 27.1227 16.6512 26.9769 16.8871 26.7229C17.1228 26.4686 17.2437 26.1252 17.2178 25.7791L17.1504 24.8734C17.1445 24.7935 17.1646 24.7138 17.2077 24.6462C17.2507 24.5786 17.3144 24.5267 17.3893 24.4981C17.5249 24.4456 17.6583 24.39 17.7897 24.3319C17.8629 24.2983 17.9452 24.2896 18.0239 24.307C18.1026 24.3244 18.1734 24.3669 18.2258 24.4281L18.8191 25.1163C19.0453 25.3788 19.3738 25.5368 19.7203 25.5494C19.8922 25.5559 20.0635 25.5268 20.2236 25.464C20.3836 25.4011 20.5289 25.3058 20.6504 25.1841L23.4368 22.3973C23.6818 22.1523 23.8153 21.8128 23.8022 21.4667C23.7957 21.2948 23.7538 21.1261 23.6793 20.971C23.6048 20.816 23.4993 20.6779 23.3691 20.5654L22.6804 19.9718C22.6195 19.9193 22.5772 19.8486 22.5599 19.7702C22.5425 19.6916 22.5511 19.6096 22.5842 19.5364C22.6428 19.4043 22.6979 19.2709 22.7513 19.1353C22.7795 19.0602 22.8315 18.9964 22.8992 18.9534C22.9669 18.9104 23.0468 18.8905 23.1267 18.8968L24.0323 18.9642C24.2038 18.9768 24.3761 18.9538 24.5384 18.897C24.7006 18.84 24.8494 18.7504 24.9756 18.6334C25.2297 18.3976 25.3754 18.0634 25.3754 17.7169V13.7767C25.3754 13.4303 25.2293 13.0964 24.9752 12.8606Z" fill="#4E546D"/>
<path d="M8.78347 11.1928C8.73796 11.1576 8.68595 11.1317 8.63043 11.1167C8.5749 11.1017 8.51696 11.0978 8.45992 11.1052C8.40288 11.1127 8.34788 11.1313 8.29807 11.1601C8.24825 11.1888 8.20462 11.2272 8.16966 11.2728C7.17863 12.5543 6.64332 14.1298 6.64847 15.7497C6.64847 19.8023 9.94547 23.0993 13.998 23.0993C18.0506 23.0993 21.348 19.8023 21.348 15.7497C21.348 14.8187 21.1761 13.9114 20.837 13.0526C20.7939 12.9454 20.71 12.8597 20.6039 12.8141C20.4978 12.7685 20.3778 12.7667 20.2704 12.8092C20.1631 12.8516 20.0767 12.9349 20.0303 13.0407C19.9841 13.1466 19.9815 13.2664 20.0233 13.3741C20.3218 14.1305 20.4744 14.9366 20.473 15.7497C20.473 19.3197 17.5684 22.2243 13.9984 22.2243C10.4285 22.2243 7.52391 19.3197 7.52391 15.7497C7.51916 14.3231 7.99025 12.9355 8.86266 11.8066C8.89776 11.7611 8.92353 11.7091 8.93852 11.6536C8.95352 11.5981 8.95744 11.5402 8.95003 11.4832C8.94264 11.4262 8.92409 11.3712 8.89543 11.3214C8.86677 11.2715 8.82902 11.2278 8.78347 11.1928Z" fill="#4E546D"/>
<path d="M11.1365 10.5661C11.5644 10.5661 11.994 10.5092 12.4184 10.409C12.8716 11.1466 13.1932 11.9823 13.2312 12.8896C13.2124 14.4537 13.3039 16.2527 13.5585 18.3322C13.574 18.4461 13.6337 18.5493 13.7248 18.6196C13.8159 18.6899 13.931 18.7214 14.0451 18.7074C14.1594 18.6934 14.2634 18.635 14.3348 18.545C14.4063 18.4548 14.4394 18.3401 14.4269 18.2258C14.1732 15.6446 13.5707 12.9426 15.4432 11.1528C16.3149 11.6745 17.3117 11.9504 18.3277 11.9512C19.2066 11.9521 20.0734 11.7452 20.8572 11.3474C22.6305 10.4453 23.7995 8.6472 23.9084 6.65395C23.9126 6.57699 23.8964 6.5003 23.8615 6.43161C23.8265 6.36293 23.774 6.3047 23.7093 6.26282C22.0342 5.1765 19.8922 5.06188 18.1194 5.96357C16.4569 6.80925 15.3256 8.44375 15.1016 10.2878C14.7497 10.607 14.437 10.9666 14.1697 11.3593C14.3211 9.16563 14.7166 7.57925 15.1527 6.4597C16.3467 6.4365 17.4741 5.84325 18.1566 4.85232C18.5262 4.31262 18.748 3.6855 18.7998 3.03341C18.8516 2.38133 18.7316 1.72705 18.4519 1.13575C18.419 1.06612 18.3683 1.0064 18.3049 0.962612C18.2415 0.918828 18.1677 0.892533 18.091 0.886379C17.4386 0.83538 16.7842 0.956411 16.1933 1.23739C15.6023 1.51837 15.0954 1.94946 14.7231 2.48763C14.0042 3.53107 13.877 4.87725 14.3643 6.04407C13.9518 7.07788 13.5777 8.46607 13.3782 10.3084C13.2571 10.0817 13.1246 9.86121 12.9814 9.64775C13.3161 7.84307 12.7465 5.96488 11.4414 4.66025C10.0353 3.2537 7.96242 2.6985 6.03392 3.213C5.95948 3.23282 5.89161 3.27194 5.83713 3.32641C5.78267 3.38087 5.74354 3.44876 5.72373 3.5232C5.20967 5.45213 5.76442 7.52413 7.17054 8.9307C8.22394 9.97928 9.65015 10.5674 11.1365 10.5661ZM18.5162 6.74363C19.2171 6.38971 19.995 6.21533 20.78 6.2361C21.5649 6.25687 22.3324 6.47214 23.0137 6.86263C22.8405 8.442 21.8797 9.8455 20.4609 10.5674C19.1002 11.2586 17.4851 11.2333 16.1392 10.5346C17.6403 9.40143 19.4315 9.107 19.5548 9.08775C19.6688 9.0694 19.7708 9.00676 19.8389 8.91348C19.9068 8.82021 19.9352 8.70386 19.9177 8.58976C19.9003 8.47567 19.8385 8.37309 19.7458 8.30437C19.6531 8.23563 19.5369 8.20632 19.4227 8.22282C19.3921 8.2272 17.7663 8.491 16.1847 9.47275C16.5728 8.30595 17.3988 7.31195 18.5162 6.74363ZM15.4441 2.9842C15.7041 2.6087 16.0502 2.30083 16.4534 2.08621C16.8566 1.8716 17.3053 1.75648 17.762 1.75045C17.9193 2.17928 17.9718 2.63952 17.9153 3.09278C17.8586 3.54606 17.6945 3.97922 17.4365 4.3562C17.2192 4.66864 16.9419 4.93461 16.6206 5.13849C16.2993 5.34237 15.9404 5.48009 15.5652 5.54357C16.138 4.4415 16.6652 4.04645 16.6866 4.03113C16.7342 3.99896 16.775 3.95772 16.8066 3.90978C16.8383 3.86184 16.8602 3.80813 16.8712 3.75172C16.8821 3.69531 16.8818 3.63731 16.8702 3.58102C16.8587 3.52472 16.8363 3.47126 16.8041 3.42366C16.7719 3.37606 16.7306 3.33526 16.6827 3.30359C16.6348 3.27194 16.5811 3.25002 16.5247 3.23911C16.4682 3.2282 16.4103 3.22851 16.354 3.24002C16.2977 3.25153 16.2442 3.27401 16.1966 3.3062C16.1353 3.34732 15.5736 3.74588 14.9554 4.81425C14.905 4.16623 15.0773 3.52087 15.4441 2.9842ZM6.50992 3.9992C7.27855 3.83867 8.07502 3.87157 8.8278 4.09493C9.58058 4.31829 10.2661 4.72511 10.8228 5.27888C11.7197 6.17575 12.197 7.3942 12.1935 8.63888C10.9834 7.28307 9.6271 6.47588 9.52648 6.41725C9.42623 6.35872 9.30682 6.34241 9.19454 6.37189C9.08226 6.40139 8.98629 6.47429 8.92776 6.57454C8.86923 6.67478 8.8529 6.79419 8.8824 6.90647C8.9119 7.01875 8.98478 7.11472 9.08504 7.17325C9.11042 7.1877 10.6736 8.11825 11.8732 9.62457C10.3879 9.8595 8.85973 9.38263 7.78917 8.31207C6.66392 7.18638 6.18529 5.55407 6.50992 3.9992Z" fill="#4E546D"/>
</svg>
