<svg width="40" height="39" viewBox="0 0 40 39" fill="none" xmlns="http://www.w3.org/2000/svg">
<path d="M0 0.96875V30.2888H15.6295V35.6772H6.10865V38.0255H33.8652V35.6772H24.3705V30.2888H40V0.96875H0ZM37.6517 3.31709V16.6175H28.2452V3.31709H37.6517ZM14.154 3.31709C13.593 9.56859 8.59984 14.5619 2.34834 15.1227V12.2931C7.04611 11.7532 10.7844 8.01486 11.3244 3.31709H14.154ZM8.95624 3.31709C8.44524 6.71842 5.74959 9.414 2.34834 9.92499V3.31709H8.95624ZM2.34834 27.9405V17.4801C9.89573 16.9077 15.9389 10.8645 16.5113 3.31709H20.2537C20.1605 6.55967 19.0507 9.75067 17.1036 12.3479L18.9825 13.7565C21.2324 10.7556 22.5092 7.06448 22.6031 3.31709H25.8969V12.3372C25.6303 12.3769 25.3378 12.4467 25.0244 12.5609C23.4397 13.1382 22.0203 14.5745 20.8058 16.8294C19.1907 19.828 15.8834 19.1927 14.1837 18.3446C12.4766 17.4928 10.6425 17.5644 8.87906 18.5518C7.64587 19.2423 6.88681 20.14 6.80431 20.2401L8.61628 21.7338C8.63702 21.7086 10.7138 19.2375 13.1352 20.4459C14.7429 21.248 16.5894 21.563 18.2007 21.31C20.244 20.9891 21.8597 19.8248 22.8732 17.9429C23.9642 15.9172 24.9888 15.1359 25.6562 14.8372C25.7407 14.7994 25.8208 14.7689 25.8968 14.7438V18.9658V21.0455C22.3386 21.5609 19.5174 24.3822 19.002 27.9404H2.34834V27.9405ZM22.0222 35.6772H17.9778V30.2888H22.0222V35.6772ZM21.385 27.9405C21.8512 25.6796 23.636 23.8947 25.8969 23.4285V27.9405H21.385ZM37.6517 27.9405H28.2452V18.9659H37.6517V27.9405Z" fill="#242733"/>
<path d="M31.7743 6.17969H34.1226V8.52802H31.7743V6.17969Z" fill="#242733"/>
<path d="M31.7743 11.4062H34.1226V13.7546H31.7743V11.4062Z" fill="#242733"/>
<path d="M31.7743 22.3477H34.1226V24.696H31.7743V22.3477Z" fill="#242733"/>
</svg>
