<svg width="25" height="24" viewBox="0 0 25 24" fill="none" xmlns="http://www.w3.org/2000/svg">
<g clip-path="url(#clip0_1091_6590)">
<path d="M23.75 0.375H1.25C1.15054 0.375 1.05516 0.414509 0.984835 0.484835C0.914509 0.555161 0.875 0.650544 0.875 0.75V2.25C0.875 2.34946 0.914509 2.44484 0.984835 2.51516C1.05516 2.58549 1.15054 2.625 1.25 2.625H6.125V3.14325L4.85375 3.78075C4.03121 4.02848 3.30996 4.53378 2.7962 5.22225C2.28245 5.91072 2.00335 6.74597 2 7.605V8.625C2 8.72446 2.03951 8.81984 2.10984 8.89017C2.18016 8.96049 2.27554 9 2.375 9H3.5V12C3.5 12.0995 3.53951 12.1948 3.60984 12.2652C3.68016 12.3355 3.77554 12.375 3.875 12.375H21.125C21.2245 12.375 21.3198 12.3355 21.3902 12.2652C21.4605 12.1948 21.5 12.0995 21.5 12V9H22.625C22.7245 9 22.8198 8.96049 22.8902 8.89017C22.9605 8.81984 23 8.72446 23 8.625V7.605C22.9969 6.74599 22.718 5.91068 22.2045 5.22207C21.6909 4.53347 20.9698 4.02796 20.1474 3.78L18.875 3.14325V2.625H23.75C23.8495 2.625 23.9448 2.58549 24.0152 2.51516C24.0855 2.44484 24.125 2.34946 24.125 2.25V0.75C24.125 0.650544 24.0855 0.555161 24.0152 0.484835C23.9448 0.414509 23.8495 0.375 23.75 0.375ZM9.125 2.625V3.14325L8 3.70575L6.875 3.14325V2.625H9.125ZM18.5 3.79425L19.6014 4.34512C19.5713 4.49605 19.5105 4.63918 19.4227 4.76561C19.335 4.89205 19.2222 4.99911 19.0914 5.08012C18.7625 4.67718 18.3582 4.34218 17.9011 4.09387L18.5 3.79425ZM16.0914 5.08012C15.7625 4.67718 15.3582 4.34218 14.9011 4.09387L15.5011 3.79387L16.6025 4.34475C16.5723 4.49584 16.5114 4.63909 16.4234 4.76561C16.3355 4.89212 16.2225 4.99918 16.0914 5.08012ZM13.0914 5.08012C12.7625 4.67718 12.3582 4.34218 11.9011 4.09387L12.5011 3.79387L13.6025 4.34475C13.5723 4.49584 13.5114 4.63909 13.4234 4.76561C13.3355 4.89212 13.2225 4.99918 13.0914 5.08012ZM10.0914 5.08012C9.76246 4.67718 9.35818 4.34218 8.90112 4.09387L9.50113 3.79387L10.6025 4.34475C10.5723 4.49584 10.5114 4.63909 10.4234 4.76561C10.3355 4.89212 10.2225 4.99918 10.0914 5.08012ZM7.60287 4.3455C7.5516 4.60022 7.41373 4.82934 7.21269 4.99394C7.01165 5.15854 6.75983 5.24848 6.5 5.24848C6.24017 5.24848 5.98835 5.15854 5.78731 4.99394C5.58627 4.82934 5.4484 4.60022 5.39713 4.3455L6.5 3.79425L7.60287 4.3455ZM15.125 3.14325L14 3.70575L12.875 3.14325V2.625H15.125V3.14325ZM12.125 3.14325L11 3.70575L9.875 3.14325V2.625H12.125V3.14325ZM8.75 7.125V11.625H4.25V7.125H3.5V8.25H2.75V7.605C2.75213 6.97455 2.937 6.35824 3.28223 5.83071C3.62746 5.30318 4.11824 4.88706 4.69513 4.63275C4.80586 5.02619 5.04212 5.37266 5.36793 5.61944C5.69375 5.86621 6.09128 5.99976 6.5 5.99976C6.90872 5.99976 7.30625 5.86621 7.63207 5.61944C7.95788 5.37266 8.19414 5.02619 8.30487 4.63275C8.88176 4.88706 9.37254 5.30318 9.71777 5.83071C10.063 6.35824 10.2479 6.97455 10.25 7.605V8.25H9.5V7.125H8.75ZM11.75 7.125V11.625H9.5V9H10.625C10.7245 9 10.8198 8.96049 10.8902 8.89017C10.9605 8.81984 11 8.72446 11 8.625V7.605C10.9998 6.93917 10.8322 6.28407 10.5125 5.7C10.8993 5.45355 11.1821 5.07362 11.3071 4.63237C11.8836 4.88705 12.374 5.30337 12.7188 5.83094C13.0636 6.35852 13.2481 6.97474 13.25 7.605V8.25H12.5V7.125H11.75ZM14.75 7.125V11.625H12.5V9H13.625C13.7245 9 13.8198 8.96049 13.8902 8.89017C13.9605 8.81984 14 8.72446 14 8.625V7.605C13.9998 6.93917 13.8322 6.28407 13.5125 5.7C13.8993 5.45355 14.1821 5.07362 14.3071 4.63237C14.8836 4.88705 15.374 5.30337 15.7188 5.83094C16.0636 6.35852 16.2481 6.97474 16.25 7.605V8.25H15.5V7.125H14.75ZM17.75 7.125V11.625H15.5V9H16.625C16.7245 9 16.8198 8.96049 16.8902 8.89017C16.9605 8.81984 17 8.72446 17 8.625V7.605C16.9998 6.93917 16.8322 6.28407 16.5125 5.7C16.8993 5.45355 17.1821 5.07362 17.3071 4.63237C17.8836 4.88705 18.374 5.30337 18.7188 5.83094C19.0636 6.35852 19.2481 6.97474 19.25 7.605V8.25H18.5V7.125H17.75ZM22.25 7.605V8.25H21.5V7.125H20.75V11.625H18.5V9H19.625C19.7245 9 19.8198 8.96049 19.8902 8.89017C19.9605 8.81984 20 8.72446 20 8.625V7.605C19.9998 6.93917 19.8322 6.28407 19.5125 5.7C19.8993 5.45355 20.1821 5.07362 20.3071 4.63237C20.8836 4.88705 21.374 5.30337 21.7188 5.83094C22.0636 6.35852 22.2481 6.97474 22.25 7.605ZM18.125 3.14325L17 3.70575L15.875 3.14325V2.625H18.125V3.14325ZM23.375 1.875H1.625V1.125H23.375V1.875Z" fill="#4E546D"/>
<path d="M23.75 13.125H1.25C1.15054 13.125 1.05516 13.1645 0.984835 13.2348C0.914509 13.3052 0.875 13.4005 0.875 13.5V15C0.875 15.0995 0.914509 15.1948 0.984835 15.2652C1.05516 15.3355 1.15054 15.375 1.25 15.375H6.875V16.2994L4.8875 17.625H4.625C4.52554 17.625 4.43016 17.6645 4.35984 17.7348C4.28951 17.8052 4.25 17.9005 4.25 18V23.25C4.25 23.3495 4.28951 23.4448 4.35984 23.5152C4.43016 23.5855 4.52554 23.625 4.625 23.625H6.5C6.58151 23.625 6.66081 23.5985 6.7259 23.5495C6.791 23.5004 6.83834 23.4315 6.86075 23.3531L7.3205 21.7406L8.03037 23.3962C8.05906 23.464 8.10702 23.5218 8.1683 23.5624C8.22957 23.6031 8.30145 23.6249 8.375 23.625H9.875C9.97446 23.625 10.0698 23.5855 10.1402 23.5152C10.2105 23.4448 10.25 23.3495 10.25 23.25V22.452L10.6554 23.3978C10.6843 23.4652 10.7323 23.5227 10.7936 23.5631C10.8549 23.6035 10.9266 23.625 11 23.625H12.5C12.5995 23.625 12.6948 23.5855 12.7652 23.5152C12.8355 23.4448 12.875 23.3495 12.875 23.25V22.452L13.2804 23.3978C13.3093 23.4652 13.3573 23.5227 13.4186 23.5631C13.4799 23.6035 13.5516 23.625 13.625 23.625H15.125C15.2245 23.625 15.3198 23.5855 15.3902 23.5152C15.4605 23.4448 15.5 23.3495 15.5 23.25V22.452L15.9054 23.3978C15.9343 23.4652 15.9823 23.5227 16.0436 23.5631C16.1049 23.6035 16.1766 23.625 16.25 23.625H17.75C17.8495 23.625 17.9448 23.5855 18.0152 23.5152C18.0855 23.4448 18.125 23.3495 18.125 23.25V22.452L18.5304 23.3978C18.5593 23.4652 18.6073 23.5227 18.6686 23.5631C18.7299 23.6035 18.8016 23.625 18.875 23.625H20.375C20.4745 23.625 20.5698 23.5855 20.6402 23.5152C20.7105 23.4448 20.75 23.3495 20.75 23.25V18C20.75 17.9005 20.7105 17.8052 20.6402 17.7348C20.5698 17.6645 20.4745 17.625 20.375 17.625H20.1125L18.125 16.2994V15.375H23.75C23.8495 15.375 23.9448 15.3355 24.0152 15.2652C24.0855 15.1948 24.125 15.0995 24.125 15V13.5C24.125 13.4005 24.0855 13.3052 24.0152 13.2348C23.9448 13.1645 23.8495 13.125 23.75 13.125ZM9.5 15.375V16.2994L8.5625 16.9245L7.625 16.2994V15.375H9.5ZM9.875 17.625H9.6125L9.2375 17.3749L9.875 16.95L10.8875 17.625H9.875ZM12.5 17.625H12.2375L11.8625 17.3749L12.5 16.95L13.5125 17.625H12.5ZM15.125 17.625H14.8625L14.4875 17.3749L15.125 16.95L16.1375 17.625H15.125ZM14.75 16.2994L13.8125 16.9245L12.875 16.2994V15.375H14.75V16.2994ZM12.125 16.2994L11.1875 16.9245L10.25 16.2994V15.375H12.125V16.2994ZM7.25 16.95L8.2625 17.625H6.2375L7.25 16.95ZM9.5 22.875H8.62213L7.59463 20.4772C7.56491 20.4056 7.51326 20.3453 7.4471 20.3049C7.38093 20.2644 7.30366 20.246 7.22638 20.2523C7.14899 20.257 7.07499 20.2856 7.01455 20.3342C6.95411 20.3827 6.9102 20.4488 6.88888 20.5234L6.21725 22.875H5V18.375H9.5V22.875ZM12.125 22.875H11.2471L10.25 20.55V18.375H12.125V22.875ZM14.75 22.875H13.8721L12.875 20.55V18.375H14.75V22.875ZM17.375 22.875H16.4971L15.5 20.55V18.375H17.375V22.875ZM20 22.875H19.1221L18.125 20.55V18.375H20V22.875ZM17.75 17.625H17.4875L17.1125 17.3749L17.75 16.95L18.7625 17.625H17.75ZM17.375 16.2994L16.4375 16.9245L15.5 16.2994V15.375H17.375V16.2994ZM23.375 14.625H1.625V13.875H23.375V14.625Z" fill="#4E546D"/>
</g>
<defs>
<clipPath id="clip0_1091_6590">
<rect width="24" height="24" fill="white" transform="translate(0.5)"/>
</clipPath>
</defs>
</svg>
