<svg width="80" height="17" viewBox="0 0 80 17" fill="none" xmlns="http://www.w3.org/2000/svg">
<path d="M7.28419 3.21932C7.35021 3.08535 7.45242 2.97254 7.57924 2.89365C7.70606 2.81476 7.85244 2.77295 8.00179 2.77295C8.15115 2.77295 8.29752 2.81476 8.42435 2.89365C8.55117 2.97254 8.65337 3.08535 8.71939 3.21932L10.2634 6.34733L13.717 6.84973C13.8648 6.87118 14.0036 6.93356 14.1177 7.02981C14.2319 7.12605 14.3168 7.25232 14.3629 7.39433C14.409 7.53634 14.4145 7.68843 14.3787 7.83337C14.3428 7.97832 14.2672 8.11035 14.1602 8.21453L11.661 10.6497L12.2514 14.0897C12.2766 14.2368 12.2601 14.3881 12.2039 14.5263C12.1476 14.6646 12.0538 14.7844 11.9331 14.8721C11.8123 14.9598 11.6694 15.012 11.5205 15.0228C11.3716 15.0335 11.2227 15.0024 11.0906 14.9329L8.00259 13.3089L4.91299 14.9329C4.78084 15.0022 4.63192 15.0332 4.48309 15.0223C4.33426 15.0114 4.19143 14.9591 4.07076 14.8713C3.95009 14.7835 3.85638 14.6637 3.80023 14.5255C3.74408 14.3872 3.72771 14.236 3.75299 14.0889L4.34259 10.6497L1.84339 8.21453C1.73643 8.11035 1.66076 7.97832 1.62493 7.83337C1.58911 7.68843 1.59456 7.53634 1.64068 7.39433C1.68679 7.25232 1.77173 7.12605 1.88588 7.02981C2.00003 6.93356 2.13883 6.87118 2.28659 6.84973L5.74019 6.34812L7.28419 3.21932Z" fill="#EFA64A"/>
<path d="M23.2842 3.21932C23.3502 3.08535 23.4524 2.97254 23.5792 2.89365C23.7061 2.81476 23.8524 2.77295 24.0018 2.77295C24.1512 2.77295 24.2975 2.81476 24.4243 2.89365C24.5512 2.97254 24.6534 3.08535 24.7194 3.21932L26.2634 6.34733L29.717 6.84973C29.8648 6.87118 30.0036 6.93356 30.1177 7.02981C30.2319 7.12605 30.3168 7.25232 30.3629 7.39433C30.409 7.53634 30.4145 7.68843 30.3787 7.83337C30.3428 7.97832 30.2672 8.11035 30.1602 8.21453L27.661 10.6497L28.2514 14.0897C28.2766 14.2368 28.2601 14.3881 28.2039 14.5263C28.1476 14.6646 28.0538 14.7844 27.9331 14.8721C27.8123 14.9598 27.6694 15.012 27.5205 15.0228C27.3716 15.0335 27.2227 15.0024 27.0906 14.9329L24.0026 13.3089L20.913 14.9329C20.7808 15.0022 20.6319 15.0332 20.4831 15.0223C20.3343 15.0114 20.1914 14.9591 20.0708 14.8713C19.9501 14.7835 19.8564 14.6637 19.8002 14.5255C19.7441 14.3872 19.7277 14.236 19.753 14.0889L20.3426 10.6497L17.8434 8.21453C17.7364 8.11035 17.6608 7.97832 17.6249 7.83337C17.5891 7.68843 17.5946 7.53634 17.6407 7.39433C17.6868 7.25232 17.7717 7.12605 17.8859 7.02981C18 6.93356 18.1388 6.87118 18.2866 6.84973L21.7402 6.34812L23.2842 3.21932Z" fill="#EFA64A"/>
<path d="M39.2842 3.21932C39.3502 3.08535 39.4524 2.97254 39.5792 2.89365C39.7061 2.81476 39.8524 2.77295 40.0018 2.77295C40.1512 2.77295 40.2975 2.81476 40.4243 2.89365C40.5512 2.97254 40.6534 3.08535 40.7194 3.21932L42.2634 6.34733L45.717 6.84973C45.8648 6.87118 46.0036 6.93356 46.1177 7.02981C46.2319 7.12605 46.3168 7.25232 46.3629 7.39433C46.409 7.53634 46.4145 7.68843 46.3787 7.83337C46.3428 7.97832 46.2672 8.11035 46.1602 8.21453L43.661 10.6497L44.2514 14.0897C44.2766 14.2368 44.2601 14.3881 44.2039 14.5263C44.1476 14.6646 44.0538 14.7844 43.9331 14.8721C43.8123 14.9598 43.6694 15.012 43.5205 15.0228C43.3716 15.0335 43.2227 15.0024 43.0906 14.9329L40.0026 13.3089L36.913 14.9329C36.7808 15.0022 36.6319 15.0332 36.4831 15.0223C36.3343 15.0114 36.1914 14.9591 36.0708 14.8713C35.9501 14.7835 35.8564 14.6637 35.8002 14.5255C35.7441 14.3872 35.7277 14.236 35.753 14.0889L36.3426 10.6497L33.8434 8.21453C33.7364 8.11035 33.6608 7.97832 33.6249 7.83337C33.5891 7.68843 33.5946 7.53634 33.6407 7.39433C33.6868 7.25232 33.7717 7.12605 33.8859 7.02981C34 6.93356 34.1388 6.87118 34.2866 6.84973L37.7402 6.34812L39.2842 3.21932Z" fill="#EFA64A"/>
<path d="M55.2842 3.21932C55.3502 3.08535 55.4524 2.97254 55.5792 2.89365C55.7061 2.81476 55.8524 2.77295 56.0018 2.77295C56.1512 2.77295 56.2975 2.81476 56.4243 2.89365C56.5512 2.97254 56.6534 3.08535 56.7194 3.21932L58.2634 6.34733L61.717 6.84973C61.8648 6.87118 62.0036 6.93356 62.1177 7.02981C62.2319 7.12605 62.3168 7.25232 62.3629 7.39433C62.409 7.53634 62.4145 7.68843 62.3787 7.83337C62.3428 7.97832 62.2672 8.11035 62.1602 8.21453L59.661 10.6497L60.2514 14.0897C60.2766 14.2368 60.2601 14.3881 60.2039 14.5263C60.1476 14.6646 60.0538 14.7844 59.9331 14.8721C59.8123 14.9598 59.6694 15.012 59.5205 15.0228C59.3716 15.0335 59.2227 15.0024 59.0906 14.9329L56.0026 13.3089L52.913 14.9329C52.7808 15.0022 52.6319 15.0332 52.4831 15.0223C52.3343 15.0114 52.1914 14.9591 52.0708 14.8713C51.9501 14.7835 51.8564 14.6637 51.8002 14.5255C51.7441 14.3872 51.7277 14.236 51.753 14.0889L52.3426 10.6497L49.8434 8.21453C49.7364 8.11035 49.6608 7.97832 49.6249 7.83337C49.5891 7.68843 49.5946 7.53634 49.6407 7.39433C49.6868 7.25232 49.7717 7.12605 49.8859 7.02981C50 6.93356 50.1388 6.87118 50.2866 6.84973L53.7402 6.34812L55.2842 3.21932Z" fill="#EFA64A"/>
<path d="M71.2842 3.21932C71.3502 3.08535 71.4524 2.97254 71.5792 2.89365C71.7061 2.81476 71.8524 2.77295 72.0018 2.77295C72.1512 2.77295 72.2975 2.81476 72.4243 2.89365C72.5512 2.97254 72.6534 3.08535 72.7194 3.21932L74.2634 6.34733L77.717 6.84973C77.8648 6.87118 78.0036 6.93356 78.1177 7.02981C78.2319 7.12605 78.3168 7.25232 78.3629 7.39433C78.409 7.53634 78.4145 7.68843 78.3787 7.83337C78.3428 7.97832 78.2672 8.11035 78.1602 8.21453L75.661 10.6497L76.2514 14.0897C76.2766 14.2368 76.2601 14.3881 76.2039 14.5263C76.1476 14.6646 76.0538 14.7844 75.9331 14.8721C75.8123 14.9598 75.6694 15.012 75.5205 15.0228C75.3716 15.0335 75.2227 15.0024 75.0906 14.9329L72.0026 13.3089L68.913 14.9329C68.7808 15.0022 68.6319 15.0332 68.4831 15.0223C68.3343 15.0114 68.1914 14.9591 68.0708 14.8713C67.9501 14.7835 67.8564 14.6637 67.8002 14.5255C67.7441 14.3872 67.7277 14.236 67.753 14.0889L68.3426 10.6497L65.8434 8.21453C65.7364 8.11035 65.6608 7.97832 65.6249 7.83337C65.5891 7.68843 65.5946 7.53634 65.6407 7.39433C65.6868 7.25232 65.7717 7.12605 65.8859 7.02981C66 6.93356 66.1388 6.87118 66.2866 6.84973L69.7402 6.34812L71.2842 3.21932Z" fill="#EFA64A"/>
</svg>
