<svg width="25" height="26" viewBox="0 0 25 26" fill="none" xmlns="http://www.w3.org/2000/svg">
<mask id="path-1-outside-1_704_6347" maskUnits="userSpaceOnUse" x="-0.433594" y="0" width="25" height="26" fill="black">
<rect fill="white" x="-0.433594" width="25" height="26"/>
<path d="M23.9584 22.4464C23.5876 22.0116 23.041 21.7661 22.4731 21.7495C21.5429 21.6753 20.9974 20.5925 21.5028 19.8008L23.9434 15.9775C24.5677 14.9997 24.1822 13.7107 23.1839 13.1665C23.3429 12.917 23.4467 12.7489 23.4813 12.6833C23.9091 11.8709 23.5877 10.8365 22.7751 10.4091C21.9533 9.97679 20.9326 10.2934 20.5 11.1149C20.4717 11.1687 20.4115 11.3001 20.3252 11.4956L19.6237 11.0954C19.1468 10.8255 18.935 10.2335 19.2154 9.73759C19.4378 9.34409 18.8293 9.00007 18.6068 9.39349C18.149 10.2033 18.4637 11.2709 19.2821 11.7054L20.0448 12.1406C19.6322 13.0993 18.9932 14.6124 18.3026 16.2566C17.8139 15.3777 17.3186 14.501 17.0978 13.5098C16.5356 10.9867 17.8191 8.60503 19.1487 6.60798C19.5115 6.06318 19.5878 5.55599 19.3755 5.10045C18.8723 4.0205 16.8698 3.66549 15.1815 3.47682C14.1947 3.36655 14.1522 2.718 14.1522 1.89342C14.1522 0.699795 10.843 0.704595 10.843 1.89342C10.843 2.68459 10.8296 3.36524 9.85903 3.47035C8.10136 3.66023 6.02116 4.01626 5.53229 5.09332C5.39979 5.38527 5.33146 5.86137 5.75862 6.47118C6.57705 7.63964 7.1555 8.69312 7.52696 9.69178C7.72542 10.2252 7.86436 10.7465 7.94541 11.254L7.35288 11.267C7.34836 11.2671 7.34384 11.2673 7.33927 11.2676C4.64358 11.4321 2.70838 12.2085 1.58741 13.5755C0.777697 14.5628 0.432426 15.8589 0.613404 17.2275V22.1765C0.613404 22.813 1.03982 23.5169 1.75404 24.0593C2.55257 24.6659 3.63023 24.9999 4.78843 24.9999C7.32044 24.9999 9.63895 22.9447 9.7364 22.8573C9.81023 22.7909 9.85246 22.6964 9.85246 22.5971V22.5883H11.3747V24.6218C11.3747 25.0738 12.0738 25.0738 12.0738 24.6218V22.5883H12.9213V24.6218C12.9213 25.0738 13.6204 25.0738 13.6204 24.6218V22.5883H15.6549C15.2115 23.6521 14.9075 24.3827 14.8581 24.5015C14.7023 24.8762 15.2482 25.1645 15.4717 24.8297C15.5553 24.7043 16.1428 23.8236 16.965 22.5883H18.7876C19.3226 22.5883 19.7579 22.1513 19.7579 21.6141C19.7579 20.6107 19.65 19.7146 19.4287 18.8805C20.729 16.9195 22.0362 14.9403 22.8049 13.755C23.454 14.1404 23.8025 14.8989 23.3541 15.6014L20.9135 19.4245C20.1269 20.6567 20.9668 22.3307 22.4175 22.4464C23.225 22.4737 23.7247 23.0776 23.7247 23.8523V24.6357C23.7247 25.0877 24.4239 25.0877 24.4239 24.6357V23.8656C24.4616 23.3464 24.2966 22.8429 23.9584 22.4464ZM1.54896 14.9917V16.1438C1.54896 16.5957 2.24808 16.5957 2.24808 16.1438V13.8798C2.46527 13.6385 2.71518 13.4193 2.99767 13.2225V13.8139C2.99767 14.2659 3.69679 14.2659 3.69679 13.8139V12.8129C3.96804 12.6796 4.26102 12.5614 4.57506 12.4583V14.4684C4.57506 14.9203 5.27418 14.9203 5.27418 14.4684V12.2617C5.54669 12.1969 5.83277 12.142 6.13167 12.0963V12.8828C6.13167 13.3347 6.83078 13.3347 6.83078 12.8828V12.0093C7.2283 11.9705 7.62167 11.9604 8.0204 11.9516C8.10574 13.5502 7.45393 14.8879 6.69888 16.2448C4.23758 16.4796 2.67016 17.4812 2.08448 18.4594C1.57357 18.0393 1.31252 17.5525 1.31252 17.2059C1.31252 17.2041 1.31229 17.2024 1.31224 17.2006C1.31215 17.1945 1.31173 17.1883 1.31131 17.1822C1.31089 17.176 1.31047 17.1699 1.30972 17.1638C1.30949 17.162 1.30949 17.1602 1.30926 17.1585C1.22825 16.5669 1.22937 15.782 1.54896 14.9917ZM4.78843 19.3303C3.92279 19.3303 3.21412 19.1311 2.66741 18.8436C2.87593 18.4727 3.28776 18.098 3.83838 17.7857C4.32902 17.5075 5.13189 17.1651 6.29633 16.9963C5.96929 17.6435 5.67151 18.361 5.47436 19.2612C5.24775 19.3054 5.01839 19.3303 4.78843 19.3303ZM1.31252 22.1765V18.6958C1.53745 18.9318 1.79733 19.137 2.07456 19.3084V20.2797C2.07456 20.7317 2.77367 20.7317 2.77367 20.2797V19.6583C3.0508 19.7686 3.34438 19.8547 3.64953 19.9164V22.0208C3.64953 22.4727 4.34864 22.4727 4.34864 22.0208V20.0131C4.63999 20.0347 4.93362 20.0362 5.22449 20.0051V20.7729C5.22449 21.2249 5.92361 21.2249 5.92361 20.7729V19.8756C6.23612 19.7935 6.53972 19.6827 6.83055 19.5535V23.8477C6.1999 24.11 5.49804 24.3008 4.78843 24.3008C2.50633 24.3008 1.31252 22.9178 1.31252 22.1765ZM9.15334 22.4355C8.91215 22.6345 8.3138 23.1004 7.52967 23.5168V19.1971C8.19579 18.8144 8.75927 18.3699 9.15334 18.0235V22.4355ZM9.85246 21.8892V17.2059C9.85246 16.8943 9.45806 16.7402 9.24637 16.9685C9.22931 16.9869 7.89689 18.4073 6.2494 19.0362C6.53632 17.9703 6.98301 17.1692 7.41767 16.3915C7.87032 15.5817 8.3384 14.7443 8.57965 13.6617C8.87053 12.3564 8.73681 10.9387 8.18222 9.44797C7.78969 8.39287 7.18426 7.28794 6.33124 6.07008C6.04325 5.65895 6.13782 5.45066 6.16891 5.38219C6.34532 4.99358 7.1417 4.46696 9.93411 4.16536C11.281 4.01985 11.5421 3.06057 11.5421 1.89337C11.5421 1.73374 13.453 1.74516 13.453 1.89337C13.453 3.09501 13.7268 4.01738 15.1038 4.17156C15.5615 4.22269 16.4135 4.31791 17.1873 4.52377C18.2707 4.81204 18.6307 5.15703 18.7419 5.39571C18.7799 5.47746 18.8958 5.72625 18.5668 6.22048C17.1554 8.34025 15.796 10.8821 16.4154 13.6617C16.6933 14.9085 17.3683 15.9681 17.9559 17.0828C17.2495 18.7674 16.5204 20.5129 15.9464 21.8892H9.85246V21.8892ZM19.0588 21.6141C19.0588 21.7658 18.9371 21.8892 18.7876 21.8892H17.4303C17.8824 21.2096 18.3815 20.4586 18.8938 19.6869C19.0044 20.2839 19.0588 20.9206 19.0588 21.6141ZM16.8941 21.4329C18.7154 17.0687 20.911 11.8348 21.1186 11.4405C21.3664 10.9699 21.9791 10.7803 22.4497 11.0278C22.9157 11.2729 23.1104 11.8873 22.8627 12.3575C22.8316 12.4165 22.7322 12.5768 22.578 12.8182L22.0514 12.5156L22.1861 12.2692C22.4028 11.8726 21.7894 11.5372 21.5727 11.9338L20.9793 13.0194C20.7679 13.4062 21.3784 13.7468 21.5927 13.3548L21.716 13.1292L22.1986 13.4065C21.0765 15.1339 18.7651 18.6198 16.8941 21.4329Z"/>
</mask>
<path d="M23.9584 22.4464C23.5876 22.0116 23.041 21.7661 22.4731 21.7495C21.5429 21.6753 20.9974 20.5925 21.5028 19.8008L23.9434 15.9775C24.5677 14.9997 24.1822 13.7107 23.1839 13.1665C23.3429 12.917 23.4467 12.7489 23.4813 12.6833C23.9091 11.8709 23.5877 10.8365 22.7751 10.4091C21.9533 9.97679 20.9326 10.2934 20.5 11.1149C20.4717 11.1687 20.4115 11.3001 20.3252 11.4956L19.6237 11.0954C19.1468 10.8255 18.935 10.2335 19.2154 9.73759C19.4378 9.34409 18.8293 9.00007 18.6068 9.39349C18.149 10.2033 18.4637 11.2709 19.2821 11.7054L20.0448 12.1406C19.6322 13.0993 18.9932 14.6124 18.3026 16.2566C17.8139 15.3777 17.3186 14.501 17.0978 13.5098C16.5356 10.9867 17.8191 8.60503 19.1487 6.60798C19.5115 6.06318 19.5878 5.55599 19.3755 5.10045C18.8723 4.0205 16.8698 3.66549 15.1815 3.47682C14.1947 3.36655 14.1522 2.718 14.1522 1.89342C14.1522 0.699795 10.843 0.704595 10.843 1.89342C10.843 2.68459 10.8296 3.36524 9.85903 3.47035C8.10136 3.66023 6.02116 4.01626 5.53229 5.09332C5.39979 5.38527 5.33146 5.86137 5.75862 6.47118C6.57705 7.63964 7.1555 8.69312 7.52696 9.69178C7.72542 10.2252 7.86436 10.7465 7.94541 11.254L7.35288 11.267C7.34836 11.2671 7.34384 11.2673 7.33927 11.2676C4.64358 11.4321 2.70838 12.2085 1.58741 13.5755C0.777697 14.5628 0.432426 15.8589 0.613404 17.2275V22.1765C0.613404 22.813 1.03982 23.5169 1.75404 24.0593C2.55257 24.6659 3.63023 24.9999 4.78843 24.9999C7.32044 24.9999 9.63895 22.9447 9.7364 22.8573C9.81023 22.7909 9.85246 22.6964 9.85246 22.5971V22.5883H11.3747V24.6218C11.3747 25.0738 12.0738 25.0738 12.0738 24.6218V22.5883H12.9213V24.6218C12.9213 25.0738 13.6204 25.0738 13.6204 24.6218V22.5883H15.6549C15.2115 23.6521 14.9075 24.3827 14.8581 24.5015C14.7023 24.8762 15.2482 25.1645 15.4717 24.8297C15.5553 24.7043 16.1428 23.8236 16.965 22.5883H18.7876C19.3226 22.5883 19.7579 22.1513 19.7579 21.6141C19.7579 20.6107 19.65 19.7146 19.4287 18.8805C20.729 16.9195 22.0362 14.9403 22.8049 13.755C23.454 14.1404 23.8025 14.8989 23.3541 15.6014L20.9135 19.4245C20.1269 20.6567 20.9668 22.3307 22.4175 22.4464C23.225 22.4737 23.7247 23.0776 23.7247 23.8523V24.6357C23.7247 25.0877 24.4239 25.0877 24.4239 24.6357V23.8656C24.4616 23.3464 24.2966 22.8429 23.9584 22.4464ZM1.54896 14.9917V16.1438C1.54896 16.5957 2.24808 16.5957 2.24808 16.1438V13.8798C2.46527 13.6385 2.71518 13.4193 2.99767 13.2225V13.8139C2.99767 14.2659 3.69679 14.2659 3.69679 13.8139V12.8129C3.96804 12.6796 4.26102 12.5614 4.57506 12.4583V14.4684C4.57506 14.9203 5.27418 14.9203 5.27418 14.4684V12.2617C5.54669 12.1969 5.83277 12.142 6.13167 12.0963V12.8828C6.13167 13.3347 6.83078 13.3347 6.83078 12.8828V12.0093C7.2283 11.9705 7.62167 11.9604 8.0204 11.9516C8.10574 13.5502 7.45393 14.8879 6.69888 16.2448C4.23758 16.4796 2.67016 17.4812 2.08448 18.4594C1.57357 18.0393 1.31252 17.5525 1.31252 17.2059C1.31252 17.2041 1.31229 17.2024 1.31224 17.2006C1.31215 17.1945 1.31173 17.1883 1.31131 17.1822C1.31089 17.176 1.31047 17.1699 1.30972 17.1638C1.30949 17.162 1.30949 17.1602 1.30926 17.1585C1.22825 16.5669 1.22937 15.782 1.54896 14.9917ZM4.78843 19.3303C3.92279 19.3303 3.21412 19.1311 2.66741 18.8436C2.87593 18.4727 3.28776 18.098 3.83838 17.7857C4.32902 17.5075 5.13189 17.1651 6.29633 16.9963C5.96929 17.6435 5.67151 18.361 5.47436 19.2612C5.24775 19.3054 5.01839 19.3303 4.78843 19.3303ZM1.31252 22.1765V18.6958C1.53745 18.9318 1.79733 19.137 2.07456 19.3084V20.2797C2.07456 20.7317 2.77367 20.7317 2.77367 20.2797V19.6583C3.0508 19.7686 3.34438 19.8547 3.64953 19.9164V22.0208C3.64953 22.4727 4.34864 22.4727 4.34864 22.0208V20.0131C4.63999 20.0347 4.93362 20.0362 5.22449 20.0051V20.7729C5.22449 21.2249 5.92361 21.2249 5.92361 20.7729V19.8756C6.23612 19.7935 6.53972 19.6827 6.83055 19.5535V23.8477C6.1999 24.11 5.49804 24.3008 4.78843 24.3008C2.50633 24.3008 1.31252 22.9178 1.31252 22.1765ZM9.15334 22.4355C8.91215 22.6345 8.3138 23.1004 7.52967 23.5168V19.1971C8.19579 18.8144 8.75927 18.3699 9.15334 18.0235V22.4355ZM9.85246 21.8892V17.2059C9.85246 16.8943 9.45806 16.7402 9.24637 16.9685C9.22931 16.9869 7.89689 18.4073 6.2494 19.0362C6.53632 17.9703 6.98301 17.1692 7.41767 16.3915C7.87032 15.5817 8.3384 14.7443 8.57965 13.6617C8.87053 12.3564 8.73681 10.9387 8.18222 9.44797C7.78969 8.39287 7.18426 7.28794 6.33124 6.07008C6.04325 5.65895 6.13782 5.45066 6.16891 5.38219C6.34532 4.99358 7.1417 4.46696 9.93411 4.16536C11.281 4.01985 11.5421 3.06057 11.5421 1.89337C11.5421 1.73374 13.453 1.74516 13.453 1.89337C13.453 3.09501 13.7268 4.01738 15.1038 4.17156C15.5615 4.22269 16.4135 4.31791 17.1873 4.52377C18.2707 4.81204 18.6307 5.15703 18.7419 5.39571C18.7799 5.47746 18.8958 5.72625 18.5668 6.22048C17.1554 8.34025 15.796 10.8821 16.4154 13.6617C16.6933 14.9085 17.3683 15.9681 17.9559 17.0828C17.2495 18.7674 16.5204 20.5129 15.9464 21.8892H9.85246V21.8892ZM19.0588 21.6141C19.0588 21.7658 18.9371 21.8892 18.7876 21.8892H17.4303C17.8824 21.2096 18.3815 20.4586 18.8938 19.6869C19.0044 20.2839 19.0588 20.9206 19.0588 21.6141ZM16.8941 21.4329C18.7154 17.0687 20.911 11.8348 21.1186 11.4405C21.3664 10.9699 21.9791 10.7803 22.4497 11.0278C22.9157 11.2729 23.1104 11.8873 22.8627 12.3575C22.8316 12.4165 22.7322 12.5768 22.578 12.8182L22.0514 12.5156L22.1861 12.2692C22.4028 11.8726 21.7894 11.5372 21.5727 11.9338L20.9793 13.0194C20.7679 13.4062 21.3784 13.7468 21.5927 13.3548L21.716 13.1292L22.1986 13.4065C21.0765 15.1339 18.7651 18.6198 16.8941 21.4329Z" fill="#4E546D"/>
<path d="M23.9584 22.4464C23.5876 22.0116 23.041 21.7661 22.4731 21.7495C21.5429 21.6753 20.9974 20.5925 21.5028 19.8008L23.9434 15.9775C24.5677 14.9997 24.1822 13.7107 23.1839 13.1665C23.3429 12.917 23.4467 12.7489 23.4813 12.6833C23.9091 11.8709 23.5877 10.8365 22.7751 10.4091C21.9533 9.97679 20.9326 10.2934 20.5 11.1149C20.4717 11.1687 20.4115 11.3001 20.3252 11.4956L19.6237 11.0954C19.1468 10.8255 18.935 10.2335 19.2154 9.73759C19.4378 9.34409 18.8293 9.00007 18.6068 9.39349C18.149 10.2033 18.4637 11.2709 19.2821 11.7054L20.0448 12.1406C19.6322 13.0993 18.9932 14.6124 18.3026 16.2566C17.8139 15.3777 17.3186 14.501 17.0978 13.5098C16.5356 10.9867 17.8191 8.60503 19.1487 6.60798C19.5115 6.06318 19.5878 5.55599 19.3755 5.10045C18.8723 4.0205 16.8698 3.66549 15.1815 3.47682C14.1947 3.36655 14.1522 2.718 14.1522 1.89342C14.1522 0.699795 10.843 0.704595 10.843 1.89342C10.843 2.68459 10.8296 3.36524 9.85903 3.47035C8.10136 3.66023 6.02116 4.01626 5.53229 5.09332C5.39979 5.38527 5.33146 5.86137 5.75862 6.47118C6.57705 7.63964 7.1555 8.69312 7.52696 9.69178C7.72542 10.2252 7.86436 10.7465 7.94541 11.254L7.35288 11.267C7.34836 11.2671 7.34384 11.2673 7.33927 11.2676C4.64358 11.4321 2.70838 12.2085 1.58741 13.5755C0.777697 14.5628 0.432426 15.8589 0.613404 17.2275V22.1765C0.613404 22.813 1.03982 23.5169 1.75404 24.0593C2.55257 24.6659 3.63023 24.9999 4.78843 24.9999C7.32044 24.9999 9.63895 22.9447 9.7364 22.8573C9.81023 22.7909 9.85246 22.6964 9.85246 22.5971V22.5883H11.3747V24.6218C11.3747 25.0738 12.0738 25.0738 12.0738 24.6218V22.5883H12.9213V24.6218C12.9213 25.0738 13.6204 25.0738 13.6204 24.6218V22.5883H15.6549C15.2115 23.6521 14.9075 24.3827 14.8581 24.5015C14.7023 24.8762 15.2482 25.1645 15.4717 24.8297C15.5553 24.7043 16.1428 23.8236 16.965 22.5883H18.7876C19.3226 22.5883 19.7579 22.1513 19.7579 21.6141C19.7579 20.6107 19.65 19.7146 19.4287 18.8805C20.729 16.9195 22.0362 14.9403 22.8049 13.755C23.454 14.1404 23.8025 14.8989 23.3541 15.6014L20.9135 19.4245C20.1269 20.6567 20.9668 22.3307 22.4175 22.4464C23.225 22.4737 23.7247 23.0776 23.7247 23.8523V24.6357C23.7247 25.0877 24.4239 25.0877 24.4239 24.6357V23.8656C24.4616 23.3464 24.2966 22.8429 23.9584 22.4464ZM1.54896 14.9917V16.1438C1.54896 16.5957 2.24808 16.5957 2.24808 16.1438V13.8798C2.46527 13.6385 2.71518 13.4193 2.99767 13.2225V13.8139C2.99767 14.2659 3.69679 14.2659 3.69679 13.8139V12.8129C3.96804 12.6796 4.26102 12.5614 4.57506 12.4583V14.4684C4.57506 14.9203 5.27418 14.9203 5.27418 14.4684V12.2617C5.54669 12.1969 5.83277 12.142 6.13167 12.0963V12.8828C6.13167 13.3347 6.83078 13.3347 6.83078 12.8828V12.0093C7.2283 11.9705 7.62167 11.9604 8.0204 11.9516C8.10574 13.5502 7.45393 14.8879 6.69888 16.2448C4.23758 16.4796 2.67016 17.4812 2.08448 18.4594C1.57357 18.0393 1.31252 17.5525 1.31252 17.2059C1.31252 17.2041 1.31229 17.2024 1.31224 17.2006C1.31215 17.1945 1.31173 17.1883 1.31131 17.1822C1.31089 17.176 1.31047 17.1699 1.30972 17.1638C1.30949 17.162 1.30949 17.1602 1.30926 17.1585C1.22825 16.5669 1.22937 15.782 1.54896 14.9917ZM4.78843 19.3303C3.92279 19.3303 3.21412 19.1311 2.66741 18.8436C2.87593 18.4727 3.28776 18.098 3.83838 17.7857C4.32902 17.5075 5.13189 17.1651 6.29633 16.9963C5.96929 17.6435 5.67151 18.361 5.47436 19.2612C5.24775 19.3054 5.01839 19.3303 4.78843 19.3303ZM1.31252 22.1765V18.6958C1.53745 18.9318 1.79733 19.137 2.07456 19.3084V20.2797C2.07456 20.7317 2.77367 20.7317 2.77367 20.2797V19.6583C3.0508 19.7686 3.34438 19.8547 3.64953 19.9164V22.0208C3.64953 22.4727 4.34864 22.4727 4.34864 22.0208V20.0131C4.63999 20.0347 4.93362 20.0362 5.22449 20.0051V20.7729C5.22449 21.2249 5.92361 21.2249 5.92361 20.7729V19.8756C6.23612 19.7935 6.53972 19.6827 6.83055 19.5535V23.8477C6.1999 24.11 5.49804 24.3008 4.78843 24.3008C2.50633 24.3008 1.31252 22.9178 1.31252 22.1765ZM9.15334 22.4355C8.91215 22.6345 8.3138 23.1004 7.52967 23.5168V19.1971C8.19579 18.8144 8.75927 18.3699 9.15334 18.0235V22.4355ZM9.85246 21.8892V17.2059C9.85246 16.8943 9.45806 16.7402 9.24637 16.9685C9.22931 16.9869 7.89689 18.4073 6.2494 19.0362C6.53632 17.9703 6.98301 17.1692 7.41767 16.3915C7.87032 15.5817 8.3384 14.7443 8.57965 13.6617C8.87053 12.3564 8.73681 10.9387 8.18222 9.44797C7.78969 8.39287 7.18426 7.28794 6.33124 6.07008C6.04325 5.65895 6.13782 5.45066 6.16891 5.38219C6.34532 4.99358 7.1417 4.46696 9.93411 4.16536C11.281 4.01985 11.5421 3.06057 11.5421 1.89337C11.5421 1.73374 13.453 1.74516 13.453 1.89337C13.453 3.09501 13.7268 4.01738 15.1038 4.17156C15.5615 4.22269 16.4135 4.31791 17.1873 4.52377C18.2707 4.81204 18.6307 5.15703 18.7419 5.39571C18.7799 5.47746 18.8958 5.72625 18.5668 6.22048C17.1554 8.34025 15.796 10.8821 16.4154 13.6617C16.6933 14.9085 17.3683 15.9681 17.9559 17.0828C17.2495 18.7674 16.5204 20.5129 15.9464 21.8892H9.85246V21.8892ZM19.0588 21.6141C19.0588 21.7658 18.9371 21.8892 18.7876 21.8892H17.4303C17.8824 21.2096 18.3815 20.4586 18.8938 19.6869C19.0044 20.2839 19.0588 20.9206 19.0588 21.6141ZM16.8941 21.4329C18.7154 17.0687 20.911 11.8348 21.1186 11.4405C21.3664 10.9699 21.9791 10.7803 22.4497 11.0278C22.9157 11.2729 23.1104 11.8873 22.8627 12.3575C22.8316 12.4165 22.7322 12.5768 22.578 12.8182L22.0514 12.5156L22.1861 12.2692C22.4028 11.8726 21.7894 11.5372 21.5727 11.9338L20.9793 13.0194C20.7679 13.4062 21.3784 13.7468 21.5927 13.3548L21.716 13.1292L22.1986 13.4065C21.0765 15.1339 18.7651 18.6198 16.8941 21.4329Z" stroke="#4E546D" stroke-width="0.24" mask="url(#path-1-outside-1_704_6347)"/>
</svg>
