<svg width="18" height="17" viewBox="0 0 18 17" fill="none" xmlns="http://www.w3.org/2000/svg">
<path d="M6.34858 2.55699C6.18082 2.56291 6.01358 2.53499 5.85685 2.47487C5.70012 2.41476 5.5571 2.32369 5.43633 2.20711C5.31555 2.09052 5.2195 1.95081 5.15389 1.79629C5.08829 1.64178 5.05448 1.47563 5.05448 1.30777C5.05448 1.1399 5.08829 0.973761 5.15389 0.819248C5.2195 0.664734 5.31555 0.525017 5.43633 0.408432C5.5571 0.291846 5.70012 0.20078 5.85685 0.140667C6.01358 0.0805546 6.18081 0.0526261 6.34857 0.0585479L15.7767 0.0585481C16.1079 0.0587541 16.4255 0.190434 16.6598 0.424664C16.894 0.658894 17.0257 0.976518 17.0259 1.30777L17.0259 10.7359C17.0318 10.9036 17.0039 11.0709 16.9438 11.2276C16.8837 11.3843 16.7926 11.5273 16.676 11.6481C16.5594 11.7689 16.4197 11.8649 16.2652 11.9305C16.1107 11.9961 15.9445 12.03 15.7767 12.03C15.6088 12.03 15.4427 11.9961 15.2881 11.9305C15.1336 11.8649 14.9939 11.7689 14.8773 11.6481C14.7607 11.5273 14.6697 11.3843 14.6096 11.2276C14.5495 11.0709 14.5215 10.9036 14.5274 10.7359L14.5274 4.32476L3.10767 15.7445C2.87325 15.979 2.55531 16.1107 2.22378 16.1107C1.89226 16.1107 1.57432 15.979 1.3399 15.7445C1.10548 15.5101 0.973785 15.1922 0.973785 14.8607C0.973786 14.5291 1.10548 14.2112 1.3399 13.9768L12.7597 2.55699L6.34858 2.55699Z" fill="#BBBECE"/>
</svg>
