<svg width="22" height="17" viewBox="0 0 22 17" fill="none" xmlns="http://www.w3.org/2000/svg">
<path d="M13.0331 2.80126C12.9103 2.68683 12.8118 2.54882 12.7435 2.39549C12.6752 2.24216 12.6384 2.07664 12.6355 1.9088C12.6325 1.74096 12.6634 1.57425 12.7263 1.4186C12.7891 1.26295 12.8827 1.12156 13.0014 1.00287C13.1201 0.884167 13.2615 0.790593 13.4171 0.727724C13.5728 0.664856 13.7395 0.633982 13.9073 0.636943C14.0752 0.639905 14.2407 0.676641 14.394 0.744961C14.5474 0.813281 14.6854 0.911784 14.7998 1.0346L21.4665 7.70126C21.7005 7.93564 21.832 8.25335 21.832 8.5846C21.832 8.91585 21.7005 9.23355 21.4665 9.46793L14.7998 16.1346C14.6854 16.2574 14.5474 16.3559 14.394 16.4242C14.2407 16.4926 14.0752 16.5293 13.9073 16.5322C13.7395 16.5352 13.5728 16.5043 13.4171 16.4415C13.2615 16.3786 13.1201 16.285 13.0014 16.1663C12.8827 16.0476 12.7891 15.9062 12.7263 15.7506C12.6634 15.5949 12.6325 15.4282 12.6355 15.2604C12.6384 15.0926 12.6752 14.927 12.7435 14.7737C12.8118 14.6204 12.9103 14.4824 13.0331 14.3679L17.5665 9.8346L1.41646 9.8346C1.08494 9.8346 0.767 9.7029 0.532579 9.46848C0.298158 9.23406 0.166463 8.91612 0.166464 8.5846C0.166464 8.25308 0.298158 7.93513 0.532579 7.70071C0.767 7.46629 1.08494 7.3346 1.41646 7.3346L17.5665 7.3346L13.0331 2.80126Z" fill="#BBBECE"/>
</svg>
