<svg width="12" height="9" viewBox="0 0 12 9" fill="none" xmlns="http://www.w3.org/2000/svg">
<path d="M7.01461 1.90062C6.95321 1.8434 6.90395 1.7744 6.86979 1.69773C6.83563 1.62106 6.81727 1.5383 6.81579 1.45438C6.8143 1.37047 6.82974 1.28711 6.86118 1.20928C6.89261 1.13146 6.9394 1.06077 6.99875 1.00142C7.0581 0.942068 7.12879 0.895281 7.20661 0.863847C7.28444 0.832413 7.36779 0.816976 7.45171 0.818456C7.53563 0.819937 7.61839 0.838305 7.69506 0.872465C7.77173 0.906625 7.84073 0.955877 7.89795 1.01728L11.2313 4.35062C11.3483 4.4678 11.4141 4.62666 11.4141 4.79228C11.4141 4.95791 11.3483 5.11676 11.2313 5.23395L7.89795 8.56728C7.84073 8.62869 7.77173 8.67794 7.69506 8.7121C7.61839 8.74626 7.53563 8.76463 7.45171 8.76611C7.36779 8.76759 7.28444 8.75215 7.20661 8.72072C7.12879 8.68928 7.0581 8.6425 6.99875 8.58315C6.9394 8.5238 6.89261 8.4531 6.86118 8.37528C6.82974 8.29746 6.8143 8.2141 6.81579 8.13018C6.81727 8.04626 6.83563 7.9635 6.86979 7.88683C6.90395 7.81017 6.95321 7.74117 7.01461 7.68395L9.28128 5.41728L1.20628 5.41728C1.04052 5.41728 0.881547 5.35143 0.764336 5.23422C0.647126 5.11701 0.581279 4.95804 0.581279 4.79228C0.581279 4.62652 0.647126 4.46755 0.764336 4.35034C0.881547 4.23313 1.04052 4.16728 1.20628 4.16728L9.28128 4.16728L7.01461 1.90062Z" fill="url(#paint0_linear_1193_4892)"/>
<defs>
<linearGradient id="paint0_linear_1193_4892" x1="5.99767" y1="0.818359" x2="5.99767" y2="8.76621" gradientUnits="userSpaceOnUse">
<stop stop-color="#00D1CF"/>
<stop offset="1" stop-color="#0099C4"/>
</linearGradient>
</defs>
</svg>
