<svg width="40" height="41" viewBox="0 0 40 41" fill="none" xmlns="http://www.w3.org/2000/svg">
<path d="M38.2409 16.5139C39.9234 15.5425 40.4992 13.3944 39.5276 11.7116C38.5586 10.0332 36.4044 9.45576 34.7253 10.425C33.385 11.1989 32.759 12.7096 33.0279 14.1237L30.4278 15.6634C29.0527 13.406 27.1484 11.505 24.8882 10.1342L26.3259 7.55299C27.7737 7.81361 29.2489 7.14802 29.9969 5.85254C30.9661 4.17377 30.3887 2.01953 28.71 1.05029C27.0275 0.0789088 24.8794 0.654166 23.9077 2.33691C23.1268 3.69006 23.356 5.31177 24.2898 6.3924L22.8011 9.06452C20.8349 8.22895 18.6733 7.766 16.4056 7.766C7.35951 7.766 -0.00012207 15.1256 -0.00012207 24.1717C-0.00012207 33.2177 7.35951 40.5774 16.4056 40.5774C21.9686 40.5774 26.8929 37.7935 29.8608 33.5464H36.3266C36.9726 33.5464 37.4984 34.0722 37.4984 34.7183C37.4984 35.3643 36.9726 35.8901 36.3266 35.8901H35.1547C32.5701 35.8901 30.4675 37.9928 30.4675 40.5774H32.8109C32.8109 39.2849 33.8623 38.2336 35.1547 38.2336H36.3266C38.265 38.2336 39.8419 36.6567 39.8419 34.7183C39.8419 32.7798 38.265 31.2026 36.3266 31.2026H31.2258C32.2415 29.0707 32.8109 26.6866 32.8109 24.1717C32.8109 21.8944 32.3443 19.724 31.5017 17.7511L34.2059 16.1498C35.3048 17.0849 36.9165 17.2787 38.2409 16.5139ZM25.9374 3.50879C26.2606 2.9494 26.976 2.75531 27.5381 3.08001C28.0978 3.40289 28.29 4.12128 27.9672 4.68067C27.644 5.24036 26.9259 5.43262 26.3662 5.10974C25.8056 4.78565 25.6136 4.0697 25.9374 3.50879ZM29.6261 28.9636C26.6448 29.2727 23.7313 30.2703 21.1568 31.8704C18.5967 33.4612 16.4156 35.6201 14.8086 38.1423C13.5625 38.0011 12.3653 37.6968 11.2389 37.2503C15.2041 30.2404 22.3879 25.7885 30.4153 25.3759C30.3088 26.625 30.039 27.8283 29.6261 28.9636ZM3.12183 19.558C3.60005 19.5254 4.081 19.5074 4.56013 19.5074C10.3298 19.5074 15.8565 21.8233 19.8077 25.8791C19.1338 26.2286 18.474 26.6082 17.8301 27.0181C17.4508 27.2598 17.0788 27.5106 16.7138 27.7706C14.8238 26.0085 12.5222 24.6682 9.98892 23.8662C7.506 23.0804 4.90132 22.8414 2.38025 23.16C2.46967 21.9073 2.72419 20.6997 3.12183 19.558ZM15.4949 19.8168C16.2057 16.4986 17.5582 13.2866 19.4445 10.4415C20.6475 10.7076 21.7931 11.1278 22.8594 11.6808C20.7076 14.6895 19.2727 18.192 18.7005 21.8111C17.6873 21.0604 16.6143 20.3945 15.4949 19.8168ZM2.40864 25.5227C6.83827 24.8843 11.5084 26.2893 14.8431 29.2373C13.9513 30.0042 13.1139 30.8297 12.3363 31.7083C10.2193 29.8849 7.49715 28.8592 4.68708 28.8592C4.18202 28.8592 3.68 28.8931 3.18256 28.9571C2.78706 27.8683 2.52308 26.7172 2.40864 25.5227ZM26.7474 23.4682C27.0184 21.3982 27.7255 19.3716 28.8092 17.553C29.6966 19.2095 30.2618 21.0628 30.4208 23.0294C29.1827 23.0877 27.9553 23.2348 26.7474 23.4682ZM27.3977 15.4125C25.6393 17.9845 24.5702 20.9978 24.3307 24.0569C23.561 24.2846 22.8027 24.5492 22.0568 24.8486L21.8838 24.6618C21.5472 24.2983 21.1984 23.9483 20.8404 23.6086C21.1706 19.8006 22.5753 16.065 24.847 12.9326C25.798 13.6489 26.6552 14.4829 27.3977 15.4125ZM16.8743 10.1183C15.2364 12.8121 14.0258 15.7729 13.3147 18.8274C12.2237 18.3974 11.0991 18.0465 9.94985 17.7804C10.5428 15.3139 11.4211 12.9198 12.567 10.6423C13.7878 10.2956 15.0753 10.1098 16.4056 10.1098C16.5624 10.1098 16.7187 10.1134 16.8743 10.1183ZM9.37063 11.9997C8.65163 13.7401 8.07332 15.5334 7.64089 17.3632C6.62495 17.231 5.5959 17.1636 4.56013 17.1636C4.44508 17.1636 4.33003 17.1663 4.21498 17.1682C5.45003 15.0268 7.23287 13.2399 9.37063 11.9997ZM4.23817 31.2145C4.3874 31.2075 4.53724 31.2026 4.68708 31.2026C6.95943 31.2026 9.16097 32.0416 10.8629 33.5314C10.2349 34.385 9.65932 35.2786 9.13869 36.2066C7.1169 34.981 5.42714 33.2607 4.23817 31.2145ZM17.6333 38.1796C20.2807 34.6917 24.1137 32.3162 28.3975 31.5078C26.1245 35.2099 22.1859 37.7838 17.6333 38.1796ZM35.3512 13.1661C35.4324 12.8637 35.6262 12.611 35.8972 12.4544C36.0812 12.3482 36.2826 12.2979 36.4813 12.2979C36.8866 12.2979 37.2812 12.5078 37.4981 12.8835C37.6544 13.1545 37.6962 13.4704 37.615 13.7725C37.5341 14.0749 37.3404 14.3276 37.0691 14.4842C36.5097 14.8073 35.7916 14.6148 35.4684 14.0554C35.3119 13.7844 35.2703 13.4685 35.3512 13.1661Z" fill="#242733"/>
</svg>
