<svg width="21" height="21" viewBox="0 0 21 21" fill="none" xmlns="http://www.w3.org/2000/svg">
<g clip-path="url(#clip0_1_988)">
<path fill-rule="evenodd" clip-rule="evenodd" d="M0.5 10.5C0.5 7.84784 1.55357 5.3043 3.42893 3.42893C5.3043 1.55357 7.84784 0.5 10.5 0.5C13.1522 0.5 15.6957 1.55357 17.5711 3.42893C19.4464 5.3043 20.5 7.84784 20.5 10.5C20.5 13.1522 19.4464 15.6957 17.5711 17.5711C15.6957 19.4464 13.1522 20.5 10.5 20.5C7.84784 20.5 5.3043 19.4464 3.42893 17.5711C1.55357 15.6957 0.5 13.1522 0.5 10.5ZM9.92933 14.78L15.6867 7.58267L14.6467 6.75067L9.73733 12.8853L6.26 9.988L5.40667 11.012L9.92933 14.78Z" fill="#EFA64A"/>
</g>
<defs>
<clipPath id="clip0_1_988">
<rect width="20" height="20" fill="white" transform="translate(0.5 0.5)"/>
</clipPath>
</defs>
</svg>
