<svg width="28" height="28" viewBox="0 0 28 28" fill="none" xmlns="http://www.w3.org/2000/svg">
<g clip-path="url(#clip0_1248_6286)">
<path d="M7.84766 17.4375C7.73888 17.4375 7.63455 17.4808 7.55763 17.5576C7.48072 17.6346 7.4375 17.7389 7.4375 17.8477V18.5861C7.4375 18.6948 7.48072 18.7991 7.55763 18.876C7.63455 18.953 7.73888 18.9961 7.84766 18.9961C7.95644 18.9961 8.06077 18.953 8.13768 18.876C8.2146 18.7991 8.25782 18.6948 8.25782 18.5861V17.8477C8.25782 17.7389 8.2146 17.6346 8.13768 17.5576C8.06077 17.4808 7.95644 17.4375 7.84766 17.4375Z" fill="#4E546D"/>
<path d="M26.7046 22.8858H26.0406V11.506C27.1405 11.3113 27.9789 10.349 27.9789 9.19399V7.61484C27.9789 7.60679 27.9782 7.59892 27.9777 7.59099C27.9775 7.58656 27.9775 7.58214 27.977 7.5777C27.9756 7.5617 27.9733 7.54579 27.97 7.53007L27.9693 7.5274C27.9661 7.51259 27.9619 7.49798 27.957 7.48363C27.9559 7.48004 27.9545 7.47642 27.9531 7.47287C27.9486 7.46069 27.9436 7.44873 27.938 7.43704L27.9352 7.43059L26.1216 3.82401V1.93762C26.1216 1.45079 25.7256 1.05469 25.2388 1.05469H6.58743C6.47865 1.05469 6.37433 1.0979 6.29741 1.17482C6.22049 1.25174 6.17728 1.35606 6.17728 1.46484C6.17728 1.57362 6.22049 1.67795 6.29741 1.75487C6.37433 1.83179 6.47865 1.875 6.58743 1.875H25.2388C25.2732 1.875 25.3014 1.90311 25.3014 1.93762V3.51503H2.69867V1.93762C2.69867 1.90311 2.72678 1.875 2.76128 1.875H4.67907C4.78785 1.875 4.89217 1.83179 4.96909 1.75487C5.04601 1.67795 5.08922 1.57362 5.08922 1.46484C5.08922 1.35606 5.04601 1.25174 4.96909 1.17482C4.89217 1.0979 4.78785 1.05469 4.67907 1.05469H2.76128C2.27445 1.05469 1.87835 1.45079 1.87835 1.93762V3.82401L0.0648593 7.43059L0.062125 7.43704C0.0564886 7.44873 0.0514151 7.46069 0.0469218 7.47287C0.0456093 7.47648 0.0441875 7.48004 0.0429843 7.48363C0.0380838 7.49798 0.033994 7.51259 0.0307343 7.5274L0.0300234 7.53007C0.0267422 7.54565 0.0244453 7.56152 0.0230234 7.5777C0.0226407 7.58214 0.0226407 7.58656 0.0223672 7.59099C0.0219297 7.59892 0.0211641 7.60679 0.0211641 7.61484V9.19399C0.0211641 10.349 0.859523 11.3113 1.95957 11.506V22.8858H1.29544C0.581109 22.8858 0 23.467 0 24.1813V25.4786C0 25.8432 0.29657 26.1397 0.661118 26.1397H27.3389C27.7035 26.1397 28 25.8432 28 25.4786V24.1813C28 23.467 27.4189 22.8858 26.7046 22.8858ZM27.1585 9.19404C27.1585 10.0367 26.473 10.7223 25.6302 10.7223C24.7876 10.7223 24.102 10.0367 24.102 9.19404V8.02504H27.1585V9.19404ZM25.4605 4.33534L26.9034 7.20468H23.9805L22.9499 4.33534H25.4605ZM22.0783 4.33534L23.1088 7.20468H20.1463L19.528 4.33534H22.0783ZM23.2817 8.02499V9.19399C23.2817 10.0367 22.5963 10.7222 21.7535 10.7222C20.9108 10.7222 20.2252 10.0367 20.2252 9.19399V8.02499H23.2817ZM18.6889 4.33534L19.3073 7.20468H16.3202L16.114 4.33534H18.6889ZM19.405 8.02499V9.19399C19.405 10.0367 18.7194 10.7222 17.8767 10.7222C17.0342 10.7222 16.3485 10.0367 16.3485 9.19399V8.02499H19.405ZM12.7084 4.33534H15.2915L15.4977 7.20468H12.5023L12.7084 4.33534ZM12.4718 8.02499H15.5282V9.19399C15.5282 10.0367 14.8427 10.7222 14 10.7222C13.1573 10.7222 12.4718 10.0367 12.4718 9.19399V8.02499ZM14 11.5425C14.8042 11.5425 15.5149 11.1362 15.9384 10.5181C16.3619 11.1362 17.0727 11.5425 17.8767 11.5425C18.6809 11.5425 19.3917 11.1362 19.8152 10.5181C20.2387 11.1362 20.9495 11.5425 21.7535 11.5425C22.5576 11.5425 23.2684 11.1362 23.6919 10.5181C24.0418 11.0286 24.5876 11.394 25.2202 11.506V22.8858H9.78009V13.7714C9.78009 13.3507 9.43786 13.0085 9.0172 13.0085H4.27531C3.85465 13.0085 3.51242 13.3507 3.51242 13.7714V22.8858H2.77988V11.506C3.41239 11.394 3.95833 11.0286 4.30812 10.5181C4.73162 11.1362 5.44239 11.5425 6.24652 11.5425C7.05064 11.5425 7.76142 11.1362 8.18492 10.5181C8.60842 11.1362 9.31918 11.5425 10.1233 11.5425C10.9273 11.5425 11.6382 11.1362 12.0617 10.5181C12.4851 11.1362 13.1959 11.5425 14 11.5425ZM8.95978 13.8288V22.8858H4.33272V13.8288H8.95978ZM4.71822 9.19404V8.02504H7.7747V9.19404C7.7747 10.0367 7.08914 10.7223 6.24646 10.7223C5.40378 10.7223 4.71822 10.0367 4.71822 9.19404ZM9.31115 4.33534H11.8859L11.6798 7.20468H8.6928L9.31115 4.33534ZM8.59502 8.02499H11.6514V9.19399C11.6514 10.0367 10.9659 10.7222 10.1232 10.7222C9.28053 10.7222 8.59502 10.0367 8.59502 9.19399V8.02499ZM8.47197 4.33534L7.85362 7.20468H4.89119L5.92172 4.33534H8.47197ZM2.53942 4.33534H5.05012L4.01958 7.20468H1.09665L2.53942 4.33534ZM0.841477 9.19404V8.02504H3.89796V9.19404C3.89796 10.0367 3.2124 10.7223 2.36972 10.7223C1.52704 10.7223 0.841477 10.0367 0.841477 9.19404ZM0.820313 25.3195V24.1813C0.820313 23.9193 1.03343 23.7061 1.29544 23.7061H26.7044C26.9665 23.7061 27.1796 23.9193 27.1796 24.1813V25.3195H0.820313Z" fill="#4E546D"/>
<path d="M23.3391 13.0078H18.3236C18.2148 13.0078 18.1105 13.051 18.0335 13.1279C17.9567 13.2049 17.9134 13.3092 17.9134 13.418C17.9134 13.5268 17.9567 13.6311 18.0335 13.708C18.1105 13.7849 18.2148 13.8281 18.3236 13.8281H23.2817V20.2832H11.457V13.8281H16.3926C16.5014 13.8281 16.6057 13.7849 16.6825 13.708C16.7595 13.6311 16.8028 13.5268 16.8028 13.418C16.8028 13.3092 16.7595 13.2049 16.6825 13.1279C16.6057 13.051 16.5014 13.0078 16.3926 13.0078H11.3996C10.9789 13.0078 10.6367 13.35 10.6367 13.7707V20.3406C10.6367 20.7613 10.9789 21.1036 11.3996 21.1036H23.3391C23.7598 21.1036 24.102 20.7613 24.102 20.3406V13.7707C24.102 13.35 23.7598 13.0078 23.3391 13.0078Z" fill="#4E546D"/>
</g>
<defs>
<clipPath id="clip0_1248_6286">
<rect width="28" height="25.2" fill="white" transform="translate(0 1)"/>
</clipPath>
</defs>
</svg>
