<svg width="48" height="47" viewBox="0 0 48 47" fill="none" xmlns="http://www.w3.org/2000/svg">
<mask id="mask0_1_928" style="mask-type:luminance" maskUnits="userSpaceOnUse" x="0" y="-1" width="48" height="48">
<path d="M47.4652 -0.00811768H0.8125V46.6445H47.4652V-0.00811768Z" fill="white"/>
</mask>
<g mask="url(#mask0_1_928)">
<path d="M48.0052 22.6666C48.0052 10.1482 37.857 -6.10352e-05 25.3385 -6.10352e-05C12.8201 -6.10352e-05 2.67188 10.1482 2.67188 22.6666C2.67188 35.1851 12.8201 45.3333 25.3385 45.3333C37.857 45.3333 48.0052 35.1851 48.0052 22.6666Z" fill="#02BACE" fill-opacity="0.12"/>
<mask id="mask1_1_928" style="mask-type:luminance" maskUnits="userSpaceOnUse" x="10" y="9" width="29" height="29">
<path d="M38.6797 9.33319H10.6797V37.3332H38.6797V9.33319Z" fill="white"/>
</mask>
<g mask="url(#mask1_1_928)">
<path d="M32.9376 9.33319H16.4218C13.2556 9.33319 10.6797 11.9091 10.6797 15.0753V31.5911C10.6797 34.7572 13.2556 37.3332 16.4218 37.3332H32.9376C36.1037 37.3332 38.6797 34.7572 38.6797 31.5911V15.0753C38.6797 11.9091 36.1037 9.33319 32.9376 9.33319ZM19.3012 30.9083C19.0482 31.3464 18.5877 31.5915 18.1148 31.5916C17.8756 31.5916 17.6405 31.5285 17.4334 31.4087C16.7806 31.0317 16.5561 30.194 16.933 29.5411L17.202 29.0753H20.3593L19.3012 30.9083ZM16.7226 27.9816C15.9688 27.9816 15.3554 27.3683 15.3554 26.6144C15.3554 25.8605 15.9688 25.2472 16.7226 25.2472H19.4121L23.101 18.8579L22.1013 17.1263C21.7244 16.4735 21.9488 15.6356 22.6016 15.2587C23.2545 14.8817 24.0924 15.1063 24.4693 15.7591L24.6797 16.1236L24.8901 15.7592C25.2672 15.1063 26.105 14.8817 26.7577 15.2587C27.074 15.4413 27.3002 15.7361 27.3948 16.0888C27.4893 16.4416 27.4408 16.8101 27.2581 17.1264L22.5694 25.2472H25.5269L27.1057 27.9816H16.7226ZM32.6368 27.9816H31.526L32.4262 29.5411C32.8033 30.1939 32.5788 31.0317 31.926 31.4087C31.7153 31.5303 31.4814 31.5924 31.2445 31.5924C31.1257 31.5924 31.0062 31.5768 30.8884 31.5452C30.5357 31.4507 30.2408 31.2244 30.0582 30.9081L25.3112 22.686L26.8898 19.9516L29.9473 25.2472H32.6368C33.3906 25.2472 34.004 25.8605 34.004 26.6144C34.004 27.3683 33.3906 27.9816 32.6368 27.9816Z" fill="url(#paint0_linear_1_928)"/>
</g>
</g>
<defs>
<linearGradient id="paint0_linear_1_928" x1="24.6797" y1="9.33319" x2="24.6797" y2="37.3332" gradientUnits="userSpaceOnUse">
<stop stop-color="#02BACE"/>
<stop offset="1" stop-color="#29ABE2"/>
</linearGradient>
</defs>
</svg>
