<svg width="48" height="48" viewBox="0 0 48 48" fill="none" xmlns="http://www.w3.org/2000/svg">
<g clip-path="url(#clip0_1_887)">
<path d="M48 24C48 10.7452 37.2548 0 24 0C10.7452 0 0 10.7452 0 24C0 37.2548 10.7452 48 24 48C37.2548 48 48 37.2548 48 24Z" fill="#02BACE" fill-opacity="0.12"/>
<path fill-rule="evenodd" clip-rule="evenodd" d="M17.9296 13.1031C18.546 13.4234 19.2454 13.6927 20.0036 13.9045C20.1723 13.4355 20.3628 12.9903 20.5769 12.5778C20.97 11.8201 21.4202 11.2008 21.9109 10.7318C20.3762 11.1595 19.0089 11.9906 17.9296 13.1031ZM17.4092 35.2975C17.4092 34.0089 17.869 32.8267 18.7164 31.904C17.9079 31.577 16.9603 31.4114 15.8914 31.4114C12.5496 31.4114 10.3906 33.0632 10.3906 35.6202V38.1923H12.5047V36.1122C12.5047 35.9107 12.6673 35.7481 12.8687 35.7481C13.0694 35.7481 13.2326 35.9113 13.2326 36.1122V38.1923H17.4098L17.4092 35.2975ZM32.6729 31.4114C31.6041 31.4114 30.6565 31.5776 29.8479 31.904C30.6953 32.826 31.1552 34.0084 31.1552 35.2975V38.1923H35.3328V36.1122C35.3328 35.9107 35.496 35.7481 35.6969 35.7481C35.8977 35.7481 36.0609 35.9113 36.0609 36.1122V38.1923H38.1737V35.6202C38.1737 33.0639 36.0142 31.4114 32.6729 31.4114ZM29.8915 27.8185C29.8915 29.352 31.1393 30.5998 32.6729 30.5998C34.2064 30.5998 35.4543 29.352 35.4543 27.8185C35.4543 26.2849 34.2064 25.037 32.6729 25.037C31.1393 25.037 29.8915 26.2849 29.8915 27.8185ZM24.2821 30.5864C28.0153 30.5864 30.4273 32.4354 30.4273 35.2975V38.1923H28.002V35.8434C28.002 35.6419 27.8388 35.4794 27.638 35.4794C27.4371 35.4794 27.2739 35.6426 27.2739 35.8434V38.1923H21.2903V35.8434C21.2903 35.6419 21.1271 35.4794 20.9264 35.4794C20.7256 35.4794 20.5624 35.6426 20.5624 35.8434V38.1923H18.1371V35.2975C18.1371 32.4354 20.549 30.5864 24.2821 30.5864ZM18.6728 27.8185C18.6728 26.2849 17.4249 25.037 15.8914 25.037C14.3578 25.037 13.1101 26.2849 13.1101 27.8185C13.1101 29.352 14.3578 30.5998 15.8914 30.5998C17.4249 30.5998 18.6728 29.352 18.6728 27.8185ZM27.6951 24.8497C27.7503 24.7157 27.8029 24.5806 27.8528 24.4444C27.6975 24.4099 27.5391 24.3783 27.3801 24.348C27.4978 24.5056 27.6027 24.6738 27.6951 24.8497ZM28.5619 24.6234C29.1794 24.7963 29.7569 25.0068 30.2834 25.2525C29.9182 25.5921 29.6292 26.0055 29.4353 26.465C29.0101 26.7705 28.5584 27.0372 28.0857 27.2621C28.119 27.0595 28.1372 26.8509 28.1372 26.6385C28.1372 26.3596 28.1063 26.0878 28.0498 25.8256C28.2392 25.4477 28.4096 25.0462 28.5619 24.6234ZM24.2821 23.5115C26.0062 23.5115 27.4093 24.9139 27.4093 26.6385C27.4093 28.3626 26.0062 29.7657 24.2821 29.7657C22.5582 29.7657 21.1551 28.3626 21.1551 26.6385C21.1551 24.9146 22.5588 23.5115 24.2821 23.5115ZM20.7122 24.4444C20.762 24.5806 20.8145 24.7157 20.8699 24.8497C20.9621 24.6744 21.0677 24.5064 21.1847 24.348C21.0252 24.3777 20.8675 24.4092 20.7122 24.4444ZM20.0031 24.6234C20.1554 25.0462 20.3258 25.4477 20.5151 25.8256C20.4586 26.0878 20.4277 26.3596 20.4277 26.6385C20.4277 26.8509 20.4459 27.059 20.4793 27.2621C20.0073 27.0378 19.5554 26.7708 19.1289 26.465C18.9348 26.0023 18.6437 25.5897 18.2816 25.2525C18.8074 25.0068 19.385 24.7963 20.0031 24.6234ZM19.7762 23.9306C19.3892 22.6246 19.1696 21.1578 19.1392 19.6279H15.4346C15.5062 21.4211 16.1067 23.1159 17.1829 24.556C17.334 24.616 17.4801 24.6865 17.6203 24.766C18.2657 24.4335 18.9913 24.1527 19.7762 23.9306ZM23.9182 22.8011V19.6279H19.8673C19.8969 21.0995 20.1092 22.505 20.4811 23.7505C20.9979 23.6322 21.536 23.5382 22.0905 23.4696C22.6321 23.0932 23.2616 22.8629 23.9182 22.8011ZM28.0833 23.7505C28.455 22.5057 28.6673 21.0995 28.6971 19.6279H24.6461V22.8011C25.3027 22.8629 25.9323 23.0932 26.4739 23.4696C27.0283 23.5382 27.5665 23.6322 28.0833 23.7505ZM33.1297 19.6286H29.425C29.3947 21.1584 29.1752 22.6252 28.7881 23.9312C29.5731 24.1533 30.2986 24.4335 30.9447 24.7665C31.0853 24.6864 31.2315 24.6163 31.382 24.5566C32.4582 23.1166 33.0586 21.4211 33.1297 19.6286ZM31.1345 13.6624C30.4429 14.0391 29.6501 14.3528 28.7875 14.5966C29.1752 15.9032 29.3947 17.3707 29.425 18.9012H33.1291C33.049 16.9181 32.3138 15.1019 31.1345 13.6624ZM27.988 12.5778C27.595 11.8201 27.1448 11.2008 26.654 10.7318C28.1882 11.1589 29.556 11.99 30.6359 13.1025C30.019 13.4228 29.3196 13.6921 28.5612 13.9038C28.3926 13.4355 28.2022 12.9909 27.988 12.5778ZM28.0826 14.7762C27.0047 15.0224 25.8406 15.165 24.6461 15.1887V18.9005H28.6971C28.6673 17.4283 28.455 16.0215 28.0826 14.7762ZM24.6461 10.4407V14.4607C25.7624 14.4376 26.8476 14.3079 27.8521 14.0828C27.7004 13.6697 27.5306 13.2778 27.3413 12.9132C26.594 11.4719 25.6477 10.6093 24.6461 10.4407ZM20.7122 14.0828C20.8638 13.6697 21.0338 13.2778 21.223 12.9132C21.9704 11.4719 22.9167 10.6099 23.9182 10.4407V14.4607C22.802 14.4376 21.7168 14.3079 20.7122 14.0828ZM20.4817 14.7762C20.1092 16.0215 19.8969 17.4283 19.8673 18.9005H23.9182V15.1887C22.7238 15.1644 21.5597 15.0224 20.4817 14.7762ZM19.7768 14.596C19.3892 15.9021 19.1696 17.37 19.1392 18.9005H15.4353C15.5159 16.9181 16.2506 15.1019 17.4298 13.6618C18.1213 14.0385 18.9142 14.3528 19.7768 14.596Z" fill="url(#paint0_linear_1_887)"/>
</g>
<defs>
<linearGradient id="paint0_linear_1_887" x1="24.2821" y1="10.4407" x2="24.2821" y2="38.1923" gradientUnits="userSpaceOnUse">
<stop stop-color="#02BACE"/>
<stop offset="1" stop-color="#29ABE2"/>
</linearGradient>
<clipPath id="clip0_1_887">
<rect width="48" height="48" fill="white"/>
</clipPath>
</defs>
</svg>
