<svg width="47" height="47" viewBox="0 0 47 47" fill="none" xmlns="http://www.w3.org/2000/svg">
<mask id="mask0_1_909" style="mask-type:luminance" maskUnits="userSpaceOnUse" x="0" y="-1" width="47" height="48">
<path d="M46.7152 -0.00830078H0.0625V46.6444H46.7152V-0.00830078Z" fill="white"/>
</mask>
<g mask="url(#mask0_1_909)">
<path d="M46.9896 22.6666C46.9896 10.1482 36.8414 -6.10352e-05 24.3229 -6.10352e-05C11.8045 -6.10352e-05 1.65625 10.1482 1.65625 22.6666C1.65625 35.1851 11.8045 45.3333 24.3229 45.3333C36.8414 45.3333 46.9896 35.1851 46.9896 22.6666Z" fill="#02BACE" fill-opacity="0.12"/>
<mask id="mask1_1_909" style="mask-type:luminance" maskUnits="userSpaceOnUse" x="8" y="7" width="32" height="32">
<path d="M39.0026 7.99988H8.33594V38.6665H39.0026V7.99988Z" fill="white"/>
</mask>
<g mask="url(#mask1_1_909)">
<path d="M37.4569 23.333H31.3236C31.0413 23.333 30.8125 23.5618 30.8125 23.8441V37.133C30.8125 37.4153 31.0413 37.6441 31.3236 37.6441H37.4569C37.7392 37.6441 37.968 37.4153 37.968 37.133V23.8441C37.968 23.5618 37.7392 23.333 37.4569 23.333Z" fill="url(#paint0_linear_1_909)"/>
<path d="M32.8543 14.9506V10.5551C32.3965 10.254 31.8679 10.0778 31.321 10.044C30.5701 10.0409 29.8295 10.2202 29.1631 10.5663C28.5667 10.88 27.9058 11.0511 27.2321 11.0662C26.5595 11.0631 25.8975 10.8976 25.3027 10.5837C25.2902 10.5762 25.2761 10.5722 25.2616 10.5722C25.247 10.5722 25.2327 10.5762 25.2203 10.5837C25.2097 10.5899 25.2009 10.599 25.1951 10.6099C25.1894 10.6209 25.1867 10.6332 25.1877 10.6456V14.8878C25.1873 14.8987 25.1895 14.9097 25.1942 14.9197C25.199 14.9297 25.2059 14.9383 25.2147 14.945C25.7001 15.3515 26.2984 15.5994 26.9289 15.6555C27.5594 15.7115 28.1921 15.5729 28.7414 15.2583C29.5403 14.8515 30.4246 14.641 31.321 14.6439C31.8471 14.6463 32.3678 14.7505 32.8543 14.9506Z" fill="url(#paint1_linear_1_909)"/>
<path d="M26.7147 26.9106H20.5814C20.2991 26.9106 20.0703 27.1396 20.0703 27.4218V37.1329C20.0703 37.4152 20.2991 37.6441 20.5814 37.6441H26.7147C26.997 37.6441 27.2258 37.4152 27.2258 37.1329V27.4218C27.2258 27.1396 26.997 26.9106 26.7147 26.9106Z" fill="url(#paint2_linear_1_909)"/>
<path d="M32.3438 22.3105H36.4325V21.7995C36.4325 21.6639 36.3787 21.5339 36.2829 21.438C36.1871 21.3421 36.0571 21.2884 35.9215 21.2884H32.8548C32.7192 21.2884 32.5892 21.3421 32.4933 21.438C32.3976 21.5339 32.3438 21.6639 32.3438 21.7995V22.3105Z" fill="url(#paint3_linear_1_909)"/>
<path d="M15.9882 30.4886H9.85486C9.57258 30.4886 9.34375 30.7174 9.34375 30.9997V37.133C9.34375 37.4153 9.57258 37.6442 9.85486 37.6442H15.9882C16.2705 37.6442 16.4993 37.4153 16.4993 37.133V30.9997C16.4993 30.7174 16.2705 30.4886 15.9882 30.4886Z" fill="url(#paint4_linear_1_909)"/>
<path d="M34.8971 9.5329C34.8971 9.39735 34.8433 9.26735 34.7475 9.1715C34.6517 9.07564 34.5217 9.02179 34.3861 9.02179C34.2505 9.02179 34.1205 9.07564 34.0246 9.1715C33.9289 9.26735 33.875 9.39735 33.875 9.5329V20.2662H34.8971V9.5329Z" fill="url(#paint5_linear_1_909)"/>
</g>
</g>
<defs>
<linearGradient id="paint0_linear_1_909" x1="34.3902" y1="23.333" x2="34.3902" y2="37.6441" gradientUnits="userSpaceOnUse">
<stop stop-color="#02BACE"/>
<stop offset="1" stop-color="#29ABE2"/>
</linearGradient>
<linearGradient id="paint1_linear_1_909" x1="29.0209" y1="10.0439" x2="29.0209" y2="15.6677" gradientUnits="userSpaceOnUse">
<stop stop-color="#02BACE"/>
<stop offset="1" stop-color="#29ABE2"/>
</linearGradient>
<linearGradient id="paint2_linear_1_909" x1="23.648" y1="26.9106" x2="23.648" y2="37.6441" gradientUnits="userSpaceOnUse">
<stop stop-color="#02BACE"/>
<stop offset="1" stop-color="#29ABE2"/>
</linearGradient>
<linearGradient id="paint3_linear_1_909" x1="34.3881" y1="21.2884" x2="34.3881" y2="22.3105" gradientUnits="userSpaceOnUse">
<stop stop-color="#02BACE"/>
<stop offset="1" stop-color="#29ABE2"/>
</linearGradient>
<linearGradient id="paint4_linear_1_909" x1="12.9215" y1="30.4886" x2="12.9215" y2="37.6442" gradientUnits="userSpaceOnUse">
<stop stop-color="#02BACE"/>
<stop offset="1" stop-color="#29ABE2"/>
</linearGradient>
<linearGradient id="paint5_linear_1_909" x1="34.3861" y1="9.02179" x2="34.3861" y2="20.2662" gradientUnits="userSpaceOnUse">
<stop stop-color="#02BACE"/>
<stop offset="1" stop-color="#29ABE2"/>
</linearGradient>
</defs>
</svg>
