<svg width="47" height="47" viewBox="0 0 47 47" fill="none" xmlns="http://www.w3.org/2000/svg">
<mask id="mask0_1_860" style="mask-type:luminance" maskUnits="userSpaceOnUse" x="0" y="-1" width="47" height="48">
<path d="M46.7308 -0.00817871H0.078125V46.6445H46.7308V-0.00817871Z" fill="white"/>
</mask>
<g mask="url(#mask0_1_860)">
<path d="M47.0052 23.9999C47.0052 11.4815 36.857 1.33325 24.3385 1.33325C11.8201 1.33325 1.67188 11.4815 1.67188 23.9999C1.67188 36.5184 11.8201 46.6666 24.3385 46.6666C36.857 46.6666 47.0052 36.5184 47.0052 23.9999Z" fill="#02BACE" fill-opacity="0.12"/>
<mask id="mask1_1_860" style="mask-type:luminance" maskUnits="userSpaceOnUse" x="8" y="7" width="33" height="33">
<path d="M40.3359 7.99976H8.33594V39.9998H40.3359V7.99976Z" fill="white"/>
</mask>
<g mask="url(#mask1_1_860)">
<path d="M40.1671 23.4562C39.8671 23.0623 33.0608 13.6874 24.3984 13.6874C15.7359 13.6874 8.80465 23.0623 8.50472 23.4562C8.2796 23.7748 8.2796 24.2248 8.50472 24.5435C8.80465 24.9374 15.7359 34.3123 24.3984 34.3123C33.0608 34.3123 39.8671 24.9374 40.1671 24.5435C40.3922 24.2248 40.3922 23.7748 40.1671 23.4562Z" fill="url(#paint0_linear_1_860)"/>
<path d="M40.1671 24.5434C39.8671 24.9371 33.0608 34.3122 24.3984 34.3122V13.6871C33.0608 13.6871 39.8671 23.0622 40.1671 23.4559C40.3922 23.7747 40.3922 24.2246 40.1671 24.5434Z" fill="url(#paint1_linear_1_860)"/>
<path d="M24.3984 17.4371C20.7796 17.4371 17.8359 20.3809 17.8359 23.9997C17.8359 27.6185 20.7796 30.5622 24.3984 30.5622C28.0171 30.5622 30.9608 27.6185 30.9608 23.9997C30.9608 20.3809 28.0171 17.4371 24.3984 17.4371Z" fill="#F5F5F5"/>
<path d="M24.3984 21.1871C22.842 21.1871 21.5859 22.4434 21.5859 23.9997C21.5859 25.5559 22.842 26.8122 24.3984 26.8122C25.9547 26.8122 27.2108 25.5559 27.2108 23.9997C27.2108 22.4434 25.9547 21.1871 24.3984 21.1871Z" fill="#02BACE"/>
<path d="M30.9608 23.9997C30.9608 27.6185 28.0171 30.5622 24.3984 30.5622V17.4371C28.0171 17.4371 30.9608 20.381 30.9608 23.9997Z" fill="#F5F5F5"/>
<path d="M27.2108 23.9997C27.2108 25.5559 25.9547 26.8122 24.3984 26.8122V21.1871C25.9547 21.1871 27.2108 22.4434 27.2108 23.9997Z" fill="#02BACE"/>
</g>
</g>
<defs>
<linearGradient id="paint0_linear_1_860" x1="24.3359" y1="13.6874" x2="24.3359" y2="34.3123" gradientUnits="userSpaceOnUse">
<stop stop-color="#02BACE"/>
<stop offset="1" stop-color="#29ABE2"/>
</linearGradient>
<linearGradient id="paint1_linear_1_860" x1="32.3671" y1="13.6871" x2="32.3671" y2="34.3122" gradientUnits="userSpaceOnUse">
<stop stop-color="#02BACE"/>
<stop offset="1" stop-color="#29ABE2"/>
</linearGradient>
</defs>
</svg>
