<svg width="48" height="48" viewBox="0 0 48 48" fill="none" xmlns="http://www.w3.org/2000/svg">
<mask id="mask0_1_850" style="mask-type:luminance" maskUnits="userSpaceOnUse" x="0" y="-1" width="48" height="49">
<path d="M47.9856 -0.00854492H0V47.9771H47.9856V-0.00854492Z" fill="white"/>
</mask>
<g mask="url(#mask0_1_850)">
<path d="M46.6364 24.6856C46.6364 11.8095 36.1982 1.37134 23.3221 1.37134C10.446 1.37134 0.0078125 11.8095 0.0078125 24.6856C0.0078125 37.5617 10.446 47.9999 23.3221 47.9999C36.1982 47.9999 46.6364 37.5617 46.6364 24.6856Z" fill="#02BACE" fill-opacity="0.12"/>
<path d="M35.0292 22.6291C34.615 19.9477 32.3164 17.8894 29.5505 17.8894C28.5098 17.8894 27.5101 18.1806 26.6428 18.7237C25.3233 16.4811 22.9482 15.0857 20.3094 15.0857C16.233 15.0857 12.9165 18.4398 12.9165 22.5626C12.9165 22.5881 12.9165 22.6146 12.9174 22.6401C10.2976 23.0863 8.23438 25.3964 8.23438 28.1701C8.23438 31.2624 10.7831 33.7777 13.8406 33.7777H34.171C37.2284 33.7777 39.7772 31.2624 39.7772 28.1701C39.7772 25.3728 37.6806 23.0481 35.0292 22.6291Z" fill="url(#paint0_linear_1_850)"/>
</g>
<defs>
<linearGradient id="paint0_linear_1_850" x1="24.0058" y1="15.0857" x2="24.0058" y2="33.7777" gradientUnits="userSpaceOnUse">
<stop stop-color="#02BACE"/>
<stop offset="1" stop-color="#29ABE2"/>
</linearGradient>
</defs>
</svg>
