<svg width="48" height="47" viewBox="0 0 48 47" fill="none" xmlns="http://www.w3.org/2000/svg">
<mask id="mask0_1_942" style="mask-type:luminance" maskUnits="userSpaceOnUse" x="0" y="-1" width="48" height="48">
<path d="M47.2152 -0.00811768H0.5625V46.6445H47.2152V-0.00811768Z" fill="white"/>
</mask>
<g mask="url(#mask0_1_942)">
<path d="M45.3333 22.6667C45.3333 10.1482 35.1851 0 22.6667 0C10.1482 0 0 10.1482 0 22.6667C0 35.1851 10.1482 45.3333 22.6667 45.3333C35.1851 45.3333 45.3333 35.1851 45.3333 22.6667Z" fill="#02BACE" fill-opacity="0.12"/>
<path d="M35.3461 14.0426C35.2875 13.1626 34.4662 12.5173 33.5861 12.6346C28.8341 13.28 25.3141 10.8746 23.6715 9.40796C23.0848 8.87996 22.2048 8.87996 21.6768 9.40796C20.0342 10.816 16.5141 13.28 11.7621 12.6346C10.8821 12.5173 10.0608 13.1626 10.0021 14.0426C9.76746 18.8533 10.1195 32.3466 22.6741 36.3359C35.2288 32.3466 35.6395 18.8533 35.3461 14.0426ZM22.6741 29.8239C18.6848 29.8239 15.5168 26.5973 15.5168 22.6666C15.5168 18.7359 18.6848 15.5093 22.6741 15.5093C26.6635 15.5093 29.8315 18.6773 29.8315 22.6666C29.8315 26.6559 26.6635 29.8239 22.6741 29.8239Z" fill="url(#paint0_linear_1_942)"/>
<path d="M21.2599 20.8481C21.2599 20.3788 21.4945 20.0268 21.7879 19.7334C22.0225 19.5574 22.3159 19.4401 22.6092 19.4401C23.2545 19.4401 24.0172 19.9681 24.0172 20.8481V21.9628H21.2012V20.8481H21.2599ZM25.5425 22.4908C25.4252 22.3148 25.3079 22.1974 25.1319 22.0801C25.0145 22.0214 24.8972 21.9628 24.7799 21.9628V20.8481C24.7799 19.8508 23.9585 18.7361 22.6679 18.7361C21.4945 18.7361 20.5559 19.6748 20.5559 20.8481V21.9628C20.4385 21.9628 20.3212 22.0214 20.2039 22.0801C20.0279 22.1974 19.8519 22.3148 19.7345 22.4908C19.6172 22.6668 19.6172 22.8428 19.6172 23.0188V25.4827C19.6172 26.1281 20.1452 26.5387 20.6732 26.5387H24.6625C24.8972 26.5387 25.0732 26.4801 25.2492 26.3628C25.4252 26.2454 25.5425 26.1867 25.6012 26.0107C25.7185 25.8348 25.7772 25.6588 25.7772 25.4241V22.9601C25.7185 22.8427 25.6599 22.6668 25.5425 22.4908ZM22.9612 24.3094L23.0199 24.7788C23.0199 24.9548 22.9025 25.0721 22.7265 25.0721H22.5505C22.3745 25.0721 22.2572 24.9548 22.2572 24.7788L22.3159 24.3094C22.1399 24.1921 22.0812 24.0161 22.0812 23.8401C22.0812 23.5467 22.3159 23.3121 22.6092 23.3121C22.9025 23.3121 23.1372 23.5467 23.1372 23.8401C23.1959 24.0161 23.1372 24.1921 22.9612 24.3094Z" fill="url(#paint1_linear_1_942)"/>
</g>
<defs>
<linearGradient id="paint0_linear_1_942" x1="22.6815" y1="9.01196" x2="22.6815" y2="36.3359" gradientUnits="userSpaceOnUse">
<stop stop-color="#02BACE"/>
<stop offset="1" stop-color="#29ABE2"/>
</linearGradient>
<linearGradient id="paint1_linear_1_942" x1="22.6972" y1="18.7361" x2="22.6972" y2="26.5387" gradientUnits="userSpaceOnUse">
<stop stop-color="#02BACE"/>
<stop offset="1" stop-color="#29ABE2"/>
</linearGradient>
</defs>
</svg>
