<svg width="48" height="48" viewBox="0 0 48 48" fill="none" xmlns="http://www.w3.org/2000/svg">
<g clip-path="url(#clip0_1_878)">
<path d="M48 24C48 10.7452 37.2548 0 24 0C10.7452 0 0 10.7452 0 24C0 37.2548 10.7452 48 24 48C37.2548 48 48 37.2548 48 24Z" fill="#02BACE" fill-opacity="0.12"/>
<path d="M17.6319 21.2701C19.642 21.2701 21.2716 19.6405 21.2716 17.6305C21.2716 15.6202 19.642 13.9907 17.6319 13.9907C15.6217 13.9907 13.9922 15.6202 13.9922 17.6305C13.9922 19.6405 15.6217 21.2701 17.6319 21.2701Z" fill="url(#paint0_linear_1_878)"/>
<path d="M31.2839 19.4503C33.7967 19.4503 35.8336 17.4134 35.8336 14.9007C35.8336 12.388 33.7967 10.3511 31.2839 10.3511C28.7713 10.3511 26.7344 12.388 26.7344 14.9007C26.7344 17.4134 28.7713 19.4503 31.2839 19.4503Z" fill="url(#paint1_linear_1_878)"/>
<path d="M35.8245 19.4502H28.5451C26.5377 19.4502 24.9053 21.0826 24.9053 23.09V23.9999H23.9954C22.4902 23.9999 21.2656 25.2245 21.2656 26.7297C21.2656 28.2349 22.4902 29.4595 23.9954 29.4595H24.9053V34.009H29.455V34.919C29.455 36.4243 30.6796 37.6488 32.1848 37.6488C33.69 37.6488 34.9146 36.4243 34.9146 34.919V34.009H39.5248V29.2925C39.1925 29.4106 38.8566 29.4701 38.527 29.4701C37.0456 29.4701 35.8245 28.2669 35.8245 26.7297C35.8245 25.1924 37.0448 23.9883 38.526 23.9883C38.8566 23.9883 39.1933 24.0487 39.5248 24.1669V23.09C39.5248 21.0826 37.8318 19.4502 35.8245 19.4502Z" fill="url(#paint2_linear_1_878)"/>
<path d="M12.1084 29.4596V32.1894H23.0883V31.1879C21.0143 30.7649 19.4485 28.9273 19.4485 26.7298C19.4485 24.5985 20.9274 22.8198 22.9081 22.328C22.6177 21.7078 21.9971 21.2703 21.2684 21.2703H13.9283C12.9251 21.2703 12.1084 22.087 12.1084 23.0902V24.0001H11.1985C9.69327 24.0001 8.46875 25.2246 8.46875 26.7298C8.46875 28.2351 9.69327 29.4596 11.1985 29.4596H12.1084Z" fill="url(#paint3_linear_1_878)"/>
</g>
<defs>
<linearGradient id="paint0_linear_1_878" x1="17.6319" y1="13.9907" x2="17.6319" y2="21.2701" gradientUnits="userSpaceOnUse">
<stop stop-color="#02BACE"/>
<stop offset="1" stop-color="#29ABE2"/>
</linearGradient>
<linearGradient id="paint1_linear_1_878" x1="31.2839" y1="10.3511" x2="31.2839" y2="19.4503" gradientUnits="userSpaceOnUse">
<stop stop-color="#02BACE"/>
<stop offset="1" stop-color="#29ABE2"/>
</linearGradient>
<linearGradient id="paint2_linear_1_878" x1="30.3952" y1="19.4502" x2="30.3952" y2="37.6488" gradientUnits="userSpaceOnUse">
<stop stop-color="#02BACE"/>
<stop offset="1" stop-color="#29ABE2"/>
</linearGradient>
<linearGradient id="paint3_linear_1_878" x1="15.7784" y1="21.2703" x2="15.7784" y2="32.1894" gradientUnits="userSpaceOnUse">
<stop stop-color="#02BACE"/>
<stop offset="1" stop-color="#29ABE2"/>
</linearGradient>
<clipPath id="clip0_1_878">
<rect width="48" height="48" fill="white"/>
</clipPath>
</defs>
</svg>
