<svg width="48" height="48" viewBox="0 0 48 48" fill="none" xmlns="http://www.w3.org/2000/svg">
<g clip-path="url(#clip0_1_894)">
<mask id="mask0_1_894" style="mask-type:luminance" maskUnits="userSpaceOnUse" x="-1" y="-1" width="49" height="49">
<path d="M47.97 -0.00854492H-0.015625V47.9771H47.97V-0.00854492Z" fill="white"/>
</mask>
<g mask="url(#mask0_1_894)">
<path d="M47.9958 23.3143C47.9958 10.4382 37.5576 0 24.6815 0C11.8053 0 1.36719 10.4382 1.36719 23.3143C1.36719 36.1904 11.8053 46.6286 24.6815 46.6286C37.5576 46.6286 47.9958 36.1904 47.9958 23.3143Z" fill="#02BACE" fill-opacity="0.12"/>
<mask id="mask1_1_894" style="mask-type:luminance" maskUnits="userSpaceOnUse" x="9" y="8" width="31" height="31">
<path d="M39.7652 8.22876H9.59375V38.4002H39.7652V8.22876Z" fill="white"/>
</mask>
<g mask="url(#mask1_1_894)">
<path d="M29.3962 18.6001C29.3396 18.6001 29.2736 18.5906 29.2171 18.5813C29.1546 18.5724 29.0941 18.5533 29.038 18.5247C28.9778 18.5041 28.9207 18.4756 28.8682 18.4398L28.7268 18.3266L28.6137 18.1853C28.5779 18.1327 28.5493 18.0757 28.5288 18.0156C28.5015 17.9621 28.4824 17.9049 28.4723 17.8458C28.4628 17.7799 28.4533 17.7139 28.4533 17.6573C28.4533 17.5346 28.4816 17.4122 28.5288 17.299C28.576 17.1859 28.6419 17.0821 28.7268 16.9879C28.774 16.9501 28.821 16.903 28.8682 16.8747C28.9248 16.837 28.9813 16.8087 29.038 16.7898C29.0945 16.7616 29.151 16.7426 29.2171 16.7333C29.3962 16.6956 29.5848 16.7144 29.7544 16.7898C29.877 16.837 29.9714 16.903 30.0656 16.9879C30.2354 17.167 30.3391 17.4122 30.3391 17.6573C30.3391 17.7139 30.3296 17.7799 30.3201 17.8458C30.3108 17.9025 30.2919 17.959 30.2636 18.0156C30.2447 18.0721 30.2165 18.1287 30.1787 18.1853L30.0656 18.3266C29.8865 18.4964 29.6414 18.6001 29.3962 18.6001ZM37.8819 18.6001H33.1676C32.9176 18.6001 32.6778 18.5008 32.501 18.3239C32.3241 18.1471 32.2248 17.9073 32.2248 17.6573C32.2248 17.4072 32.3241 17.1674 32.501 16.9906C32.6778 16.8137 32.9176 16.7144 33.1676 16.7144H37.8819C38.1319 16.7144 38.3718 16.8137 38.5486 16.9906C38.7255 17.1674 38.8248 17.4072 38.8248 17.6573C38.8248 17.9073 38.7255 18.1471 38.5486 18.3239C38.3718 18.5008 38.1319 18.6001 37.8819 18.6001ZM29.3962 14.8287C29.2736 14.8287 29.1511 14.8004 29.038 14.7533C28.9154 14.7061 28.821 14.6401 28.7268 14.5552L28.6137 14.4138C28.5779 14.3613 28.5493 14.3042 28.5288 14.2442C28.5015 14.1907 28.4824 14.1335 28.4723 14.0744C28.4628 14.0084 28.4533 13.9425 28.4533 13.8858C28.4533 13.8293 28.4628 13.7632 28.4723 13.6973C28.4816 13.6407 28.5005 13.5841 28.5288 13.5276C28.5477 13.471 28.576 13.4144 28.6137 13.3578L28.7268 13.2164C28.821 13.1316 28.9154 13.0655 29.038 13.0184C29.2643 12.9147 29.5281 12.9147 29.7544 13.0184C29.877 13.0655 29.9714 13.1316 30.0656 13.2164L30.1787 13.3578C30.2165 13.4144 30.2447 13.471 30.2636 13.5276C30.2919 13.5841 30.3108 13.6407 30.3201 13.6973C30.3296 13.7632 30.3391 13.8293 30.3391 13.8858C30.3391 13.9425 30.3296 14.0084 30.3201 14.0744C30.3108 14.131 30.2919 14.1875 30.2636 14.2442C30.2447 14.3007 30.2165 14.3573 30.1787 14.4138L30.0656 14.5552C29.9714 14.6401 29.877 14.7061 29.7544 14.7533C29.6413 14.8004 29.5188 14.8287 29.3962 14.8287ZM37.8819 14.8287H33.1676C32.9176 14.8287 32.6778 14.7294 32.501 14.5525C32.3241 14.3757 32.2248 14.1358 32.2248 13.8858C32.2248 13.6358 32.3241 13.396 32.501 13.2191C32.6778 13.0423 32.9176 12.943 33.1676 12.943H37.8819C38.1319 12.943 38.3718 13.0423 38.5486 13.2191C38.7255 13.396 38.8248 13.6358 38.8248 13.8858C38.8248 14.1358 38.7255 14.3757 38.5486 14.5525C38.3718 14.7294 38.1319 14.8287 37.8819 14.8287ZM29.3962 11.0573C29.3396 11.0573 29.2736 11.0478 29.2171 11.0384C29.1546 11.0296 29.0941 11.0105 29.038 10.9818C28.98 10.9631 28.9257 10.9344 28.8777 10.897C28.821 10.8593 28.774 10.8215 28.7268 10.7838C28.6419 10.6895 28.576 10.5858 28.5288 10.4727C28.4816 10.3596 28.4533 10.237 28.4533 10.1144C28.4533 9.99183 28.4816 9.86927 28.5288 9.75612C28.576 9.63354 28.6419 9.53926 28.7268 9.44497C28.774 9.40726 28.821 9.36954 28.8777 9.33183C28.9248 9.29412 28.9813 9.26584 29.038 9.24698C29.0945 9.21869 29.151 9.19983 29.2171 9.19041C29.3302 9.16212 29.4622 9.16212 29.5848 9.19041C29.6414 9.19983 29.6979 9.21869 29.7544 9.24698C29.8111 9.26584 29.8676 9.29412 29.9242 9.33183L30.0656 9.44497C30.1505 9.53926 30.2165 9.63354 30.2636 9.75612C30.3108 9.86927 30.3391 9.99183 30.3391 10.1144C30.3391 10.237 30.3108 10.3596 30.2636 10.4727C30.2165 10.5858 30.1505 10.6895 30.0656 10.7838L29.9242 10.897C29.8676 10.9347 29.8111 10.963 29.7544 10.9818C29.6979 11.0101 29.6414 11.029 29.5848 11.0384C29.5188 11.0478 29.4622 11.0573 29.3962 11.0573ZM37.8819 11.0573H33.1676C32.9176 11.0573 32.6778 10.9579 32.501 10.7811C32.3241 10.6043 32.2248 10.3645 32.2248 10.1144C32.2248 9.86434 32.3241 9.62453 32.501 9.4477C32.6778 9.27088 32.9176 9.17155 33.1676 9.17155H37.8819C38.1319 9.17155 38.3718 9.27088 38.5486 9.4477C38.7255 9.62453 38.8248 9.86434 38.8248 10.1144C38.8248 10.3645 38.7255 10.6043 38.5486 10.7811C38.3718 10.9579 38.1319 11.0573 37.8819 11.0573ZM20.9105 16.7144C15.192 16.7144 10.5391 21.3674 10.5391 27.0858C10.5391 32.8043 15.192 37.4573 20.9105 37.4573C26.6289 37.4573 31.2819 32.8043 31.2819 27.0858C31.2819 21.3674 26.6289 16.7144 20.9105 16.7144ZM21.8533 27.0858C21.8523 27.3361 21.7527 27.576 21.5762 27.7534L17.8057 31.5239C17.7184 31.6117 17.6144 31.6815 17.5 31.7291C17.3856 31.7767 17.2629 31.8011 17.1391 31.8011C17.0152 31.8011 16.8925 31.7767 16.7781 31.7291C16.6637 31.6815 16.5598 31.6117 16.4724 31.5239C16.3848 31.4364 16.3152 31.3325 16.2679 31.2181C16.2205 31.1037 16.1961 30.9811 16.1961 30.8573C16.1961 30.7334 16.2205 30.6108 16.2679 30.4964C16.3152 30.3821 16.3848 30.2781 16.4724 30.1906L19.9676 26.6955V21.4287C19.9676 21.1787 20.0669 20.9388 20.2438 20.762C20.4206 20.5851 20.6605 20.4858 20.9105 20.4858C21.1605 20.4858 21.4004 20.5851 21.5771 20.762C21.7541 20.9388 21.8533 21.1787 21.8533 21.4287V27.0858Z" fill="url(#paint0_linear_1_894)"/>
</g>
</g>
</g>
<defs>
<linearGradient id="paint0_linear_1_894" x1="24.6819" y1="9.16919" x2="24.6819" y2="37.4573" gradientUnits="userSpaceOnUse">
<stop stop-color="#02BACE"/>
<stop offset="1" stop-color="#29ABE2"/>
</linearGradient>
<clipPath id="clip0_1_894">
<rect width="48" height="48" fill="white"/>
</clipPath>
</defs>
</svg>
