<svg width="16" height="16" viewBox="0 0 16 16" fill="none" xmlns="http://www.w3.org/2000/svg">
<path fill-rule="evenodd" clip-rule="evenodd" d="M4.66002 3.25989C6.8837 3.08525 9.11766 3.08525 11.3414 3.25989L12.8347 3.37722C13.2391 3.40875 13.6214 3.57476 13.9206 3.84878C14.2197 4.1228 14.4185 4.48908 14.4854 4.88922C14.83 6.94922 14.83 9.05122 14.4854 11.1106C14.4186 11.5106 14.2198 11.8768 13.9208 12.1508C13.6218 12.4248 13.2397 12.5909 12.8354 12.6226L11.342 12.7392C9.11811 12.9139 6.88393 12.9139 4.66002 12.7392L3.16668 12.6226C2.76222 12.591 2.37996 12.425 2.0808 12.151C1.78165 11.877 1.58283 11.5107 1.51602 11.1106C1.17174 9.05107 1.17174 6.94871 1.51602 4.88922C1.5828 4.48918 1.78152 4.12299 2.08054 3.84898C2.37956 3.57496 2.76168 3.4089 3.16602 3.37722L4.66002 3.25989ZM6.66735 9.64656V6.35322C6.6674 6.31788 6.67682 6.28318 6.69465 6.25266C6.71247 6.22214 6.73807 6.19689 6.76883 6.17948C6.79958 6.16207 6.8344 6.15312 6.86975 6.15354C6.90509 6.15396 6.93969 6.16375 6.97002 6.18189L9.71468 7.82856C9.74422 7.84634 9.76866 7.87147 9.78563 7.90149C9.80259 7.93151 9.81151 7.96541 9.81151 7.99989C9.81151 8.03437 9.80259 8.06827 9.78563 8.09829C9.76866 8.12831 9.74422 8.15343 9.71468 8.17122L6.97002 9.81789C6.93969 9.83603 6.90509 9.84581 6.86975 9.84624C6.8344 9.84666 6.79958 9.83771 6.76883 9.8203C6.73807 9.80289 6.71247 9.77764 6.69465 9.74712C6.67682 9.7166 6.6674 9.6819 6.66735 9.64656Z" fill="white"/>
</svg>
