<svg width="40" height="40" viewBox="0 0 40 40" fill="none" xmlns="http://www.w3.org/2000/svg">
<g clip-path="url(#clip0_185_577)">
<circle cx="20" cy="20" r="19.5" stroke="white" stroke-opacity="0.2"/>
<path fill-rule="evenodd" clip-rule="evenodd" d="M16.66 15.2599C18.8837 15.0852 21.1177 15.0852 23.3414 15.2599L24.8347 15.3772C25.2391 15.4088 25.6214 15.5748 25.9206 15.8488C26.2197 16.1228 26.4185 16.4891 26.4854 16.8892C26.83 18.9492 26.83 21.0512 26.4854 23.1106C26.4186 23.5106 26.2198 23.8768 25.9208 24.1508C25.6218 24.4248 25.2397 24.5909 24.8354 24.6226L23.342 24.7392C21.1181 24.9139 18.8839 24.9139 16.66 24.7392L15.1667 24.6226C14.7622 24.591 14.38 24.425 14.0808 24.151C13.7817 23.877 13.5828 23.5107 13.516 23.1106C13.1717 21.0511 13.1717 18.9487 13.516 16.8892C13.5828 16.4892 13.7815 16.123 14.0805 15.849C14.3796 15.575 14.7617 15.4089 15.166 15.3772L16.66 15.2599ZM18.6674 21.6466V18.3532C18.6674 18.3179 18.6768 18.2832 18.6946 18.2527C18.7125 18.2221 18.7381 18.1969 18.7688 18.1795C18.7996 18.1621 18.8344 18.1531 18.8697 18.1535C18.9051 18.154 18.9397 18.1637 18.97 18.1819L21.7147 19.8286C21.7442 19.8463 21.7687 19.8715 21.7856 19.9015C21.8026 19.9315 21.8115 19.9654 21.8115 19.9999C21.8115 20.0344 21.8026 20.0683 21.7856 20.0983C21.7687 20.1283 21.7442 20.1534 21.7147 20.1712L18.97 21.8179C18.9397 21.836 18.9051 21.8458 18.8697 21.8462C18.8344 21.8467 18.7996 21.8377 18.7688 21.8203C18.7381 21.8029 18.7125 21.7776 18.6946 21.7471C18.6768 21.7166 18.6674 21.6819 18.6674 21.6466Z" fill="white"/>
</g>
<defs>
<clipPath id="clip0_185_577">
<rect width="40" height="40" fill="white"/>
</clipPath>
</defs>
</svg>
